<?xml version="1.0" standalone="no"?>
<!DOCTYPE svg PUBLIC "-//W3C//DTD SVG 1.1//EN" "http://www.w3.org/Graphics/SVG/1.1/DTD/svg11.dtd" >
<svg xmlns="http://www.w3.org/2000/svg">
<metadata>
Created by FontPrep 20130207 at Thu Nov 26 10:14:40 2015
 By Kelly
Copyright (c) 2004-2009, Joshua Darden &#38; Phil's Fonts, Inc. All rights reserved. Published by Garagefonts USA 301-879-9222 www.garagefonts.com
</metadata>
<defs>
<font id="567fec1ea62e7808c5a092cb9f4bb8eb" horiz-adv-x='1024' >
  <font-face 
    font-family="FreightTextProBook-Regular"
    font-weight="400"
    font-stretch="normal"
    units-per-em="2048"
    panose-1="2 0 6 3 6 0 0 2 0 4"
    ascent="1489"
    descent="-559"
    x-height="913"
    cap-height="1280"
    bbox="-401 -547 2746 2007"
    underline-thickness="40"
    underline-position="-231"
    unicode-range="U+0020-FB04"
  />
<missing-glyph 
 />
    <glyph glyph-name="ff" unicode="ff" horiz-adv-x="1228" 
d="M1380 1310q0 -48 -25.5 -73t-66.5 -25t-78 36.5t-49 101.5l-53 4q-176 -74 -176 -377v-66h282l-14 -94h-268v-711q0 -27 57 -28l133 -8l6 -70h-485l6 70l84 8q51 4 51 31v710h-442v-692q0 -33 37 -39l162 -18l6 -70h-494l6 70l103 18q35 6 35 39v686l-172 8l12 90h149
l2 33q18 205 138 334t286 129q74 0 126.5 -35t52.5 -83t-25 -72.5t-64 -24.5q-104 0 -131 137l-51 4q-178 -74 -178 -377v-45h432l2 52q10 203 134 333.5t292 130.5q74 0 126 -34.5t52 -82.5z" />
    <glyph glyph-name="fi" unicode="fi" horiz-adv-x="1130" 
d="M784 109v708h-442v-711q0 -27 57 -28l136 -8l6 -70h-488l6 70l86 8q51 2 52 31v704l-172 8l12 90h149l2 52q10 209 136.5 336.5t324.5 127.5q78 0 142.5 -37.5t64.5 -103.5q0 -41 -26.5 -66.5t-65.5 -25.5q-101 0 -127 129l-119 23q-176 -74 -176 -369v-66h358l232 31
v-836q0 -27 57 -28l86 -8l6 -70h-438l6 70l84 8q51 2 51 31z" />
    <glyph glyph-name="fl" unicode="fl" horiz-adv-x="1134" 
d="M764 1194q-101 0 -127 129l-119 23q-176 -74 -176 -369v-66h442v285q-6 -2 -20 -2zM784 817h-442v-711q0 -27 57 -28l136 -8l6 -70h-488l6 70l86 8q51 2 52 31v704l-172 8l12 90h149l2 52q10 209 136.5 336.5t324.5 127.5q78 0 144 -38l139 38v-1321q0 -27 57 -28l86 -8
l6 -70h-438l6 70l84 8q51 2 51 31v708z" />
    <glyph glyph-name="ffi" unicode="ffi" horiz-adv-x="1718" 
d="M1520 106q0 -27 57 -28l86 -8l6 -70h-438l6 70l86 8q51 2 51 31v708h-442v-711q0 -27 57 -28l133 -8l6 -70h-485l6 70l84 8q51 4 51 31v710h-442v-692q0 -33 37 -39l162 -18l6 -70h-494l6 70l103 18q35 6 35 39v686l-172 8l12 90h149l2 33q18 205 138 334t286 129
q74 0 126.5 -35t52.5 -83t-25 -72.5t-66 -24.5t-78.5 36t-50.5 101l-51 4q-178 -74 -178 -377v-45h432l2 52q10 207 136 335.5t325 128.5q78 0 142.5 -37.5t64.5 -103.5q0 -39 -25.5 -65.5t-64.5 -26.5q-103 0 -129 129l-117 23q-176 -74 -176 -369v-66h356l232 31v-836z
" />
    <glyph glyph-name="ffl" unicode="ffl" horiz-adv-x="1722" 
d="M1354 1194q-103 0 -129 129l-117 23q-176 -74 -176 -369v-66h442v285q-6 -2 -20 -2zM1374 817h-442v-711q0 -27 57 -28l133 -8l6 -70h-485l6 70l84 8q51 4 51 31v710h-442v-692q0 -33 37 -39l162 -18l6 -70h-494l6 70l103 18q35 6 35 39v686l-172 8l12 90h149l2 33
q18 205 138 334t286 129q74 0 126.5 -35t52.5 -83t-25 -72.5t-66 -24.5t-78.5 36t-50.5 101l-51 4q-178 -74 -178 -377v-45h432l2 52q10 207 136 335.5t325 128.5q78 0 143 -38l140 38v-1321q0 -27 57 -28l86 -8l6 -70h-438l6 70l86 8q51 2 51 31v708z" />
    <glyph glyph-name=".notdef" 
 />
    <glyph glyph-name=".null" horiz-adv-x="0" 
 />
    <glyph glyph-name="nonmarkingreturn" horiz-adv-x="681" 
 />
    <glyph glyph-name="space" unicode=" " horiz-adv-x="466" 
 />
    <glyph glyph-name="exclam" unicode="!" horiz-adv-x="575" 
d="M403 86q0 -47 -31.5 -82t-81.5 -35t-85 35t-35 81t35 80t85 34t81.5 -33t31.5 -80zM274 1309h31q51 0 68.5 -19.5t13.5 -56.5l-78 -827q-2 -12 -20.5 -12.5t-20.5 12.5l-75 827q-4 37 13 56.5t68 19.5z" />
    <glyph glyph-name="quotedbl" unicode="&#x22;" horiz-adv-x="727" 
d="M403 1272l-301 -447h-67l215 500h2zM723 1272l-299 -447h-68l215 500h2z" />
    <glyph glyph-name="numbersign" unicode="#" horiz-adv-x="1148" 
d="M713 442l104 389h-356l-107 -389h359zM1176 831h-285l-105 -389h267v-71h-285l-104 -383h-74l104 383h-360l-103 -383h-73l102 383h-264v71h285l104 389h-264v72h282l107 389h74l-105 -389h357l106 389h74l-107 -389h267v-72z" />
    <glyph glyph-name="dollar" unicode="$" horiz-adv-x="1019" 
d="M795 297q0 107 -68 166t-203 112q-139 -508 -139 -509q229 -39 319.5 42.5t90.5 188.5zM266 1011q0 -93 59.5 -149.5t172.5 -101.5l118 448q-63 14 -110 15q-115 0 -177.5 -59.5t-62.5 -152.5zM127 962q0 144 107.5 243.5t308.5 101.5q72 0 100 -2l55 206h76
q-57 -215 -59 -215q23 -2 55 -10l109 31v-404h-74l-62 254q-43 16 -57 21l-121 -455q92 -35 145.5 -60.5t140.5 -91.5t87 -228q0 -163 -127 -272.5t-336 -111.5q-60 0 -115 6l-84 -315h-73l86 324q-76 14 -160 45l-27 358h68l94 -281q16 -10 53 -20l140 516
q-164 66 -247 141t-83 219z" />
    <glyph glyph-name="percent" unicode="%" horiz-adv-x="1527" 
d="M1397 288q0 106 -66.5 179.5t-177.5 73.5t-177.5 -73.5t-66.5 -179.5t65.5 -178.5t178.5 -72.5t178.5 72.5t65.5 178.5zM618 990q0 106 -65.5 178.5t-178 72.5t-178 -72.5t-65.5 -178.5t66.5 -179.5t177 -73.5t177 73.5t66.5 179.5zM1493 290q0 -142 -93 -241.5
t-247 -99.5t-247 97.5t-93 241.5t93 242.5t246 98.5t247 -98.5t94 -240.5zM1339 1309l-1042 -1340h-107l1045 1340h104zM715 989q0 -143 -93.5 -241.5t-245.5 -98.5t-246.5 98.5t-94.5 240.5t93 241.5t246.5 99.5t247 -98.5t93.5 -241.5z" />
    <glyph glyph-name="ampersand" unicode="&#x26;" horiz-adv-x="1413" 
d="M489 94q174 0 326 209q-70 135 -164 212t-235 134q-211 -109 -211 -289q-2 -109 81 -187.5t203 -78.5zM705 1012q0 88 -54.5 152.5t-147.5 64.5t-151.5 -59.5t-58.5 -150.5q0 -177 229 -276q183 85 183 269zM1155 -33q-98 0 -167.5 62.5t-133.5 199.5
q-201 -260 -438 -260q-166 0 -264.5 98.5t-98.5 230.5t85 234.5t216 153.5q-90 43 -143 118t-53 171q0 137 105.5 234.5t259.5 97.5t241.5 -81.5t87.5 -185.5t-65.5 -189t-196.5 -138q96 -41 183 -119t140 -170q143 197 146 231q4 30 -45 39l-72 11l-4 67h428l-8 -67
l-66 -11q-100 -27 -155 -104q-182 -231 -183 -234q74 -147 129.5 -206.5t119.5 -59.5t177 66l31 -54q-129 -135 -256 -135z" />
    <glyph glyph-name="quotesingle" unicode="'" horiz-adv-x="405" 
d="M403 1272l-301 -447h-67l215 500h2z" />
    <glyph glyph-name="parenleft" unicode="(" horiz-adv-x="808" 
d="M190 428q0 176 53.5 340t180 339t309.5 265q49 -66 49 -69q-182 -96 -335.5 -335t-153.5 -540q0 -158 47 -306.5t161 -313t281 -252.5l-49 -72q-183 90 -309.5 265t-180 339t-53.5 340z" />
    <glyph glyph-name="parenright" unicode=")" horiz-adv-x="808" 
d="M516 428q0 301 -153.5 539.5t-335.5 335.5l51 69q180 -88 307 -264t180 -340t53 -340t-53 -340t-180 -340t-307 -264q-51 66 -51 70q182 96 335.5 334.5t153.5 539.5z" />
    <glyph glyph-name="asterisk" unicode="*" horiz-adv-x="710" 
d="M700 948l-112 -55l-182 63l-21 -26l115 -152l-17 -127l-43 -10l-86 94l4 189l-30 8l-107 -150l-125 -26l-28 37l65 116l176 49v35l-176 54l-67 110l24 37l131 -25l107 -155l32 10v190l82 93l45 -15l17 -127l-119 -151l21 -27l182 62l112 -56v-45z" />
    <glyph glyph-name="plus" unicode="+" horiz-adv-x="983" 
d="M545 430v-381h-105v381h-374l6 100h368v379h105v-379h366l7 -100h-373z" />
    <glyph glyph-name="comma" unicode="," horiz-adv-x="462" 
d="M397 43q0 -190 -284 -397l-45 32q172 127 172 271q0 67 -52 105t-76 48t-24 13q0 49 35 82t99 33t120 -55q55 -54 55 -132z" />
    <glyph glyph-name="hyphen" unicode="-" horiz-adv-x="671" 
d="M606 428h-536l6 104h524z" />
    <glyph glyph-name="period" unicode="." horiz-adv-x="466" 
d="M360 96q0 -51 -36 -89t-89 -38q-54 0 -92 38q-37 38 -37 89t37 87t91 36t90 -36t36 -87z" />
    <glyph glyph-name="slash" unicode="/" horiz-adv-x="571" 
d="M18 -432l439 1790h92l-438 -1790h-93z" />
    <glyph glyph-name="zero" unicode="0" horiz-adv-x="1146" 
d="M948 478q0 175 -105.5 287t-272.5 112t-270 -109t-103 -285t105.5 -288.5t271.5 -112.5t270 110.5t104 285.5zM1065 483.5q0 -227.5 -138.5 -371t-355.5 -143.5t-354 141.5t-137 367.5t139 368.5t356.5 142.5t353.5 -139t136 -366.5z" />
    <glyph glyph-name="one" unicode="1" horiz-adv-x="749" 
d="M461 127q0 -31 37 -37l149 -20l6 -70h-522l6 70l146 20q35 12 34 37v725l-231 12l6 60l369 59v-856z" />
    <glyph glyph-name="two" unicode="2" horiz-adv-x="954" 
d="M371 858q-141 0 -240 -141l-39 24q47 117 142.5 182.5t219.5 65.5t213 -76.5t89 -186.5t-50.5 -174.5t-78 -95t-113.5 -98t-188 -139.5q-103 -72 -119 -84v-10h117q289 0 355 16.5t84.5 36t35.5 60.5l37 92h63l-25 -330h-798l-8 106q295 227 376 308q141 141 144 248
q0 82 -59.5 139t-157.5 57z" />
    <glyph glyph-name="three" unicode="3" horiz-adv-x="856" 
d="M793 57q0 -182 -160 -325.5t-371 -143.5q-109 0 -173 42t-64 92t27.5 77t74.5 27t88 -45t51 -103q29 -6 58 -6q119 0 213 88t94 218t-73.5 204t-181.5 74t-188 -37l-22 53q101 61 182.5 120t103 81.5t56.5 66t35 121.5t-59.5 139.5t-153.5 61.5q-139 0 -244 -143l-41 22
v2q45 115 148.5 180.5t229.5 65.5t209 -74.5t83 -182.5t-67 -191.5t-210 -167.5v-4q156 -2 255.5 -86t99.5 -226z" />
    <glyph glyph-name="four" unicode="4" horiz-adv-x="952" 
d="M590 170v590h-6l-443 -590h449zM735 47v-424h-145v424h-570l-6 72l652 862h69v-811h230l-15 -123h-215z" />
    <glyph glyph-name="five" unicode="5" horiz-adv-x="858" 
d="M762 49q0 -184 -150.5 -322.5t-353.5 -138.5q-102 0 -168.5 39t-66.5 89t28.5 77t75.5 27t86 -42t49 -102q20 -4 57 -4q125 0 215.5 92.5t90.5 221.5q0 274 -521 415l144 562h540l-4 -154h-489l-72 -287q539 -150 539 -473z" />
    <glyph glyph-name="six" unicode="6" 
d="M791 358q0 138 -82 233t-211 95t-238 -100q-18 -27 -18 -127q0 -168 84 -293t208 -125t190.5 89.5t66.5 227.5zM942 386q0 -180 -126 -301.5t-318 -121.5t-306 147.5t-114 354.5q0 336 259 589t615 281l15 -59q-276 -39 -454.5 -206t-246.5 -406l4 -2q137 126 304 126
t267.5 -111t100.5 -291z" />
    <glyph glyph-name="seven" unicode="7" horiz-adv-x="946" 
d="M782 819h-360q-160 0 -197 -9t-53 -50q-49 -115 -51 -123h-66l41 326h803l10 -89l-635 -1253h-106l614 1188v10z" />
    <glyph glyph-name="eight" unicode="8" horiz-adv-x="997" 
d="M517 35q124 0 193.5 66.5t69.5 160.5t-32.5 131t-43 50.5t-40 34t-42 29.5t-50 28.5t-49 25.5t-55.5 26.5t-52 24.5q-184 -133 -185 -301q0 -119 81 -197.5t205 -78.5zM725 977q0 104 -70.5 186t-174.5 82t-167 -65.5t-63 -169.5t92.5 -172.5t230.5 -135.5
q152 105 152 275zM915 312q0 -140 -118.5 -241.5t-300.5 -101.5t-298 95.5t-116 223.5q0 235 283 349v2q-252 127 -252 324q0 133 107.5 238.5t273.5 105.5t271 -91.5t105 -226.5q0 -201 -241 -311v-2q137 -68 211.5 -146t74.5 -218z" />
    <glyph glyph-name="nine" unicode="9" 
d="M780 502q0 166 -84 291t-207 125t-189.5 -90t-66.5 -228t81 -233t209 -95t239 103q18 27 18 127zM944 488q0 -215 -121 -410t-321.5 -314.5t-431.5 -138.5l-15 60q276 39 454.5 205.5t248.5 406.5l-6 2q-131 -127 -300 -127t-270.5 111t-101.5 291t126 300.5t318 120.5
t306 -146t114 -361z" />
    <glyph glyph-name="colon" unicode=":" horiz-adv-x="462" 
d="M360 96q0 -51 -35.5 -89t-89.5 -38t-91.5 38t-37.5 89t37 87t91 36t90 -36t36 -87zM360 731q0 -51 -35.5 -88t-89.5 -37t-91.5 37t-37.5 88t37 87t91 36t90 -36t36 -87z" />
    <glyph glyph-name="semicolon" unicode=";" horiz-adv-x="462" 
d="M397 43q0 -190 -284 -397l-45 32q172 127 172 271q0 67 -52 105t-76 48t-24 13q0 49 35 82t99 33t120 -55q55 -54 55 -132zM360 731q0 -51 -36 -88t-89 -37q-54 0 -92 37q-37 37 -37 88t37 87t91 36t90 -36t36 -87z" />
    <glyph glyph-name="less" unicode="&#x3c;" horiz-adv-x="983" 
d="M879 72l-820 385v49l820 385l24 -92l-667 -312v-10l667 -313z" />
    <glyph glyph-name="equal" unicode="=" horiz-adv-x="983" 
d="M897 250h-811l6 100h799zM891 606h-799l-6 101h811z" />
    <glyph glyph-name="greater" unicode="&#x3e;" horiz-adv-x="983" 
d="M924 457l-820 -385l-24 92l668 313v10l-668 312l24 92l820 -385v-49z" />
    <glyph glyph-name="question" unicode="?" horiz-adv-x="731" 
d="M426 85q0 -46 -33 -81t-83 -35t-83.5 35t-33.5 81t33.5 80t83.5 34t83 -34t33 -80zM649 979q0 -123 -52 -174t-132 -83q-103 -42 -154 -73t-51 -104q0 -72 107 -168h-62q-141 113 -141 219t56 155.5t146 86.5t118 50t56.5 40.5t28.5 60.5q0 70 -88 117t-227 47
q-35 0 -127 -12q-18 27 -18 67t42 70.5t109 30.5q162 0 275.5 -103.5t113.5 -226.5z" />
    <glyph glyph-name="at" unicode="@" horiz-adv-x="1708" 
d="M870 866q-58 0 -92 -32q-57 -55 -113.5 -223.5t-56.5 -255.5t36 -120.5t77 -33.5t132 130t189 306q25 45 25 82q-25 49 -82 98t-115 49zM469 305q0 123 72.5 293t166.5 263t199 93q72 0 126 -45t79 -116h23l51 137h96l-117 -334l-45 -365q-6 -37 21.5 -60.5t89.5 -23.5
q143 0 239.5 128t106.5 319q14 272 -176.5 452.5t-478.5 187.5t-502.5 -199.5t-227.5 -506.5t178 -506t480 -206q119 0 252 41l20 -68q-141 -47 -278 -47q-322 0 -536 226.5t-197 568.5q8 213 120.5 392t298 280.5t398.5 97.5q319 -8 532 -209t199 -504
q-10 -225 -141.5 -371.5t-311.5 -146.5q-133 0 -177 51t-28 106l72 314h-26q-227 -440 -371 -441q-82 0 -144.5 63.5t-62.5 135.5z" />
    <glyph glyph-name="A" unicode="A" horiz-adv-x="1222" 
d="M764 547l-182 575h-11l-194 -575h387zM1255 0h-526l6 70l117 14q27 6 39 24t-25 130l-75 225h-443l-74 -223q-31 -82 -29.5 -115t36.5 -41l102 -14l6 -70h-422l6 70l82 14q47 10 77 59.5t95 233.5l285 803v65l170 72l395 -1188q10 -33 51 -39l121 -20z" />
    <glyph glyph-name="B" unicode="B" horiz-adv-x="1181" 
d="M877 946q0 260 -328 260h-129v-512l162 2q143 2 219 77t76 173zM926 344q0 129 -103.5 201.5t-275.5 72.5h-127v-516l160 -28l59 2q123 6 205 72.5t82 195.5zM1104 348q0 -168 -132 -258t-372 -90h-514l6 70l107 12q53 6 53 29v1060q0 12 -10.5 17.5t-42.5 9.5l-107 12
l-6 70h522q236 0 342.5 -79t106.5 -203t-86 -215t-226 -115v-9q178 -18 268.5 -104t90.5 -207z" />
    <glyph glyph-name="C" unicode="C" horiz-adv-x="1359" 
d="M793 -31q-303 0 -501 176.5t-198 481.5t201 493.5t506 188.5q160 0 284 -39l156 33v-416h-86l-53 266q-133 76 -314 76q-225 0 -366 -164t-141 -426t141 -427t389 -165q147 0 264 62l86 276h90l-49 -387l-94 20q-152 -49 -315 -49z" />
    <glyph glyph-name="D" unicode="D" horiz-adv-x="1390" 
d="M1114 636q0 252 -159.5 411t-456.5 159h-78v-1104l164 -26q248 4 389 156t141 404zM539 0h-453l6 70l107 12q53 6 53 29v1060q0 12 -10.5 17.5t-42.5 9.5l-107 12l-6 70l455 6q344 2 550.5 -172t206.5 -449t-140 -417t-287.5 -195t-331.5 -53z" />
    <glyph glyph-name="E" unicode="E" horiz-adv-x="1193" 
d="M252 111v1060q0 12 -10.5 17.5t-42.5 9.5l-107 12l-6 70h983v-371h-88l-45 207q-12 43 -40 59.5t-108.5 22.5t-289.5 6h-78v-514h78q131 0 164.5 6t42.5 33l45 137h71l-43 -426h-67l-17 131q-2 18 -18 31.5t-182 13.5h-74v-540h55q381 0 424 22.5t57 65.5l52 198h100
l-39 -362h-983l6 70l107 12q53 6 53 29z" />
    <glyph glyph-name="F" unicode="F" horiz-adv-x="1140" 
d="M1055 909h-90l-43 207q-13 51 -31.5 57.5t-30.5 12.5t-38.5 8t-62.5 6t-66 4h-273v-526h94q131 0 164 6t43 33l47 137h70l-43 -426h-68l-14 131q-4 27 -38 36t-165 9h-90v-495q0 -20 53 -27l148 -12l6 -70h-541l6 70l107 12q53 6 53 29v1060q0 12 -10.5 17.5t-42.5 9.5
l-107 12l-6 70h969v-371z" />
    <glyph glyph-name="G" unicode="G" horiz-adv-x="1449" 
d="M1231 453v-320l119 -10l4 -53q-292 -100 -578 -100t-484 176t-198 481t207 493.5t512 188.5q162 0 283 -39l155 33v-416h-86l-53 266q-129 76 -315 76q-221 0 -368.5 -165t-147.5 -426t139 -426t383 -165q139 0 262 51v359q0 23 -53 26l-129 13l-6 67h520l-6 -67
l-107 -13q-53 -8 -53 -30z" />
    <glyph glyph-name="H" unicode="H" horiz-adv-x="1501" 
d="M1081 111v503h-661v-505q0 -20 53 -27l107 -12l6 -70h-500l6 70l107 12q53 6 53 29v1060q0 12 -10.5 17.5t-42.5 9.5l-107 12l-6 70h500l-6 -70l-107 -12q-53 -6 -53 -29v-471h661v473q0 23 -53 27l-106 12l-7 70h500l-6 -70l-106 -12q-53 -6 -54 -29v-1060
q0 -12 10.5 -17.5t43.5 -9.5l106 -12l6 -70h-500l7 70l106 12q53 6 53 29z" />
    <glyph glyph-name="I" unicode="I" horiz-adv-x="718" 
d="M276 111v1060q0 12 -10 17.5t-43 9.5l-127 12l-6 70h541l-6 -70l-127 -12q-53 -6 -54 -29v-1060q0 -20 54 -27l127 -12l6 -70h-541l6 70l127 12q53 6 53 29z" />
    <glyph glyph-name="J" unicode="J" horiz-adv-x="796" 
d="M96 184q110 0 150 -145h2q84 23 118.5 112t34.5 322v698q0 23 -53 27l-141 12l-6 70h549l-7 -70l-118 -12q-53 -6 -54 -29v-665q0 -256 -97 -395.5t-275 -139.5q-88 0 -142.5 36t-54.5 84t25.5 71.5t68.5 23.5z" />
    <glyph glyph-name="K" unicode="K" horiz-adv-x="1296" 
d="M420 109q0 -20 53 -27l107 -12l6 -70h-500l6 70l107 12q53 6 53 29v1060q0 12 -10.5 17.5t-42.5 9.5l-107 12l-6 70h500l-6 -70l-107 -12q-53 -6 -53 -29v-561l440 443q143 137 43 147l-104 12l-6 70h489l-6 -70l-86 -10q-63 -10 -154 -100l-364 -363l440 -590
q27 -39 44.5 -51t49.5 -16l74 -10l6 -70h-452l6 70l80 12q27 6 0 45l-361 508l-139 -137v-389z" />
    <glyph glyph-name="L" unicode="L" horiz-adv-x="1157" 
d="M252 111v1060q0 12 -10.5 17.5t-42.5 9.5l-107 12l-6 70h518l-6 -70l-125 -12q-53 -6 -53 -29v-1093h51q361 0 401.5 23.5t53.5 64.5l61 244h94l-45 -408h-950l6 70l107 12q53 6 53 29z" />
    <glyph glyph-name="M" unicode="M" horiz-adv-x="1728" 
d="M1673 0h-522l6 70l133 10q23 4 30 64.5t1 226.5l-29 794h-14l-412 -1124h-86l-399 1083h-21l-34 -747q-10 -199 -7 -245t25 -48l135 -14l6 -70h-456l8 70l137 14q18 2 33.5 29t28.5 264l34 674q6 121 -59 137l-145 22l-7 70h439l362 -987h10l355 987h428l-4 -70l-152 -10
q-33 -2 -37 -49l29 -780q4 -215 19.5 -252t29.5 -39l129 -10z" />
    <glyph glyph-name="N" unicode="N" horiz-adv-x="1507" 
d="M1264 903v-919h-99l-805 1126h-8v-733q0 -199 9.5 -236t20.5 -44t36 -11l123 -16l6 -70h-471l6 70l123 16q25 4 36 11t20 44t9 236v676q0 63 -14 93t-49 46l-117 18l-6 70h354l738 -1032h6v655q0 199 -9.5 241t-56.5 50l-123 16l-6 70h473l-6 -70l-123 -16
q-25 -4 -36 -11t-21 -48.5t-10 -231.5z" />
    <glyph glyph-name="O" unicode="O" horiz-adv-x="1513" 
d="M1233 628q0 271 -141.5 438t-340 167t-334.5 -157.5t-136 -429.5t140 -438.5t338.5 -166.5t336 158t137.5 429zM1419 652q0 -286 -191.5 -484.5t-475.5 -198.5t-471 183.5t-187 469.5t191.5 485.5t475.5 199.5t471 -184.5t187 -470.5z" />
    <glyph glyph-name="P" unicode="P" horiz-adv-x="1146" 
d="M907 898q0 142 -89 225t-243 81l-155 -2v-592q86 -20 166 -20q147 0 234 83t87 225zM1087 930q0 -193 -140 -302.5t-353 -109.5q-82 0 -174 10v-419q0 -20 53 -27l145 -12l7 -70h-539l6 70l107 12q53 6 53 29v1060q0 23 -53 27l-107 12l-6 70h496q246 0 375.5 -98
t129.5 -252z" />
    <glyph glyph-name="Q" unicode="Q" horiz-adv-x="1513" 
d="M1233 628q0 271 -141.5 438t-340 167t-334.5 -157.5t-136 -429.5t140 -438.5t338.5 -166.5t336 158t137.5 429zM1238 -369q-171 0 -291 77t-214 261q-276 4 -457.5 187.5t-181.5 467.5t191.5 483.5t475.5 199.5t471 -184.5t187 -477.5q0 -231 -137 -413.5t-354 -239.5
q100 -176 237.5 -229.5t352.5 -28.5l6 -66q-115 -37 -286 -37z" />
    <glyph glyph-name="R" unicode="R" horiz-adv-x="1210" 
d="M879 930q0 289 -322 270l-137 -4v-545l174 -14q133 14 209 88t76 205zM420 565v-456q0 -20 53 -27l117 -12l6 -70h-510l6 70l107 12q53 6 53 29v1060q0 12 -10.5 17.5t-42.5 9.5l-107 12l-6 70h524q225 0 338 -85t113 -228q0 -265 -303 -367l278 -430q53 -76 99 -86
l84 -14l6 -70h-301l-78 141l-250 426h-6l-44 -1z" />
    <glyph glyph-name="S" unicode="S" horiz-adv-x="1032" 
d="M948 345q0 -155 -129 -264.5t-323 -111.5t-375 56l-31 362h82l86 -283q121 -55 253 -54t209 71.5t77 178.5t-75 167t-205 109t-184 77t-135 90t-81 213t109.5 250.5t312.5 102.5q123 2 239 -23l107 31v-404h-82l-58 263q-113 51 -233 51t-184 -62.5t-64 -136.5t20.5 -118
t85.5 -86.5t230 -104.5q166 -62 257 -140.5t91 -233.5z" />
    <glyph glyph-name="T" unicode="T" horiz-adv-x="1253" 
d="M1182 887h-88l-45 215q-10 43 -40.5 72.5t-283.5 29.5h-14v-1095q0 -20 53 -27l139 -12l6 -70h-565l6 70l139 12q53 6 54 29v1093h-15q-250 0 -283.5 -23.5t-45.5 -64.5l-56 -229h-92l35 393h1096v-393z" />
    <glyph glyph-name="U" unicode="U" horiz-adv-x="1456" 
d="M1210 903v-479q0 -211 -131 -333t-360 -122t-356 116t-127 355v731q0 23 -54 27l-106 12l-6 70h499l-6 -70l-106 -12q-53 -6 -54 -29v-708q0 -387 375 -387q168 0 259 97t91 263v469q0 199 -9 236t-20.5 44t-35.5 11l-123 16l-6 70h471l-6 -70l-121 -16
q-45 -6 -56.5 -49.5t-11.5 -241.5z" />
    <glyph glyph-name="V" unicode="V" horiz-adv-x="1257" 
d="M332 1163q0 -18 33 -121l301 -899h18l256 760q76 220 51.5 256.5t-63.5 40.5l-78 10l-6 70h446l-6 -70l-80 -14q-51 -10 -78.5 -57t-95.5 -236l-315 -907h-168l-404 1155q-10 33 -49 39l-123 20l-6 70h527l-7 -70l-116 -14q-37 -6 -37 -33z" />
    <glyph glyph-name="W" unicode="W" horiz-adv-x="1880" 
d="M1905 1280l-7 -70l-73 -14q-37 -12 -63 -38t-99 -255l-287 -907h-119l-296 885h-5l-309 -885h-121l-381 1155q-10 33 -49 39l-121 20l-6 70h527l-7 -70l-116 -14q-20 -4 -35.5 -15t31.5 -139l256 -831h8l278 790l-49 150q-10 33 -51 39l-117 20l-6 70h520l-6 -70
l-121 -14q-33 -6 -33.5 -37t29.5 -117l271 -833l6 2l207 692q72 229 55 256t-55 35l-107 16l-6 70h457z" />
    <glyph glyph-name="X" unicode="X" horiz-adv-x="1265" 
d="M1272 0h-510l6 70l102 12q49 6 31 49q-10 27 -65 109l-228 342h-8l-256 -387q-72 -98 6 -111l90 -14l9 -70h-447l6 70l92 14q35 8 60.5 30.5t64.5 75.5l326 453l-356 508q-23 35 -58 39l-106 20l-8 70h509l-6 -70l-100 -12q-49 -8 -38 -41t67 -117l198 -295h9l225 342
q68 98 -4 111l-95 12l-6 70h443l-6 -70l-91 -14q-66 -16 -127 -106l-290 -408l391 -553q20 -31 57 -39l107 -20z" />
    <glyph glyph-name="Y" unicode="Y" horiz-adv-x="1228" 
d="M709 109q0 -23 53 -27l139 -12l6 -70h-567l6 70l141 12q53 6 54 29v426l-381 602q-35 47 -84 57l-84 14l-6 70h499l-6 -70l-102 -12q-57 -8 -6 -104q12 -23 30 -54l246 -407h10l267 454q59 98 -17 113l-78 10l-6 70h414l-6 -70l-62 -10q-45 -14 -74.5 -35.5t-64.5 -74.5
l-321 -533v-448z" />
    <glyph glyph-name="Z" unicode="Z" horiz-adv-x="1136" 
d="M68 0v70l806 1126v8h-231q-322 -4 -359.5 -33.5t-54.5 -83.5l-41 -186h-82v379h967v-72l-805 -1126l-2 -8l234 2q352 0 393 28.5t57 75.5l51 203h95l-43 -383h-985z" />
    <glyph glyph-name="bracketleft" unicode="[" horiz-adv-x="753" 
d="M711 -451h-516v1784h516v-86h-416v-1612h416v-86z" />
    <glyph glyph-name="backslash" unicode="\" horiz-adv-x="571" 
d="M551 -432h-92l-439 1790h93z" />
    <glyph glyph-name="bracketright" unicode="]" horiz-adv-x="753" 
d="M43 -451v86h416v1612h-416v86h516v-1784h-516z" />
    <glyph glyph-name="asciicircum" unicode="^" horiz-adv-x="819" 
d="M676 1040h-55l-209 252h-4l-209 -252h-56l228 398h78z" />
    <glyph glyph-name="underscore" unicode="_" horiz-adv-x="962" 
d="M979 -106h-995l6 104h983z" />
    <glyph glyph-name="grave" unicode="`" horiz-adv-x="819" 
d="M510 1040h-45l-338 377h186z" />
    <glyph glyph-name="a" unicode="a" horiz-adv-x="913" 
d="M225 248q0 -78 45 -121t120 -43t192 106l12 308q-201 -53 -285 -112.5t-84 -137.5zM721 -31q-59 0 -95 38t-36 114h-8q-142 -152 -250 -152t-182 67.5t-74 182.5t120.5 195t401.5 149v19q2 156 -50 216t-159 60q-55 0 -108.5 -18.5t-53.5 -34.5l21 -31q20 -32 20 -66
t-28.5 -62t-71.5 -28t-70.5 26t-27.5 65q0 74 128 155.5t251 81.5q172 0 237.5 -86t56.5 -313l-16 -391q-4 -72 45 -72q33 0 105 57l34 -45q-104 -127 -190 -127z" />
    <glyph glyph-name="b" unicode="b" horiz-adv-x="1050" 
d="M821 431q0 171 -75.5 275.5t-205.5 104.5t-237 -123v-526q121 -113 239 -113t198.5 105.5t80.5 276.5zM979 476q0 -204 -131 -355.5t-344 -151.5q-117 0 -228 47h-4l-92 -59h-22v1262q0 33 -21 38l-153 46l6 51l313 73v-639h8q135 146 299 146t266.5 -127t102.5 -331z
" />
    <glyph glyph-name="c" unicode="c" horiz-adv-x="905" 
d="M840 765q0 -116 -112 -116q-50 0 -80 53.5t-7 126.5v5q-51 37 -129 36q-123 0 -205 -102t-82 -270t91.5 -283t239.5 -115t253 125l41 -24q-55 -109 -151.5 -169.5t-217.5 -60.5q-178 0 -294.5 130t-116.5 340t140 356.5t337 146.5q133 0 213 -57.5t80 -121.5z" />
    <glyph glyph-name="d" unicode="d" horiz-adv-x="1077" 
d="M508 856q-121 0 -200 -103.5t-79 -274.5t79.5 -277.5t207.5 -106.5t232 94v549q-119 119 -240 119zM748 106h-7q-123 -135 -287 -135t-274 130t-110 337t137 353.5t352 146.5q84 0 184 -37h5v359q0 31 -19 36l-160 37l9 49l315 45v-1300q0 -33 20 -39l146 -33l-6 -49
l-305 -37v137z" />
    <glyph glyph-name="e" unicode="e" horiz-adv-x="935" 
d="M504 872q-90 0 -167 -71.5t-101 -192.5h74h84l296 2q8 119 -44 190.5t-142 71.5zM481 -29q-178 0 -294.5 130t-116.5 340t137 356.5t332 146.5q143 0 229 -82t86 -215q0 -61 -10 -108l-617 8q-2 -8 -2 -49q0 -174 91.5 -286t239.5 -112t253 125l41 -24
q-55 -109 -151.5 -169.5t-217.5 -60.5z" />
    <glyph glyph-name="f" unicode="f" horiz-adv-x="638" 
d="M791 1310q0 -48 -25 -73t-64 -25q-96 0 -129 127l-2 11l-51 4q-178 -74 -178 -377v-66h285l-15 -94h-270v-711q0 -27 57 -28l136 -8l6 -70h-488l6 70l86 8q51 2 52 31v704l-172 8l12 90h149l2 52q8 203 132 333.5t292 130.5q74 0 126.5 -34.5t52.5 -82.5z" />
    <glyph glyph-name="g" unicode="g" horiz-adv-x="940" 
d="M639 613q0 146 -74 214q-55 51 -138 51t-140.5 -68.5t-57.5 -174.5q0 -152 88 -234q53 -43 127 -43t121 45q74 64 74 210zM160 -227q0 -100 84 -157.5t213 -57.5t212 64.5t83 158.5q0 174 -222 182h-16l-221 -4q-45 -18 -89 -68.5t-44 -117.5zM889 -154
q0 -160 -143.5 -262t-362.5 -102q-164 0 -263.5 67.5t-99.5 176.5q0 160 193 241v8q-55 10 -93 53.5t-38 97.5t47 107.5t119 85.5q0 2 2 5v2q-80 37 -127 109.5t-47 172.5q0 141 103.5 238.5t241.5 97.5t247 -51l278 -2v-119l-219 39v-10q63 -78 63 -198t-105 -215t-255 -95
q-74 0 -113 12q-96 -47 -96 -106q0 -41 36 -68t93 -27l238 5q135 0 218 -75t83 -188z" />
    <glyph glyph-name="h" unicode="h" horiz-adv-x="1081" 
d="M762 109v446q0 145 -49 204.5t-158 59.5t-233 -102v-611q0 -27 55 -28l94 -8l6 -70h-442l6 70l82 8q51 2 51 31v1105q0 37 -22 43l-144 46l6 51l308 73v-630h10q174 147 327 147q106 0 177 -70t71 -223v-542q0 -27 62 -31l80 -8l6 -70h-434l6 70l84 8q51 2 51 31z" />
    <glyph glyph-name="i" unicode="i" horiz-adv-x="544" 
d="M201 109v575q0 72 -12.5 93.5t-57.5 31.5l-82 12l4 56l293 67v-838q0 -27 57 -28l86 -8l7 -70h-439l6 70l87 8q51 2 51 31zM356 1244q0 -48 -27.5 -82t-76.5 -34t-77 34t-28 81t28 81t77 34t76.5 -33t27.5 -81z" />
    <glyph glyph-name="j" unicode="j" horiz-adv-x="516" 
d="M16 -535q-63 0 -105 32t-42 81t29.5 77t68.5 28q96 0 129 -121q98 29 99 274v848q0 72 -12.5 93.5t-57.5 31.5l-82 12l4 56l293 67v-1012q-10 -209 -106.5 -338t-217.5 -129zM350 1244q0 -48 -27.5 -82t-76.5 -34t-77 34t-28 81t28 81t77 34t76.5 -33t27.5 -81z" />
    <glyph glyph-name="k" unicode="k" horiz-adv-x="993" 
d="M322 106q0 -25 55 -28l80 -8l6 -70h-428l6 70l82 8q51 6 51 31v1105q0 37 -22 43l-144 46l6 51l308 73v-964l217 203q115 104 114 135q0 29 -57 39l-66 6l-6 67h426l-6 -67l-51 -8q-41 -6 -82 -35t-127 -107l-166 -151l293 -400q49 -66 80 -67l80 -8l6 -70h-264l-107 174
l-192 277l-92 -84v-261z" />
    <glyph glyph-name="l" unicode="l" horiz-adv-x="546" 
d="M199 1214q0 37 -23 43l-149 46l6 51l311 73v-1321q0 -27 57 -28l86 -8l7 -70h-439l6 70l86 8q51 2 52 31v1105z" />
    <glyph glyph-name="m" unicode="m" horiz-adv-x="1654" 
d="M1325 109v452q0 258 -188 258q-113 0 -230 -104q2 -14 2 -121v-485q0 -27 60 -31l86 -8l6 -70h-436l6 70l80 8q51 2 51 31v452q0 258 -189 258q-109 0 -227 -100v-613q0 -27 55 -28l99 -8l6 -70h-447l7 70l81 8q51 2 52 31v575q0 72 -12.5 93.5t-55.5 31.5l-82 12l2 56
l295 67v-147h6q172 147 314 147q100 0 165 -61q41 -41 60 -101h8q176 162 326 162q106 0 177 -70t71 -219v-546q0 -27 59 -31l80 -8l6 -70h-430l6 70l80 8q51 2 51 31z" />
    <glyph glyph-name="n" unicode="n" horiz-adv-x="1110" 
d="M786 109v446q0 145 -49 204.5t-157 59.5t-234 -102v-611q0 -27 55 -28l95 -8l6 -70h-443l7 70l81 8q51 2 52 31v579q0 70 -11.5 90.5t-52.5 30.5l-86 12l2 56l295 67v-147h10q174 147 328 147q106 0 177 -70t71 -223v-542q0 -27 61 -31l82 -8l6 -70h-436l6 70l84 8
q51 2 51 31z" />
    <glyph glyph-name="o" unicode="o" horiz-adv-x="1060" 
d="M831 416q0 250 -110 366q-84 84 -203 84t-202 -101t-83 -267q0 -252 113 -367q78 -82 198 -82t203.5 101.5t83.5 265.5zM991 471q0 -209 -136 -355.5t-336 -146.5t-323.5 137.5t-123.5 346.5t138 350t336 141t321.5 -132t123.5 -341z" />
    <glyph glyph-name="p" unicode="p" horiz-adv-x="1073" 
d="M844 432q0 170 -76 274.5t-206 104.5t-236 -123v-526q122 -113 238 -113t198 106.5t82 276.5zM1001 476q0 -204 -130 -355.5t-343 -151.5q-98 0 -198 37h-4v-403q0 -27 57 -29l106 -8l7 -70h-459l6 70l84 8q51 2 51 31v1083q0 70 -11 90.5t-52 30.5l-86 12l4 56l293 67
v-156h8q135 146 299 146t266 -127t102 -331z" />
    <glyph glyph-name="q" unicode="q" horiz-adv-x="1052" 
d="M508 856q-121 0 -200 -103.5t-79 -274.5t79.5 -277.5t207.5 -106.5t232 94v549q-119 119 -240 119zM748 106h-7q-123 -135 -287 -135t-274 130t-110 337t137 353.5t352 146.5q109 0 215 -49h4l92 57h23v-1341q0 -27 61 -31l82 -8l6 -70h-458l6 70l106 8q51 2 52 31v501z
" />
    <glyph glyph-name="r" unicode="r" horiz-adv-x="757" 
d="M750 842q0 -45 -26 -75t-80 -30t-89 66q-51 -33 -111.5 -98.5t-97.5 -137.5v-461q0 -27 55 -28l109 -8l6 -70h-457l7 70l81 8q51 2 52 31v579q0 70 -11.5 90.5t-52.5 30.5l-84 12l4 56l291 67v-266h8q88 150 151 209t123 59t91 -29.5t31 -74.5z" />
    <glyph glyph-name="s" unicode="s" horiz-adv-x="823" 
d="M385 -31q-162 0 -272 43l-13 264h93l43 -182q76 -53 162 -53t147 48t61 124q0 97 -85 130.5t-140 54.5t-114.5 45.5t-110 84.5t-50.5 161q0 102 86.5 180.5t233.5 78.5q96 0 199 -33l61 21l16 -287h-90l-39 178q-75 49 -157 49t-131 -40t-49 -96t32.5 -92t70 -53
t111.5 -46t113 -47.5t105.5 -68t66.5 -172.5q0 -122 -94 -207t-256 -85z" />
    <glyph glyph-name="t" unicode="t" horiz-adv-x="702" 
d="M401 -31q-111 0 -173 65.5t-60 201.5l12 577l-162 8l2 60l140 84l96 129l72 -9l-2 -174h331l-14 -94h-317l-13 -545q-6 -186 164 -186q76 0 172 53l13 -53q-49 -51 -121 -84t-140 -33z" />
    <glyph glyph-name="u" unicode="u" horiz-adv-x="1077" 
d="M752 119h-11q-178 -150 -327 -150q-106 0 -172 68q-76 74 -76 225l4 545q0 21 -9 22.5t-15.5 3t-18.5 2.5t-23 3l-77 8l-7 67h306l-15 -553q0 -147 49.5 -206.5t159.5 -59.5t232 105v608q0 27 -56 31l-102 8l-6 67h311v-786q0 -33 19 -39l147 -33l-6 -49l-307 -37v150z
" />
    <glyph glyph-name="v" unicode="v" horiz-adv-x="942" 
d="M977 913l-6 -67l-68 -15q-33 -2 -50 -22.5t-42 -85.5l-283 -737h-102l-311 786q-14 33 -28.5 43t-51.5 16l-64 13l-8 69h428l-6 -67l-76 -10q-53 -6 -37 -56l242 -626l211 577q20 51 15 73.5t-44 26.5l-80 15l-6 67h367z" />
    <glyph glyph-name="w" unicode="w" horiz-adv-x="1413" 
d="M1444 913l-6 -67l-64 -10q-39 -6 -56.5 -25.5t-39.5 -87.5l-238 -737h-100l-223 596l-236 -596h-100l-270 786q-10 33 -24.5 45t-47.5 17l-62 10l-6 69h410l-6 -67l-68 -10q-57 -8 -39 -60l207 -614l199 524l-31 86q-12 33 -27.5 44t-50.5 15l-63 15l-6 67h415l-6 -67
l-65 -10q-59 -6 -41 -60l221 -618l172 563q18 55 9 81.5t-54 33.5l-64 10l-6 67h367z" />
    <glyph glyph-name="x" unicode="x" horiz-adv-x="974" 
d="M977 0h-416l6 68l60 12q25 6 34.5 18t-28.5 70l-166 227h-2l-174 -225q-37 -47 -36 -66.5t40 -23.5l67 -12l7 -68h-375l6 68l70 12q31 4 54 23.5t73 76.5l221 269l-221 286q-41 55 -66 73.5t-59 22.5l-60 15l-6 67h418l-6 -67l-60 -12q-35 -6 -33.5 -23.5t33.5 -62.5
l148 -203h2l154 200q35 45 34.5 64.5t-39.5 24.5l-67 12l-6 67h379l-7 -67l-69 -12q-37 -4 -59.5 -22.5t-69.5 -76.5l-203 -243l238 -312q68 -88 120 -98l58 -12z" />
    <glyph glyph-name="y" unicode="y" horiz-adv-x="925" 
d="M230 -537q-74 0 -110 30t-36 76t24.5 74.5t71.5 28.5q78 0 117 -73q45 20 90 157l78 224v2l-356 790q-14 33 -27.5 43t-50.5 16l-60 13l-8 69h422l-6 -67l-70 -10q-57 -4 -35 -56l254 -604l195 555q18 51 10 73.5t-49 26.5l-76 15l-6 67h371l-6 -67l-68 -15
q-33 -4 -50.5 -24.5t-43.5 -83.5l-250 -680l-98 -311q-45 -141 -99 -205t-128 -64z" />
    <glyph glyph-name="z" unicode="z" horiz-adv-x="917" 
d="M328 72q227 0 295.5 18.5t99.5 85.5l76 170h86l-82 -346h-746v61l592 783h-65q-225 0 -290 -18.5t-79 -86.5l-33 -172h-90v346h737v-61l-589 -780h88z" />
    <glyph glyph-name="braceleft" unicode="{" horiz-adv-x="681" 
d="M227 -170q0 92 57.5 211t57.5 184q0 147 -268 160l-23 57l23 56q268 8 268 159q0 66 -57.5 186t-57.5 212q0 137 100.5 216t288.5 91v-68q-117 -10 -184 -64t-67 -124t57 -191t57 -215t-86 -168.5t-176 -78.5v-25q90 -6 176 -80t86 -167t-57 -212t-57 -189t67.5 -126.5
t183.5 -67.5v-63q-186 8 -287.5 89t-101.5 218z" />
    <glyph glyph-name="bar" unicode="|" horiz-adv-x="569" 
d="M240 -381v1790h90v-1790h-90z" />
    <glyph glyph-name="braceright" unicode="}" horiz-adv-x="681" 
d="M340 225q0 -67 57 -185t58 -210q1 -137 -101 -218t-288 -89v63q116 10 184 68t68 127q0 71 -58 189q-57 118 -57 211t86 167t176 80v25q-90 5 -176 79t-86 168t57 215t57 191t-67 124q-68 54 -184 64v68q188 -12 288 -91t101 -216q1 -92 -57 -212t-58 -186
q0 -152 268 -159l23 -56l-23 -57q-268 -12 -268 -160z" />
    <glyph glyph-name="asciitilde" unicode="~" horiz-adv-x="819" 
d="M545 340q-70 0 -171 74t-133 74t-56 -28t-54 -106h-53q41 240 196 240q70 0 171 -74t133 -74t56 28t54 106h53q-41 -240 -196 -240z" />
    <glyph glyph-name="nbspace" unicode="&#xa0;" horiz-adv-x="466" 
 />
    <glyph glyph-name="exclamdown" unicode="&#xa1;" horiz-adv-x="575" 
d="M305 -31h-31q-51 0 -68.5 19.5t-12.5 56.5l75 829q2 12 20.5 12.5t20.5 -12.5l78 -829q4 -37 -13.5 -56.5t-68.5 -19.5zM403 1193q0 -48 -31.5 -81t-81.5 -33t-85 34t-35 80t35 81t85 35t81.5 -34t31.5 -82z" />
    <glyph glyph-name="cent" unicode="&#xa2;" horiz-adv-x="903" 
d="M225 524q0 -148 53.5 -249t143.5 -146l190 715q-43 23 -106 22q-123 0 -202 -97t-79 -245zM70 446q0 215 139 356.5t338 141.5q55 0 90 -8l98 364h74l-102 -385q129 -57 129 -159q0 -39 -26 -64.5t-56 -25.5q-70 0 -99 59l-166 -619q27 -8 66 -8q147 0 256 127l41 -22
q-57 -113 -152.5 -173.5t-210.5 -60.5q-24 0 -34 2l-84 -311h-74l86 326q-141 39 -227 167t-86 293z" />
    <glyph glyph-name="sterling" unicode="&#xa3;" horiz-adv-x="946" 
d="M664 -49q-66 0 -125.5 25.5t-137.5 82.5l-79 58q-100 -129 -291 -172l-23 69q147 45 211 136.5t64 232.5q0 45 -4 147h-207l6 80h196q-8 164 -8 213q0 209 109.5 338t296.5 129q100 0 159.5 -42t59.5 -111q0 -39 -28.5 -68t-73.5 -29t-76 41t-19 103q-41 27 -94 26
q-182 0 -182 -325q0 -80 10 -275h334l6 -80h-338q2 -29 2 -90q-4 -160 -70 -272v-10q228 -76 308 -76t110 35q45 45 88 155l45 -12q4 -127 -58 -218t-191 -91z" />
    <glyph glyph-name="currency" unicode="&#xa4;" horiz-adv-x="886" 
d="M649 736q0 89 -57 151.5t-151.5 62.5t-153 -62.5t-58.5 -151.5t58.5 -152.5t153 -63.5t151.5 63.5t57 152.5zM737 736q0 -97 -51 -177l127 -127l-70 -70l-125 125q-80 -53 -179 -53t-177 51l-115 -114l-67 67l115 115q-53 78 -53 183t51 177l-119 119l69 70l119 -119
q80 53 181 53t180 -55l112 113l68 -68l-115 -115q49 -78 49 -175z" />
    <glyph glyph-name="yen" unicode="&#xa5;" horiz-adv-x="1253" 
d="M715 545v-174h381l6 -82h-387v-162q0 -31 37 -37l159 -20l7 -70h-564l6 70l160 20q37 6 37 37v162h-377l6 82h371v174h-377l6 82h332l-321 512q-29 45 -84 57l-86 14l-7 70h488l-6 -70l-103 -12q-70 -10 27 -158l233 -389h9l247 436q53 98 -18 113l-78 10l-6 70h412
l-6 -70l-60 -10q-88 -27 -137 -110l-272 -463h346l6 -82h-387z" />
    <glyph glyph-name="brokenbar" unicode="&#xa6;" horiz-adv-x="569" 
d="M240 -285v686h90v-686h-90zM240 629v686h90v-686h-90z" />
    <glyph glyph-name="section" unicode="&#xa7;" horiz-adv-x="880" 
d="M268 872q-96 -58 -96 -156q0 -54 47 -106t100 -86q148 -94 201.5 -129.5t91.5 -81.5q95 58 95 136t-46.5 128.5t-104.5 88.5q-85 56 -163 104t-125 102zM817 517q0 -75 -48 -139.5t-126 -103.5q43 -66 43 -141q0 -104 -90 -185t-223 -81q-90 0 -158 40t-68 107
q0 39 26 65.5t65 26.5q98 0 127 -145q31 -14 86 -14t88.5 36.5t33.5 94.5t-38.5 110t-80.5 81.5t-118 76.5t-105.5 67.5t-99.5 81.5t-70 171q0 78 48.5 142t126.5 103q-43 68 -43 153t88.5 165t196.5 80t174.5 -40t66.5 -108q0 -39 -25.5 -65.5t-64.5 -26.5q-98 0 -127 145
q-31 14 -79 14t-83 -33.5t-35 -89.5t40 -106.5t81 -78.5t84 -56t90 -58t90 -60.5t85 -92t42 -136.5z" />
    <glyph glyph-name="dieresis" unicode="&#xa8;" horiz-adv-x="819" 
d="M317 1223q0 -49 -30.5 -85t-81.5 -36t-82 36t-31 85t31 84.5t82 35.5t81.5 -35.5t30.5 -84.5zM727 1223q0 -49 -30.5 -85t-82 -36t-82 36t-30.5 85t30.5 84.5t80.5 35.5t82 -35.5t32 -84.5z" />
    <glyph glyph-name="copyright" unicode="&#xa9;" horiz-adv-x="1503" 
d="M776 258q-180 0 -283.5 102.5t-103.5 270.5t107.5 278.5t275.5 110.5q90 0 166 -23l92 23v-260h-53l-43 151q-61 43 -172 43t-184.5 -81.5t-73.5 -224.5t76.5 -234.5t212.5 -91.5q80 0 129 32l63 162h55l-26 -242l-58 13q-82 -29 -180 -29zM1348 639q0 248 -175.5 426
t-421 178t-420.5 -178t-175 -426t175 -425t420.5 -177t421 177t175.5 425zM1421 639q0 -279 -195.5 -474.5t-474 -195.5t-474 195.5t-195.5 474.5t195.5 475.5t474 196.5t474 -196.5t195.5 -475.5z" />
    <glyph glyph-name="ordfeminine" unicode="&#xaa;" horiz-adv-x="692" 
d="M190 791q0 -45 29 -76t85 -31t134 64l6 200q-254 -49 -254 -157zM547 586q-92 0 -107 106h-4q-117 -106 -209 -106q-66 0 -117 45t-51 114q0 181 387 250l3 68q6 78 -42.5 125t-121.5 47q-35 0 -68 -15.5t-33 -25.5q0 -2 12.5 -19.5t12.5 -47.5t-20.5 -48t-54.5 -18
t-55.5 21.5t-21.5 54.5q0 57 102.5 112.5t209.5 55.5t160 -59.5t49 -164.5l-13 -327q-4 -76 53 -76q33 0 72 22l6 -36q-57 -78 -149 -78z" />
    <glyph glyph-name="guillemotleft" unicode="&#xab;" horiz-adv-x="997" 
d="M530 156l-18 -41l-444 295v86l444 295l18 -41l-297 -297zM913 135l-18 -41l-442 316v86l442 315l18 -41l-315 -317z" />
    <glyph glyph-name="logicalnot" unicode="&#xac;" horiz-adv-x="983" 
d="M911 629v-430h-104v329h-735l6 101h833z" />
    <glyph glyph-name="uni00AD" unicode="&#xad;" horiz-adv-x="671" 
d="M606 428h-536l6 104h524z" />
    <glyph glyph-name="registered" unicode="&#xae;" horiz-adv-x="1503" 
d="M911 803q0 150 -198 141l-62 -2v-287l94 -10q166 15 166 158zM651 375q0 -20 21 -23l88 -12l4 -59h-324l6 59l76 12q20 2 21 23v538q0 20 -21 23l-76 12l-6 60h324q131 0 198.5 -54.5t67.5 -132.5q0 -156 -178 -211l145 -221q29 -35 52 -41l69 -8l6 -59h-190l-45 81
l-141 224l-97 4v-215zM1348 639q0 248 -175.5 426t-421 178t-420.5 -178t-175 -426t175 -425t420.5 -177t421 177t175.5 425zM1421 639q0 -279 -195.5 -474.5t-474 -195.5t-474 195.5t-195.5 474.5t195.5 475.5t474 196.5t474 -196.5t195.5 -475.5z" />
    <glyph glyph-name="macron" unicode="&#xaf;" horiz-adv-x="819" 
d="M666 1104h-506l6 84h493z" />
    <glyph glyph-name="degree" unicode="&#xb0;" horiz-adv-x="841" 
d="M419.5 1245q-112.5 0 -179 -73.5t-66.5 -181.5t67.5 -182.5t178 -74.5t179.5 75.5t69 181.5t-68 180.5t-180.5 74.5zM760 989q0 -143 -94 -241.5t-246 -98.5t-246 98.5t-94 240.5t93 241.5t246.5 99.5t247 -98.5t93.5 -241.5z" />
    <glyph glyph-name="plusminus" unicode="&#xb1;" horiz-adv-x="983" 
d="M918 29h-852l6 100h839zM545 471v-305h-105v305h-374l6 100h368v338h105v-338h366l7 -100h-373z" />
    <glyph glyph-name="twosuperior" unicode="&#xb2;" horiz-adv-x="675" 
d="M291 1253q-121 0 -211 -104l-21 27q111 176 285 176q106 0 174 -60.5t68 -148.5q0 -47 -17.5 -89t-70 -95.5t-87 -84t-131 -107.5t-139.5 -112l15 -6h100q182 0 227 9.5t64 50.5l26 59h58l-41 -209h-543l-6 66q35 33 95.5 86t89 79.5t124.5 118t96 205.5q0 64 -44 101.5
t-111 37.5z" />
    <glyph glyph-name="threesuperior" unicode="&#xb3;" horiz-adv-x="675" 
d="M51 622q0 70 75 70q36 0 64 -30t37 -74q8 -2 43 -2q82 0 139 50q56 50 56 124t-49 114q-48 40 -112 39q-64 0 -130 -28l-18 35q174 96 218 139t44 92t-39 77t-109 27q-98 0 -194 -92l-25 29q127 160 289 160q92 0 156 -42t63 -113q0 -71 -61 -120t-185 -110v-2
q111 31 197 -19t87 -152q1 -104 -107 -184t-252 -80q-84 0 -136 28q-51 28 -51 64z" />
    <glyph glyph-name="acute" unicode="&#xb4;" horiz-adv-x="819" 
d="M692 1417l-338 -377h-47l193 377h192z" />
    <glyph glyph-name="mu" unicode="&#xb5;" horiz-adv-x="1077" 
d="M508 94q115 0 244 111v602q0 27 -56 31l-102 8l-6 67h311v-786q0 -33 19 -39l147 -33l-6 -49l-307 -37v156h-11q-41 -51 -68.5 -79t-74.5 -52.5t-100 -24.5q-131 0 -191 119h-6l16 -573l-180 -19l29 731l4 580q0 21 -9 22.5t-15.5 3t-18.5 2.5t-23 3l-77 8l-7 67h306
l-9 -622q-6 -197 191 -197z" />
    <glyph glyph-name="mu" unicode="&#x3bc;" horiz-adv-x="1077" 
d="M508 94q115 0 244 111v602q0 27 -56 31l-102 8l-6 67h311v-786q0 -33 19 -39l147 -33l-6 -49l-307 -37v156h-11q-41 -51 -68.5 -79t-74.5 -52.5t-100 -24.5q-131 0 -191 119h-6l16 -573l-180 -19l29 731l4 580q0 21 -9 22.5t-15.5 3t-18.5 2.5t-23 3l-77 8l-7 67h306
l-9 -622q-6 -197 191 -197z" />
    <glyph glyph-name="paragraph" unicode="&#xb6;" horiz-adv-x="1011" 
d="M836 -66h-99v627q-98 -29 -186 -29q-229 0 -349 104.5t-120 277.5t120 269.5t322 96.5h312v-1346z" />
    <glyph glyph-name="periodcentered" unicode="&#xb7;" horiz-adv-x="462" 
d="M360 465q0 -51 -36 -89t-89 -38q-54 0 -92 38q-37 38 -37 89t37 87t91 36t90 -36t36 -87z" />
    <glyph glyph-name="cedilla" unicode="&#xb8;" horiz-adv-x="819" 
d="M643 -306q0 -93 -109.5 -159.5t-308.5 -81.5l-16 45q319 43 319 180q0 51 -44 81t-112 30t-136 -10v35l213 225h81l-151 -160q119 4 191.5 -44t72.5 -141z" />
    <glyph glyph-name="onesuperior" unicode="&#xb9;" horiz-adv-x="675" 
d="M295 655v586l-186 12l4 37l305 62v-697q0 -23 31 -28l118 -17l4 -51h-452l4 51l141 17q31 8 31 28z" />
    <glyph glyph-name="ordmasculine" unicode="&#xba;" horiz-adv-x="788" 
d="M596 909q0 195 -84 275q-57 57 -136 57t-132.5 -71.5t-53.5 -190.5q0 -186 89 -279q49 -49 131 -49t134 69.5t52 188.5zM737 946.5q0 -151.5 -97 -256t-250 -104.5t-247 102.5t-94 254t99.5 257t251.5 105.5t244.5 -103.5t92.5 -255z" />
    <glyph glyph-name="guillemotright" unicode="&#xbb;" horiz-adv-x="997" 
d="M547 410l-441 -316l-20 41l315 318l-315 317l20 41l441 -315v-86zM932 410l-445 -295l-18 41l299 297l-299 297l18 41l445 -295v-86z" />
    <glyph glyph-name="onequarter" unicode="&#xbc;" horiz-adv-x="1464" 
d="M1182 -4v364h-6l-289 -364h295zM1182 -293v227h-363l-6 50l401 508h84v-496h140l-8 -62h-132v-227h-116zM172 -238l1100 1518h104l-1102 -1518h-102zM295 655v586l-186 12l4 37l305 62v-697q0 -23 31 -28l118 -17l4 -51h-452l4 51l141 17q31 8 31 28z" />
    <glyph glyph-name="onehalf" unicode="&#xbd;" horiz-adv-x="1464" 
d="M1133 500q106 0 174 -60t67 -149q0 -47 -17 -89q-28 -68 -157 -179q-35 -31 -131 -108t-139 -112l14 -6h100q182 0 228 9t63 51l27 59h57l-41 -209h-542l-7 66q35 33 156 139t153 148q33 43 65 90t32 111q0 65 -44 103t-112 37q-121 0 -211 -104l-20 27q111 176 285 176z
M141 -238l1100 1518h105l-1102 -1518h-103zM295 655v586l-186 12l4 37l305 62v-697q0 -23 31 -28l118 -17l4 -51h-452l4 51l141 17q31 8 31 28z" />
    <glyph glyph-name="threequarters" unicode="&#xbe;" horiz-adv-x="1464" 
d="M51 622q0 70 75 70q36 0 64 -30t37 -74q8 -2 43 -2q82 0 139 50q56 50 56 124t-49 114q-48 40 -112 39q-64 0 -130 -28l-18 35q174 96 218 139t44 92t-39 77t-109 27q-98 0 -194 -92l-25 29q127 160 289 160q92 0 156 -42t63 -113q0 -71 -61 -120t-185 -110v-2
q111 31 197 -19t87 -152q1 -104 -107 -184t-252 -80q-84 0 -136 28q-51 28 -51 64zM1182 -4v364h-6l-289 -364h295zM1182 -293v227h-363l-6 50l401 508h84v-496h140l-8 -62h-132v-227h-116zM172 -238l1100 1518h104l-1102 -1518h-102z" />
    <glyph glyph-name="questiondown" unicode="&#xbf;" horiz-adv-x="731" 
d="M625 73q0 -44 -42 -74t-110 -30q-162 0 -274.5 103.5t-112.5 226.5t51 174t132 83q108 43 157 73.5t49 101.5q0 72 -108 170h61q143 -115 143 -223t-64 -157t-146 -84q-82 -34 -111 -47t-57.5 -40.5t-28.5 -60.5q0 -70 89 -117t228 -47q33 0 125 12q19 -20 19 -64z
M543 1193q0 -46 -35 -80t-85 -34t-83 34t-33 80t33 81t83 35t85 -35t35 -81z" />
    <glyph glyph-name="Agrave" unicode="&#xc0;" horiz-adv-x="1222" 
d="M764 547l-182 575h-11l-194 -575h387zM1255 0h-526l6 70l117 14q27 6 39 23t-25 131l-75 225h-443l-74 -223q-32 -82 -30 -115t37 -41l102 -14l6 -70h-422l6 70l82 14q47 10 77 59t95 234l285 803v65l170 72l395 -1188q10 -33 51 -39l121 -20zM662 1386h-46l-337 377h186
z" />
    <glyph glyph-name="Aacute" unicode="&#xc1;" horiz-adv-x="1222" 
d="M764 547l-182 575h-11l-194 -575h387zM1255 0h-526l6 70l117 14q27 6 39 23t-25 131l-75 225h-443l-74 -223q-32 -82 -30 -115t37 -41l102 -14l6 -70h-422l6 70l82 14q47 10 77 59t95 234l285 803v65l170 72l395 -1188q10 -33 51 -39l121 -20zM909 1763l-338 -377h-47
l193 377h192z" />
    <glyph glyph-name="Acircumflex" unicode="&#xc2;" horiz-adv-x="1222" 
d="M764 547l-182 575h-11l-194 -575h387zM1255 0h-526l6 70l117 14q27 6 39 23t-25 131l-75 225h-443l-74 -223q-32 -82 -30 -115t37 -41l102 -14l6 -70h-422l6 70l82 14q47 10 77 59t95 234l285 803v65l170 72l395 -1188q10 -33 51 -39l121 -20zM866 1386h-55l-209 252h-4
l-209 -252h-55l227 398h78z" />
    <glyph glyph-name="Atilde" unicode="&#xc3;" horiz-adv-x="1222" 
d="M764 547l-182 575h-11l-194 -575h387zM1255 0h-526l6 70l117 14q27 6 39 23t-25 131l-75 225h-443l-74 -223q-32 -82 -30 -115t37 -41l102 -14l6 -70h-422l6 70l82 14q47 10 77 59t95 234l285 803v65l170 72l395 -1188q10 -33 51 -39l121 -20zM735 1411q-70 0 -171 74
t-133 74q-31 0 -55 -28t-54 -106h-54q41 240 197 240q70 0 171 -74q101 -73 133 -73q31 0 55 28t55 105h53q-41 -240 -197 -240z" />
    <glyph glyph-name="Adieresis" unicode="&#xc4;" horiz-adv-x="1222" 
d="M764 547l-182 575h-11l-194 -575h387zM1255 0h-526l6 70l117 14q27 6 39 23t-25 131l-75 225h-443l-74 -223q-32 -82 -30 -115t37 -41l102 -14l6 -70h-422l6 70l82 14q47 10 77 59t95 234l285 803v65l170 72l395 -1188q10 -33 51 -39l121 -20zM508 1556q0 -49 -31 -85
q-31 -35 -82 -35t-82 36t-30 84q0 49 30 85q31 36 82 36t82 -36t31 -85zM918 1556q0 -49 -31 -85q-31 -35 -82 -35t-82 36t-31 84q0 49 31 85t81 36t82 -36t32 -85z" />
    <glyph glyph-name="Aring" unicode="&#xc5;" horiz-adv-x="1222" 
d="M731 1410q0 54 -33.5 92t-89 38t-88.5 -38t-33 -92t33 -92t88.5 -38t89 38t33.5 92zM764 547l-182 577h-11l-194 -577h387zM426 1422q0 68 50 120.5t132 52.5t132.5 -53t50.5 -131q0 -111 -86 -162l372 -1120q10 -33 51 -39l121 -20l6 -70h-526l6 70l117 14q27 6 39 24
t-25 130l-75 225h-443l-74 -223q-31 -82 -29.5 -115t36.5 -41l102 -14l6 -70h-422l6 70l82 14q47 10 77 59.5t95 233.5l308 864q-49 20 -79 66.5t-30 114.5z" />
    <glyph glyph-name="AE" unicode="&#xc6;" horiz-adv-x="1646" 
d="M756 547v647h-19l-334 -647h353zM756 127v336h-396l-102 -201q-74 -145 -60.5 -158.5t29.5 -17.5l103 -16l6 -70h-442l6 70l86 14q39 10 72 35t155 260l381 725q43 80 -41 94l-88 12l-6 70h1079v-371h-80l-45 207q-8 35 -18.5 48.5t-67 26.5t-352.5 13h-62v-514h60
q135 0 168 6t41 33l47 137h65l-41 -426h-65l-14 131q-2 18 -20.5 31.5t-184.5 13.5h-56v-540h35q391 0 431 22.5t55 65.5l51 198h92l-39 -362h-950l6 70l125 20q37 6 37 37z" />
    <glyph glyph-name="Ccedilla" unicode="&#xc7;" horiz-adv-x="1359" 
d="M94 633q0 299 201 487.5t506 188.5q160 0 284 -39l156 33v-416h-86l-53 266q-133 76 -314 76q-225 0 -366 -164t-141 -426t141 -427t389 -165q147 0 264 62l86 276h90l-49 -387l-94 20q-119 -39 -281 -49l-86 -90q119 4 192 -44t73 -141t-110 -159.5t-308 -81.5l-17 45
q319 43 320 180q0 51 -44.5 81t-112.5 30t-136 -10v35l147 157q-287 14 -469 188.5t-182 473.5z" />
    <glyph glyph-name="Egrave" unicode="&#xc8;" horiz-adv-x="1193" 
d="M252 111v1060q0 11 -10 17t-43 10l-107 12l-6 70h983v-371h-88l-45 207q-12 44 -40 60t-109 22t-289 6h-78v-514h78q131 0 165 6t42 33l45 137h71l-43 -426h-67l-17 131q-2 19 -12 27q-22 19 -188 18h-74v-540h55q381 0 437 29q30 15 44 59l52 198h100l-39 -362h-983
l6 70l107 12q53 6 53 29zM684 1386h-45l-338 377h186z" />
    <glyph glyph-name="Eacute" unicode="&#xc9;" horiz-adv-x="1193" 
d="M252 111v1060q0 11 -10 17t-43 10l-107 12l-6 70h983v-371h-88l-45 207q-12 44 -40 60t-109 22t-289 6h-78v-514h78q131 0 165 6t42 33l45 137h71l-43 -426h-67l-17 131q-2 19 -12 27q-22 19 -188 18h-74v-540h55q381 0 437 29q30 15 44 59l52 198h100l-39 -362h-983
l6 70l107 12q53 6 53 29zM924 1763l-338 -377h-47l192 377h193z" />
    <glyph glyph-name="Ecircumflex" unicode="&#xca;" horiz-adv-x="1193" 
d="M252 111v1060q0 11 -10 17t-43 10l-107 12l-6 70h983v-371h-88l-45 207q-12 44 -40 60t-109 22t-289 6h-78v-514h78q131 0 165 6t42 33l45 137h71l-43 -426h-67l-17 131q-2 19 -12 27q-22 19 -188 18h-74v-540h55q381 0 437 29q30 15 44 59l52 198h100l-39 -362h-983
l6 70l107 12q53 6 53 29zM864 1386h-55l-209 252h-4l-209 -252h-55l227 398h78z" />
    <glyph glyph-name="Edieresis" unicode="&#xcb;" horiz-adv-x="1193" 
d="M252 111v1060q0 11 -10 17t-43 10l-107 12l-6 70h983v-371h-88l-45 207q-12 44 -40 60t-109 22t-289 6h-78v-514h78q131 0 165 6t42 33l45 137h71l-43 -426h-67l-17 131q-2 19 -12 27q-22 19 -188 18h-74v-540h55q381 0 437 29q30 15 44 59l52 198h100l-39 -362h-983
l6 70l107 12q53 6 53 29zM506 1556q0 -49 -31 -85q-31 -35 -82 -35t-82 36t-30 84q0 49 30 85q31 36 82 36t82 -36t31 -85zM915 1556q-1 -49 -31 -85q-30 -35 -81 -35t-82 36t-31 84q0 49 31 85t81 36t82 -36t31 -85z" />
    <glyph glyph-name="Igrave" unicode="&#xcc;" horiz-adv-x="718" 
d="M276 111v1060q0 11 -10 17t-43 10l-127 12l-6 70h541l-6 -70l-127 -12q-53 -6 -54 -29v-1060q0 -20 54 -27l127 -12l6 -70h-541l6 70l127 12q53 6 53 29zM399 1386h-45l-338 377h187z" />
    <glyph glyph-name="Iacute" unicode="&#xcd;" horiz-adv-x="718" 
d="M276 111v1060q0 11 -10 17t-43 10l-127 12l-6 70h541l-6 -70l-127 -12q-53 -6 -54 -29v-1060q0 -20 54 -27l127 -12l6 -70h-541l6 70l127 12q53 6 53 29zM707 1763l-338 -377h-47l192 377h193z" />
    <glyph glyph-name="Icircumflex" unicode="&#xce;" horiz-adv-x="718" 
d="M276 111v1060q0 11 -10 17t-43 10l-127 12l-6 70h541l-6 -70l-127 -12q-53 -6 -54 -29v-1060q0 -20 54 -27l127 -12l6 -70h-541l6 70l127 12q53 6 53 29zM625 1386h-56l-209 252h-4l-209 -252h-55l227 398h78z" />
    <glyph glyph-name="Idieresis" unicode="&#xcf;" horiz-adv-x="718" 
d="M276 111v1060q0 11 -10 17t-43 10l-127 12l-6 70h541l-6 -70l-127 -12q-53 -6 -54 -29v-1060q0 -20 54 -27l127 -12l6 -70h-541l6 70l127 12q53 6 53 29zM266 1563q0 -49 -30 -85t-82 -36q-51 0 -82 36t-31 85t31 85t82 36t82 -36q30 -36 30 -85zM676 1563q0 -49 -31 -85
t-82 -36t-82 36t-30 85q0 49 30 85q31 36 81 36t82 -36t32 -85z" />
    <glyph glyph-name="Eth" unicode="&#xd0;" horiz-adv-x="1370" 
d="M410 694h254l6 -80h-260v-512l165 -26q246 -4 393 148q146 153 146 388q0 274 -163 434t-464 160h-77v-512zM252 614h-184l6 80h178v459q0 31 -37 37l-125 20l-6 70l444 6q340 2 549 -172t209 -460t-195 -471q-196 -183 -565 -183h-442l6 70l125 20q37 6 37 37v487z" />
    <glyph glyph-name="Ntilde" unicode="&#xd1;" horiz-adv-x="1507" 
d="M1264 903v-919h-99l-805 1126h-8v-733q0 -199 9 -236t21 -44t36 -11l123 -16l6 -70h-471l6 70l123 16q25 4 36 11t20 44t9 236v676q0 63 -14 93t-49 46l-117 18l-6 70h354l738 -1032h6v655q0 199 -10 241q-9 42 -56 50l-123 16l-6 70h473l-6 -70l-123 -16q-25 -4 -36 -11
t-21 -48q-10 -42 -10 -232zM889 1411q-70 0 -171 74t-133 74t-56 -28t-54 -106h-53q41 240 196 240q70 0 172 -74q102 -73 133 -73t55 28t54 105h53q-41 -240 -196 -240z" />
    <glyph glyph-name="Ograve" unicode="&#xd2;" horiz-adv-x="1513" 
d="M1233 628q0 271 -141 438t-340 167t-335 -158t-136 -429t140 -438t339 -167t336 158t137 429zM1419 652q0 -286 -191 -484t-475 -199t-471 183q-188 184 -188 470t192 486t475 199q284 -1 471 -185t187 -470zM836 1386h-45l-338 377h186z" />
    <glyph glyph-name="Oacute" unicode="&#xd3;" horiz-adv-x="1513" 
d="M1233 628q0 271 -141 438t-340 167t-335 -158t-136 -429t140 -438t339 -167t336 158t137 429zM1419 652q0 -286 -191 -484t-475 -199t-471 183q-188 184 -188 470t192 486t475 199q284 -1 471 -185t187 -470zM1038 1763l-338 -377h-47l193 377h192z" />
    <glyph glyph-name="Ocircumflex" unicode="&#xd4;" horiz-adv-x="1513" 
d="M1233 628q0 271 -141 438t-340 167t-335 -158t-136 -429t140 -438t339 -167t336 158t137 429zM1419 652q0 -286 -191 -484t-475 -199t-471 183q-188 184 -188 470t192 486t475 199q284 -1 471 -185t187 -470zM1022 1386h-55l-209 252h-4l-209 -252h-56l228 398h78z" />
    <glyph glyph-name="Otilde" unicode="&#xd5;" horiz-adv-x="1513" 
d="M891 1411q-70 0 -171 74t-133 74t-56 -28t-54 -106h-53q41 240 197 240q70 0 171 -74q101 -73 133 -73q31 0 55 28t54 105h53q-41 -240 -196 -240zM1233 628q0 271 -141 438t-340 167t-335 -158t-136 -429t140 -438t339 -167t336 158t137 429zM1419 652q0 -286 -191 -484
t-475 -199t-471 183q-188 184 -188 470t192 486t475 199q284 -1 471 -185t187 -470z" />
    <glyph glyph-name="Odieresis" unicode="&#xd6;" horiz-adv-x="1513" 
d="M1233 628q0 271 -141 438t-340 167t-335 -158t-136 -429t140 -438t339 -167t336 158t137 429zM1419 652q0 -286 -191 -484t-475 -199t-471 183q-188 184 -188 470t192 486t475 199q284 -1 471 -185t187 -470zM664 1556q0 -49 -31 -85q-31 -35 -82 -35t-82 36t-31 84
q0 49 31 85t82 36t82 -36t31 -85zM1073 1556q0 -49 -31 -85q-32 -35 -82 -35t-81 36t-31 84q0 49 31 85t81 36t82 -36t31 -85z" />
    <glyph glyph-name="multiply" unicode="&#xd7;" horiz-adv-x="983" 
d="M909 827l-346 -346l346 -348l-69 -72l-348 349l-349 -349l-69 72l346 348l-346 346l69 70l349 -346l348 346z" />
    <glyph glyph-name="Oslash" unicode="&#xd8;" horiz-adv-x="1513" 
d="M1217 632q0 276 -175 453q-551 -948 -553 -948q119 -82 261 -82q203 0 335 150.5t132 426.5zM719 1227q-203 0 -334 -152.5t-131 -408.5q0 -301 176 -478l553 949q-115 90 -264 90zM1384 649q0 -281 -179 -480.5t-472 -199.5q-160 0 -301 68l-108 -189h-91l132 228
q-131 84 -205 228.5t-74 324.5q0 281 178 480.5t471 199.5q170 0 307 -72l99 172h90l-121 -209q129 -88 201.5 -230.5t72.5 -320.5z" />
    <glyph glyph-name="Ugrave" unicode="&#xd9;" horiz-adv-x="1456" 
d="M1210 903v-479q0 -211 -131 -333t-360 -122t-357 116q-127 116 -126 355v731q0 23 -54 27l-106 12l-6 70h499l-6 -70l-106 -12q-53 -6 -54 -29v-708q0 -387 375 -387q168 0 259 97t91 263v469q0 199 -9 236t-20 44t-36 11l-123 16l-6 70h471l-6 -70l-121 -16
q-45 -6 -57 -48q-11 -43 -11 -243zM805 1386h-45l-338 377h186z" />
    <glyph glyph-name="Uacute" unicode="&#xda;" horiz-adv-x="1456" 
d="M1210 903v-479q0 -211 -131 -333t-360 -122t-357 116q-127 116 -126 355v731q0 23 -54 27l-106 12l-6 70h499l-6 -70l-106 -12q-53 -6 -54 -29v-708q0 -387 375 -387q168 0 259 97t91 263v469q0 199 -9 236t-20 44t-36 11l-123 16l-6 70h471l-6 -70l-121 -16
q-45 -6 -57 -48q-11 -43 -11 -243zM1069 1763l-338 -377h-47l193 377h192z" />
    <glyph glyph-name="Ucircumflex" unicode="&#xdb;" horiz-adv-x="1456" 
d="M1210 903v-479q0 -211 -131 -333t-360 -122t-357 116q-127 116 -126 355v731q0 23 -54 27l-106 12l-6 70h499l-6 -70l-106 -12q-53 -6 -54 -29v-708q0 -387 375 -387q168 0 259 97t91 263v469q0 199 -9 236t-20 44t-36 11l-123 16l-6 70h471l-6 -70l-121 -16
q-45 -6 -57 -48q-11 -43 -11 -243zM1022 1386h-55l-209 252h-4l-209 -252h-56l228 398h78z" />
    <glyph glyph-name="Udieresis" unicode="&#xdc;" horiz-adv-x="1456" 
d="M1044 1556.5q0 -49.5 -30.5 -85t-81.5 -35.5t-82 35.5t-31 85t31 85t81 35.5t81.5 -35.5t31.5 -85zM635 1556.5q0 -49.5 -31 -85t-82 -35.5t-81.5 35.5t-30.5 85t30.5 85t81.5 35.5t82 -35.5t31 -85zM1210 903v-479q0 -211 -131 -333t-360 -122t-356 116t-127 355v731
q0 23 -54 27l-106 12l-6 70h499l-6 -70l-106 -12q-53 -6 -54 -29v-708q0 -387 375 -387q168 0 259 97t91 263v469q0 199 -9 236t-20.5 44t-35.5 11l-123 16l-6 70h471l-6 -70l-121 -16q-45 -6 -56.5 -49.5t-11.5 -241.5z" />
    <glyph glyph-name="Yacute" unicode="&#xdd;" horiz-adv-x="1228" 
d="M709 109q0 -23 53 -27l139 -12l6 -70h-567l6 70l141 12q53 6 54 29v426l-381 602q-35 47 -84 57l-84 14l-6 70h499l-6 -70l-102 -12q-57 -8 -6 -104q12 -23 30 -54l246 -407h10l267 454q59 98 -17 113l-78 10l-6 70h414l-6 -70l-62 -10q-45 -14 -75 -36t-64 -74
l-321 -533v-448zM903 1769l-338 -376h-47l193 376h192z" />
    <glyph glyph-name="Thorn" unicode="&#xde;" horiz-adv-x="1181" 
d="M907 648q0 146 -100 227t-281 79h-106v-589q82 -20 180 -21q145 0 226 79t81 225zM1087 661q0 -173 -141 -282t-352 -109q-72 0 -174 11v-172q0 -20 53 -27l145 -12l7 -70h-539l6 70l107 12q53 6 53 29v1060q0 23 -53 27l-107 12l-6 70h500l-6 -70l-107 -12
q-53 -4 -53 -29v-137h162q246 0 375.5 -99t129.5 -272z" />
    <glyph glyph-name="germandbls" unicode="&#xdf;" horiz-adv-x="1054" 
d="M483 870q267 50 267 258q0 102 -56.5 162t-136.5 60q-215 0 -215 -312v-1038h-289l6 70l95 8q43 0 43 31v700l-172 12l10 84l151 13l2 47q14 221 117 338.5t261 117.5t243.5 -76.5t85.5 -192.5t-66.5 -186.5t-179.5 -103.5q145 -82 255 -222t110 -295t-98 -266.5
t-216 -111.5t-187 50.5t-69 123.5q0 47 32 80t77 33q86 0 103.5 -78t-40.5 -119q41 -18 76 -18q76 0 131.5 69.5t55.5 167.5q0 143 -102.5 291t-293.5 254v49z" />
    <glyph glyph-name="agrave" unicode="&#xe0;" horiz-adv-x="913" 
d="M227 248q0 -78 45 -121t120 -43t192 106l12 308q-201 -52 -285 -112t-84 -138zM723 -31q-59 0 -95 38t-36 114h-8q-142 -152 -250 -152t-182 68t-74 170q0 127 121 207t401 149v19q2 156 -50 216t-159 60q-55 0 -108 -18t-54 -35l21 -31q20 -32 20 -66t-28 -62t-72 -28
q-43 0 -71 26t-27 65q0 73 128 155t251 82q171 0 237 -86t57 -313l-16 -391q-4 -72 45 -72q33 0 105 57l34 -45q-104 -127 -190 -127zM510 1040h-45l-338 377h186z" />
    <glyph glyph-name="aacute" unicode="&#xe1;" horiz-adv-x="913" 
d="M225 248q0 -78 45 -121t120 -43t192 106l12 308q-201 -52 -285 -112t-84 -138zM721 -31q-59 0 -95 38t-36 114h-8q-142 -152 -250 -152t-182 68t-74 170q0 127 121 207t401 149v19q2 156 -50 216t-159 60q-55 0 -108 -18t-54 -35l21 -31q20 -32 20 -66t-28 -62t-72 -28
q-43 0 -71 26t-27 65q0 73 128 155t251 82q171 0 237 -86t57 -313l-16 -391q-4 -72 45 -72q33 0 105 57l34 -45q-104 -127 -190 -127zM733 1417l-338 -377h-47l193 377h192z" />
    <glyph glyph-name="acircumflex" unicode="&#xe2;" horiz-adv-x="913" 
d="M225 248q0 -78 45 -121t120 -43t192 106l12 308q-201 -52 -285 -112t-84 -138zM721 -31q-59 0 -95 38t-36 114h-8q-142 -152 -250 -152t-182 68t-74 170q0 127 121 207t401 149v19q2 156 -50 216t-159 60q-55 0 -108 -18t-54 -35l21 -31q20 -32 20 -66t-28 -62t-72 -28
q-43 0 -71 26t-27 65q0 73 128 155t251 82q171 0 237 -86t57 -313l-16 -391q-4 -72 45 -72q33 0 105 57l34 -45q-104 -127 -190 -127zM680 1040h-55l-209 252h-4l-209 -252h-56l228 398h78z" />
    <glyph glyph-name="atilde" unicode="&#xe3;" horiz-adv-x="913" 
d="M225 248q0 -78 45 -121t120 -43t192 106l12 308q-201 -52 -285 -112t-84 -138zM721 -31q-59 0 -95 38t-36 114h-8q-142 -152 -250 -152t-182 68t-74 170q0 127 121 207t401 149v19q2 156 -50 216t-159 60q-55 0 -108 -18t-54 -35l21 -31q20 -32 20 -66t-28 -62t-72 -28
q-43 0 -71 26t-27 65q0 73 128 155t251 82q171 0 237 -86t57 -313l-16 -391q-4 -72 45 -72q33 0 105 57l34 -45q-104 -127 -190 -127zM553 1065q-70 0 -171 74q-101 73 -133 73q-31 0 -55 -28t-55 -105h-53q41 240 197 240q70 0 171 -74t133 -74q31 0 55 28t54 106h54
q-41 -240 -197 -240z" />
    <glyph glyph-name="adieresis" unicode="&#xe4;" horiz-adv-x="913" 
d="M225 248q0 -78 45 -121t120 -43t192 106l12 308q-201 -52 -285 -112t-84 -138zM721 -31q-59 0 -95 38t-36 114h-8q-142 -152 -250 -152t-182 68t-74 170q0 127 121 207t401 149v19q2 156 -50 216t-159 60q-55 0 -108 -18t-54 -35l21 -31q20 -32 20 -66t-28 -62t-72 -28
q-43 0 -71 26t-27 65q0 73 128 155t251 82q171 0 237 -86t57 -313l-16 -391q-4 -72 45 -72q33 0 105 57l34 -45q-104 -127 -190 -127zM338 1223q0 -49 -31 -85t-82 -36t-82 36t-30 85q0 49 30 85q31 36 82 36t82 -36t31 -85zM748 1223q0 -49 -31 -85t-82 -36t-82 36t-31 85
t31 85t81 36t82 -36t32 -85z" />
    <glyph glyph-name="aring" unicode="&#xe5;" horiz-adv-x="913" 
d="M225 248q0 -78 45 -121t120 -43t192 106l12 308q-201 -53 -285 -112.5t-84 -137.5zM563 1240q0 54 -32.5 92t-88 38t-88 -38t-32.5 -92t32.5 -92t88 -38t88 38t32.5 92zM721 -31q-59 0 -95 38t-36 114h-8q-142 -152 -250 -152t-182 67.5t-74 182.5t120.5 195t401.5 149
v19q2 156 -50 216t-159 60q-55 0 -108.5 -18.5t-53.5 -34.5l21 -31q20 -32 20 -66t-28.5 -62t-71.5 -28t-70.5 26t-27.5 65q0 74 128 155.5t251 81.5q172 0 237.5 -86t56.5 -313l-16 -391q-4 -72 45 -72q33 0 105 57l34 -45q-104 -127 -190 -127zM625 1239q0 -78 -50.5 -131
t-132.5 -53t-132 53t-50 131t50 131t132 53t132.5 -53t50.5 -131z" />
    <glyph glyph-name="ae" unicode="&#xe6;" horiz-adv-x="1456" 
d="M225 248q0 -78 45 -121t115 -43q129 0 240 141q-37 100 -37 205q0 19 6 68q-201 -53 -285 -112.5t-84 -137.5zM1023 872q-91 0 -168 -71.5t-101 -192.5h19l374 2h63q6 121 -45 191.5t-142 70.5zM1076 100q150 0 251 125l41 -24q-55 -109 -151.5 -169.5t-212.5 -60.5
t-208 55.5t-147 151.5q-59 -90 -148 -149.5t-184 -59.5t-168 68.5t-73 181.5t121.5 194t400.5 150v25q18 270 -209 270q-55 0 -108.5 -18.5t-53.5 -34.5l21 -31q20 -32 20 -66t-28.5 -62t-71.5 -28t-70.5 26t-27.5 65q0 74 128 155.5t251 81.5q229 0 274 -153
q139 152 336 151q143 0 229 -82t86 -215q0 -66 -12 -108l-617 8l-2 -49q0 -174 91.5 -286t241.5 -112z" />
    <glyph glyph-name="ccedilla" unicode="&#xe7;" horiz-adv-x="905" 
d="M840 765q0 -116 -112 -116q-50 0 -80 53.5t-7 126.5v5q-51 37 -129 36q-123 0 -205 -102t-82 -270t91.5 -283t239.5 -115t253 125l41 -24q-98 -197 -307 -226l-92 -96q119 4 191.5 -44t72.5 -141t-109.5 -159.5t-308.5 -81.5l-16 45q319 43 319 180q0 51 -44 81t-112 30
t-137 -10v35l150 157q-170 10 -278.5 139.5t-108.5 335.5t140 352t337 146q133 0 213 -57.5t80 -121.5z" />
    <glyph glyph-name="egrave" unicode="&#xe8;" horiz-adv-x="935" 
d="M353 608l221 2h116q8 119 -44 191q-52 71 -142 71t-167 -72t-101 -192h117zM539 944q143 0 229 -82t86 -215q0 -61 -10 -108l-617 8q-2 -8 -2 -49q0 -174 91 -286t240 -112t253 125l41 -24q-56 -109 -152 -169t-217 -61q-178 0 -295 130q-116 130 -116 340q0 211 137 357
t332 146zM565 1040h-45l-338 377h187z" />
    <glyph glyph-name="eacute" unicode="&#xe9;" horiz-adv-x="935" 
d="M353 608l221 2h116q8 119 -44 191q-52 71 -142 71t-167 -72t-101 -192h117zM539 944q143 0 229 -82t86 -215q0 -61 -10 -108l-617 8q-2 -8 -2 -49q0 -174 91 -286t240 -112t253 125l41 -24q-56 -109 -152 -169t-217 -61q-178 0 -295 130q-116 130 -116 340q0 211 137 357
t332 146zM760 1417l-338 -377h-47l192 377h193z" />
    <glyph glyph-name="ecircumflex" unicode="&#xea;" horiz-adv-x="935" 
d="M353 608l221 2h116q8 119 -44 191q-52 71 -142 71t-167 -72t-101 -192h117zM539 944q143 0 229 -82t86 -215q0 -61 -10 -108l-617 8q-2 -8 -2 -49q0 -174 91 -286t240 -112t253 125l41 -24q-56 -109 -152 -169t-217 -61q-178 0 -295 130q-116 130 -116 340q0 211 137 357
t332 146zM741 1040h-55l-209 252h-4l-209 -252h-55l227 398h78z" />
    <glyph glyph-name="edieresis" unicode="&#xeb;" horiz-adv-x="935" 
d="M353 608l221 2h116q8 119 -44 191q-52 71 -142 71t-167 -72t-101 -192h117zM539 944q143 0 229 -82t86 -215q0 -61 -10 -108l-617 8q-2 -8 -2 -49q0 -174 91 -286t240 -112t253 125l41 -24q-56 -109 -152 -169t-217 -61q-178 0 -295 130q-116 130 -116 340q0 211 137 357
t332 146zM383 1223q0 -49 -31 -85t-82 -36t-82 36t-30 85q0 49 30 85q31 36 82 36t82 -36t31 -85zM793 1223q0 -49 -31 -85t-82 -36t-82 36t-31 85t31 85t81 36t82 -36t32 -85z" />
    <glyph glyph-name="igrave" unicode="&#xec;" horiz-adv-x="544" 
d="M201 109v575q-1 72 -13 94t-57 31l-82 12l4 56l293 67v-838q0 -27 57 -28l86 -8l7 -70h-439l6 70l87 8q51 2 51 31zM348 1040h-45l-338 377h187z" />
    <glyph glyph-name="iacute" unicode="&#xed;" horiz-adv-x="544" 
d="M201 109v575q-1 72 -13 94t-57 31l-82 12l4 56l293 67v-838q0 -27 57 -28l86 -8l7 -70h-439l6 70l87 8q51 2 51 31zM555 1417l-338 -377h-47l192 377h193z" />
    <glyph glyph-name="icircumflex" unicode="&#xee;" horiz-adv-x="544" 
d="M201 109v575q-1 72 -13 94t-57 31l-82 12l4 56l293 67v-838q0 -27 57 -28l86 -8l7 -70h-439l6 70l87 8q51 2 51 31zM535 1040h-56l-209 252h-4l-209 -252h-55l227 398h78z" />
    <glyph glyph-name="idieresis" unicode="&#xef;" horiz-adv-x="544" 
d="M201 109v575q-1 72 -13 94t-57 31l-82 12l4 56l293 67v-838q0 -27 57 -28l86 -8l7 -70h-439l6 70l87 8q51 2 51 31zM176 1223q0 -49 -31 -85t-82 -36t-81 36t-31 85q0 49 31 85q32 36 82 36t81 -36t31 -85zM586 1223q0 -49 -31 -85t-82 -36t-82 36t-31 85t31 85t81 36
t82 -36t32 -85z" />
    <glyph glyph-name="eth" unicode="&#xf0;" 
d="M215 508q0 -250 129 -379q80 -80 194 -80t192.5 94.5t78.5 264.5q0 246 -123 372q-84 84 -200 84t-193.5 -94t-77.5 -262zM973 543q0 -248 -125 -411t-334 -163t-335 140.5t-126 348.5t128 344t300 136q98 0 184.5 -51t137.5 -150q-58 260 -238 418l-303 -100v84l225 75
q-102 68 -229 103l31 53q164 -33 301 -123l268 90v-84l-188 -63q143 -119 223 -287t80 -360z" />
    <glyph glyph-name="ntilde" unicode="&#xf1;" horiz-adv-x="1110" 
d="M786 109v446q0 145 -49 205t-157 59q-108 0 -234 -102v-611q0 -27 55 -28l95 -8l6 -70h-443l7 70l81 8q51 2 52 31v579q1 70 -11 90t-53 31l-86 12l2 56l295 67v-147h10q174 147 328 147q106 0 177 -70t71 -223v-542q0 -27 61 -31l82 -8l6 -70h-436l6 70l84 8q51 2 51 31
zM690 1065q-70 0 -171 74q-101 73 -133 73t-56 -28t-54 -105h-53q41 240 197 240q70 0 171 -74t133 -74t56 28t54 106h53q-41 -240 -197 -240z" />
    <glyph glyph-name="ograve" unicode="&#xf2;" horiz-adv-x="1060" 
d="M831 416q0 250 -110 366q-84 84 -203 84t-202 -101t-83 -267q0 -252 113 -367q78 -82 198 -82q120 -1 204 101t83 266zM546 944q198 0 322 -132t123 -341q0 -209 -136 -355t-336 -146q-199 0 -323 136t-124 346t138 351t336 141zM616 1040h-45l-338 377h187z" />
    <glyph glyph-name="oacute" unicode="&#xf3;" horiz-adv-x="1060" 
d="M831 416q0 250 -110 366q-84 84 -203 84t-202 -101t-83 -267q0 -252 113 -367q78 -82 198 -82q120 -1 204 101t83 266zM546 944q198 0 322 -132t123 -341q0 -209 -136 -355t-336 -146q-199 0 -323 136t-124 346t138 351t336 141zM827 1417l-338 -377h-47l193 377h192z
" />
    <glyph glyph-name="ocircumflex" unicode="&#xf4;" horiz-adv-x="1060" 
d="M831 416q0 250 -110 366q-84 84 -203 84t-202 -101t-83 -267q0 -252 113 -367q78 -82 198 -82q120 -1 204 101t83 266zM546 944q198 0 322 -132t123 -341q0 -209 -136 -355t-336 -146q-199 0 -323 136t-124 346t138 351t336 141zM797 1040h-56l-209 252h-4l-209 -252h-55
l228 398h77z" />
    <glyph glyph-name="otilde" unicode="&#xf5;" horiz-adv-x="1060" 
d="M831 416q0 250 -110 366q-84 84 -203 84t-202 -101t-83 -267q0 -252 113 -367q78 -82 198 -82q120 -1 204 101t83 266zM546 944q198 0 322 -132t123 -341q0 -209 -136 -355t-336 -146q-199 0 -323 136t-124 346t138 351t336 141zM666 1065q-70 0 -171 74q-101 73 -133 73
t-56 -28t-54 -105h-53q41 240 196 240q70 0 171 -74t133 -74t56 28t54 106h53q-41 -240 -196 -240z" />
    <glyph glyph-name="odieresis" unicode="&#xf6;" horiz-adv-x="1060" 
d="M831 416q0 250 -110 366q-84 84 -203 84t-202 -101t-83 -267q0 -252 113 -367q78 -82 198 -82q120 -1 204 101t83 266zM546 944q198 0 322 -132t123 -341q0 -209 -136 -355t-336 -146q-199 0 -323 136t-124 346t138 351t336 141zM438 1223q0 -49 -30 -85t-82 -36
q-51 0 -82 36t-31 85t31 85t82 36t82 -36q30 -36 30 -85zM848 1223q0 -49 -31 -85t-82 -36t-82 36t-30 85q0 49 30 85q31 36 81 36t82 -36t32 -85z" />
    <glyph glyph-name="divide" unicode="&#xf7;" horiz-adv-x="983" 
d="M600 766q0 -43 -30.5 -75t-75.5 -32t-75 32t-30 75t30 74.5t75 31.5t75.5 -31.5t30.5 -74.5zM600 193q0 -43 -29.5 -75t-74.5 -32t-76 32t-31 75t31 73.5t76 30.5t74.5 -30.5t29.5 -73.5zM918 430h-852l6 100h839z" />
    <glyph glyph-name="oslash" unicode="&#xf8;" horiz-adv-x="1060" 
d="M829 426q0 186 -96 313l-360 -622q79 -68 191 -68t188.5 95.5t76.5 281.5zM225 490q0 -186 101 -320l358 623q-78 71 -192 71t-190.5 -94t-76.5 -280zM981 459q0 -205 -131 -347.5t-328 -142.5q-109 0 -207 49l-141 -247h-80l164 282q-86 66 -134 171.5t-48 230.5
q0 205 131 347t328 142q111 0 208 -49l162 279h78l-182 -318q84 -66 132 -170t48 -227z" />
    <glyph glyph-name="ugrave" unicode="&#xf9;" horiz-adv-x="1077" 
d="M752 119h-11q-178 -150 -327 -150q-106 0 -172 68q-76 74 -76 225l4 545q0 21 -9 23t-15 2q-6 2 -19 3q-12 1 -23 3l-77 8l-7 67h306l-15 -553q0 -147 49 -206q49 -60 160 -60t232 105v608q0 27 -56 31l-102 8l-6 67h311v-786q0 -33 19 -39l147 -33l-6 -49l-307 -37v150z
M598 1040h-45l-338 377h186z" />
    <glyph glyph-name="uacute" unicode="&#xfa;" horiz-adv-x="1077" 
d="M752 119h-11q-178 -150 -327 -150q-106 0 -172 68q-76 74 -76 225l4 545q0 21 -9 23t-15 2q-6 2 -19 3q-12 1 -23 3l-77 8l-7 67h306l-15 -553q0 -147 49 -206q49 -60 160 -60t232 105v608q0 27 -56 31l-102 8l-6 67h311v-786q0 -33 19 -39l147 -33l-6 -49l-307 -37v150z
M827 1417l-338 -377h-47l193 377h192z" />
    <glyph glyph-name="ucircumflex" unicode="&#xfb;" horiz-adv-x="1077" 
d="M752 119h-11q-178 -150 -327 -150q-106 0 -172 68q-76 74 -76 225l4 545q0 21 -9 23t-15 2q-6 2 -19 3q-12 1 -23 3l-77 8l-7 67h306l-15 -553q0 -147 49 -206q49 -60 160 -60t232 105v608q0 27 -56 31l-102 8l-6 67h311v-786q0 -33 19 -39l147 -33l-6 -49l-307 -37v150z
M780 1040h-55l-209 252h-4l-209 -252h-55l227 398h78z" />
    <glyph glyph-name="udieresis" unicode="&#xfc;" horiz-adv-x="1077" 
d="M825 1223q0 -49 -30.5 -85t-81.5 -36t-82 36t-31 85t31 84.5t81 35.5t81.5 -35.5t31.5 -84.5zM416 1223q0 -49 -31 -85t-82 -36t-82 36t-31 85t31 84.5t82 35.5t82 -35.5t31 -84.5zM752 119h-11q-178 -150 -327 -150q-106 0 -172 68q-76 74 -76 225l4 545q0 21 -9 22.5
t-15.5 3t-18.5 2.5t-23 3l-77 8l-7 67h306l-15 -553q0 -147 49.5 -206.5t159.5 -59.5t232 105v608q0 27 -56 31l-102 8l-6 67h311v-786q0 -33 19 -39l147 -33l-6 -49l-307 -37v150z" />
    <glyph glyph-name="yacute" unicode="&#xfd;" horiz-adv-x="925" 
d="M84 -431q0 46 25 75t71 28q78 0 117 -73q45 20 90 157l78 224v2l-356 790q-13 33 -27 43t-51 16l-60 13l-8 69h422l-6 -67l-70 -10q-57 -4 -35 -56l254 -604l195 555q18 51 10 74t-49 26l-76 15l-6 67h371l-6 -67l-68 -15q-33 -4 -50 -24t-44 -84l-250 -680l-98 -311
q-45 -140 -99 -204t-128 -64t-110 29q-36 30 -36 76zM745 1417l-337 -377h-48l193 377h192z" />
    <glyph glyph-name="thorn" unicode="&#xfe;" horiz-adv-x="1050" 
d="M819 429q0 167 -76.5 272.5t-205.5 105.5t-234 -127v-518q117 -113 234 -113t199.5 106.5t82.5 273.5zM979 482q0 -200 -131 -356.5t-346 -156.5q-100 0 -195 35h-4v-401q0 -27 57 -29l107 -8l6 -70h-459l6 70l86 8q51 2 52 31v1609q0 37 -23 43l-151 46l6 51l313 73
v-643h8q141 150 302 150t263.5 -126t102.5 -326z" />
    <glyph glyph-name="ydieresis" unicode="&#xff;" horiz-adv-x="925" 
d="M84 -431q0 46 25 75t71 28q78 0 117 -73q45 20 90 157l78 224v2l-356 790q-13 33 -27 43t-51 16l-60 13l-8 69h422l-6 -67l-70 -10q-57 -4 -35 -56l254 -604l195 555q18 51 10 74t-49 26l-76 15l-6 67h371l-6 -67l-68 -15q-33 -4 -50 -24t-44 -84l-250 -680l-98 -311
q-45 -140 -99 -204t-128 -64t-110 29q-36 30 -36 76zM389 1223q0 -49 -31 -85t-82 -36q-52 0 -82 36t-30 85t31 85t81 36t82 -36q31 -36 31 -85zM799 1223q0 -49 -31 -85t-82 -36t-82 36t-31 85t31 85t81 36t82 -36t32 -85z" />
    <glyph glyph-name="Amacron" unicode="&#x100;" horiz-adv-x="1222" 
d="M764 547l-182 575h-11l-194 -575h387zM1255 0h-526l6 70l117 14q27 6 39 23t-25 131l-75 225h-443l-74 -223q-32 -82 -30 -115t37 -41l102 -14l6 -70h-422l6 70l82 14q47 10 77 59t95 234l285 803v65l170 72l395 -1188q10 -33 51 -39l121 -20zM874 1468h-505l6 84h493z
" />
    <glyph glyph-name="amacron" unicode="&#x101;" horiz-adv-x="913" 
d="M225 248q0 -78 45 -121t120 -43t192 106l12 308q-201 -52 -285 -112t-84 -138zM721 -31q-59 0 -95 38t-36 114h-8q-142 -152 -250 -152t-182 68t-74 170q0 127 121 207t401 149v19q2 156 -50 216t-159 60q-55 0 -108 -18t-54 -35l21 -31q20 -32 20 -66t-28 -62t-72 -28
q-43 0 -71 26t-27 65q0 73 128 155t251 82q171 0 237 -86t57 -313l-16 -391q-4 -72 45 -72q33 0 105 57l34 -45q-104 -127 -190 -127zM694 1104h-506l7 84h493z" />
    <glyph glyph-name="Abreve" unicode="&#x102;" horiz-adv-x="1222" 
d="M764 547l-182 575h-11l-194 -575h387zM1255 0h-526l6 70l117 14q27 6 39 23t-25 131l-75 225h-443l-74 -223q-32 -82 -30 -115t37 -41l102 -14l6 -70h-422l6 70l82 14q47 10 77 59t95 234l285 803v65l170 72l395 -1188q10 -33 51 -39l121 -20zM614 1499q74 0 127 74
t107 209h47q-45 -221 -113 -303q-67 -82 -168 -80q-151 0 -220 173q-33 81 -60 210h47q53 -135 106 -209t127 -74z" />
    <glyph glyph-name="abreve" unicode="&#x103;" horiz-adv-x="913" 
d="M225 248q0 -78 45 -121t120 -43t192 106l12 308q-201 -52 -285 -112t-84 -138zM721 -31q-59 0 -95 38t-36 114h-8q-142 -152 -250 -152t-182 68t-74 170q0 127 121 207t401 149v19q2 156 -50 216t-159 60q-55 0 -108 -18t-54 -35l21 -31q20 -32 20 -66t-28 -62t-72 -28
q-43 0 -71 26t-27 65q0 73 128 155t251 82q171 0 237 -86t57 -313l-16 -391q-4 -72 45 -72q33 0 105 57l34 -45q-104 -127 -190 -127zM444 1034q-185 0 -255 274q-11 42 -25 109h47q53 -135 106 -209t127 -74t127 74t107 209h47q-45 -221 -111 -301q-68 -82 -170 -82z" />
    <glyph glyph-name="Aogonek" unicode="&#x104;" horiz-adv-x="1222" 
d="M764 547l-182 575h-11l-194 -575h387zM1074 -434q-73 0 -123 46t-50 130q0 143 184 258h-356l6 70l117 14q39 8 41 35.5t-27 118.5l-75 225h-443l-72 -223q-31 -86 -30.5 -117t35.5 -37l102 -16l6 -70h-422l6 70l82 14q47 10 77 59.5t95 233.5l285 803v65l170 72
l395 -1188q10 -33 51 -39l121 -20l6 -70q-102 -23 -165.5 -82t-63.5 -137q0 -47 27 -79t83 -32t95 43l22 -24q-12 -49 -59 -86t-120 -37z" />
    <glyph glyph-name="aogonek" unicode="&#x105;" horiz-adv-x="913" 
d="M227 248q0 -78 44 -121t119 -43t192 106l12 308q-201 -53 -284 -112.5t-83 -137.5zM723 -434q-76 0 -127 47t-51 128t44 143.5t109 97.5q-111 0 -108 139h-8q-142 -152 -250 -152t-182 67.5t-74 182.5t120.5 195t401.5 149v19q2 156 -50 216t-159 60q-55 0 -108.5 -18.5
t-53.5 -34.5l21 -31q20 -32 20 -66t-27.5 -62t-71.5 -28t-71.5 26t-27.5 65q0 74 128 155.5t251 81.5q172 0 237.5 -86t56.5 -313l-16 -391q-4 -72 47 -72q31 0 103 57l34 -45q-31 -51 -116 -108q-127 -88 -127 -209q0 -45 30 -77t88 -32t97 43l22 -24q-12 -49 -59 -86
t-123 -37z" />
    <glyph glyph-name="Cacute" unicode="&#x106;" horiz-adv-x="1359" 
d="M793 -31q-303 0 -501 176q-198 175 -198 481t201 494t506 189q160 0 284 -39l156 33v-416h-86l-53 266q-133 76 -314 76q-225 0 -366 -164t-141 -426t141 -427t389 -165q147 0 264 62l86 276h90l-49 -387l-94 20q-152 -49 -315 -49zM1057 1782l-338 -377h-47l192 377h193
z" />
    <glyph glyph-name="cacute" unicode="&#x107;" horiz-adv-x="905" 
d="M547 944q133 0 213 -57t80 -133q0 -53 -31 -79t-81 -26t-80 53t-7 127v5q-51 37 -129 36q-123 0 -205 -102t-82 -270t91 -283t240 -115t253 125l41 -24q-56 -109 -152 -169t-217 -61q-178 0 -295 130q-116 130 -116 340q0 211 140 357t337 146zM784 1417l-338 -377h-47
l193 377h192z" />
    <glyph glyph-name="Ccircumflex" unicode="&#x108;" horiz-adv-x="1359" 
d="M793 -31q-303 0 -501 176q-198 175 -198 481t201 494t506 189q160 0 284 -39l156 33v-416h-86l-53 266q-133 76 -314 76q-225 0 -366 -164t-141 -426t141 -427t389 -165q147 0 264 62l86 276h90l-49 -387l-94 20q-152 -49 -315 -49zM1014 1405h-56l-208 252h-5l-208 -252
h-56l228 397h77z" />
    <glyph glyph-name="ccircumflex" unicode="&#x109;" horiz-adv-x="905" 
d="M547 944q133 0 213 -57t80 -133q0 -53 -31 -79t-81 -26t-80 53t-7 127v5q-51 37 -129 36q-123 0 -205 -102t-82 -270t91 -283t240 -115t253 125l41 -24q-56 -109 -152 -169t-217 -61q-178 0 -295 130q-116 130 -116 340q0 211 140 357t337 146zM772 1040h-55l-209 252h-4
l-209 -252h-55l227 398h78z" />
    <glyph glyph-name="Cdotaccent" unicode="&#x10a;" horiz-adv-x="1359" 
d="M793 -31q-303 0 -501 176q-198 175 -198 481t201 494t506 189q160 0 284 -39l156 33v-416h-86l-53 266q-133 76 -314 76q-225 0 -366 -164t-141 -426t141 -427t389 -165q147 0 264 62l86 276h90l-49 -387l-94 20q-152 -49 -315 -49zM899 1598q0 -50 -32 -87t-84 -37
t-84 38q-32 36 -31 87q0 51 31 88q32 35 84 35t84 -37t32 -87z" />
    <glyph glyph-name="cdotaccent" unicode="&#x10b;" horiz-adv-x="905" 
d="M547 944q133 0 213 -57t80 -133q0 -53 -31 -79t-81 -26t-80 53t-7 127v5q-51 37 -129 36q-123 0 -205 -102t-82 -270t91 -283t240 -115t253 125l41 -24q-56 -109 -152 -169t-217 -61q-178 0 -295 130q-116 130 -116 340q0 211 140 357t337 146zM627 1234q0 -50 -32 -87
t-84 -37t-84 37t-32 88t32 87t84 36t84 -37t32 -87z" />
    <glyph glyph-name="Ccaron" unicode="&#x10c;" horiz-adv-x="1359" 
d="M793 -31q-303 0 -501 176q-198 175 -198 481t201 494t506 189q160 0 284 -39l156 33v-416h-86l-53 266q-133 76 -314 76q-225 0 -366 -164t-141 -426t141 -427t389 -165q147 0 264 62l86 276h90l-49 -387l-94 20q-152 -49 -315 -49zM1006 1802l-228 -397h-78l-227 397h55
l209 -252h4l209 252h56z" />
    <glyph glyph-name="ccaron" unicode="&#x10d;" horiz-adv-x="905" 
d="M547 944q133 0 213 -57t80 -133q0 -53 -31 -79t-81 -26t-80 53t-7 127v5q-51 37 -129 36q-123 0 -205 -102t-82 -270t91 -283t240 -115t253 125l41 -24q-56 -109 -152 -169t-217 -61q-178 0 -295 130q-116 130 -116 340q0 211 140 357t337 146zM772 1438l-227 -398h-78
l-227 398h55l209 -252h4l209 252h55z" />
    <glyph glyph-name="Dcaron" unicode="&#x10e;" horiz-adv-x="1390" 
d="M1114 636q0 252 -160 412t-456 158h-78v-1104l164 -26q248 4 389 156t141 404zM539 0h-453l6 70l107 12q53 6 53 29v1060q0 11 -10 17t-43 10l-107 12l-6 70l455 6q345 2 551 -172t206 -449t-188 -465q-92 -92 -240 -146t-331 -54zM897 1802l-227 -397h-78l-227 397h55
l209 -252h4l209 252h55z" />
    <glyph glyph-name="dcaron" unicode="&#x10f;" horiz-adv-x="1527" 
d="M508 856q-121 0 -200 -103t-79 -275t80 -277q79 -107 207 -107t232 94v549q-119 119 -240 119zM748 106h-7q-123 -135 -287 -135t-275 130q-109 130 -109 337q0 208 137 354t352 146q84 0 184 -37h5v359q0 31 -19 36l-160 37l9 49l315 45v-1300q0 -33 20 -39l146 -33
l-6 -49l-305 -37v137zM1413 1249q0 -193 -285 -399l-45 33q172 127 172 270q0 65 -46 102t-75 51q-30 13 -30 15q0 49 35 82t99 33t120 -54q55 -54 55 -133z" />
    <glyph glyph-name="Dcroat" unicode="&#x110;" horiz-adv-x="1370" 
d="M410 694h254l6 -80h-260v-512l165 -26q246 -4 392.5 148.5t146.5 387.5q0 274 -163 434t-464 160h-77v-512zM252 614h-184l6 80h178v459q0 31 -37 37l-125 20l-6 70l444 6q340 2 549 -172t209 -460t-195.5 -470t-564.5 -184h-442l6 70l125 20q37 6 37 37v487z" />
    <glyph glyph-name="dcroat" unicode="&#x111;" horiz-adv-x="1077" 
d="M508 856q-121 0 -200 -103.5t-79 -274.5t79.5 -277.5t207.5 -106.5t232 94v549q-119 119 -240 119zM748 106h-7q-123 -135 -287 -135t-274 130t-110 337t137 353.5t352 146.5q84 0 184 -37h5v182h-236l8 80h228v97q0 31 -19 36l-160 37l9 49l315 45v-264h176l4 -80h-180
v-956q0 -33 20 -39l146 -33l-6 -49l-305 -37v137z" />
    <glyph glyph-name="Emacron" unicode="&#x112;" horiz-adv-x="1196" 
d="M252 111v1060q0 11 -10 17t-43 10l-107 12l-6 70h983v-371h-88l-45 207q-12 44 -40 60t-109 22t-289 6h-78v-514h78q131 0 165 6t42 33l45 137h71l-43 -426h-67l-17 131q-2 19 -12 27q-22 19 -188 18h-74v-540h55q381 0 437 29q30 15 44 59l52 198h100l-39 -362h-983
l6 70l107 12q53 6 53 29zM877 1468h-506l6 84h493z" />
    <glyph glyph-name="emacron" unicode="&#x113;" horiz-adv-x="935" 
d="M353 608l221 2h116q8 119 -44 191q-52 71 -142 71t-167 -72t-101 -192h117zM539 944q143 0 229 -82t86 -215q0 -61 -10 -108l-617 8q-2 -8 -2 -49q0 -174 91 -286t240 -112t253 125l41 -24q-56 -109 -152 -169t-217 -61q-178 0 -295 130q-116 130 -116 340q0 211 137 357
t332 146zM750 1104h-506l6 84h493z" />
    <glyph glyph-name="Ebreve" unicode="&#x114;" horiz-adv-x="1196" 
d="M252 111v1060q0 11 -10 17t-43 10l-107 12l-6 70h983v-371h-88l-45 207q-12 44 -40 60t-109 22t-289 6h-78v-514h78q131 0 165 6t42 33l45 137h71l-43 -426h-67l-17 131q-2 19 -12 27q-22 19 -188 18h-74v-540h55q381 0 437 29q30 15 44 59l52 198h100l-39 -362h-983
l6 70l107 12q53 6 53 29zM623 1499q74 0 127 74t106 209h47q-45 -218 -112 -302q-67 -83 -168 -81q-105 0 -171 82q-61 76 -110 301h47q53 -135 107 -209t127 -74z" />
    <glyph glyph-name="ebreve" unicode="&#x115;" horiz-adv-x="935" 
d="M353 608l221 2h116q8 119 -44 191q-52 71 -142 71t-167 -72t-101 -192h117zM539 944q143 0 229 -82t86 -215q0 -61 -10 -108l-617 8q-2 -8 -2 -49q0 -174 91 -286t240 -112t253 125l41 -24q-56 -109 -152 -169t-217 -61q-178 0 -295 130q-116 130 -116 340q0 211 137 357
t332 146zM512 1034q-185 0 -255 274q-11 42 -26 109h48q53 -135 106 -209t127 -74t127 74t106 209h48q-45 -217 -111 -301q-67 -82 -170 -82z" />
    <glyph glyph-name="Edotaccent" unicode="&#x116;" horiz-adv-x="1196" 
d="M252 111v1060q0 11 -10 17t-43 10l-107 12l-6 70h983v-371h-88l-45 207q-12 44 -40 60t-109 22t-289 6h-78v-514h78q131 0 165 6t42 33l45 137h71l-43 -426h-67l-17 131q-2 19 -12 27q-22 19 -188 18h-74v-540h55q381 0 437 29q30 15 44 59l52 198h100l-39 -362h-983
l6 70l107 12q53 6 53 29zM502 1599q0 51 32 87t84 36t83 -37q32 -37 32 -87t-32 -87t-84 -37q-51 0 -83 38q-32 36 -32 87z" />
    <glyph glyph-name="edotaccent" unicode="&#x117;" horiz-adv-x="935" 
d="M353 608l221 2h116q8 119 -44 191q-52 71 -142 71t-167 -72t-101 -192h117zM539 944q143 0 229 -82t86 -215q0 -61 -10 -108l-617 8q-2 -8 -2 -49q0 -174 91 -286t240 -112t253 125l41 -24q-56 -109 -152 -169t-217 -61q-178 0 -295 130q-116 130 -116 340q0 211 137 357
t332 146zM621 1234q0 -50 -32 -87t-84 -37t-84 37t-32 88t32 87t84 36t84 -37t32 -87z" />
    <glyph glyph-name="Eogonek" unicode="&#x118;" horiz-adv-x="1196" 
d="M890 -434q-73 0 -122 47t-49 131q0 137 170 256h-803l6 70l107 12q53 6 53 29v1060q0 12 -10.5 17.5t-42.5 9.5l-107 12l-6 70h983v-371h-88l-45 207q-12 43 -40 59.5t-107.5 22.5t-288.5 6h-80v-514h78q131 0 164.5 6t42.5 33l45 137h71l-43 -426h-67l-17 131
q-2 18 -18 31.5t-182 13.5h-74v-540h55q383 0 426 22.5t57 65.5l50 198h100l-39 -362h-104q-119 -106 -119 -217q0 -49 26 -81t82 -32t93 43l22 -24q-12 -49 -59 -86t-120 -37z" />
    <glyph glyph-name="eogonek" unicode="&#x119;" horiz-adv-x="935" 
d="M504 872q-90 0 -166.5 -71.5t-101.5 -192.5l454 2q8 119 -44 190.5t-142 71.5zM577 -434q-73 0 -123.5 47t-50.5 121q0 141 146 243q-29 -6 -68 -6q-178 0 -294.5 130t-116.5 340t138 356.5t333 146.5q141 0 227 -82t86 -215q0 -61 -10 -108l-617 8q-2 -8 -2 -49
q0 -174 91.5 -286t241.5 -112t251 125l41 -24q-57 -111 -170 -189q-68 -45 -109 -108.5t-41 -116.5t27 -85t83 -32t93 43l23 -24q-12 -49 -59 -86t-120 -37z" />
    <glyph glyph-name="Ecaron" unicode="&#x11a;" horiz-adv-x="1196" 
d="M252 111v1060q0 11 -10 17t-43 10l-107 12l-6 70h983v-371h-88l-45 207q-12 44 -40 60t-109 22t-289 6h-78v-514h78q131 0 165 6t42 33l45 137h71l-43 -426h-67l-17 131q-2 19 -12 27q-22 19 -188 18h-74v-540h55q381 0 437 29q30 15 44 59l52 198h100l-39 -362h-983
l6 70l107 12q53 6 53 29zM903 1802l-227 -397h-78l-227 397h55l209 -252h4l209 252h55z" />
    <glyph glyph-name="ecaron" unicode="&#x11b;" horiz-adv-x="935" 
d="M353 608l221 2h116q8 119 -44 191q-52 71 -142 71t-167 -72t-101 -192h117zM539 944q143 0 229 -82t86 -215q0 -61 -10 -108l-617 8q-2 -8 -2 -49q0 -174 91 -286t240 -112t253 125l41 -24q-56 -109 -152 -169t-217 -61q-178 0 -295 130q-116 130 -116 340q0 211 137 357
t332 146zM768 1438l-227 -398h-78l-227 398h55l209 -252h4l209 252h55z" />
    <glyph glyph-name="Gcircumflex" unicode="&#x11c;" horiz-adv-x="1449" 
d="M1231 453v-320l119 -10l4 -53q-292 -100 -578 -100t-484 175t-198 481t207 494t512 189q162 0 283 -39l155 33v-416h-86l-53 266q-129 76 -315 76q-221 0 -369 -165t-147 -426q0 -261 139 -426t383 -165q139 0 262 51v359q0 23 -53 26l-129 13l-6 67h520l-6 -67l-107 -13
q-53 -8 -53 -30zM1042 1405h-55l-209 252h-4l-209 -252h-55l227 397h78z" />
    <glyph glyph-name="gcircumflex" unicode="&#x11d;" horiz-adv-x="940" 
d="M639 613q0 146 -74 214q-55 51 -138 51t-140 -68q-57 -69 -58 -175q0 -152 88 -234q53 -43 127 -43t121 45q74 64 74 210zM160 -227q0 -99 84 -157t213 -58t212 64t83 159q0 174 -222 182h-63l-174 -4q-45 -19 -89 -69t-44 -117zM350 104q133 0 238 5q135 0 218 -75
t83 -188q1 -160 -143 -262t-363 -102q-164 0 -263 68t-100 176q0 160 193 241v8q-55 9 -93 53t-38 98t47 107t119 86q0 2 2 5v2q-80 38 -127 110t-47 172q0 140 103 238t241 98t248 -51l278 -2v-119l-219 39v-10q63 -78 63 -198t-104 -215q-106 -95 -256 -95q-74 0 -113 12
q-96 -47 -96 -106q0 -41 36 -68t93 -27zM707 1040h-56l-209 252h-4l-209 -252h-55l227 398h78z" />
    <glyph glyph-name="Gbreve" unicode="&#x11e;" horiz-adv-x="1449" 
d="M1231 453v-320l119 -10l4 -53q-292 -100 -578 -100t-484 175t-198 481t207 494t512 189q162 0 283 -39l155 33v-416h-86l-53 266q-129 76 -315 76q-221 0 -369 -165t-147 -426q0 -261 139 -426t383 -165q139 0 262 51v359q0 23 -53 26l-129 13l-6 67h520l-6 -67l-107 -13
q-53 -8 -53 -30zM797 1499q74 0 127 74t106 209h47q-45 -218 -112 -302q-67 -83 -168 -81q-151 0 -220 173q-31 76 -61 210h47q53 -135 107 -209t127 -74z" />
    <glyph glyph-name="gbreve" unicode="&#x11f;" horiz-adv-x="940" 
d="M639 613q0 146 -74 214q-55 51 -138 51t-140 -68q-57 -69 -58 -175q0 -152 88 -234q53 -43 127 -43t121 45q74 64 74 210zM160 -227q0 -99 84 -157t213 -58t212 64t83 159q0 174 -222 182h-63l-174 -4q-45 -19 -89 -69t-44 -117zM350 104q133 0 238 5q135 0 218 -75
t83 -188q1 -160 -143 -262t-363 -102q-164 0 -263 68t-100 176q0 160 193 241v8q-55 9 -93 53t-38 98t47 107t119 86q0 2 2 5v2q-80 38 -127 110t-47 172q0 140 103 238t241 98t248 -51l278 -2v-119l-219 39v-10q63 -78 63 -198t-104 -215q-106 -95 -256 -95q-74 0 -113 12
q-96 -47 -96 -106q0 -41 36 -68t93 -27zM438 1034q-185 0 -255 274q-11 42 -25 109h47q53 -135 106 -209t127 -74t127 74t107 209h47q-45 -217 -111 -301q-68 -82 -170 -82z" />
    <glyph glyph-name="Gdotaccent" unicode="&#x120;" horiz-adv-x="1449" 
d="M1231 453v-320l119 -10l4 -53q-292 -100 -578 -100t-484 175t-198 481t207 494t512 189q162 0 283 -39l155 33v-416h-86l-53 266q-129 76 -315 76q-221 0 -369 -165t-147 -426q0 -261 139 -426t383 -165q139 0 262 51v359q0 23 -53 26l-129 13l-6 67h520l-6 -67l-107 -13
q-53 -8 -53 -30zM911 1598q1 -50 -31 -87t-84 -37t-84 38q-32 36 -32 87t32 87t84 36t84 -36q31 -38 31 -88z" />
    <glyph glyph-name="gdotaccent" unicode="&#x121;" horiz-adv-x="940" 
d="M639 613q0 146 -74 214q-55 51 -138 51t-140 -68q-57 -69 -58 -175q0 -152 88 -234q53 -43 127 -43t121 45q74 64 74 210zM160 -227q0 -99 84 -157t213 -58t212 64t83 159q0 174 -222 182h-63l-174 -4q-45 -19 -89 -69t-44 -117zM350 104q133 0 238 5q135 0 218 -75
t83 -188q1 -160 -143 -262t-363 -102q-164 0 -263 68t-100 176q0 160 193 241v8q-55 9 -93 53t-38 98t47 107t119 86q0 2 2 5v2q-80 38 -127 110t-47 172q0 140 103 238t241 98t248 -51l278 -2v-119l-219 39v-10q63 -78 63 -198t-104 -215q-106 -95 -256 -95q-74 0 -113 12
q-96 -47 -96 -106q0 -41 36 -68t93 -27zM448 1358q52 0 84 -37t31 -87q0 -50 -32 -87q-31 -37 -83 -37t-84 37t-32 88t32 87t84 36z" />
    <glyph glyph-name="Gcommaaccent" unicode="&#x122;" horiz-adv-x="1449" 
d="M1231 453v-320l119 -10l4 -53q-292 -100 -578 -100t-484 175t-198 481t207 494t512 189q162 0 283 -39l155 33v-416h-86l-53 266q-129 76 -315 76q-221 0 -369 -165t-147 -426q0 -261 139 -426t383 -165q139 0 262 51v359q0 23 -53 26l-129 13l-6 67h520l-6 -67l-107 -13
q-53 -8 -53 -30zM820 -104q54 0 96 -48t42 -126t-66 -149t-161 -110l-35 33q137 57 138 174q0 62 -37 88t-62 33q-24 8 -24 10q0 41 27 68q28 27 82 27z" />
    <glyph glyph-name="gcommaaccent" unicode="&#x123;" horiz-adv-x="940" 
d="M317 1212q0 78 67 149t161 109l35 -32q-137 -57 -138 -174q0 -88 61.5 -108.5t61.5 -22.5q0 -41 -27.5 -68t-81.5 -27t-96.5 48t-42.5 126zM639 613q0 146 -74 214q-55 51 -138 51t-140.5 -68.5t-57.5 -174.5q0 -152 88 -234q53 -43 127 -43t121 45q74 64 74 210z
M160 -227q0 -100 84 -157.5t213 -57.5t212 64.5t83 158.5q0 174 -222 182h-16l-221 -4q-45 -18 -89 -68.5t-44 -117.5zM889 -154q0 -160 -143.5 -262t-362.5 -102q-164 0 -263.5 67.5t-99.5 176.5q0 160 193 241v8q-55 10 -93 53.5t-38 97.5t47 107.5t119 85.5q0 2 2 5v2
q-80 37 -127 109.5t-47 172.5q0 141 103.5 238.5t241.5 97.5t247 -51l278 -2v-119l-219 39v-10q63 -78 63 -198t-105 -215t-255 -95q-74 0 -113 12q-96 -47 -96 -106q0 -41 36 -68t93 -27l238 5q135 0 218 -75t83 -188z" />
    <glyph glyph-name="Hcircumflex" unicode="&#x124;" horiz-adv-x="1501" 
d="M1081 111v503h-661v-505q0 -20 53 -27l107 -12l6 -70h-500l6 70l107 12q53 6 53 29v1060q0 11 -10 17t-43 10l-107 12l-6 70h500l-6 -70l-107 -12q-53 -6 -53 -29v-471h661v473q0 23 -53 27l-106 12l-7 70h500l-6 -70l-106 -12q-53 -6 -54 -29v-1060q1 -11 11 -17t43 -10
l106 -12l6 -70h-500l7 70l106 12q53 6 53 29zM1014 1405h-56l-208 252h-5l-208 -252h-56l228 397h77z" />
    <glyph glyph-name="hcircumflex" unicode="&#x125;" horiz-adv-x="1081" 
d="M762 109v446q0 145 -49 205t-158 59q-109 0 -233 -102v-611q0 -27 55 -28l94 -8l6 -70h-442l6 70l82 8q51 2 51 31v1105q0 37 -22 43l-144 46l6 51l308 73v-630h10q174 147 327 147q106 0 177 -70t71 -223v-542q0 -27 62 -31l80 -8l6 -70h-434l6 70l84 8q51 2 51 31z
M723 1511h-55l-209 252h-4l-209 -252h-56l228 398h78z" />
    <glyph glyph-name="Hbar" unicode="&#x126;" horiz-adv-x="1501" 
d="M420 698h661v222h-661v-222zM252 999v172q0 12 -10.5 17.5t-42.5 9.5l-107 12l-6 70h500l-6 -70l-107 -12q-53 -6 -53 -29v-170h661v172q0 23 -53 27l-106 12l-7 70h500l-6 -70l-106 -12q-53 -6 -54 -29v-170h221l7 -79h-228v-811q0 -12 10.5 -17.5t43.5 -9.5l106 -12
l6 -70h-500l7 70l106 12q53 6 53 29v503h-661v-505q0 -20 53 -27l107 -12l6 -70h-500l6 70l107 12q53 6 53 29v809h-227l6 79h221z" />
    <glyph glyph-name="hbar" unicode="&#x127;" horiz-adv-x="1081" 
d="M762 109v446q0 145 -49 204.5t-158 59.5t-233 -102v-611q0 -27 55 -28l94 -8l6 -70h-442l6 70l82 8q51 2 51 31v974h-180l6 80h174v51q0 37 -22 43l-144 46l6 51l308 73v-264h227l6 -80h-233v-286h10q178 147 327 147q106 0 177 -70t71 -223v-542q0 -25 62 -31l80 -8
l6 -70h-432l6 70l82 8q51 2 51 31z" />
    <glyph glyph-name="Imacron" unicode="&#x12a;" horiz-adv-x="718" 
d="M276 111v1060q0 11 -10 17t-43 10l-127 12l-6 70h541l-6 -70l-127 -12q-53 -6 -54 -29v-1060q0 -20 54 -27l127 -12l6 -70h-541l6 70l127 12q53 6 53 29zM616 1468h-505l6 84h493z" />
    <glyph glyph-name="imacron" unicode="&#x12b;" horiz-adv-x="544" 
d="M201 109v575q-1 72 -13 94t-57 31l-82 12l4 56l293 67v-838q0 -27 57 -28l86 -8l7 -70h-439l6 70l87 8q51 2 51 31zM528 1104h-505l6 84h493z" />
    <glyph glyph-name="Ibreve" unicode="&#x12c;" horiz-adv-x="718" 
d="M360 1499q74 0 127 74t107 209h47q-45 -221 -113 -303q-67 -82 -168 -80q-151 0 -220 173q-33 81 -60 210h47q53 -135 106 -209t127 -74zM276 111v1060q0 11 -10 17t-43 10l-127 12l-6 70h541l-6 -70l-127 -12q-53 -6 -54 -29v-1060q0 -20 54 -27l127 -12l6 -70h-541
l6 70l127 12q53 6 53 29z" />
    <glyph glyph-name="ibreve" unicode="&#x12d;" horiz-adv-x="544" 
d="M272 1034q-185 0 -255 274q-11 42 -25 109h47q53 -135 106 -209t127 -74t127 74t107 209h47q-45 -221 -111 -301q-68 -82 -170 -82zM201 109v575q-1 72 -13 94t-57 31l-82 12l4 56l293 67v-838q0 -27 57 -28l86 -8l7 -70h-439l6 70l87 8q51 2 51 31z" />
    <glyph glyph-name="Iogonek" unicode="&#x12e;" horiz-adv-x="718" 
d="M454 -434q-73 0 -123 45t-50 126t58 153.5t134 109.5h-383l6 70l127 12q53 6 53 29v1060q0 12 -10 17.5t-43 9.5l-127 12l-6 70h541l-6 -70l-127 -12q-53 -6 -54 -29v-1060q0 -20 54 -27l127 -12l6 -70q-98 -14 -161.5 -75.5t-63.5 -143.5q0 -47 27 -79t83 -32t94 43
l21 -24q-10 -49 -57 -86t-120 -37z" />
    <glyph glyph-name="iogonek" unicode="&#x12f;" horiz-adv-x="544" 
d="M252 1128q-49 0 -77 34t-28 81t28 81t77 34t76.5 -33t27.5 -81t-27.5 -82t-76.5 -34zM315 -434q-75 0 -127.5 43t-52.5 126t61.5 153.5t149.5 111.5h-289l6 70l87 8q51 2 51 31v575q0 72 -12.5 93.5t-57.5 31.5l-82 12l4 56l293 67v-838q0 -27 57 -28l86 -8l7 -70
q-102 -20 -168 -78.5t-66 -148.5q0 -47 28.5 -75t86.5 -28t96 43l23 -24q-12 -49 -59 -86t-122 -37z" />
    <glyph glyph-name="Idotaccent" unicode="&#x130;" horiz-adv-x="718" 
d="M276 111v1060q0 11 -10 17t-43 10l-127 12l-6 70h541l-6 -70l-127 -12q-53 -6 -54 -29v-1060q0 -20 54 -27l127 -12l6 -70h-541l6 70l127 12q53 6 53 29zM475 1598q0 -50 -32 -87t-84 -37t-84 38q-32 36 -31 87q0 51 31 88q32 35 84 35t84 -37t32 -87z" />
    <glyph glyph-name="dotlessi" unicode="&#x131;" horiz-adv-x="544" 
d="M201 109v575q0 72 -12.5 93.5t-57.5 31.5l-82 12l4 56l293 67v-838q0 -27 57 -28l86 -8l7 -70h-439l6 70l87 8q51 2 51 31z" />
    <glyph glyph-name="Jcircumflex" unicode="&#x134;" horiz-adv-x="796" 
d="M401 1171q0 23 -53 27l-141 12l-6 70h549l-7 -70l-118 -12q-53 -6 -54 -29v-665q0 -256 -97 -395t-275 -140q-88 0 -143 36q-54 36 -54 84t26 72t68 23q110 0 150 -145h2q84 23 119 112t34 322v698zM739 1405h-55l-209 252h-4l-209 -252h-55l227 397h78z" />
    <glyph glyph-name="jcircumflex" unicode="&#x135;" horiz-adv-x="518" 
d="M16 -535q-63 0 -105 32t-42 81t30 77t68 28q96 0 129 -121q98 29 99 274v848q-1 72 -13 94t-57 31l-82 12l4 56l293 67v-1012q-10 -209 -106 -338t-218 -129zM514 1040h-55l-209 252h-4l-209 -252h-55l227 398h78z" />
    <glyph glyph-name="Kcommaaccent" unicode="&#x136;" horiz-adv-x="1296" 
d="M420 109q0 -20 53 -27l107 -12l6 -70h-500l6 70l107 12q53 6 53 29v1060q0 11 -10 17t-43 10l-107 12l-6 70h500l-6 -70l-107 -12q-53 -6 -53 -29v-561l440 443q143 137 43 147l-104 12l-6 70h489l-6 -70l-86 -10q-63 -10 -154 -100l-364 -363l440 -590q27 -39 44 -51
t50 -16l74 -10l6 -70h-452l6 70l80 12q27 6 0 45l-361 508l-139 -137v-389zM693 -104q54 0 96 -48t42 -126q-1 -78 -67 -149t-160 -110l-35 33q137 57 138 174q0 62 -37 88t-62 33q-24 8 -24 10q0 41 27 68q28 27 82 27z" />
    <glyph glyph-name="kcommaaccent" unicode="&#x137;" horiz-adv-x="993" 
d="M322 106q0 -25 55 -28l80 -8l6 -70h-428l6 70l82 8q51 6 51 31v1105q0 37 -22 43l-144 46l6 51l308 73v-964l217 203q115 104 114 135q0 29 -57 39l-66 6l-6 67h426l-6 -67l-51 -8q-41 -6 -82 -35t-127 -107l-166 -151l293 -400q49 -66 80 -67l80 -8l6 -70h-264l-107 174
l-192 277l-92 -84v-261zM534 -104q54 0 96 -48t42 -126t-67 -149t-161 -110l-34 33q137 57 137 174q0 64 -43 91q-32 23 -56 30q-24 8 -24 10q0 41 28 68t82 27z" />
    <glyph glyph-name="Lacute" unicode="&#x139;" horiz-adv-x="1157" 
d="M252 111v1060q0 11 -10 17t-43 10l-107 12l-6 70h518l-6 -70l-125 -12q-53 -6 -53 -29v-1093h51q360 0 414 30q29 16 41 58l61 244h94l-45 -408h-950l6 70l107 12q53 6 53 29zM670 1782l-338 -377h-47l192 377h193z" />
    <glyph glyph-name="lacute" unicode="&#x13a;" horiz-adv-x="548" 
d="M199 1214q0 37 -23 43l-149 46l6 51l311 73v-1321q0 -27 57 -28l86 -8l7 -70h-439l6 70l86 8q51 2 52 31v1105zM551 1870l-338 -377h-47l192 377h193z" />
    <glyph glyph-name="Lcommaaccent" unicode="&#x13b;" horiz-adv-x="1157" 
d="M252 111v1060q0 11 -10 17t-43 10l-107 12l-6 70h518l-6 -70l-125 -12q-53 -6 -53 -29v-1093h51q360 0 414 30q29 16 41 58l61 244h94l-45 -408h-950l6 70l107 12q53 6 53 29zM589 -104q54 0 96 -48t42 -126t-67 -149t-160 -110l-35 33q137 57 137 174q0 64 -43 91
q-31 22 -55 30t-25 10q0 41 28 68t82 27z" />
    <glyph glyph-name="lcommaaccent" unicode="&#x13c;" horiz-adv-x="548" 
d="M269 -104q55 0 97 -48t42 -126t-67 -149t-161 -110l-35 33q137 57 138 174q0 62 -37 88t-62 33q-24 8 -24 10q0 41 27 68q28 27 82 27zM199 1214q0 37 -23 43l-149 46l6 51l311 73v-1321q0 -27 57 -28l86 -8l7 -70h-439l6 70l86 8q51 2 52 31v1105z" />
    <glyph glyph-name="Lcaron" unicode="&#x13d;" horiz-adv-x="1388" 
d="M252 111v1060q0 11 -10 17t-43 10l-107 12l-6 70h518l-6 -70l-125 -12q-53 -6 -53 -29v-1093h51q360 0 414 30q29 16 41 58l61 244h94l-45 -408h-950l6 70l107 12q53 6 53 29zM1374 1118q0 -193 -284 -399l-46 33q172 127 173 270q0 66 -48 103q-48 38 -76 50
q-28 13 -28 15q0 49 35 82q36 33 100 33q64 -1 119 -55t55 -132z" />
    <glyph glyph-name="lcaron" unicode="&#x13e;" horiz-adv-x="980" 
d="M199 1214q0 37 -23 43l-149 46l6 51l311 73v-1321q0 -27 57 -28l86 -8l7 -70h-439l6 70l86 8q51 2 52 31v1105zM866 1247q0 -193 -284 -399l-45 33q172 127 172 270q0 96 -137 160q-15 6 -15 8q0 49 35 82q36 33 100 33t119 -54t55 -133z" />
    <glyph glyph-name="Ldot" unicode="&#x13f;" horiz-adv-x="1433" 
d="M252 111v1060q0 11 -10 17t-43 10l-107 12l-6 70h518l-6 -70l-125 -12q-53 -6 -53 -29v-1093h51q360 0 414 30q29 16 41 58l61 244h94l-45 -408h-950l6 70l107 12q53 6 53 29zM1460 621q0 -51 -36 -89t-90 -36q-54 0 -91 36t-37 88t37 88t91 36t90 -36t36 -87z" />
    <glyph glyph-name="ldotaccent" unicode="&#x140;" horiz-adv-x="880" 
d="M199 1214q0 37 -23 43l-149 46l6 51l311 73v-1321q0 -27 57 -28l86 -8l7 -70h-439l6 70l86 8q51 2 52 31v1105zM846 639q0 -51 -36 -88t-90 -37t-91 37t-37 88t37 87t91 36t90 -36t36 -87z" />
    <glyph glyph-name="Lslash" unicode="&#x141;" horiz-adv-x="1157" 
d="M252 1153q0 31 -37 37l-123 20l-6 70h518l-6 -70l-141 -20q-37 -6 -37 -37v-604l233 61v-86l-233 -61v-387h51q361 0 401.5 23.5t53.5 64.5l61 244h94l-45 -408h-950l6 70l123 20q37 6 37 37v293l-176 -47v84l176 47v649z" />
    <glyph glyph-name="lslash" unicode="&#x142;" horiz-adv-x="546" 
d="M344 127q0 -33 37 -39l121 -18l6 -70h-453l6 70l103 18q35 12 35 39v291l-172 -47v84l172 47v706q0 35 -23 41l-149 45l6 52l311 81v-886l168 47v-86l-168 -45v-330z" />
    <glyph glyph-name="Nacute" unicode="&#x143;" horiz-adv-x="1507" 
d="M1264 903v-919h-99l-805 1126h-8v-733q0 -199 9 -236t21 -44t36 -11l123 -16l6 -70h-471l6 70l123 16q25 4 36 11t20 44t9 236v676q0 63 -14 93t-49 46l-117 18l-6 70h354l738 -1032h6v655q0 199 -10 241q-9 42 -56 50l-123 16l-6 70h473l-6 -70l-123 -16q-25 -4 -36 -11
t-21 -48q-10 -42 -10 -232zM1059 1782l-338 -377h-47l192 377h193z" />
    <glyph glyph-name="nacute" unicode="&#x144;" horiz-adv-x="1110" 
d="M786 109v446q0 145 -49 205t-157 59q-108 0 -234 -102v-611q0 -27 55 -28l95 -8l6 -70h-443l7 70l81 8q51 2 52 31v579q1 70 -11 90t-53 31l-86 12l2 56l295 67v-147h10q174 147 328 147q106 0 177 -70t71 -223v-542q0 -27 61 -31l82 -8l6 -70h-436l6 70l84 8q51 2 51 31
zM860 1417l-338 -377h-47l193 377h192z" />
    <glyph glyph-name="Ncommaaccent" unicode="&#x145;" horiz-adv-x="1507" 
d="M1264 903v-919h-99l-805 1126h-8v-733q0 -199 9 -236t21 -44t36 -11l123 -16l6 -70h-471l6 70l123 16q25 4 36 11t20 44t9 236v676q0 63 -14 93t-49 46l-117 18l-6 70h354l738 -1032h6v655q0 199 -10 241q-9 42 -56 50l-123 16l-6 70h473l-6 -70l-123 -16q-25 -4 -36 -11
t-21 -48q-10 -42 -10 -232zM771 -104q54 0 96 -48t42 -126q-1 -78 -67 -149t-160 -110l-35 33q137 57 137 174q0 64 -43 91q-32 23 -56 31q-23 7 -23 9q0 41 27 68q28 27 82 27z" />
    <glyph glyph-name="ncommaaccent" unicode="&#x146;" horiz-adv-x="1110" 
d="M786 109v446q0 145 -49 205t-157 59q-108 0 -234 -102v-611q0 -27 55 -28l95 -8l6 -70h-443l7 70l81 8q51 2 52 31v579q1 70 -11 90t-53 31l-86 12l2 56l295 67v-147h10q174 147 328 147q106 0 177 -70t71 -223v-542q0 -27 61 -31l82 -8l6 -70h-436l6 70l84 8q51 2 51 31
zM558 -104q54 0 96 -48t42 -126t-66 -149t-161 -110l-35 33q137 57 137 174q0 64 -43 91q-32 23 -56 31q-23 7 -23 9q0 41 27 68q28 27 82 27z" />
    <glyph glyph-name="Ncaron" unicode="&#x147;" horiz-adv-x="1507" 
d="M1264 903v-919h-99l-805 1126h-8v-733q0 -199 9 -236t21 -44t36 -11l123 -16l6 -70h-471l6 70l123 16q25 4 36 11t20 44t9 236v676q0 63 -14 93t-49 46l-117 18l-6 70h354l738 -1032h6v655q0 199 -10 241q-9 42 -56 50l-123 16l-6 70h473l-6 -70l-123 -16q-25 -4 -36 -11
t-21 -48q-10 -42 -10 -232zM1032 1802l-227 -397h-78l-227 397h55l209 -252h4l209 252h55z" />
    <glyph glyph-name="ncaron" unicode="&#x148;" horiz-adv-x="1110" 
d="M786 109v446q0 145 -49 205t-157 59q-108 0 -234 -102v-611q0 -27 55 -28l95 -8l6 -70h-443l7 70l81 8q51 2 52 31v579q1 70 -11 90t-53 31l-86 12l2 56l295 67v-147h10q174 147 328 147q106 0 177 -70t71 -223v-542q0 -27 61 -31l82 -8l6 -70h-436l6 70l84 8q51 2 51 31
zM803 1438l-228 -398h-77l-228 398h56l209 -252h4l209 252h55z" />
    <glyph glyph-name="Omacron" unicode="&#x14c;" horiz-adv-x="1513" 
d="M1233 628q0 271 -141 438t-340 167t-335 -158t-136 -429t140 -438t339 -167t336 158t137 429zM1419 652q0 -286 -191 -484t-475 -199t-471 183q-188 184 -188 470t192 486t475 199q284 -1 471 -185t187 -470zM1026 1468h-506l6 84h494z" />
    <glyph glyph-name="omacron" unicode="&#x14d;" horiz-adv-x="1060" 
d="M831 416q0 250 -110 366q-84 84 -203 84t-202 -101t-83 -267q0 -252 113 -367q78 -82 198 -82q120 -1 204 101t83 266zM546 944q198 0 322 -132t123 -341q0 -209 -136 -355t-336 -146q-199 0 -323 136t-124 346t138 351t336 141zM793 1104h-506l6 84h493z" />
    <glyph glyph-name="Obreve" unicode="&#x14e;" horiz-adv-x="1513" 
d="M1233 628q0 271 -141 438t-340 167t-335 -158t-136 -429t140 -438t339 -167t336 158t137 429zM1419 652q0 -286 -191 -484t-475 -199t-471 183q-188 184 -188 470t192 486t475 199q284 -1 471 -185t187 -470zM772 1499q74 0 127 74t107 209h47q-45 -217 -111 -301
q-69 -84 -170 -82q-151 0 -220 173q-33 81 -60 210h47q53 -135 106 -209t127 -74z" />
    <glyph glyph-name="obreve" unicode="&#x14f;" horiz-adv-x="1060" 
d="M831 416q0 250 -110 366q-84 84 -203 84t-202 -101t-83 -267q0 -252 113 -367q78 -82 198 -82q120 -1 204 101t83 266zM546 944q198 0 322 -132t123 -341q0 -209 -136 -355t-336 -146q-199 0 -323 136t-124 346t138 351t336 141zM537 1034q-149 0 -221 173
q-28 68 -60 210h47q53 -135 107 -209t127 -74q74 0 127 74t106 209h47q-45 -218 -110 -301q-67 -82 -170 -82z" />
    <glyph glyph-name="Ohungarumlaut" unicode="&#x150;" horiz-adv-x="1513" 
d="M1233 628q0 271 -141 438t-340 167t-335 -158t-136 -429t140 -438t339 -167t336 158t137 429zM1419 652q0 -286 -191 -484t-475 -199t-471 183q-188 184 -188 470t192 486t475 199q284 -1 471 -185t187 -470zM872 1782l-303 -377h-45l178 377h170zM1182 1782l-303 -377
h-45l178 377h170z" />
    <glyph glyph-name="ohungarumlaut" unicode="&#x151;" horiz-adv-x="1060" 
d="M831 416q0 250 -110 366q-84 84 -203 84t-202 -101t-83 -267q0 -252 113 -367q78 -82 198 -82q120 -1 204 101t83 266zM546 944q198 0 322 -132t123 -341q0 -209 -136 -355t-336 -146q-199 0 -323 136t-124 346t138 351t336 141zM639 1417l-303 -377h-45l178 377h170z
M948 1417l-303 -377h-45l178 377h170z" />
    <glyph glyph-name="OE" unicode="&#x152;" horiz-adv-x="1910" 
d="M971 80v1098l-166 32q-252 -4 -395.5 -156t-143.5 -404t163 -411t464 -159h78zM94 622q0 280 197.5 470t562.5 190l932 -2v-371h-82l-45 207q-8 35 -18.5 48.5t-67 26.5t-352.5 13h-93v-514h91q135 0 167.5 6t40.5 33l48 137h65l-41 -426h-65l-15 131q-2 18 -18 31.5
t-184 13.5h-89v-540h66q391 0 431 22.5t54 65.5l52 198h92l-39 -362h-934q-340 -2 -548 170t-208 452z" />
    <glyph glyph-name="oe" unicode="&#x153;" horiz-adv-x="1697" 
d="M522 866q-119 0 -200.5 -99t-83.5 -265q-4 -252 112 -371q78 -82 198 -82t203 99.5t85 263.5q0 254 -111 370q-84 84 -203 84zM1268 872q-90 0 -167 -71.5t-102 -192.5h74h85l296 2q8 119 -44 190.5t-142 71.5zM522 -31q-201 0 -325.5 137.5t-120.5 348.5t140 350
t335 139q123 0 220 -55t155 -152q63 96 163.5 151.5t228.5 55.5t215 -82t87 -215q0 -66 -12 -108l-617 8q-2 -8 -2 -49q0 -174 91 -286t241 -112t252 125l41 -24q-55 -109 -151.5 -169.5t-212.5 -60.5t-206 52.5t-143 144.5q-63 -94 -162.5 -146.5t-216.5 -52.5z" />
    <glyph glyph-name="Racute" unicode="&#x154;" horiz-adv-x="1210" 
d="M879 930q0 289 -322 270l-137 -4v-545l174 -14q133 14 209 88t76 205zM420 565v-456q0 -20 53 -27l117 -12l6 -70h-510l6 70l107 12q53 6 53 29v1060q0 11 -10 17t-43 10l-107 12l-6 70h524q225 0 338 -85t113 -228q0 -265 -303 -367l278 -430q53 -76 99 -86l84 -14
l6 -70h-301l-78 141l-250 426h-27l-123 -2h-26zM874 1782l-337 -377h-48l193 377h192z" />
    <glyph glyph-name="racute" unicode="&#x155;" horiz-adv-x="757" 
d="M750 842q0 -45 -26 -75t-80 -30t-89 66q-51 -33 -112 -98q-60 -66 -97 -138v-461q0 -27 55 -28l109 -8l6 -70h-457l7 70l81 8q51 2 52 31v579q1 70 -11 90t-53 31l-84 12l4 56l291 67v-266h8q88 150 152 209t122 59q60 0 91 -30t31 -74zM750 1417l-338 -377h-47l192 377
h193z" />
    <glyph glyph-name="Rcommaaccent" unicode="&#x156;" horiz-adv-x="1210" 
d="M879 930q0 289 -322 270l-137 -4v-545l174 -14q133 14 209 88t76 205zM420 565v-456q0 -20 53 -27l117 -12l6 -70h-510l6 70l107 12q53 6 53 29v1060q0 11 -10 17t-43 10l-107 12l-6 70h524q225 0 338 -85t113 -228q0 -265 -303 -367l278 -430q53 -76 99 -86l84 -14
l6 -70h-301l-78 141l-250 426h-27l-123 -2h-26zM679 -104q54 0 96 -48t42 -126q-1 -78 -67 -149t-160 -110l-35 33q137 57 137 174q0 64 -43 91q-31 22 -55 30t-25 10q0 41 28 68t82 27z" />
    <glyph glyph-name="rcommaaccent" unicode="&#x157;" horiz-adv-x="757" 
d="M750 842q0 -45 -26 -75t-80 -30t-89 66q-51 -33 -112 -98q-60 -66 -97 -138v-461q0 -27 55 -28l109 -8l6 -70h-457l7 70l81 8q51 2 52 31v579q1 70 -11 90t-53 31l-84 12l4 56l291 67v-266h8q88 150 152 209t122 59q60 0 91 -30t31 -74zM269 -104q55 0 97 -48t42 -126
t-67 -149t-161 -110l-35 33q137 57 138 174q0 62 -37 88t-62 33q-24 8 -24 10q0 41 27 68q28 27 82 27z" />
    <glyph glyph-name="Rcaron" unicode="&#x158;" horiz-adv-x="1210" 
d="M879 930q0 289 -322 270l-137 -4v-545l174 -14q133 14 209 88t76 205zM420 565v-456q0 -20 53 -27l117 -12l6 -70h-510l6 70l107 12q53 6 53 29v1060q0 11 -10 17t-43 10l-107 12l-6 70h524q225 0 338 -85t113 -228q0 -265 -303 -367l278 -430q53 -76 99 -86l84 -14
l6 -70h-301l-78 141l-250 426h-27l-123 -2h-26zM866 1802l-227 -397h-78l-227 397h55l209 -252h4l209 252h55z" />
    <glyph glyph-name="rcaron" unicode="&#x159;" horiz-adv-x="757" 
d="M750 842q0 -45 -26 -75t-80 -30t-89 66q-51 -33 -112 -98q-60 -66 -97 -138v-461q0 -27 55 -28l109 -8l6 -70h-457l7 70l81 8q51 2 52 31v579q1 70 -11 90t-53 31l-84 12l4 56l291 67v-266h8q88 150 152 209t122 59q60 0 91 -30t31 -74zM676 1438l-227 -398h-78l-228 398
h56l209 -252h4l209 252h55z" />
    <glyph glyph-name="Sacute" unicode="&#x15a;" horiz-adv-x="1032" 
d="M948 345q0 -155 -129 -265t-323 -111q-194 -2 -375 56l-31 362h82l86 -283q121 -55 253 -54t209 72q77 70 77 178t-75 167t-205 109t-184 76q-148 75 -191 172q-26 58 -25 137q0 145 109 245q110 100 313 103q123 2 239 -23l107 31v-404h-82l-58 263q-113 51 -233 51
q-120 -1 -184 -63t-64 -136t20 -118q34 -75 168 -133q42 -19 128 -52q186 -69 277 -147t91 -233zM829 1782l-337 -377h-48l193 377h192z" />
    <glyph glyph-name="sacute" unicode="&#x15b;" horiz-adv-x="823" 
d="M735 260q0 -121 -94 -206t-256 -85t-272 43l-13 264h93l43 -182q76 -53 162 -53t147 48t61 124t-72 118q-42 25 -125 56q-83 33 -113 45q-89 37 -138 95q-50 59 -51 161q-1 104 85 182t234 78q96 0 199 -33l61 21l16 -287h-90l-39 178q-75 49 -157 49t-131 -40t-49 -96
t32 -92t71 -53q37 -17 111 -46t113 -47q113 -52 151 -133q21 -48 21 -109zM709 1417l-338 -377h-47l192 377h193z" />
    <glyph glyph-name="Scircumflex" unicode="&#x15c;" horiz-adv-x="1032" 
d="M948 345q0 -155 -129 -265t-323 -111q-194 -2 -375 56l-31 362h82l86 -283q121 -55 253 -54t209 72q77 70 77 178t-75 167t-205 109t-184 76q-148 75 -191 172q-26 58 -25 137q0 145 109 245q110 100 313 103q123 2 239 -23l107 31v-404h-82l-58 263q-113 51 -233 51
q-120 -1 -184 -63t-64 -136t20 -118q34 -75 168 -133q42 -19 128 -52q186 -69 277 -147t91 -233zM780 1405h-55l-209 252h-4l-209 -252h-55l227 397h78z" />
    <glyph glyph-name="scircumflex" unicode="&#x15d;" horiz-adv-x="823" 
d="M735 260q0 -121 -94 -206t-256 -85t-272 43l-13 264h93l43 -182q76 -53 162 -53t147 48t61 124t-72 118q-42 25 -125 56q-83 33 -113 45q-89 37 -138 95q-50 59 -51 161q-1 104 85 182t234 78q96 0 199 -33l61 21l16 -287h-90l-39 178q-75 49 -157 49t-131 -40t-49 -96
t32 -92t71 -53q37 -17 111 -46t113 -47q113 -52 151 -133q21 -48 21 -109zM696 1040h-55l-209 252h-4l-209 -252h-55l227 398h78z" />
    <glyph glyph-name="Scedilla" unicode="&#x15e;" horiz-adv-x="1032" 
d="M748 -306q0 -93 -110 -159.5t-308 -81.5l-17 45q319 43 320 180q0 51 -44.5 81t-112.5 30t-136 -10v35l147 155h-8q-178 -2 -358 56l-31 362h82l86 -283q121 -55 253 -54t209 71.5t77 178.5t-75 167t-205 109t-184 77t-135 90t-81 213t109.5 250.5t312.5 102.5
q123 2 239 -23l107 31v-404h-82l-58 263q-113 51 -233 51t-184 -62.5t-64 -136.5t20.5 -118t85.5 -86.5t230 -104.5q166 -62 257 -140.5t91 -224.5t-100 -249t-273 -128l-92 -98q119 4 192 -44t73 -141z" />
    <glyph glyph-name="scedilla" unicode="&#x15f;" horiz-adv-x="823" 
d="M639 -306q0 -93 -109.5 -159.5t-308.5 -81.5l-16 45q319 43 319 180q0 51 -44 81t-112 30t-137 -10v35l148 155q-156 0 -266 43l-13 264h93l43 -182q76 -53 162 -53t147 48t61 124q0 97 -85 130.5t-140 54.5t-114.5 45.5t-110 84.5t-50.5 161q0 102 86.5 180.5
t233.5 78.5q96 0 199 -33l61 21l16 -287h-90l-39 178q-75 49 -157 49t-131 -40t-49 -96t32.5 -92t70 -53t111.5 -46t179.5 -79t105.5 -199q0 -113 -70.5 -193t-197.5 -101l-92 -98q119 4 191.5 -44t72.5 -141z" />
    <glyph glyph-name="Scaron" unicode="&#x160;" horiz-adv-x="1032" 
d="M948 345q0 -155 -129 -265t-323 -111q-194 -2 -375 56l-31 362h82l86 -283q121 -55 253 -54t209 72q77 70 77 178t-75 167t-205 109t-184 76q-148 75 -191 172q-26 58 -25 137q0 145 109 245q110 100 313 103q123 2 239 -23l107 31v-404h-82l-58 263q-113 51 -233 51
q-120 -1 -184 -63t-64 -136t20 -118q34 -75 168 -133q42 -19 128 -52q186 -69 277 -147t91 -233zM782 1790l-227 -397h-78l-227 397h55l209 -252h4l209 252h55z" />
    <glyph glyph-name="scaron" unicode="&#x161;" horiz-adv-x="823" 
d="M735 260q0 -121 -94 -206t-256 -85t-272 43l-13 264h93l43 -182q76 -53 162 -53t147 48t61 124t-72 118q-42 25 -125 56q-83 33 -113 45q-89 37 -138 95q-50 59 -51 161q-1 104 85 182t234 78q96 0 199 -33l61 21l16 -287h-90l-39 178q-75 49 -157 49t-131 -40t-49 -96
t32 -92t71 -53q37 -17 111 -46t113 -47q113 -52 151 -133q21 -48 21 -109zM674 1438l-228 -398h-77l-228 398h56l209 -252h4l208 252h56z" />
    <glyph glyph-name="Tcommaaccent" unicode="&#x162;" horiz-adv-x="1253" 
d="M756 -278q0 -78 -66.5 -149t-161.5 -110l-34 33q137 57 137 174q0 88 -61.5 108.5t-61.5 22.5q0 41 27.5 68t81.5 27t96.5 -48t42.5 -126zM1182 887h-88l-45 215q-10 43 -40.5 72.5t-283.5 29.5h-14v-1095q0 -20 53 -27l139 -12l6 -70h-565l6 70l139 12q53 6 54 29v1093
h-15q-250 0 -283.5 -23.5t-45.5 -64.5l-56 -229h-92l35 393h1096v-393z" />
    <glyph glyph-name="tcommaaccent" unicode="&#x163;" horiz-adv-x="702" 
d="M401 -31q-111 0 -173 66t-60 201l12 577l-162 8l2 60l140 84l96 129l72 -9l-2 -174h331l-14 -94h-317l-13 -545q-6 -186 164 -186q76 0 172 53l13 -53q-49 -51 -121 -84t-140 -33zM388 -104q54 0 96 -48t42 -126t-66 -149t-161 -110l-35 33q137 57 137 174q0 64 -43 91
q-32 23 -56 31q-23 7 -23 9q0 41 27 68q28 27 82 27z" />
    <glyph glyph-name="Tcaron" unicode="&#x164;" horiz-adv-x="1253" 
d="M1182 887h-88l-45 215q-11 43 -29 61q-42 41 -295 41h-14v-1095q0 -20 53 -27l139 -12l6 -70h-565l6 70l139 12q53 6 54 29v1093h-15q-247 0 -294 -30q-24 -16 -35 -58l-56 -229h-92l35 393h1096v-393zM891 1802l-227 -397h-78l-228 397h56l209 -252h4l209 252h55z" />
    <glyph glyph-name="tcaron" unicode="&#x165;" horiz-adv-x="731" 
d="M401 -31q-111 0 -173 65.5t-60 201.5l12 577l-162 8l2 60l140 84l96 129l72 -9l-2 -174h331l-14 -94h-317l-13 -545q-6 -186 164 -186q76 0 172 53l13 -53q-49 -51 -121 -84t-140 -33zM692 1286q0 -160 -231 -325l-37 26q139 102 139 221q0 70 -52 98t-71 37q0 39 29 67
t80 28t97 -44.5t46 -107.5z" />
    <glyph glyph-name="Umacron" unicode="&#x16a;" horiz-adv-x="1456" 
d="M1210 903v-479q0 -211 -131 -333t-360 -122t-357 116q-127 116 -126 355v731q0 23 -54 27l-106 12l-6 70h499l-6 -70l-106 -12q-53 -6 -54 -29v-708q0 -387 375 -387q168 0 259 97t91 263v469q0 199 -9 236t-20 44t-36 11l-123 16l-6 70h471l-6 -70l-121 -16
q-45 -6 -57 -48q-11 -43 -11 -243zM1012 1468h-506l6 84h494z" />
    <glyph glyph-name="umacron" unicode="&#x16b;" horiz-adv-x="1077" 
d="M752 119h-11q-178 -150 -327 -150q-106 0 -172 68q-76 74 -76 225l4 545q0 21 -9 23t-15 2q-6 2 -19 3q-12 1 -23 3l-77 8l-7 67h306l-15 -553q0 -147 49 -206q49 -60 160 -60t232 105v608q0 27 -56 31l-102 8l-6 67h311v-786q0 -33 19 -39l147 -33l-6 -49l-307 -37v150z
M752 1104h-506l6 84h493z" />
    <glyph glyph-name="Ubreve" unicode="&#x16c;" horiz-adv-x="1456" 
d="M1210 903v-479q0 -211 -131 -333t-360 -122t-357 116q-127 116 -126 355v731q0 23 -54 27l-106 12l-6 70h499l-6 -70l-106 -12q-53 -6 -54 -29v-708q0 -387 375 -387q168 0 259 97t91 263v469q0 199 -9 236t-20 44t-36 11l-123 16l-6 70h471l-6 -70l-121 -16
q-45 -6 -57 -48q-11 -43 -11 -243zM756 1499q74 0 127 74t106 209h47q-45 -218 -112 -302q-67 -83 -168 -81q-151 0 -220 173q-31 76 -61 210h47q52 -135 106 -209t128 -74z" />
    <glyph glyph-name="ubreve" unicode="&#x16d;" horiz-adv-x="1077" 
d="M752 119h-11q-178 -150 -327 -150q-106 0 -172 68q-76 74 -76 225l4 545q0 21 -9 23t-15 2q-6 2 -19 3q-12 1 -23 3l-77 8l-7 67h306l-15 -553q0 -147 49 -206q49 -60 160 -60t232 105v608q0 27 -56 31l-102 8l-6 67h311v-786q0 -33 19 -39l147 -33l-6 -49l-307 -37v150z
M496 1034q-149 0 -221 173q-28 68 -60 210h47q52 -135 106 -209t128 -74t127 74t106 209h47q-45 -218 -110 -301q-67 -82 -170 -82z" />
    <glyph glyph-name="Uring" unicode="&#x16e;" horiz-adv-x="1456" 
d="M1210 903v-479q0 -211 -131 -333t-360 -122t-357 116q-127 116 -126 355v731q0 23 -54 27l-106 12l-6 70h499l-6 -70l-106 -12q-53 -6 -54 -29v-708q0 -387 375 -387q168 0 259 97t91 263v469q0 199 -9 236t-20 44t-36 11l-123 16l-6 70h471l-6 -70l-121 -16
q-45 -6 -57 -48q-11 -43 -11 -243zM637 1605q0 -55 33 -93t88 -38t88 39q33 38 33 92t-33 92t-88 38t-88 -38t-33 -92zM940 1604q0 -78 -50 -131t-132 -53t-132 52q-50 54 -51 132q1 78 51 131t132 53t132 -53t50 -131z" />
    <glyph glyph-name="uring" unicode="&#x16f;" horiz-adv-x="1077" 
d="M752 119h-11q-178 -150 -327 -150q-106 0 -172 68q-76 74 -76 225l4 545q0 21 -9 23t-15 2q-6 2 -19 3q-12 1 -23 3l-77 8l-7 67h306l-15 -553q0 -147 49 -206q49 -60 160 -60t232 105v608q0 27 -56 31l-102 8l-6 67h311v-786q0 -33 19 -39l147 -33l-6 -49l-307 -37v150z
M633 1240q0 54 -33 92t-88 38t-88 -38t-33 -92t33 -92t88 -38t88 38t33 92zM694 1239q0 -78 -50 -131t-132 -53t-132 53t-50 131t50 131t132 53t132 -53t50 -131z" />
    <glyph glyph-name="Uhungarumlaut" unicode="&#x170;" horiz-adv-x="1456" 
d="M1171 1782l-303 -377h-45l178 377h170zM862 1782l-303 -377h-45l178 377h170zM1210 903v-479q0 -211 -131 -333t-360 -122t-356 116t-127 355v731q0 23 -54 27l-106 12l-6 70h499l-6 -70l-106 -12q-53 -6 -54 -29v-708q0 -387 375 -387q168 0 259 97t91 263v469
q0 199 -9 236t-20.5 44t-35.5 11l-123 16l-6 70h471l-6 -70l-121 -16q-45 -6 -56.5 -49.5t-11.5 -241.5z" />
    <glyph glyph-name="uhungarumlaut" unicode="&#x171;" horiz-adv-x="1077" 
d="M926 1417l-303 -377h-45l178 377h170zM616 1417l-303 -377h-45l178 377h170zM752 119h-11q-178 -150 -327 -150q-106 0 -172 68q-76 74 -76 225l4 545q0 21 -9 22.5t-15.5 3t-18.5 2.5t-23 3l-77 8l-7 67h306l-15 -553q0 -147 49.5 -206.5t159.5 -59.5t232 105v608
q0 27 -56 31l-102 8l-6 67h311v-786q0 -33 19 -39l147 -33l-6 -49l-307 -37v150z" />
    <glyph glyph-name="Uogonek" unicode="&#x172;" horiz-adv-x="1456" 
d="M836 -211q0 -119 108 -119q56 0 92 43l23 -24q-12 -49 -59 -86t-120 -37t-122 47t-49 131q0 123 145 238q-61 -12 -133 -13q-231 0 -358 116t-127 355v731q0 23 -54 27l-106 12l-6 70h499l-6 -70l-106 -12q-53 -6 -54 -29v-708q0 -387 375 -387q168 0 259 97t91 263v469
q0 199 -9 236t-20.5 44t-35.5 11l-123 16l-6 70h471l-6 -70l-121 -16q-45 -6 -56.5 -49.5t-11.5 -241.5v-479q0 -260 -213 -399q-74 -49 -117.5 -115t-43.5 -121z" />
    <glyph glyph-name="uogonek" unicode="&#x173;" horiz-adv-x="1077" 
d="M878 -434q-75 0 -126.5 42t-51.5 120q0 168 205 258l-153 -17v150h-11q-178 -150 -327 -150q-106 0 -172 68q-76 74 -76 225l4 545q0 21 -9 22.5t-15.5 3t-18.5 2.5t-23 3l-77 8l-7 69h306l-15 -555q0 -145 49.5 -204.5t161.5 -59.5t230 103v608q0 27 -56 31l-102 8
l-6 69h311v-788q0 -33 19 -39l147 -33l-6 -49q-102 -33 -167 -97.5t-65 -144.5q0 -94 107 -94q66 0 102 43l23 -24q-12 -49 -59 -86t-122 -37z" />
    <glyph glyph-name="Wcircumflex" unicode="&#x174;" horiz-adv-x="1880" 
d="M1905 1280l-7 -70l-73 -14q-37 -12 -53 -28q-38 -39 -109 -265l-287 -907h-119l-296 885h-5l-309 -885h-121l-381 1155q-10 33 -49 39l-121 20l-6 70h527l-7 -70l-116 -14q-21 -4 -29 -10q-23 -16 25 -144l256 -831h8l278 790l-49 150q-10 33 -51 39l-117 20l-6 70h520
l-6 -70l-121 -14q-33 -6 -33 -37t29 -117l271 -833l6 2l207 692q72 229 50 264q-11 18 -50 27l-107 16l-6 70h457zM1233 1405h-55l-209 252h-4l-209 -252h-56l228 397h78z" />
    <glyph glyph-name="wcircumflex" unicode="&#x175;" horiz-adv-x="1413" 
d="M1444 913l-6 -67l-64 -10q-39 -6 -56 -26t-40 -87l-238 -737h-100l-223 596l-236 -596h-100l-270 786q-11 33 -25 45t-47 17l-62 10l-6 69h410l-6 -67l-68 -10q-57 -8 -39 -60l207 -614l199 524l-31 86q-11 33 -27 44t-51 15l-63 15l-6 67h415l-6 -67l-65 -10
q-59 -6 -41 -60l221 -618l172 563q18 55 9 82t-54 33l-64 10l-6 67h367zM969 1040h-56l-208 252h-5l-208 -252h-56l228 398h77z" />
    <glyph glyph-name="Ycircumflex" unicode="&#x176;" horiz-adv-x="1230" 
d="M709 109q0 -23 53 -27l139 -12l6 -70h-567l6 70l141 12q53 6 54 29v426l-381 602q-35 47 -84 57l-84 14l-6 70h499l-6 -70l-102 -12q-57 -8 -6 -104q12 -23 30 -54l246 -407h10l267 454q59 98 -17 113l-78 10l-6 70h414l-6 -70l-62 -10q-45 -14 -75 -36t-64 -74
l-321 -533v-448zM922 1405h-56l-209 252h-4l-209 -252h-55l227 397h78z" />
    <glyph glyph-name="ycircumflex" unicode="&#x177;" horiz-adv-x="925" 
d="M84 -431q0 46 25 75t71 28q78 0 117 -73q45 20 90 157l78 224v2l-356 790q-13 33 -27 43t-51 16l-60 13l-8 69h422l-6 -67l-70 -10q-57 -4 -35 -56l254 -604l195 555q18 51 10 74t-49 26l-76 15l-6 67h371l-6 -67l-68 -15q-33 -4 -50 -24t-44 -84l-250 -680l-98 -311
q-45 -140 -99 -204t-128 -64t-110 29q-36 30 -36 76zM766 1040h-55l-209 252h-4l-209 -252h-56l228 398h78z" />
    <glyph glyph-name="Ydieresis" unicode="&#x178;" horiz-adv-x="1228" 
d="M709 109q0 -23 53 -27l139 -12l6 -70h-567l6 70l141 12q53 6 54 29v426l-381 602q-35 47 -84 57l-84 14l-6 70h499l-6 -70l-102 -12q-57 -8 -6 -104q12 -23 30 -54l246 -407h10l267 454q59 98 -17 113l-78 10l-6 70h414l-6 -70l-62 -10q-45 -14 -75 -36t-64 -74
l-321 -533v-448zM555 1565q0 -49 -31 -85t-82 -36t-82 36t-30 85q0 49 30 85q31 36 82 36t82 -36t31 -85zM965 1565q0 -49 -31 -85t-82 -36t-82 36t-31 85t31 85t81 36t82 -36t32 -85z" />
    <glyph glyph-name="Zacute" unicode="&#x179;" horiz-adv-x="1136" 
d="M68 0v70l806 1126v8h-231q-322 -4 -373 -44q-25 -19 -41 -73l-41 -186h-82v379h967v-72l-805 -1126l-2 -8l234 2q354 0 407 39q27 18 43 65l51 203h95l-43 -383h-985zM883 1782l-338 -377h-47l192 377h193z" />
    <glyph glyph-name="zacute" unicode="&#x17a;" horiz-adv-x="917" 
d="M328 72q227 0 296 18t99 86l76 170h86l-82 -346h-746v61l592 783h-65q-225 0 -290 -18t-79 -87l-33 -172h-90v346h737v-61l-589 -780h88zM772 1417l-338 -377h-47l193 377h192z" />
    <glyph glyph-name="Zdotaccent" unicode="&#x17b;" horiz-adv-x="1136" 
d="M68 0v70l806 1126v8h-231q-322 -4 -373 -44q-25 -19 -41 -73l-41 -186h-82v379h967v-72l-805 -1126l-2 -8l234 2q354 0 407 39q27 18 43 65l51 203h95l-43 -383h-985zM686 1598q0 -50 -32 -87t-84 -37t-84 38q-32 36 -31 87q0 51 31 88q32 35 84 35t84 -37t32 -87z" />
    <glyph glyph-name="zdotaccent" unicode="&#x17c;" horiz-adv-x="917" 
d="M328 72q227 0 296 18t99 86l76 170h86l-82 -346h-746v61l592 783h-65q-225 0 -290 -18t-79 -87l-33 -172h-90v346h737v-61l-589 -780h88zM460 1358q52 0 84 -37t31 -87q1 -50 -31 -87t-84 -37t-84 37t-32 88t32 87t84 36z" />
    <glyph glyph-name="Zcaron" unicode="&#x17d;" horiz-adv-x="1136" 
d="M68 0v70l806 1126v8h-231q-322 -4 -373 -44q-25 -19 -41 -73l-41 -186h-82v379h967v-72l-805 -1126l-2 -8l234 2q354 0 407 39q27 18 43 65l51 203h95l-43 -383h-985zM836 1790l-228 -397h-78l-227 397h55l209 -252h4l209 252h56z" />
    <glyph glyph-name="zcaron" unicode="&#x17e;" horiz-adv-x="917" 
d="M328 72q227 0 296 18t99 86l76 170h86l-82 -346h-746v61l592 783h-65q-225 0 -290 -18t-79 -87l-33 -172h-90v346h737v-61l-589 -780h88zM711 1438l-228 -398h-77l-228 398h55l209 -252h4l209 252h56z" />
    <glyph glyph-name="florin" unicode="&#x192;" horiz-adv-x="999" 
d="M1016 1168q0 -50 -25.5 -81.5t-70.5 -31.5t-76 36.5t-35 98.5l-121 -31q-39 -66 -100 -364h252l8 -93h-268q-29 -150 -51.5 -243.5t-69.5 -216.5t-103 -179q-96 -96 -225 -96q-61 0 -103 35t-42 82t26.5 75.5t69.5 28.5t73.5 -37.5t34.5 -93.5l123 58q45 94 95 387
l30 194l-178 9l6 57l193 43q61 270 168 383q45 45 112 73.5t129 28.5t105 -36t43 -86z" />
    <glyph glyph-name="Aringacute" unicode="&#x1fa;" horiz-adv-x="1202" 
d="M731 1410q0 54 -34 92t-89 38t-88 -38t-33 -92t33 -92t88 -38t89 38t34 92zM764 547l-182 577h-11l-194 -577h387zM426 1422q0 68 50 120q50 53 132 53t132 -53t51 -131q0 -111 -86 -162l372 -1120q10 -33 51 -39l121 -20l6 -70h-526l6 70l117 14q27 6 39 23t-25 131
l-75 225h-443l-74 -223q-32 -82 -30 -115t37 -41l102 -14l6 -70h-422l6 70l82 14q47 10 77 59t95 234l308 864q-49 21 -79 67t-30 114zM889 2007l-338 -377h-47l192 377h193z" />
    <glyph glyph-name="aringacute" unicode="&#x1fb;" horiz-adv-x="899" 
d="M225 248q0 -78 45 -121t120 -43t192 106l12 308q-201 -52 -285 -112t-84 -138zM563 1240q0 54 -33 92t-88 38t-88 -38q-32 -38 -32 -92t32 -92t88 -38q55 0 88 38t33 92zM721 -31q-59 0 -95 38t-36 114h-8q-142 -152 -250 -152t-182 68t-74 170q0 127 121 207t401 149v19
q2 156 -50 216t-159 60q-55 0 -108 -18t-54 -35l21 -31q20 -32 20 -66t-28 -62t-72 -28q-43 0 -71 26t-27 65q0 73 128 155t251 82q171 0 237 -86t57 -313l-16 -391q-4 -72 45 -72q33 0 105 57l34 -45q-104 -127 -190 -127zM625 1239q-1 -78 -51 -131t-132 -53t-132 53
t-50 131t50 131t132 53t132 -53t51 -131zM709 1880l-338 -377h-47l192 377h193z" />
    <glyph glyph-name="AEacute" unicode="&#x1fc;" horiz-adv-x="1646" 
d="M756 547v647h-19l-334 -647h353zM756 127v336h-396l-102 -201q-73 -143 -53 -166q6 -6 22 -10l103 -16l6 -70h-442l6 70l86 14q39 10 59 26q49 38 168 269l381 725q43 80 -41 94l-88 12l-6 70h1079v-371h-80l-45 207q-8 35 -18 48q-10 12 -67 26t-353 14h-62v-514h60
q135 0 168 6t41 33l47 137h65l-41 -426h-65l-14 131q-2 19 -14 27q-25 18 -191 18h-56v-540h35q390 0 444 29q28 15 42 59l51 198h92l-39 -362h-950l6 70l125 20q37 6 37 37zM1307 1782l-338 -377h-47l192 377h193z" />
    <glyph glyph-name="aeacute" unicode="&#x1fd;" horiz-adv-x="1456" 
d="M225 248q0 -78 45 -121t115 -43q129 0 240 141q-37 100 -37 205q0 19 6 68q-201 -52 -285 -112t-84 -138zM830 608l317 2h63q6 121 -45 192q-51 70 -142 70t-168 -72t-101 -192h76zM1076 100q150 0 251 125l41 -24q-55 -109 -151 -169q-97 -60 -213 -60t-208 54
q-92 56 -147 152q-59 -90 -148 -149t-184 -59t-169 68q-73 69 -72 169q0 125 122 206t400 150v25q18 270 -209 270q-55 0 -108 -18t-54 -35l21 -31q20 -32 20 -66t-28 -62t-72 -28q-43 0 -71 26t-27 65q0 73 128 155t251 82q229 0 274 -153q139 152 336 151q143 0 229 -82
t86 -215q0 -66 -12 -108l-617 8l-2 -49q-1 -174 91 -286t242 -112zM1065 1417l-338 -377h-47l192 377h193z" />
    <glyph glyph-name="Oslashacute" unicode="&#x1fe;" horiz-adv-x="1513" 
d="M750 55q203 1 335 151t132 426t-175 453q-551 -948 -553 -948q119 -82 261 -82zM719 1227q-203 0 -334 -153t-131 -408q0 -301 176 -478l553 949q-115 90 -264 90zM1384 649q0 -281 -179 -481t-472 -199q-160 0 -301 68l-108 -189h-91l132 228q-131 84 -205 228t-74 325
q0 281 178 481t471 199q170 0 307 -72l99 172h90l-121 -209q130 -88 202 -230t72 -321zM1030 1782l-338 -377h-47l193 377h192z" />
    <glyph glyph-name="oslashacute" unicode="&#x1ff;" horiz-adv-x="1060" 
d="M829 426q0 186 -96 313l-360 -622q79 -68 191 -68t189 95q76 96 76 282zM225 490q0 -186 101 -320l358 623q-78 71 -192 71t-191 -94q-76 -94 -76 -280zM981 459q0 -205 -131 -347t-328 -143q-109 0 -207 49l-141 -247h-80l164 282q-86 66 -134 171t-48 231
q0 205 131 347t328 142q111 0 208 -49l162 279h78l-182 -318q84 -66 132 -170t48 -227zM817 1417l-338 -377h-47l193 377h192z" />
    <glyph glyph-name="Scommaaccent" unicode="&#x218;" horiz-adv-x="1032" 
d="M948 345q0 -155 -129 -265t-323 -111q-194 -2 -375 56l-31 362h82l86 -283q121 -55 253 -54t209 72q77 70 77 178t-75 167t-205 109t-184 76q-148 75 -191 172q-26 58 -25 137q0 145 109 245q110 100 313 103q123 2 239 -23l107 31v-404h-82l-58 263q-113 51 -233 51
q-120 -1 -184 -63t-64 -136t20 -118q34 -75 168 -133q42 -19 128 -52q186 -69 277 -147t91 -233zM532 -104q54 0 96 -48t42 -126t-67 -149t-161 -110l-34 33q137 57 137 174q0 62 -37 88t-62 33q-24 8 -24 10q0 41 28 68t82 27z" />
    <glyph glyph-name="scommaaccent" unicode="&#x219;" horiz-adv-x="823" 
d="M735 260q0 -121 -94 -206t-256 -85t-272 43l-13 264h93l43 -182q76 -53 162 -53t147 48t61 124t-72 118q-42 25 -125 56q-83 33 -113 45q-89 37 -138 95q-50 59 -51 161q-1 104 85 182t234 78q96 0 199 -33l61 21l16 -287h-90l-39 178q-75 49 -157 49t-131 -40t-49 -96
t32 -92t71 -53q37 -17 111 -46t113 -47q113 -52 151 -133q21 -48 21 -109zM396 -104q54 0 96 -48t43 -126q0 -78 -67 -149t-161 -110l-35 33q137 57 138 174q0 62 -37 88t-62 33q-24 8 -24 10q0 41 27 68q28 27 82 27z" />
    <glyph glyph-name="uni021A" unicode="&#x21a;" horiz-adv-x="1253" 
d="M618 -104q54 0 96 -48t42 -126t-67 -149t-161 -110l-34 33q137 57 137 174q0 62 -37 88t-62 33q-24 8 -24 10q0 41 28 68t82 27zM1182 887h-88l-45 215q-11 43 -29 61q-42 41 -295 41h-14v-1095q0 -20 53 -27l139 -12l6 -70h-565l6 70l139 12q53 6 54 29v1093h-15
q-247 0 -294 -30q-24 -16 -35 -58l-56 -229h-92l35 393h1096v-393z" />
    <glyph glyph-name="uni021B" unicode="&#x21b;" horiz-adv-x="702" 
d="M401 -31q-111 0 -173 65.5t-60 201.5l12 577l-162 8l2 60l140 84l96 129l72 -9l-2 -174h331l-14 -94h-317l-13 -545q-6 -186 164 -186q76 0 172 53l13 -53q-49 -51 -121 -84t-140 -33zM526 -278q0 -78 -66.5 -149t-160.5 -110l-35 33q137 57 137 174q0 88 -61 108.5
t-61 22.5q0 41 27.5 68t81.5 27t96 -48t42 -126z" />
    <glyph glyph-name="dotlessj" unicode="&#x237;" horiz-adv-x="518" 
d="M16 -535q-63 0 -105 32t-42 81t29.5 77t68.5 28q96 0 129 -121q98 29 99 274v848q0 72 -12.5 93.5t-57.5 31.5l-82 12l4 56l293 67v-1012q-10 -209 -106.5 -338t-217.5 -129z" />
    <glyph glyph-name="circumflex" unicode="&#x2c6;" horiz-adv-x="819" 
d="M676 1040h-55l-209 252h-4l-209 -252h-56l228 398h78z" />
    <glyph glyph-name="caron" unicode="&#x2c7;" horiz-adv-x="819" 
d="M676 1438l-227 -398h-78l-228 398h56l209 -252h4l209 252h55z" />
    <glyph glyph-name="breve" unicode="&#x2d8;" horiz-adv-x="819" 
d="M386.5 1034q-127.5 0 -179.5 130t-78 253h47q53 -135 106.5 -208.5t127 -73.5t127 73.5t106.5 208.5h47q-45 -220 -110.5 -301.5t-193 -81.5z" />
    <glyph glyph-name="dotaccent" unicode="&#x2d9;" horiz-adv-x="819" 
d="M524 1234q0 -50 -31.5 -87t-83.5 -37t-84 37t-32 88t31.5 87t83.5 36t84 -37t32 -87z" />
    <glyph glyph-name="ring" unicode="&#x2da;" horiz-adv-x="819" 
d="M530 1240q0 54 -32.5 92t-88 38t-88 -38t-32.5 -92t32.5 -92t88 -38t88 38t32.5 92zM592 1239q0 -78 -50 -131t-132 -53t-132.5 53t-50.5 131t50.5 131t132.5 53t132 -53t50 -131z" />
    <glyph glyph-name="ogonek" unicode="&#x2db;" horiz-adv-x="819" 
d="M393 -206q0 -124 109 -124q56 0 94 43l20 -24q-10 -49 -57 -86t-120 -37t-123 47t-50 137t84 175t195 141h53q-94 -59 -149.5 -135.5t-55.5 -136.5z" />
    <glyph glyph-name="tilde" unicode="&#x2dc;" horiz-adv-x="819" 
d="M545 1065q-70 0 -171 74q-101 73 -133 73t-56 -28t-54 -105h-53q41 240 196 240q70 0 171 -74t133 -74t56 28t54 106h53q-41 -240 -196 -240z" />
    <glyph glyph-name="hungarumlaut" unicode="&#x2dd;" horiz-adv-x="819" 
d="M504 1417l-303 -377h-45l178 377h170zM813 1417l-303 -377h-45l178 377h170z" />
    <glyph glyph-name="Wgrave" unicode="&#x1e80;" horiz-adv-x="1880" 
d="M1905 1280l-7 -70l-73 -14q-37 -12 -53 -28q-38 -39 -109 -265l-287 -907h-119l-296 885h-5l-309 -885h-121l-381 1155q-10 33 -49 39l-121 20l-6 70h527l-7 -70l-116 -14q-21 -4 -29 -10q-23 -16 25 -144l256 -831h8l278 790l-49 150q-10 33 -51 39l-117 20l-6 70h520
l-6 -70l-121 -14q-33 -6 -33 -37t29 -117l271 -833l6 2l207 692q72 229 50 264q-11 18 -50 27l-107 16l-6 70h457zM1073 1405h-45l-338 377h187z" />
    <glyph glyph-name="wgrave" unicode="&#x1e81;" horiz-adv-x="1413" 
d="M1444 913l-6 -67l-64 -10q-39 -6 -56 -26t-40 -87l-238 -737h-100l-223 596l-236 -596h-100l-270 786q-11 33 -25 45t-47 17l-62 10l-6 69h410l-6 -67l-68 -10q-57 -8 -39 -60l207 -614l199 524l-31 86q-11 33 -27 44t-51 15l-63 15l-6 67h415l-6 -67l-65 -10
q-59 -6 -41 -60l221 -618l172 563q18 55 9 82t-54 33l-64 10l-6 67h367zM813 1040h-45l-338 377h186z" />
    <glyph glyph-name="Wacute" unicode="&#x1e82;" horiz-adv-x="1880" 
d="M1905 1280l-7 -70l-73 -14q-37 -12 -53 -28q-38 -39 -109 -265l-287 -907h-119l-296 885h-5l-309 -885h-121l-381 1155q-10 33 -49 39l-121 20l-6 70h527l-7 -70l-116 -14q-21 -4 -29 -10q-23 -16 25 -144l256 -831h8l278 790l-49 150q-10 33 -51 39l-117 20l-6 70h520
l-6 -70l-121 -14q-33 -6 -33 -37t29 -117l271 -833l6 2l207 692q72 229 50 264q-11 18 -50 27l-107 16l-6 70h457zM1255 1782l-337 -377h-48l193 377h192z" />
    <glyph glyph-name="wacute" unicode="&#x1e83;" horiz-adv-x="1413" 
d="M1444 913l-6 -67l-64 -10q-39 -6 -56 -26t-40 -87l-238 -737h-100l-223 596l-236 -596h-100l-270 786q-11 33 -25 45t-47 17l-62 10l-6 69h410l-6 -67l-68 -10q-57 -8 -39 -60l207 -614l199 524l-31 86q-11 33 -27 44t-51 15l-63 15l-6 67h415l-6 -67l-65 -10
q-59 -6 -41 -60l221 -618l172 563q18 55 9 82t-54 33l-64 10l-6 67h367zM1034 1417l-338 -377h-47l193 377h192z" />
    <glyph glyph-name="Wdieresis" unicode="&#x1e84;" horiz-adv-x="1880" 
d="M1905 1280l-7 -70l-73 -14q-37 -12 -53 -28q-38 -39 -109 -265l-287 -907h-119l-296 885h-5l-309 -885h-121l-381 1155q-10 33 -49 39l-121 20l-6 70h527l-7 -70l-116 -14q-21 -4 -29 -10q-23 -16 25 -144l256 -831h8l278 790l-49 150q-10 33 -51 39l-117 20l-6 70h520
l-6 -70l-121 -14q-33 -6 -33 -37t29 -117l271 -833l6 2l207 692q72 229 50 264q-11 18 -50 27l-107 16l-6 70h457zM877 1587q0 -49 -31 -85t-82 -36t-82 36t-31 85t31 85t82 36t82 -36t31 -85zM1286 1587q0 -49 -31 -85t-81 -36t-82 36q-31 36 -31 85t31 85t81 36
q49 0 81 -36t32 -85z" />
    <glyph glyph-name="wdieresis" unicode="&#x1e85;" horiz-adv-x="1413" 
d="M1444 913l-6 -67l-64 -10q-39 -6 -56 -26t-40 -87l-238 -737h-100l-223 596l-236 -596h-100l-270 786q-11 33 -25 45t-47 17l-62 10l-6 69h410l-6 -67l-68 -10q-57 -8 -39 -60l207 -614l199 524l-31 86q-11 33 -27 44t-51 15l-63 15l-6 67h415l-6 -67l-65 -10
q-59 -6 -41 -60l221 -618l172 563q18 55 9 82t-54 33l-64 10l-6 67h367zM612 1223q0 -49 -30 -85t-82 -36q-51 0 -82 36t-31 85t31 85t82 36t82 -36q30 -36 30 -85zM1022 1223q0 -49 -31 -85t-82 -36t-82 36t-30 85q0 49 30 85q31 36 81 36t82 -36t32 -85z" />
    <glyph glyph-name="thinspace" unicode="&#x2009;" horiz-adv-x="155" 
 />
    <glyph glyph-name="endash" unicode="&#x2013;" horiz-adv-x="962" 
d="M913 424h-860l6 100h848z" />
    <glyph glyph-name="emdash" unicode="&#x2014;" horiz-adv-x="1921" 
d="M1870 424h-1817l6 100h1805z" />
    <glyph glyph-name="quoteleft" unicode="&#x2018;" horiz-adv-x="462" 
d="M381 897q0 -49 -35.5 -82t-99.5 -33t-119 54.5t-55 132.5q0 190 284 397l45 -33q-174 -129 -174 -270q0 -66 49.5 -104.5t77 -49t27.5 -12.5z" />
    <glyph glyph-name="quoteright" unicode="&#x2019;" horiz-adv-x="462" 
d="M397 1163q0 -193 -284 -399l-45 33q172 127 172 270q0 96 -137 160q-15 6 -15 8q0 49 35 82t99 33t120 -54q55 -54 55 -133z" />
    <glyph glyph-name="quotesinglbase" unicode="&#x201a;" horiz-adv-x="462" 
d="M397 43q0 -193 -284 -399l-45 32q172 127 172 271q0 83 -60.5 118t-76 41.5t-15.5 8.5q0 49 35 81.5t99 32.5t119.5 -54t55.5 -132z" />
    <glyph glyph-name="quotedblleft" unicode="&#x201c;" horiz-adv-x="868" 
d="M381 897q0 -49 -35.5 -82t-99.5 -33t-119 54.5t-55 132.5q0 190 284 397l45 -33q-174 -129 -174 -270q0 -66 49.5 -104.5t77 -49t27.5 -12.5zM807 897q0 -49 -35.5 -82t-99.5 -33t-119 54.5t-55 132.5q0 190 284 397l45 -33q-172 -127 -172 -270q0 -66 50.5 -105t76 -49
t25.5 -12z" />
    <glyph glyph-name="quotedblright" unicode="&#x201d;" horiz-adv-x="868" 
d="M397 1163q0 -193 -284 -399l-45 33q172 127 172 270q0 81 -60.5 117.5t-76 42.5t-15.5 8q0 49 35 82t99 33t119.5 -54.5t55.5 -132.5zM825 1163q0 -193 -284 -399l-45 33q172 127 172 270q0 81 -60.5 117.5t-76 42.5t-15.5 8q0 49 34 82t100 33t120.5 -54.5t54.5 -132.5z
" />
    <glyph glyph-name="quotedblbase" unicode="&#x201e;" horiz-adv-x="868" 
d="M397 43q0 -193 -284 -399l-45 32q172 127 172 271q0 66 -50 105t-76 50q-26 10 -26 13q0 49 35 82t99 33t120 -55q55 -54 55 -132zM825 43q0 -193 -284 -399l-45 32q172 127 172 271q0 66 -50 105t-76 50q-26 10 -26 13q0 49 34 82t100 33t120 -55q55 -54 55 -132z" />
    <glyph glyph-name="dagger" unicode="&#x2020;" horiz-adv-x="962" 
d="M522 805v-1124h-78v1124h-366l-8 80h374v395h78v-395h377l-8 -80h-369z" />
    <glyph glyph-name="daggerdbl" unicode="&#x2021;" horiz-adv-x="962" 
d="M522 43v-362h-78v362h-374l8 80h366v713h-366l-8 79h374v365h78v-365h377l-8 -79h-369v-713h369l8 -80h-377z" />
    <glyph glyph-name="bullet" unicode="&#x2022;" horiz-adv-x="931" 
d="M860 475q0 -45 -41 -146t-73 -133t-134 -74t-146 -42t-146 42t-133 74q-30 32 -72 134q-43 102 -43 146t43 146t73 132q32 30 134 72t146 42t145 -42t132 -72t73 -132t42 -147z" />
    <glyph glyph-name="ellipsis" unicode="&#x2026;" horiz-adv-x="1392" 
d="M360 96q0 -51 -35.5 -89t-89.5 -38t-91.5 38t-37.5 89t37 87t91 36t90 -36t36 -87zM823 96q0 -51 -34.5 -89t-88.5 -38t-91.5 38t-37.5 89t36 87t91.5 36t90 -36t34.5 -87zM1288 96q0 -51 -36 -89t-90 -38t-91 38t-37 89t37 87t91 36t90 -36t36 -87z" />
    <glyph glyph-name="perthousand" unicode="&#x2030;" horiz-adv-x="2306" 
d="M1397 288q0 106 -66.5 179.5t-177.5 73.5t-177.5 -73.5t-66.5 -179.5t65.5 -178.5t178.5 -72.5t178.5 72.5t65.5 178.5zM2175 288q0 106 -66.5 179.5t-177 73.5t-177 -73.5t-66.5 -179.5t65.5 -178.5t178 -72.5t178 72.5t65.5 178.5zM618 990q0 106 -65.5 178.5
t-178 72.5t-178 -72.5t-65.5 -178.5t66.5 -179.5t177 -73.5t177 73.5t66.5 179.5zM1493 290q0 -142 -93 -241.5t-247 -99.5t-247 97.5t-93 241.5t93 242.5t246 98.5t247 -98.5t94 -240.5zM2271 290q0 -142 -93 -241.5t-246.5 -99.5t-247 97.5t-93.5 241.5t93.5 242.5
t245.5 98.5t246.5 -98.5t94.5 -240.5zM1339 1309l-1042 -1340h-107l1045 1340h104zM715 989q0 -143 -93.5 -241.5t-245.5 -98.5t-246.5 98.5t-94.5 240.5t93 241.5t246.5 99.5t247 -98.5t93.5 -241.5z" />
    <glyph glyph-name="guilsinglleft" unicode="&#x2039;" horiz-adv-x="634" 
d="M541 135l-21 -41l-440 316v86l440 315l21 -41l-303 -317z" />
    <glyph glyph-name="guilsinglright" unicode="&#x203a;" horiz-adv-x="634" 
d="M557 410l-442 -316l-19 41l303 318l-303 317l19 41l442 -315v-86z" />
    <glyph glyph-name="fraction" unicode="&#x2044;" horiz-adv-x="1110" 
d="M1104 1307l-985 -1340h-113l987 1340h111z" />
    <glyph glyph-name="zerosuperior" unicode="&#x2070;" horiz-adv-x="675" 
d="M348 590q156 0 156 354t-168 354q-162 0 -162 -354t174 -354zM340 543q-135 0 -218 102.5t-83 287.5t85 299t217 114t214 -104t82 -288t-81 -297.5t-216 -113.5z" />
    <glyph glyph-name="foursuperior" unicode="&#x2074;" horiz-adv-x="675" 
d="M393 848v364h-6l-289 -364h295zM393 559v227h-362l-6 50l401 507h84v-495h139l-8 -62h-131v-227h-117z" />
    <glyph glyph-name="fivesuperior" unicode="&#x2075;" horiz-adv-x="675" 
d="M274 539q-116 0 -170 31q-53 32 -53 81q-1 27 19 45t56 18t66 -30q30 -31 35 -76q33 -16 93 -16t109 48q50 48 50 124q0 170 -381 217l88 348h404l-4 -108h-363l-39 -148q401 -49 402 -266q0 -109 -98 -189t-214 -79z" />
    <glyph glyph-name="sixsuperior" unicode="&#x2076;" horiz-adv-x="675" 
d="M182 813q0 -81 48 -155t122 -74t115 52t41 137t-50 140t-127 55t-141 -50q-8 -25 -8 -105zM631 794q0 -108 -87 -180t-209 -73q-122 0 -203 86t-81 215q0 197 153 338t384 176l12 -41q-324 -76 -410 -350l5 -4q90 73 195 73t173 -66t68 -174z" />
    <glyph glyph-name="sevensuperior" unicode="&#x2077;" horiz-adv-x="675" 
d="M543 1233h-203q-121 0 -151.5 -6t-43.5 -33l-36 -74h-48l29 213h549l6 -51l-391 -733h-96l385 678v6z" />
    <glyph glyph-name="eightsuperior" unicode="&#x2078;" horiz-adv-x="675" 
d="M350 584q78 0 123 39t45 96q0 90 -133 155q-23 10 -102 46q-113 -72 -113 -170q-2 -72 50 -119t130 -47zM483 1143q0 68 -45.5 116t-113.5 48t-108 -37t-40 -81q0 -80 63 -121.5t152 -78.5q92 61 92 154zM335 539q-124 0 -203 56t-79 144q0 133 187 199v2
q-168 76 -168 195q0 84 74 150.5t192 66.5t190 -55.5t72 -141.5q0 -119 -164 -182v-2q90 -41 138.5 -88t48.5 -131t-82 -148.5t-206 -64.5z" />
    <glyph glyph-name="ninesuperior" unicode="&#x2079;" horiz-adv-x="675" 
d="M343 920q75 0 140 53q11 16 11 100t-48.5 158t-122.5 74t-114.5 -53.5t-40.5 -136.5t50 -139t125 -56zM284 856q-103 0 -171 66t-68 174t86 182t209 74t204 -87t81 -216q0 -195 -153 -337.5t-384 -179.5l-12 41q326 76 407 355l-2 2q-94 -74 -197 -74z" />
    <glyph glyph-name="plussuperior" unicode="&#x207a;" horiz-adv-x="675" 
d="M381 915v-229h-64v229h-225l4 62h221v227h64v-227h219l4 -62h-223z" />
    <glyph glyph-name="minussuperior" unicode="&#x207b;" horiz-adv-x="675" 
d="M614 911h-512l2 68h506z" />
    <glyph glyph-name="zeroinferior" unicode="&#x2080;" horiz-adv-x="675" 
d="M348 -262q156 0 156 354t-168 354q-162 0 -162 -354t174 -354zM341 494q132 0 214 -104t82 -288t-81 -298t-216 -113q-135 0 -218 102q-83 101 -83 287t85 300t217 114z" />
    <glyph glyph-name="oneinferior" unicode="&#x2081;" horiz-adv-x="675" 
d="M295 -197v586l-186 12l4 37l305 62v-697q0 -23 31 -28l118 -17l4 -51h-452l4 51l141 17q31 8 31 28z" />
    <glyph glyph-name="twoinferior" unicode="&#x2082;" horiz-adv-x="675" 
d="M446 258q0 68 -44 106t-111 37q-121 0 -211 -104l-21 27q111 176 285 176q106 0 174 -60t68 -149q0 -47 -18 -89q-29 -70 -156 -179q-49 -43 -271 -220l15 -6h100q182 0 227 9t64 51l26 59h58l-41 -209h-543l-6 66q35 33 159 143t153 148q74 100 84 132q9 32 9 62z" />
    <glyph glyph-name="threeinferior" unicode="&#x2083;" horiz-adv-x="675" 
d="M51 -230q0 70 75 70q36 0 64.5 -29.5t36.5 -74.5q8 -2 43 -2q82 0 138.5 50t56.5 124t-48.5 113.5t-112.5 39.5t-130 -28l-18 35q174 96 218 139t44 92t-39 76.5t-109 27.5q-98 0 -194 -92l-25 29q127 160 289 160q92 0 155.5 -42t63.5 -113t-61.5 -120t-184.5 -110v-2
q111 31 197 -18.5t87 -152.5t-106.5 -183.5t-252.5 -80.5q-84 0 -135.5 28t-51.5 64z" />
    <glyph glyph-name="fourinferior" unicode="&#x2084;" horiz-adv-x="675" 
d="M393 -4v364h-6l-289 -364h295zM393 -293v227h-362l-6 50l401 508h84v-496h139l-8 -62h-131v-227h-117z" />
    <glyph glyph-name="fiveinferior" unicode="&#x2085;" horiz-adv-x="675" 
d="M274 -313q-116 0 -169.5 31.5t-53.5 80.5q0 27 19.5 45.5t55.5 18.5t65.5 -31t35.5 -76q33 -16 93 -16t109.5 48t49.5 124q0 170 -381 217l88 348h404l-4 -108h-363l-39 -148q401 -49 402 -266q0 -109 -98 -188.5t-214 -79.5z" />
    <glyph glyph-name="sixinferior" unicode="&#x2086;" horiz-adv-x="675" 
d="M352 -268q74 0 115 52t41 137t-50 140.5t-127 55.5t-141 -51q-8 -25 -8 -105t48 -154.5t122 -74.5zM335 -311q-122 0 -203 86t-81 215q0 197 152.5 338t384.5 176l12 -41q-324 -76 -410 -350l5 -4q90 73 195 73t173 -66t68 -174t-87 -180.5t-209 -72.5z" />
    <glyph glyph-name="seveninferior" unicode="&#x2087;" horiz-adv-x="675" 
d="M543 381h-203q-121 0 -152 -6t-43 -33l-36 -74h-48l29 213h549l6 -51l-391 -733h-96l385 678v6z" />
    <glyph glyph-name="eightinferior" unicode="&#x2088;" horiz-adv-x="675" 
d="M350 -268q78 0 123 39t45 96q0 90 -133 156q-23 10 -102 45q-113 -72 -113 -170q-2 -72 50 -119t130 -47zM483 291q0 68 -45 116q-46 48 -114 48t-108 -37t-40 -81q0 -81 63 -122t152 -78q92 61 92 154zM335 -313q-124 0 -203 56t-79 144q0 133 187 199v2
q-168 76 -168 195q0 85 74 151t192 66t190 -56t72 -141q0 -119 -164 -182v-2q90 -41 138 -88t48 -131t-81 -148q-82 -64 -206 -65z" />
    <glyph glyph-name="nineinferior" unicode="&#x2089;" horiz-adv-x="675" 
d="M343 68q75 0 140 53q11 16 11 100t-48 158t-123 74q-75 1 -115 -53t-40 -137t50 -139t125 -56zM284 4q-103 0 -171 67t-68 175t86 180q86 74 209 74t204 -87t81 -216q0 -195 -153 -337t-384 -179l-12 40q326 76 407 355l-2 2q-94 -74 -197 -74z" />
    <glyph glyph-name="Euro" unicode="&#x20ac;" horiz-adv-x="1056" 
d="M647 -31q-174 0 -300 127t-167 338h-137l6 80h119q-2 31 -2 89t2 87h-125l6 80h129q41 231 183.5 372.5t345.5 141.5q129 0 218 -50t89 -120q0 -39 -25.5 -65.5t-70.5 -26.5t-77 43t-40 104q-49 33 -129 33q-141 0 -231.5 -115.5t-112.5 -316.5h424l6 -80h-436v-49
q0 -76 8 -127h422l6 -80h-414q37 -166 132 -255t220 -89q164 0 289 150l41 -23q-129 -248 -379 -248z" />
    <glyph glyph-name="trademark" unicode="&#x2122;" horiz-adv-x="1865" 
d="M750 1280v-268h-60l-14 71q-27 90 -60.5 115t-146.5 25h-6v-615q0 -20 18 -22l105 -13l2 -55h-371l4 55l105 13q20 2 20 22v615h-8q-98 0 -136 -27t-67 -113l-18 -71h-56l17 268h672zM1829 518h-336l4 55l78 13q14 2 17 19.5t3 72.5l-12 520h-20l-228 -655h-92l-186 659
h-21l-16 -467q-2 -96 0 -120.5t18 -30.5l82 -11l4 -55h-286l4 55l80 11q12 2 21 15.5t13 135.5l15 453q0 23 -17 24l-88 13l-4 55h289l156 -586h18l199 586h288l-4 -55l-84 -13q-23 -2 -22 -24l12 -510q2 -86 31 -92l80 -13z" />
    <glyph glyph-name="minus" unicode="&#x2212;" horiz-adv-x="983" 
d="M918 430h-852l6 100h839z" />
    <glyph glyph-name="uni2215" unicode="&#x2215;" horiz-adv-x="1110" 
d="M1104 1307l-985 -1340h-113l987 1340h111z" />
    <glyph glyph-name="approxequal" unicode="&#x2248;" horiz-adv-x="983" 
d="M315.5 326q-32.5 0 -52 -4.5t-48.5 -33t-47 -81.5h-86q20 106 79 162.5t131 56.5t201.5 -67.5t168.5 -67.5t58 4t48 32.5t47 82.5h86q-20 -106 -79.5 -163t-138.5 -57t-207 68t-160.5 68zM315.5 670q-32.5 0 -52 -4t-48.5 -33t-47 -82h-86q20 106 79 162.5t131 56.5
t201.5 -67.5t168.5 -67.5t58 4t48 32.5t47 82.5h86q-20 -106 -79.5 -162.5t-138.5 -56.5t-207 67.5t-160.5 67.5z" />
    <glyph glyph-name="notequal" unicode="&#x2260;" horiz-adv-x="983" 
d="M295 -47l84 297h-293l6 100h316l71 256h-387l-6 101h422l80 280h98l-80 -280h291l-6 -101h-313l-72 -256h385l6 -100h-420l-84 -297h-98z" />
    <glyph glyph-name="lessequal" unicode="&#x2264;" horiz-adv-x="983" 
d="M918 29h-852l6 100h839zM874 203l-808 334v53l808 340l23 -88l-641 -269v-18l641 -270z" />
    <glyph glyph-name="greaterequal" unicode="&#x2265;" horiz-adv-x="983" 
d="M918 537l-809 -334l-23 82l641 270v18l-641 269l23 88l809 -340v-53zM918 29h-852l6 100h839z" />
    <glyph glyph-name="pcircle" unicode="&#x24df;" horiz-adv-x="1503" 
d="M956 784.5q0 77.5 -51 119.5t-143 40h-66v-317q52 -11 110 -11t104 45.5t46 123zM1067 796q0 -100 -82 -169.5t-194 -69.5q-45 0 -95 6v-188q0 -18 21 -23l98 -12l2 -59h-330l5 59l77 12q20 2 21 23v540q0 18 -21 21l-77 14l-5 58h293q141 0 214 -56t73 -156zM1348 639
q0 248 -175.5 426t-421 178t-420.5 -178t-175 -426t175 -425t420.5 -177t421 177t175.5 425zM1421 639q0 -279 -195.5 -474.5t-474 -195.5t-474 195.5t-195.5 474.5t195.5 475.5t474 196.5t474 -196.5t195.5 -475.5z" />
    <glyph glyph-name="commaaccent" unicode="&#xf6c3;" horiz-adv-x="819" 
d="M532 -278q0 -78 -66.5 -149t-160.5 -110l-35 33q137 57 138 174q0 88 -61.5 108.5t-61.5 22.5q0 41 27.5 68t81.5 27t96 -48t42 -126z" />
    <glyph glyph-name="J.alt" horiz-adv-x="962" 
d="M772 1153v-723q0 -229 -113 -346t-289 -117t-268 67.5t-92 160.5q0 55 32 88.5t77 33.5t73.5 -25.5t28.5 -74.5t-39 -92q51 -80 180 -80q240 0 240 344v764q0 31 -35 37l-159 20l-7 70h549l-6 -70l-137 -20q-35 -6 -35 -37z" />
    <glyph glyph-name="Jcircumflex.alt" horiz-adv-x="962" 
d="M772 1153v-723q0 -229 -113 -346t-289 -117t-268 68t-92 160q0 55 32 89t77 34t74 -26t29 -75t-40 -92q51 -80 180 -80q240 0 240 344v764q0 31 -35 37l-159 20l-7 70h549l-6 -70l-137 -20q-35 -6 -35 -37zM946 1405h-55l-209 252h-4l-209 -252h-55l227 397h78z" />
    <glyph glyph-name="dot" horiz-adv-x="462" 
d="M360 465q0 -51 -35.5 -88t-89.5 -37t-91.5 37t-37.5 88t37 87t91 36t90 -36t36 -87z" />
    <glyph glyph-name="a.smallcap" horiz-adv-x="983" 
d="M592 393l-133 420h-17l-137 -420h287zM985 0h-434l6 70l88 10q23 4 32 14.5t-15 91.5l-48 140h-331l-43 -131q-18 -63 -15.5 -86t33.5 -29l76 -10l4 -70h-350l4 70l69 10q41 8 61.5 39t67.5 164l207 591v39l164 50l285 -850q8 -23 47 -29l86 -14z" />
    <glyph glyph-name="b.smallcap" horiz-adv-x="976" 
d="M692 686q0 186 -231 186h-96v-360l122 2q96 2 150.5 52t54.5 120zM727 246q0 100 -72.5 151.5t-191.5 51.5h-98v-365l120 -18l35 2q207 6 207 178zM891 254q0 -254 -393 -254h-404l4 66l84 16q29 6 29 27v720q0 20 -29 29l-84 14l-4 66h414q350 0 350 -209
q0 -90 -67.5 -154.5t-172.5 -80.5v-11q129 -14 201 -75.5t72 -153.5z" />
    <glyph glyph-name="c.smallcap" horiz-adv-x="1060" 
d="M596 -25q-227 0 -371.5 129.5t-144.5 353.5t147.5 364.5t374.5 140.5q104 0 217 -31l127 26v-327h-82l-49 209q-90 47 -213 47q-158 0 -256 -114.5t-98 -304.5t97 -304.5t269 -114.5q109 0 183 39l69 211h86l-32 -303l-82 18q-109 -39 -242 -39z" />
    <glyph glyph-name="d.smallcap" horiz-adv-x="1081" 
d="M844 464q0 182 -108.5 292t-315.5 110h-55v-770l116 -20q170 2 266.5 104t96.5 284zM1010 483.5q0 -204.5 -146.5 -344t-410.5 -139.5h-371l4 70l98 14q27 6 27 29v712q0 23 -27 29l-98 16l-4 68l371 4q256 2 406.5 -126t150.5 -332.5z" />
    <glyph glyph-name="e.smallcap" horiz-adv-x="1003" 
d="M211 113v712q0 23 -27 29l-98 16l-4 68h795v-295h-82l-31 139q-10 43 -34.5 59.5t-81 21.5t-199.5 5h-84v-360h73q84 0 109.5 6t34.5 31l34 102h64l-31 -338h-63l-13 99q-4 23 -27.5 29.5t-113.5 6.5h-67v-374h75q152 0 214.5 6t87 22.5t38.5 57.5l35 131h88l-29 -287
h-792l4 70l98 14q27 6 27 29z" />
    <glyph glyph-name="f.smallcap" horiz-adv-x="948" 
d="M862 643h-82l-30 139q-16 59 -65.5 72.5t-252.5 13.5h-67v-372h79q84 0 112 6t36 30l33 101h65l-35 -336h-59l-14 96q-4 25 -29 33t-111 8h-77v-321q0 -23 24 -29l127 -14l4 -70h-438l4 70l98 14q27 6 27 29v712q0 23 -27 29l-98 16l-4 68h780v-295z" />
    <glyph glyph-name="g.smallcap" horiz-adv-x="1118" 
d="M589 -25q-222 0 -365.5 131.5t-143.5 354.5t148.5 362.5t373.5 139.5q100 0 213 -31l123 26v-323h-88l-45 205q-86 47 -209 47q-156 0 -252 -114.5t-96 -304.5t95 -304.5t261 -114.5q92 0 174 33v223q0 27 -26 29l-111 16l-4 68h420l-4 -68l-99 -16q-27 -2 -26 -29v-196
l92 -9l4 -49q-213 -76 -435 -76z" />
    <glyph glyph-name="h.smallcap" horiz-adv-x="1179" 
d="M817 446h-455v-333q0 -23 27 -29l96 -14l7 -70h-412l6 70l96 14q27 6 27 29v712q0 23 -27 29l-96 16l-6 68h412l-7 -68l-96 -16q-27 -6 -27 -29v-309h455v309q0 23 -26 29l-97 16l-6 68h412l-6 -68l-99 -16q-27 -6 -26 -29v-712q0 -23 26 -29l99 -14l6 -70h-412l6 70
l97 14q27 6 26 29v333z" />
    <glyph glyph-name="i.smallcap" horiz-adv-x="618" 
d="M233 825q0 27 -26 29l-113 16l-6 68h442l-4 -68l-112 -16q-27 -2 -27 -29v-712q0 -23 27 -29l112 -14l4 -70h-442l6 70l113 14q27 6 26 29v712z" />
    <glyph glyph-name="j.smallcap" horiz-adv-x="643" 
d="M6 82q0 80 78 80q37 0 74 -31q33 -33 45 -92h4q55 25 77.5 88t22.5 211v487q0 27 -26 29l-123 16l-6 68h442l-4 -68l-103 -16q-27 -6 -26 -29v-436q0 -205 -77 -309.5t-218 -104.5q-70 0 -115 34t-45 73z" />
    <glyph glyph-name="j.smallcap.alt" horiz-adv-x="747" 
d="M606 825v-501q0 -172 -84 -261.5t-220 -89.5t-206.5 55.5t-70.5 127.5q0 47 26.5 74.5t63.5 27.5t61.5 -21.5t24.5 -64.5t-33 -72q43 -55 125 -55q168 0 168 254v526q0 27 -27 29l-123 16l-6 68h438l-4 -68l-106 -16q-27 -2 -27 -29z" />
    <glyph glyph-name="k.smallcap" horiz-adv-x="1052" 
d="M365 113q0 -23 24 -29l98 -14l5 -70h-410l4 70l98 14q27 6 27 29v712q0 23 -27 29l-98 16l-4 68h410l-5 -68l-98 -16q-25 -6 -24 -29v-376l169 169q168 168 172.5 175.5t10.5 16t6 21.5q0 27 -35 33l-53 6l-6 68h393l-6 -68l-68 -10q-86 -18 -141 -74l-234 -229l312 -434
q25 -43 71 -43l68 -10l4 -70h-385l4 70l62 12q16 4 2 27l-242 352l-104 -101v-247z" />
    <glyph glyph-name="l.smallcap" horiz-adv-x="915" 
d="M211 113v712q0 23 -27 29l-98 16l-4 68h422l-6 -68l-109 -16q-25 -2 -24 -29v-749h32q248 0 278 21.5t44 62.5l41 155h88l-35 -315h-731l4 70l98 14q27 6 27 29z" />
    <glyph glyph-name="m.smallcap" horiz-adv-x="1325" 
d="M1294 0h-424l4 70l101 14q18 2 22 34t2 156l-14 562h-18l-297 -805h-121l-256 815h-19l-18 -567q-4 -143 -1 -168t19 -27h2l105 -14l4 -70h-348l4 70l102 14q14 2 24 12.5t17 182.5l19 546q0 27 -23 31l-106 14l-6 68h352l227 -717h17l266 717h340l-4 -68l-107 -16
q-25 -2 -24 -29l14 -551q4 -155 14.5 -171.5t24.5 -18.5l100 -14z" />
    <glyph glyph-name="n.smallcap" horiz-adv-x="1175" 
d="M983 643v-653h-119l-573 809h-17v-504q0 -135 9.5 -172t35.5 -41l99 -12l4 -70h-363l4 70l95 12q20 4 33.5 24t13.5 189v475q0 61 -39 80l-94 20l-6 68h299l534 -750h16v455q0 137 -8 172t-37 41l-98 14l-6 68h364l-6 -68l-94 -14q-29 -6 -38 -42t-9 -171z" />
    <glyph glyph-name="o.smallcap" horiz-adv-x="1146" 
d="M901 460q0 198 -95 311.5t-234.5 113.5t-230.5 -106.5t-91 -305.5t94 -311.5t232 -112.5t231.5 106.5t93.5 304.5zM1069 477q0 -213 -144.5 -358.5t-357.5 -145.5t-350 135.5t-137 348.5t144.5 359.5t356.5 146.5t350 -136.5t138 -349.5z" />
    <glyph glyph-name="p.smallcap" horiz-adv-x="942" 
d="M711 644q0 104 -70 164t-190 58h-86v-424q61 -14 145 -14t142.5 56t58.5 160zM877 655q0 -128 -111 -210.5t-270 -82.5q-74 0 -131 7v-256q0 -23 24 -29l121 -14l4 -70h-432l4 70l98 14q27 6 27 29v712q0 23 -27 29l-98 16l-4 68h410q184 0 284.5 -77.5t100.5 -205.5z
" />
    <glyph glyph-name="q.smallcap" horiz-adv-x="1146" 
d="M901 460q0 198 -95 311.5t-234.5 113.5t-230.5 -106.5t-91 -305.5t94 -311.5t232 -112.5t231.5 106.5t93.5 304.5zM80 461q0 209 144.5 355.5t356.5 146.5t350 -136.5t138 -353.5q0 -170 -98.5 -301t-253.5 -176q68 -117 167 -151.5t257 -20.5l6 -66q-90 -28 -220 -28
t-221.5 56t-162.5 189q-203 8 -333 142.5t-130 343.5z" />
    <glyph glyph-name="r.smallcap" horiz-adv-x="1005" 
d="M729 662q0 102 -64.5 154t-191.5 48l-111 -2v-393l148 -14q219 25 219 207zM362 113q0 -23 27 -29l105 -14l4 -70h-418l6 70l98 14q25 6 25 29v712q0 23 -25 29l-98 16l-6 68h455q178 0 270 -69.5t92 -178.5q0 -197 -246 -270l203 -297q27 -37 66 -45l63 -8l4 -70h-237
l-68 111l-180 280l-140 4v-282z" />
    <glyph glyph-name="s.smallcap" horiz-adv-x="843" 
d="M760 257q0 -118 -100.5 -200t-260.5 -82t-297 41l-18 283h78l67 -213q79 -35 183 -35t158.5 46t54.5 121t-57.5 116t-192.5 86t-206 105.5t-71 172.5t89 187.5t223 76.5t227 -20l84 23v-310h-76l-51 195q-88 37 -178 37t-139.5 -42t-49.5 -110t56.5 -106.5t194.5 -84.5
t210 -107.5t72 -179.5z" />
    <glyph glyph-name="t.smallcap" horiz-adv-x="993" 
d="M930 627h-82l-33 143q-14 61 -52 77.5t-169 16.5h-19v-751q0 -23 27 -29l119 -14l4 -70h-453l4 70l117 14q27 6 27 29v751h-17q-133 0 -171.5 -14t-53.5 -72l-39 -151h-86l27 311h850v-311z" />
    <glyph glyph-name="u.smallcap" horiz-adv-x="1110" 
d="M922 643v-330q0 -158 -98.5 -250t-268.5 -92t-267.5 86t-97.5 260v508q0 23 -26 29l-98 16l-7 68h412l-4 -68l-98 -16q-27 -6 -27 -29v-473q0 -283 260 -282q123 0 186.5 70.5t63.5 197.5v305q0 139 -8 173t-37 40l-98 14l-4 68h364l-4 -68l-96 -14q-29 -6 -38 -42
t-9 -171z" />
    <glyph glyph-name="v.smallcap" horiz-adv-x="987" 
d="M995 938l-4 -70l-69 -10q-41 -10 -60.5 -38.5t-66.5 -164.5l-232 -659h-153l-289 831q-8 20 -43 27l-90 14l-4 70h432l-4 -70l-90 -12q-31 -4 -32 -19t10 -49t11 -36l211 -625h21l182 549q33 113 28 146.5t-46 37.5l-68 8l-4 70h360z" />
    <glyph glyph-name="w.smallcap" horiz-adv-x="1470" 
d="M1501 938l-4 -70l-65 -12q-39 -10 -62.5 -45t-66.5 -156l-224 -659h-135l-194 620h-17l-211 -620h-135l-283 831q-8 20 -45 27l-90 14l-6 70h438l-4 -70l-92 -12q-29 -4 -31 -21.5t19 -82.5l194 -592h19l186 571l-30 96q-4 18 -46 27l-88 14l-6 70h447l-6 -70l-91 -12
q-14 -2 -23 -13t13 -91l185 -592h18l158 495q50 154 37 175.5t-33 25.5l-72 12l-6 70h352z" />
    <glyph glyph-name="x.smallcap" horiz-adv-x="1052" 
d="M1024 0h-438l6 70l82 8q16 2 23.5 7t3.5 19.5t-44 73.5l-157 232h-4l-170 -244q-61 -74 4 -86l78 -10l4 -70h-381l6 70l82 14q55 12 98 70l238 307l-252 350q-25 33 -60 43l-88 16l-6 68h438l-6 -68l-82 -10q-14 -2 -20 -7t-5 -19t42 -74l141 -213h4l160 227q42 60 30 71
t-34 15l-78 10l-6 68h383l-4 -68l-84 -14q-49 -10 -99 -72l-227 -288l270 -371q25 -33 60 -41l86 -14z" />
    <glyph glyph-name="y.smallcap" horiz-adv-x="917" 
d="M539 113q0 -23 26 -29l119 -14l4 -70h-455l7 70l118 14q27 6 27 29v266l-270 432q-20 31 -62 45l-71 12l-5 70h420l-6 -70l-82 -10q-57 -8 6 -117l168 -295h17l176 308q55 94 -6 104l-74 10l-4 70h346l-4 -70l-57 -10q-63 -20 -113 -102l-225 -369v-274z" />
    <glyph glyph-name="z.smallcap" horiz-adv-x="935" 
d="M80 0v70l596 790v4h-191q-206 0 -235 -27.5t-43 -72.5l-31 -129h-80v303h760v-72l-598 -788v-4l184 2q186 0 237.5 17.5t65.5 74.5l37 135h88l-32 -303h-758z" />
    <glyph glyph-name="fi.smallcap" horiz-adv-x="1568" 
d="M862 643h-82l-30 139q-16 59 -65.5 72.5t-252.5 13.5h-67v-372h79q84 0 112 6t36 30l33 101h65l-35 -336h-59l-14 96q-4 25 -29 33t-111 8h-77v-321q0 -23 24 -29l127 -14l4 -70h-438l4 70l98 14q27 6 27 29v712q0 23 -27 29l-98 16l-4 68h780v-295zM1182 113v712
q0 27 -27 29l-113 16l-4 68h441l-4 -68l-111 -16q-27 -2 -27 -29v-712q0 -23 27 -29l111 -14l4 -70h-441l4 70l113 14q27 6 27 29z" />
    <glyph glyph-name="fl.smallcap" horiz-adv-x="1863" 
d="M862 643h-82l-30 139q-16 59 -65.5 72.5t-252.5 13.5h-67v-372h79q84 0 112 6t36 30l33 101h65l-35 -336h-59l-14 96q-4 25 -29 33t-111 8h-77v-321q0 -23 24 -29l127 -14l4 -70h-438l4 70l98 14q27 6 27 29v712q0 23 -27 29l-98 16l-4 68h780v-295zM1159 825
q0 23 -26 29l-97 16l-4 68h420l-4 -68l-109 -16q-27 -2 -26 -29v-749h35q245 0 276 21.5t45 62.5l41 155h86l-33 -315h-731l4 70l97 14q27 6 26 29v712z" />
    <glyph glyph-name="ff.smallcap" horiz-adv-x="1898" 
d="M1810 643h-79l-33 139q-12 43 -36 59.5t-79 21.5t-201 5h-67v-372h78q86 0 112.5 7t34.5 32l35 98h63l-32 -336h-62l-12 96q-4 25 -28.5 33t-112.5 8h-76v-321q0 -23 24 -29l125 -14l6 -70h-438l4 70l97 14q27 6 26 29v712q0 23 -26 29l-97 16l-4 68h778v-295zM862 643
h-82l-30 139q-16 59 -65.5 72.5t-252.5 13.5h-67v-372h79q84 0 112 7t36 32l35 98h63l-33 -336h-61l-14 96q-4 25 -29 33t-111 8h-77v-321q0 -23 24 -29l127 -14l4 -70h-438l6 70l96 14q27 6 27 29v712q0 23 -27 29l-96 16l-6 68h780v-295z" />
    <glyph glyph-name="ffi.smallcap" horiz-adv-x="2516" 
d="M1810 643h-79l-33 139q-12 44 -36 60t-79 21t-201 5h-67v-372h78q87 0 113 7t34 32l35 98h63l-32 -336h-62l-12 96q-4 25 -29 33t-112 8h-76v-321q0 -23 24 -29l125 -14l6 -70h-438l4 70l97 14q27 6 26 29v712q0 23 -26 29l-97 16l-4 68h778v-295zM862 643h-82l-30 139
q-16 58 -66 72t-252 14h-67v-372h79q84 0 112 7t36 32l35 98h63l-33 -336h-61l-14 96q-4 25 -29 33t-111 8h-77v-321q0 -23 24 -29l127 -14l4 -70h-438l6 70l96 14q27 6 27 29v712q0 23 -27 29l-96 16l-6 68h780v-295zM2132 113v712q0 27 -27 29l-112 16l-6 68h442l-4 -68
l-113 -16q-27 -2 -26 -29v-712q0 -23 26 -29l113 -14l4 -70h-442l6 70l112 14q27 6 27 29z" />
    <glyph glyph-name="ffl.smallcap" horiz-adv-x="2813" 
d="M2109 825q0 23 -26 29l-96 16l-7 68h422l-6 -68l-108 -16q-25 -2 -25 -29v-749h33q247 0 277 21.5t44 62.5l41 155h88l-34 -315h-732l7 70l96 14q27 6 26 29v712zM1810 643h-79l-33 139q-12 43 -36 59.5t-79 21.5t-201 5h-67v-372h78q86 0 112.5 7t34.5 32l35 98h63
l-32 -336h-62l-12 96q-4 25 -28.5 33t-112.5 8h-76v-321q0 -23 24 -29l125 -14l6 -70h-438l4 70l97 14q27 6 26 29v712q0 23 -26 29l-97 16l-4 68h778v-295zM862 643h-82l-30 139q-16 59 -65.5 72.5t-252.5 13.5h-67v-372h79q84 0 112 7t36 32l35 98h63l-33 -336h-61l-14 96
q-4 25 -29 33t-111 8h-77v-321q0 -23 24 -29l127 -14l4 -70h-438l6 70l96 14q27 6 27 29v712q0 23 -27 29l-96 16l-6 68h780v-295z" />
    <glyph glyph-name="germandbls.smallcap" horiz-adv-x="1687" 
d="M760 257q0 -118 -100.5 -200t-260.5 -82t-297 41l-18 283h78l67 -213q79 -35 183 -35t158.5 46t54.5 121t-57.5 116t-192.5 86t-206 105.5t-71 172.5t89 187.5t223 76.5t227 -20l84 23v-310h-76l-51 195q-88 37 -178 37t-139.5 -42t-49.5 -110t56.5 -106.5t194.5 -84.5
t210 -107.5t72 -179.5zM1604 257q0 -118 -99.5 -200t-260.5 -82t-298 41l-18 283h78l67 -213q79 -35 183 -35t158 46t54 121t-57 116t-192 86t-206 105.5t-71 172.5t89 187.5t223 76.5t227 -20l84 23v-310h-74l-53 195q-88 37 -178.5 37t-139.5 -42t-49 -110t56.5 -106.5
t194.5 -84.5t210 -107.5t72 -179.5z" />
    <glyph glyph-name="agrave.smallcap" horiz-adv-x="983" 
d="M592 393l-133 420h-17l-137 -420h287zM985 0h-434l6 70l88 10q23 4 32 14t-15 92l-48 140h-331l-43 -131q-18 -63 -16 -86t34 -29l76 -10l4 -70h-350l4 70l69 10q41 8 62 39q20 31 67 164l207 591v39l164 50l285 -850q8 -23 47 -29l86 -14zM526 1040h-45l-338 377h187z
" />
    <glyph glyph-name="aacute.smallcap" horiz-adv-x="983" 
d="M592 393l-133 420h-17l-137 -420h287zM985 0h-434l6 70l88 10q23 4 32 14t-15 92l-48 140h-331l-43 -131q-18 -63 -16 -86t34 -29l76 -10l4 -70h-350l4 70l69 10q41 8 62 39q20 31 67 164l207 591v39l164 50l285 -850q8 -23 47 -29l86 -14zM791 1417l-338 -377h-47
l192 377h193z" />
    <glyph glyph-name="acircumflex.smallcap" horiz-adv-x="983" 
d="M592 393l-133 420h-17l-137 -420h287zM985 0h-434l6 70l88 10q23 4 32 14t-15 92l-48 140h-331l-43 -131q-18 -63 -16 -86t34 -29l76 -10l4 -70h-350l4 70l69 10q41 8 62 39q20 31 67 164l207 591v39l164 50l285 -850q8 -23 47 -29l86 -14zM748 1040h-56l-209 252h-4
l-209 -252h-55l227 398h78z" />
    <glyph glyph-name="atilde.smallcap" horiz-adv-x="983" 
d="M592 393l-133 420h-17l-137 -420h287zM627 1065q-70 0 -171.5 73.5t-133.5 73.5t-55 -27.5t-54 -105.5h-53q41 240 196 240q70 0 171 -74t133 -74t55.5 28t54.5 106h53q-41 -240 -196 -240zM985 0h-434l6 70l88 10q23 4 32 14.5t-15 91.5l-48 140h-331l-43 -131
q-18 -63 -15.5 -86t33.5 -29l76 -10l4 -70h-350l4 70l69 10q41 8 61.5 39t67.5 164l207 591v39l164 50l285 -850q8 -23 47 -29l86 -14z" />
    <glyph glyph-name="adieresis.smallcap" horiz-adv-x="983" 
d="M592 393l-133 420h-17l-137 -420h287zM985 0h-434l6 70l88 10q23 4 32 14t-15 92l-48 140h-331l-43 -131q-18 -63 -16 -86t34 -29l76 -10l4 -70h-350l4 70l69 10q41 8 62 39q20 31 67 164l207 591v39l164 50l285 -850q8 -23 47 -29l86 -14zM391 1223q0 -49 -31 -85
q-32 -36 -82 -36t-81 36t-31 85t31 85t82 36t81 -36t31 -85zM801 1223q0 -49 -31 -85t-82 -36t-82 36t-31 85t31 85t81 36t82 -36t32 -85z" />
    <glyph glyph-name="aring.smallcap" horiz-adv-x="940" 
d="M571 393l-133 420h-16l-139 -420h288zM586 1068q0 54 -34 92t-89 38t-88 -38t-33 -92t33 -92t88 -38t89 38t34 92zM281 1078q0 66 50 119.5t132 53.5t132 -53t50 -131q0 -109 -86 -160l266 -794q6 -23 45 -29l88 -14l5 -70h-433l5 70l90 10q33 6 35 22.5t-21 83.5
l-45 140h-332l-43 -131q-20 -63 -16 -86t33 -29l75 -10l6 -70h-350l4 70l68 10q41 8 61.5 39t67.5 164l217 616q-104 42 -104 179z" />
    <glyph glyph-name="aringacute.smallcap" horiz-adv-x="940" 
d="M571 393l-133 420h-16l-139 -420h288zM586 1068q0 54 -34 92t-89 38t-88 -38t-33 -92t33 -92t88 -38t89 38t34 92zM463 1251q82 0 132 -53t50 -131q0 -109 -86 -160l266 -794q6 -23 45 -29l88 -14l5 -70h-433l5 70l90 10q33 6 34 22q2 16 -20 84l-45 140h-332l-43 -131
q-20 -63 -16 -86t33 -29l75 -10l6 -70h-350l4 70l68 10q41 8 61 39t68 164l217 616q-49 21 -77 67t-28 112t51 120q50 53 132 53zM756 1663l-338 -377h-47l192 377h193z" />
    <glyph glyph-name="amacron.smallcap" horiz-adv-x="983" 
d="M592 393l-133 420h-17l-137 -420h287zM985 0h-434l6 70l88 10q23 4 32 14t-15 92l-48 140h-331l-43 -131q-18 -63 -16 -86t34 -29l76 -10l4 -70h-350l4 70l69 10q41 8 62 39q20 31 67 164l207 591v39l164 50l285 -850q8 -23 47 -29l86 -14zM756 1104h-506l6 84h494z" />
    <glyph glyph-name="abreve.smallcap" horiz-adv-x="983" 
d="M592 393l-133 420h-17l-137 -420h287zM472.5 1034q-127.5 0 -179.5 130t-78 253h47q53 -135 106.5 -208.5t127 -73.5t127 73.5t106.5 208.5h47q-45 -220 -110.5 -301.5t-193 -81.5zM985 0h-434l6 70l88 10q23 4 32 14.5t-15 91.5l-48 140h-331l-43 -131
q-18 -63 -15.5 -86t33.5 -29l76 -10l4 -70h-350l4 70l69 10q41 8 61.5 39t67.5 164l207 591v39l164 50l285 -850q8 -23 47 -29l86 -14z" />
    <glyph glyph-name="aogonek.smallcap" horiz-adv-x="983" 
d="M592 393l-133 420h-17l-137 -420h287zM805 -434q-74 0 -124 44t-50 127t66.5 155.5t154.5 107.5h-301l6 70l88 10q23 4 32 14.5t-15 91.5l-48 140h-331l-43 -131q-18 -63 -15.5 -86t33.5 -29l76 -10l4 -70h-350l4 70l69 10q41 8 61.5 39t67.5 164l207 591v39l164 50
l287 -850q6 -23 45 -29l86 -14l6 -70q-86 -18 -158.5 -87t-72.5 -140q0 -102 104 -103q66 0 103 43l22 -24q-10 -49 -57 -86t-121 -37z" />
    <glyph glyph-name="ae.smallcap" horiz-adv-x="1388" 
d="M637 401v473h-12l-248 -473h260zM637 113v221h-295l-70 -127q-47 -89 -38.5 -106t26.5 -21l78 -10l4 -70h-354l6 70l65 10q43 8 75 44t95 159l275 508q29 59 -31 69l-76 10l-6 68h871v-293h-78l-33 139q-14 59 -63.5 72.5t-251.5 13.5h-54v-362h52q84 0 107.5 6t31.5 29
l35 102h61l-33 -334h-57l-14 97q-4 25 -25.5 31.5t-110.5 6.5h-47v-378h41q156 0 219.5 6t88 22.5t36.5 57.5l37 131h84l-28 -285h-752l4 70l100 14q25 6 25 29z" />
    <glyph glyph-name="aeacute.smallcap" horiz-adv-x="1388" 
d="M637 401v473h-12l-248 -473h260zM637 113v221h-295l-70 -127q-46 -87 -35 -112q5 -11 23 -15l78 -10l4 -70h-354l6 70l65 10q43 8 75 44t95 159l275 508q29 59 -31 69l-76 10l-6 68h871v-293h-78l-33 139q-13 58 -63 72t-252 14h-54v-362h52q84 0 108 6t31 29l35 102h61
l-33 -334h-57l-14 97q-4 26 -26 32t-110 6h-47v-378h41q156 0 219 6t88 22t37 58l37 131h84l-28 -285h-752l4 70l100 14q25 6 25 29zM1110 1417l-338 -377h-47l193 377h192z" />
    <glyph glyph-name="ccedilla.smallcap" horiz-adv-x="1060" 
d="M80 463q0 219 147.5 359.5t374.5 140.5q104 0 217 -31l127 26v-327h-82l-49 209q-90 47 -213 47q-158 0 -256 -114.5t-98 -304.5t97 -304.5t269 -114.5q109 0 183 39l69 211h86l-32 -303l-82 18q-88 -33 -205 -39l-92 -96q119 4 191.5 -44t72.5 -141t-109.5 -159.5
t-308.5 -81.5l-16 45q319 43 319 180q0 51 -44 81t-112 30t-137 -10v35l154 163q-211 12 -341 139.5t-130 346.5z" />
    <glyph glyph-name="cacute.smallcap" horiz-adv-x="1060" 
d="M596 -25q-227 0 -372 129q-144 130 -144 354t147 364t375 141q104 0 217 -31l127 26v-327h-82l-49 209q-90 47 -213 47q-158 0 -256 -114q-98 -115 -98 -305t97 -304t269 -115q109 0 183 39l69 211h86l-32 -303l-82 18q-109 -39 -242 -39zM870 1417l-338 -377h-47
l193 377h192z" />
    <glyph glyph-name="ccircumflex.smallcap" horiz-adv-x="1060" 
d="M596 -25q-227 0 -372 129q-144 130 -144 354t147 364t375 141q104 0 217 -31l127 26v-327h-82l-49 209q-90 47 -213 47q-158 0 -256 -114q-98 -115 -98 -305t97 -304t269 -115q109 0 183 39l69 211h86l-32 -303l-82 18q-109 -39 -242 -39zM842 1040h-56l-208 252h-5
l-208 -252h-56l228 398h77z" />
    <glyph glyph-name="cdotaccent.smallcap" horiz-adv-x="1060" 
d="M596 -25q-227 0 -372 129q-144 130 -144 354t147 364t375 141q104 0 217 -31l127 26v-327h-82l-49 209q-90 47 -213 47q-158 0 -256 -114q-98 -115 -98 -305t97 -304t269 -115q109 0 183 39l69 211h86l-32 -303l-82 18q-109 -39 -242 -39zM707 1234q0 -50 -32 -87
t-84 -37t-84 37t-32 88t32 87t84 36t84 -37t32 -87z" />
    <glyph glyph-name="ccaron.smallcap" horiz-adv-x="1060" 
d="M596 -25q-227 0 -372 129q-144 130 -144 354t147 364t375 141q104 0 217 -31l127 26v-327h-82l-49 209q-90 47 -213 47q-158 0 -256 -114q-98 -115 -98 -305t97 -304t269 -115q109 0 183 39l69 211h86l-32 -303l-82 18q-109 -39 -242 -39zM862 1438l-227 -398h-78
l-227 398h55l209 -252h4l209 252h55z" />
    <glyph glyph-name="dcaron.smallcap" horiz-adv-x="1081" 
d="M780 1438l-225 -396h-80l-227 396h55l209 -252h4l211 252h53zM844 464q0 182 -108.5 292t-315.5 110h-55v-770l116 -20q170 2 266.5 104t96.5 284zM1010 483.5q0 -204.5 -146.5 -344t-410.5 -139.5h-371l4 70l98 14q27 6 27 29v712q0 23 -27 29l-98 16l-4 68l371 4
q256 2 406.5 -126t150.5 -332.5z" />
    <glyph glyph-name="eth.smallcap" horiz-adv-x="1116" 
d="M399 518h219l7 -80h-226v-342l117 -20q170 2 266 104t96 284t-108 292q-109 110 -315 110h-56v-348zM246 438h-164l6 80h158v307q0 23 -27 29l-98 16l-4 68l370 4q256 2 407 -126q150 -128 150 -333t-146 -344t-411 -139h-370l4 70l98 14q27 6 27 29v325z" />
    <glyph glyph-name="dcroat.smallcap" horiz-adv-x="1116" 
d="M399 518h219l7 -80h-226v-342l117 -20q170 2 266.5 104t96.5 284t-108.5 292t-315.5 110h-56v-348zM246 438h-164l6 80h158v307q0 23 -27 29l-98 16l-4 68l370 4q256 2 406.5 -126t150.5 -332.5t-146 -344t-411 -139.5h-370l4 70l98 14q27 6 27 29v325z" />
    <glyph glyph-name="egrave.smallcap" horiz-adv-x="1003" 
d="M211 113v712q0 23 -27 29l-98 16l-4 68h795v-295h-82l-31 139q-10 44 -35 60t-81 21t-199 5h-84v-360h73q84 0 110 6t34 31l34 102h64l-31 -338h-63l-13 99q-3 24 -27 30t-114 6h-67v-374h75q257 0 301 28q25 16 39 58l35 131h88l-29 -287h-792l4 70l98 14q27 6 27 29z
M584 1040h-45l-338 377h186z" />
    <glyph glyph-name="eacute.smallcap" horiz-adv-x="1003" 
d="M211 113v712q0 23 -27 29l-98 16l-4 68h795v-295h-82l-31 139q-10 44 -35 60t-81 21t-199 5h-84v-360h73q84 0 110 6t34 31l34 102h64l-31 -338h-63l-13 99q-3 24 -27 30t-114 6h-67v-374h75q257 0 301 28q25 16 39 58l35 131h88l-29 -287h-792l4 70l98 14q27 6 27 29z
M801 1417l-338 -377h-47l192 377h193z" />
    <glyph glyph-name="ecircumflex.smallcap" horiz-adv-x="1003" 
d="M211 113v712q0 23 -27 29l-98 16l-4 68h795v-295h-82l-31 139q-10 44 -35 60t-81 21t-199 5h-84v-360h73q84 0 110 6t34 31l34 102h64l-31 -338h-63l-13 99q-3 24 -27 30t-114 6h-67v-374h75q257 0 301 28q25 16 39 58l35 131h88l-29 -287h-792l4 70l98 14q27 6 27 29z
M758 1040h-56l-208 252h-5l-208 -252h-56l228 398h77z" />
    <glyph glyph-name="edieresis.smallcap" horiz-adv-x="1003" 
d="M211 113v712q0 23 -27 29l-98 16l-4 68h795v-295h-82l-31 139q-10 44 -35 60t-81 21t-199 5h-84v-360h73q84 0 110 6t34 31l34 102h64l-31 -338h-63l-13 99q-3 24 -27 30t-114 6h-67v-374h75q257 0 301 28q25 16 39 58l35 131h88l-29 -287h-792l4 70l98 14q27 6 27 29z
M393 1223q0 -49 -31 -85q-32 -36 -82 -36t-81 36t-31 85t31 85t82 36t81 -36t31 -85zM803 1223q0 -49 -31 -85t-82 -36t-82 36t-30 85q0 49 30 85q31 36 81 36t82 -36t32 -85z" />
    <glyph glyph-name="emacron.smallcap" horiz-adv-x="1003" 
d="M211 113v712q0 23 -27 29l-98 16l-4 68h795v-295h-82l-31 139q-10 44 -35 60t-81 21t-199 5h-84v-360h73q84 0 110 6t34 31l34 102h64l-31 -338h-63l-13 99q-3 24 -27 30t-114 6h-67v-374h75q257 0 301 28q25 16 39 58l35 131h88l-29 -287h-792l4 70l98 14q27 6 27 29z
M770 1104h-506l6 84h494z" />
    <glyph glyph-name="ebreve.smallcap" horiz-adv-x="1003" 
d="M211 113v712q0 23 -27 29l-98 16l-4 68h795v-295h-82l-31 139q-10 44 -35 60t-81 21t-199 5h-84v-360h73q84 0 110 6t34 31l34 102h64l-31 -338h-63l-13 99q-3 24 -27 30t-114 6h-67v-374h75q257 0 301 28q25 16 39 58l35 131h88l-29 -287h-792l4 70l98 14q27 6 27 29z
M526 1034q-185 0 -255 274q-11 42 -25 109h47q53 -135 106 -209t127 -74t127 74t107 209h47q-45 -217 -111 -301q-68 -82 -170 -82z" />
    <glyph glyph-name="edotaccent.smallcap" horiz-adv-x="1003" 
d="M211 113v712q0 23 -27 29l-98 16l-4 68h795v-295h-82l-31 139q-10 44 -35 60t-81 21t-199 5h-84v-360h73q84 0 110 6t34 31l34 102h64l-31 -338h-63l-13 99q-3 24 -27 30t-114 6h-67v-374h75q257 0 301 28q25 16 39 58l35 131h88l-29 -287h-792l4 70l98 14q27 6 27 29z
M631 1234q0 -50 -32 -87t-84 -37t-84 37t-32 88t32 87t84 36t84 -37t32 -87z" />
    <glyph glyph-name="eogonek.smallcap" horiz-adv-x="1003" 
d="M695 -434q-73 0 -122 47t-49 131q0 135 168 256h-610l6 70l96 14q27 6 27 29v712q0 23 -27 29l-96 16l-6 68h795v-295h-82l-31 139q-10 43 -34.5 59.5t-81 21.5t-199.5 5h-84v-360h73q84 0 109.5 6t34.5 31l34 102h64l-31 -338h-63l-13 99q-4 23 -27.5 29.5t-113.5 6.5
h-67v-374h75q152 0 214.5 6t87 22.5t38.5 57.5l35 131h88l-29 -287h-104q-121 -109 -121 -217q0 -49 26.5 -81t82.5 -32t94 43l22 -24q-12 -49 -59 -86t-120 -37z" />
    <glyph glyph-name="ecaron.smallcap" horiz-adv-x="1003" 
d="M211 113v712q0 23 -27 29l-98 16l-4 68h795v-295h-82l-31 139q-10 44 -35 60t-81 21t-199 5h-84v-360h73q84 0 110 6t34 31l34 102h64l-31 -338h-63l-13 99q-3 24 -27 30t-114 6h-67v-374h75q257 0 301 28q25 16 39 58l35 131h88l-29 -287h-792l4 70l98 14q27 6 27 29z
M786 1438l-227 -398h-78l-227 398h55l209 -252h4l209 252h55z" />
    <glyph glyph-name="gcircumflex.smallcap" horiz-adv-x="1118" 
d="M589 -25q-222 0 -366 131q-143 130 -143 354t148 363t374 140q100 0 213 -31l123 26v-323h-88l-45 205q-86 47 -209 47q-156 0 -252 -115q-96 -114 -96 -304t95 -304t261 -115q92 0 174 33v223q0 27 -26 29l-111 16l-4 68h420l-4 -68l-99 -16q-27 -2 -26 -29v-196l92 -9
l4 -49q-213 -76 -435 -76zM858 1040h-55l-209 252h-4l-209 -252h-55l227 398h78z" />
    <glyph glyph-name="gbreve.smallcap" horiz-adv-x="1118" 
d="M589 -25q-222 0 -366 131q-143 130 -143 354t148 363t374 140q100 0 213 -31l123 26v-323h-88l-45 205q-86 47 -209 47q-156 0 -252 -115q-96 -114 -96 -304t95 -304t261 -115q92 0 174 33v223q0 27 -26 29l-111 16l-4 68h420l-4 -68l-99 -16q-27 -2 -26 -29v-196l92 -9
l4 -49q-213 -76 -435 -76zM576 1034q-149 0 -221 173q-28 68 -60 210h47q52 -135 106 -209t128 -74t126 74q53 74 107 209h47q-45 -221 -111 -301q-67 -82 -169 -82z" />
    <glyph glyph-name="gdotaccent.smallcap" horiz-adv-x="1118" 
d="M589 -25q-222 0 -366 131q-143 130 -143 354t148 363t374 140q100 0 213 -31l123 26v-323h-88l-45 205q-86 47 -209 47q-156 0 -252 -115q-96 -114 -96 -304t95 -304t261 -115q92 0 174 33v223q0 27 -26 29l-111 16l-4 68h420l-4 -68l-99 -16q-27 -2 -26 -29v-196l92 -9
l4 -49q-213 -76 -435 -76zM585 1358q51 0 83 -37t32 -87t-32 -87t-83 -37q-52 0 -84 37t-32 88t32 87t84 36z" />
    <glyph glyph-name="gcommaaccent.smallcap" horiz-adv-x="1118" 
d="M589 -25q-222 0 -366 131q-143 130 -143 354t148 363t374 140q100 0 213 -31l123 26v-323h-88l-45 205q-86 47 -209 47q-156 0 -252 -115q-96 -114 -96 -304t95 -304t261 -115q92 0 174 33v223q0 27 -26 29l-111 16l-4 68h420l-4 -68l-99 -16q-27 -2 -26 -29v-196l92 -9
l4 -49q-213 -76 -435 -76zM618 -104q54 0 96 -48t42 -126t-67 -149t-161 -110l-34 33q137 57 137 174q0 62 -37 88t-62 33q-24 8 -24 10q0 41 28 68t82 27z" />
    <glyph glyph-name="hcircumflex.smallcap" horiz-adv-x="1179" 
d="M817 446h-455v-333q0 -23 27 -29l96 -14l7 -70h-412l6 70l96 14q27 6 27 29v712q0 23 -27 29l-96 16l-6 68h412l-7 -68l-96 -16q-27 -6 -27 -29v-309h455v309q0 23 -26 29l-97 16l-6 68h412l-6 -68l-99 -16q-27 -6 -26 -29v-712q0 -23 26 -29l99 -14l6 -70h-412l6 70
l97 14q27 6 26 29v333zM854 1047h-55l-209 251h-4l-209 -251h-55l227 397h78z" />
    <glyph glyph-name="hbar.smallcap" horiz-adv-x="1179" 
d="M362 516h455v131h-455v-131zM817 446h-455v-333q0 -23 27 -29l98 -14l5 -70h-410l4 70l96 14q27 6 27 29v534h-182l6 66h176v112q0 23 -27 29l-96 16l-4 68h410l-5 -68l-98 -16q-27 -6 -27 -29v-112h455v112q0 23 -26 29l-97 16l-6 68h412l-6 -68l-97 -16q-29 -6 -28 -29
v-112h190l6 -66h-196v-534q0 -23 28 -29l97 -14l6 -70h-412l6 70l97 14q27 6 26 29v333z" />
    <glyph glyph-name="igrave.smallcap" horiz-adv-x="618" 
d="M233 825q0 27 -26 29l-113 16l-6 68h442l-4 -68l-112 -16q-27 -2 -27 -29v-712q0 -23 27 -29l112 -14l4 -70h-442l6 70l113 14q27 6 26 29v712zM365 1040h-46l-337 377h186z" />
    <glyph glyph-name="iacute.smallcap" horiz-adv-x="618" 
d="M233 825q0 27 -26 29l-113 16l-6 68h442l-4 -68l-112 -16q-27 -2 -27 -29v-712q0 -23 27 -29l112 -14l4 -70h-442l6 70l113 14q27 6 26 29v712zM639 1417l-338 -377h-47l192 377h193z" />
    <glyph glyph-name="icircumflex.smallcap" horiz-adv-x="618" 
d="M233 825q0 27 -26 29l-113 16l-6 68h442l-4 -68l-112 -16q-27 -2 -27 -29v-712q0 -23 27 -29l112 -14l4 -70h-442l6 70l113 14q27 6 26 29v712zM573 1040h-55l-209 252h-4l-209 -252h-55l227 398h78z" />
    <glyph glyph-name="idieresis.smallcap" horiz-adv-x="618" 
d="M233 825q0 27 -26 29l-113 16l-6 68h442l-4 -68l-112 -16q-27 -2 -27 -29v-712q0 -23 27 -29l112 -14l4 -70h-442l6 70l113 14q27 6 26 29v712zM217 1223q0 -49 -31 -85t-82 -36q-52 0 -82 36t-30 85t31 85t81 36t82 -36q31 -36 31 -85zM627 1223q0 -49 -31 -85t-82 -36
t-82 36t-31 85t31 85t81 36t82 -36t32 -85z" />
    <glyph glyph-name="imacron.smallcap" horiz-adv-x="618" 
d="M233 825q0 27 -26 29l-113 16l-6 68h442l-4 -68l-112 -16q-27 -2 -27 -29v-712q0 -23 27 -29l112 -14l4 -70h-442l6 70l113 14q27 6 26 29v712zM567 1104h-506l7 84h493z" />
    <glyph glyph-name="ibreve.smallcap" horiz-adv-x="618" 
d="M312 1034q-185 0 -256 274q-11 42 -25 109h47q53 -135 106 -209t127 -74t127 74t107 209h47q-45 -217 -111 -301q-67 -82 -169 -82zM233 825q0 27 -26 29l-113 16l-6 68h442l-4 -68l-112 -16q-27 -2 -27 -29v-712q0 -23 27 -29l112 -14l4 -70h-442l6 70l113 14
q27 6 26 29v712z" />
    <glyph glyph-name="iogonek.smallcap" horiz-adv-x="618" 
d="M353 -434q-73 0 -123 46t-50 124t55.5 147.5t135.5 116.5h-283l6 70l113 14q27 6 26 29v712q0 27 -26 29l-113 16l-6 68h442l-4 -68l-112 -16q-27 -2 -27 -29v-712q0 -23 27 -29l112 -14l4 -70q-86 -18 -154.5 -86t-68.5 -126q0 -118 101 -118q63 0 100 43l22 -24
q-10 -49 -57 -86t-120 -37z" />
    <glyph glyph-name="idotaccent.smallcap" horiz-adv-x="618" 
d="M233 825q0 27 -26 29l-113 16l-6 68h442l-4 -68l-112 -16q-27 -2 -27 -29v-712q0 -23 27 -29l112 -14l4 -70h-442l6 70l113 14q27 6 26 29v712zM426 1234q0 -50 -32 -87t-84 -37t-84 37t-31 88q0 51 31 87q32 36 84 36t84 -37t32 -87z" />
    <glyph glyph-name="dotlessi.smallcap" horiz-adv-x="618" 
d="M233 825q0 27 -26 29l-113 16l-6 68h442l-4 -68l-112 -16q-27 -2 -27 -29v-712q0 -23 27 -29l112 -14l4 -70h-442l6 70l113 14q27 6 26 29v712z" />
    <glyph glyph-name="jcircumflex.smallcap" horiz-adv-x="643" 
d="M461 389q0 -205 -77 -309t-218 -105q-70 0 -115 34t-45 73q0 78 76 80q41 0 74 -30t47 -93h4q55 25 78 88t22 213v485q0 27 -26 29l-123 16l-4 68h442l-6 -68l-103 -16q-27 -6 -26 -29v-436zM649 1040h-55l-209 252h-4l-209 -252h-55l227 398h78z" />
    <glyph glyph-name="jcircumflex.smallcap.alt" horiz-adv-x="747" 
d="M606 825v-501q0 -172 -84 -262t-220 -89q-136 -1 -207 55t-70 128q1 46 27 74t63 28t61 -22t25 -64q0 -43 -33 -72q43 -55 125 -55q168 0 168 254v526q0 27 -27 29l-123 16l-6 68h438l-4 -68l-106 -16q-27 -2 -27 -29zM799 1040h-56l-208 252h-5l-208 -252h-56l228 398
h77z" />
    <glyph glyph-name="dotlessj.smallcap" horiz-adv-x="643" 
d="M6 82q0 80 79 80q38 0 71 -30t47 -93h4q55 25 77.5 88t22.5 213v485q0 27 -26 29l-123 16l-4 68h442l-6 -68l-103 -16q-27 -6 -26 -29v-436q0 -205 -77 -309.5t-218 -104.5q-70 0 -115 34t-45 73z" />
    <glyph glyph-name="kcommaaccent.smallcap" horiz-adv-x="1052" 
d="M365 113q0 -23 24 -29l98 -14l5 -70h-410l4 70l98 14q27 6 27 29v712q0 23 -27 29l-98 16l-4 68h410l-5 -68l-98 -16q-25 -6 -24 -29v-376l239 239q96 96 102 104t11 17q6 8 6 22q0 27 -35 33l-53 6l-6 68h393l-6 -68l-68 -10q-86 -18 -141 -74l-234 -229l312 -434
q25 -43 71 -43l68 -10l4 -70h-385l4 70l62 12q16 4 2 27l-242 352l-104 -101v-247zM552 -104q54 0 96 -48t42 -126t-66 -149t-161 -110l-35 33q137 57 137 174q0 64 -43 91q-30 22 -54 30t-26 10q0 41 28 68t82 27z" />
    <glyph glyph-name="lacute.smallcap" horiz-adv-x="915" 
d="M211 113v712q0 23 -27 29l-98 16l-4 68h422l-6 -68l-109 -16q-25 -2 -24 -29v-749h32q246 0 286 27q22 15 36 57l41 155h88l-35 -315h-731l4 70l98 14q27 6 27 29zM573 1374l-337 -377h-48l193 377h192z" />
    <glyph glyph-name="lcommaaccent.smallcap" horiz-adv-x="915" 
d="M211 113v712q0 23 -27 29l-98 16l-4 68h422l-6 -68l-109 -16q-25 -2 -24 -29v-749h32q246 0 286 27q22 15 36 57l41 155h88l-35 -315h-731l4 70l98 14q27 6 27 29zM462 -104q54 0 96 -48t42 -126t-66 -149t-161 -110l-35 33q137 57 137 174q0 64 -43 91q-30 22 -54 30
t-26 10q0 41 28 68t82 27z" />
    <glyph glyph-name="lcaron.smallcap" horiz-adv-x="1320" 
d="M211 113v712q0 23 -27 29l-98 16l-4 68h422l-6 -68l-109 -16q-25 -2 -24 -29v-749h32q246 0 286 27q22 15 36 57l41 155h88l-35 -315h-731l4 70l98 14q27 6 27 29zM1264 786q0 -193 -285 -399l-45 33q172 127 172 270q0 68 -46 103q-46 36 -75 50q-30 13 -31 15
q0 49 35 82t99 33q64 -1 120 -55t56 -132z" />
    <glyph glyph-name="ldotaccent.smallcap" horiz-adv-x="1173" 
d="M211 113v712q0 23 -27 29l-98 16l-4 68h422l-6 -68l-109 -16q-25 -2 -24 -29v-749h32q246 0 286 27q22 15 36 57l41 155h88l-35 -315h-731l4 70l98 14q27 6 27 29zM1176 588q0 -51 -36 -88t-90 -37t-92 37q-37 37 -36 88q0 51 36 87q38 36 92 36t90 -36t36 -87z" />
    <glyph glyph-name="lslash.smallcap" horiz-adv-x="950" 
d="M246 825q0 23 -27 29l-98 16l-4 68h422l-7 -68l-108 -16q-25 -2 -25 -29v-317l187 51v-86l-187 -51v-346h33q247 0 277 21.5t45 62.5l41 155h88l-35 -315h-731l4 70l98 14q27 6 27 29v268l-164 -45l2 86l162 45v358z" />
    <glyph glyph-name="ntilde.smallcap" horiz-adv-x="1175" 
d="M983 643v-653h-119l-573 809h-17v-504q0 -135 10 -172t35 -41l99 -12l4 -70h-363l4 70l95 12q20 4 28 16q19 28 19 197v475q0 61 -39 80l-94 20l-6 68h299l534 -750h16v455q0 137 -8 172t-37 41l-98 14l-6 68h364l-6 -68l-94 -14q-29 -6 -38 -42t-9 -171zM739 1065
q-70 0 -171 74q-101 73 -133 73q-31 0 -55 -28t-54 -105h-54q41 240 197 240q70 0 171 -74t133 -74q31 0 55 28t55 106h53q-41 -240 -197 -240z" />
    <glyph glyph-name="nacute.smallcap" horiz-adv-x="1175" 
d="M983 643v-653h-119l-573 809h-17v-504q0 -135 10 -172t35 -41l99 -12l4 -70h-363l4 70l95 12q20 4 28 16q19 28 19 197v475q0 61 -39 80l-94 20l-6 68h299l534 -750h16v455q0 137 -8 172t-37 41l-98 14l-6 68h364l-6 -68l-94 -14q-29 -6 -38 -42t-9 -171zM879 1417
l-338 -377h-47l192 377h193z" />
    <glyph glyph-name="ncommaaccent.smallcap" horiz-adv-x="1175" 
d="M983 643v-653h-119l-573 809h-17v-504q0 -135 10 -172t35 -41l99 -12l4 -70h-363l4 70l95 12q20 4 28 16q19 28 19 197v475q0 61 -39 80l-94 20l-6 68h299l534 -750h16v455q0 137 -8 172t-37 41l-98 14l-6 68h364l-6 -68l-94 -14q-29 -6 -38 -42t-9 -171zM593 -104
q54 0 96 -48t42 -126q-1 -78 -67 -149t-160 -110l-35 33q137 57 137 174q0 64 -43 91q-31 22 -55 30t-25 10q0 41 28 68t82 27z" />
    <glyph glyph-name="ncaron.smallcap" horiz-adv-x="1175" 
d="M983 643v-653h-119l-573 809h-17v-504q0 -135 10 -172t35 -41l99 -12l4 -70h-363l4 70l95 12q20 4 28 16q19 28 19 197v475q0 61 -39 80l-94 20l-6 68h299l534 -750h16v455q0 137 -8 172t-37 41l-98 14l-6 68h364l-6 -68l-94 -14q-29 -6 -38 -42t-9 -171zM860 1438
l-227 -398h-78l-227 398h55l209 -252h4l209 252h55z" />
    <glyph glyph-name="ograve.smallcap" horiz-adv-x="1146" 
d="M901 460q0 198 -95 312q-94 114 -234 113t-231 -107t-91 -305t94 -311t232 -113q138 1 232 107q93 106 93 304zM1069 477q0 -213 -144 -358q-143 -145 -357 -145t-351 134q-137 136 -137 349t144 359t356 146t351 -136q138 -136 138 -349zM635 1040h-45l-338 377h186z
" />
    <glyph glyph-name="oacute.smallcap" horiz-adv-x="1146" 
d="M901 460q0 198 -95 312q-94 114 -234 113t-231 -107t-91 -305t94 -311t232 -113q138 1 232 107q93 106 93 304zM1069 477q0 -213 -144 -358q-143 -145 -357 -145t-351 134q-137 136 -137 349t144 359t356 146t351 -136q138 -136 138 -349zM909 1417l-338 -377h-47
l193 377h192z" />
    <glyph glyph-name="ocircumflex.smallcap" horiz-adv-x="1146" 
d="M901 460q0 198 -95 312q-94 114 -234 113t-231 -107t-91 -305t94 -311t232 -113q138 1 232 107q93 106 93 304zM1069 477q0 -213 -144 -358q-143 -145 -357 -145t-351 134q-137 136 -137 349t144 359t356 146t351 -136q138 -136 138 -349zM850 1040h-55l-209 252h-4
l-209 -252h-56l228 398h78z" />
    <glyph glyph-name="otilde.smallcap" horiz-adv-x="1146" 
d="M702 1065q-70 0 -171 74q-101 73 -133 73t-56 -28t-53 -105h-53q41 240 196 240q70 0 171 -74t133 -74t56 28t54 106h53q-41 -240 -197 -240zM901 460q0 198 -95 312q-94 114 -234 113t-231 -107t-91 -305t94 -311t232 -113q138 1 232 107q93 106 93 304zM1069 477
q0 -213 -144 -358q-143 -145 -357 -145t-351 134q-137 136 -137 349t144 359t356 146t351 -136q138 -136 138 -349z" />
    <glyph glyph-name="odieresis.smallcap" horiz-adv-x="1146" 
d="M901 460q0 198 -95 312q-94 114 -234 113t-231 -107t-91 -305t94 -311t232 -113q138 1 232 107q93 106 93 304zM1069 477q0 -213 -144 -358q-143 -145 -357 -145t-351 134q-137 136 -137 349t144 359t356 146t351 -136q138 -136 138 -349zM492 1223q0 -49 -31 -85
t-82 -36t-82 36t-31 85t31 85t82 36t82 -36t31 -85zM901 1223q0 -49 -31 -85t-82 -36q-52 0 -82 36t-30 85t31 85t81 36t81 -36q32 -36 32 -85z" />
    <glyph glyph-name="omacron.smallcap" horiz-adv-x="1148" 
d="M901 460q0 198 -95 312q-94 114 -234 113t-231 -107t-91 -305t94 -311t232 -113q138 1 232 107q93 106 93 304zM1069 477q0 -213 -144 -358q-143 -145 -357 -145t-351 134q-137 136 -137 349t144 359t356 146t351 -136q138 -136 138 -349zM848 1104h-506l6 84h494z" />
    <glyph glyph-name="obreve.smallcap" horiz-adv-x="1148" 
d="M901 460q0 198 -95 312q-94 114 -234 113t-231 -107t-91 -305t94 -311t232 -113q138 1 232 107q93 106 93 304zM1069 477q0 -213 -144 -358q-143 -145 -357 -145t-351 134q-137 136 -137 349t144 359t356 146t351 -136q138 -136 138 -349zM592 1034q-185 0 -255 274
q-11 42 -26 109h47q52 -135 106 -209t128 -74t127 74t106 209h47q-45 -218 -110 -301q-67 -82 -170 -82z" />
    <glyph glyph-name="ohungarumlaut.smallcap" horiz-adv-x="1148" 
d="M901 460q0 198 -95 312q-94 114 -234 113t-231 -107t-91 -305t94 -311t232 -113q138 1 232 107q93 106 93 304zM1069 477q0 -213 -144 -358q-143 -145 -357 -145t-351 134q-137 136 -137 349t144 359t356 146t351 -136q138 -136 138 -349zM696 1417l-303 -377h-45
l178 377h170zM1006 1417l-304 -377h-45l179 377h170z" />
    <glyph glyph-name="oslash.smallcap" horiz-adv-x="1146" 
d="M926 464q0 202 -107 318l-98 -168q-98 -168 -197 -338l-98 -170q76 -57 174 -57q139 0 232.5 106.5t93.5 308.5zM274 473q0 -199 103 -321l393 677q-76 55 -176 56q-137 0 -228.5 -106.5t-91.5 -305.5zM1094 473q0 -209 -145.5 -354.5t-354.5 -145.5q-119 0 -219 47
l-74 -131h-76l92 162q-215 133 -215 410q0 209 145.5 355.5t354.5 146.5q119 0 219 -45l68 114h76q-74 -127 -84 -147q100 -63 156.5 -170t56.5 -242z" />
    <glyph glyph-name="oslashacute.smallcap" horiz-adv-x="1148" 
d="M600 49q138 1 232 107t94 308t-107 318l-98 -168q-98 -168 -197 -338l-98 -170q76 -57 174 -57zM770 829q-76 55 -176 56q-137 -1 -228 -107q-92 -106 -92 -305t103 -321zM1094 473q0 -209 -146 -354t-354 -146q-119 0 -219 47l-74 -131h-76l92 162q-215 133 -215 410
q0 209 146 355t354 147q119 0 219 -45l68 114h76q-74 -127 -84 -147q101 -63 157 -170t56 -242zM901 1417l-338 -377h-47l193 377h192z" />
    <glyph glyph-name="oe.smallcap" horiz-adv-x="1497" 
d="M725 70v782l-119 20q-174 -2 -272 -107t-98 -289t111.5 -295t322.5 -111h55zM627 0q-250 0 -398.5 127t-148.5 331t145.5 343t411.5 139l731 -2v-293h-78l-30 139q-10 41 -33 57.5t-81.5 22.5t-203.5 6h-74v-362h66q88 0 113.5 6t33.5 29l35 102h60l-31 -334h-60l-12 97
q-2 16 -14.5 27t-126.5 11h-64v-378h64q156 0 219 6t88 22.5t37 57.5l37 131h84l-29 -285h-741z" />
    <glyph glyph-name="thorn.smallcap" horiz-adv-x="970" 
d="M725 482q0 104 -68.5 164.5t-191.5 58.5h-86v-424q51 -15 141 -15t147.5 56t57.5 160zM891 493q0 -128 -110.5 -211t-270.5 -83q-72 0 -131 6v-92q0 -23 27 -29l118 -14l4 -70h-432l6 70l97 14q27 6 26 29v712q0 27 -26 29l-113 16l-6 68h442l-4 -68l-112 -16
q-27 -2 -27 -27v-51h127q184 0 284.5 -77.5t100.5 -205.5z" />
    <glyph glyph-name="racute.smallcap" horiz-adv-x="1005" 
d="M729 662q0 210 -256 202l-111 -2v-393l148 -14q219 25 219 207zM362 113q0 -23 27 -29l105 -14l4 -70h-418l6 70l98 14q25 6 25 29v712q0 23 -25 29l-98 16l-6 68h455q178 0 270 -70t92 -178q0 -197 -246 -270l203 -297q27 -37 66 -45l63 -8l4 -70h-237l-68 111l-180 280
l-140 4v-282zM745 1417l-337 -377h-48l193 377h192z" />
    <glyph glyph-name="rcommaaccent.smallcap" horiz-adv-x="1005" 
d="M729 662q0 210 -256 202l-111 -2v-393l148 -14q219 25 219 207zM362 113q0 -23 27 -29l105 -14l4 -70h-418l6 70l98 14q25 6 25 29v712q0 23 -25 29l-98 16l-6 68h455q178 0 270 -70t92 -178q0 -197 -246 -270l203 -297q27 -37 66 -45l63 -8l4 -70h-237l-68 111l-180 280
l-140 4v-282zM540 -104q54 0 96 -48t42 -126t-67 -149t-160 -110l-35 33q137 57 137 174q0 64 -43 91q-32 23 -56 30q-24 8 -24 10q0 41 28 68t82 27z" />
    <glyph glyph-name="rcaron.smallcap" horiz-adv-x="1005" 
d="M729 662q0 210 -256 202l-111 -2v-393l148 -14q219 25 219 207zM362 113q0 -23 27 -29l105 -14l4 -70h-418l6 70l98 14q25 6 25 29v712q0 23 -25 29l-98 16l-6 68h455q178 0 270 -70t92 -178q0 -197 -246 -270l203 -297q27 -37 66 -45l63 -8l4 -70h-237l-68 111l-180 280
l-140 4v-282zM743 1438l-227 -398h-78l-227 398h55l209 -252h4l209 252h55z" />
    <glyph glyph-name="sacute.smallcap" horiz-adv-x="843" 
d="M416 887q-90 0 -140 -42t-49 -110q1 -69 57 -107t194 -84t210 -108t72 -179q0 -118 -100 -200t-261 -82q-160 0 -297 41l-18 283h78l67 -213q79 -35 183 -35t158 46t54 121t-56 116q-58 41 -193 86t-206 105t-71 172t89 188t223 77t227 -20l84 23v-310h-76l-51 195
q-88 37 -178 37zM711 1417l-338 -377h-47l192 377h193z" />
    <glyph glyph-name="scircumflex.smallcap" horiz-adv-x="843" 
d="M416 887q-90 0 -140 -42t-49 -110q1 -69 57 -107t194 -84t210 -108t72 -179q0 -118 -100 -200t-261 -82q-160 0 -297 41l-18 283h78l67 -213q79 -35 183 -35t158 46t54 121t-56 116q-58 41 -193 86t-206 105t-71 172t89 188t223 77t227 -20l84 23v-310h-76l-51 195
q-88 37 -178 37zM690 1040h-55l-209 252h-4l-209 -252h-55l227 398h78z" />
    <glyph glyph-name="scedilla.smallcap" horiz-adv-x="843" 
d="M653 -306q0 -93 -109.5 -159.5t-307.5 -81.5l-17 45q319 43 320 180q0 51 -44.5 81t-112.5 30t-136 -10v35l151 161h-4q-154 0 -291 41l-18 283h78l67 -213q79 -35 183 -35t158.5 46t54.5 121t-57.5 116t-192.5 86t-206 105.5t-71 172.5t89 187.5t223 76.5t227 -20l84 23
v-310h-76l-51 195q-88 37 -178 37t-139.5 -42t-49.5 -110t56.5 -106.5t194.5 -84.5t210 -108t72 -170t-73 -184t-200 -98l-98 -105q119 4 191.5 -44t72.5 -141z" />
    <glyph glyph-name="scommaaccent.smallcap" horiz-adv-x="843" 
d="M416 887q-90 0 -140 -42t-49 -110q1 -69 57 -107t194 -84t210 -108t72 -179q0 -118 -100 -200t-261 -82q-160 0 -297 41l-18 283h78l67 -213q79 -35 183 -35t158 46t54 121t-56 116q-58 41 -193 86t-206 105t-71 172t89 188t223 77t227 -20l84 23v-310h-76l-51 195
q-88 37 -178 37zM417 -104q54 0 96 -48t42 -126t-67 -149t-160 -110l-35 33q137 57 137 174q0 64 -43 91q-32 23 -56 30q-24 8 -24 10q0 41 28 68t82 27z" />
    <glyph glyph-name="scaron.smallcap" horiz-adv-x="843" 
d="M416 887q-90 0 -140 -42t-49 -110q1 -69 57 -107t194 -84t210 -108t72 -179q0 -118 -100 -200t-261 -82q-160 0 -297 41l-18 283h78l67 -213q79 -35 183 -35t158 46t54 121t-56 116q-58 41 -193 86t-206 105t-71 172t89 188t223 77t227 -20l84 23v-310h-76l-51 195
q-88 37 -178 37zM670 1438l-228 -398h-77l-228 398h56l208 -252h5l208 252h56z" />
    <glyph glyph-name="tcommaaccent.smallcap" horiz-adv-x="995" 
d="M930 627h-82l-33 143q-14 62 -52 78t-169 16h-19v-751q0 -23 27 -29l119 -14l4 -70h-453l4 70l117 14q27 6 27 29v751h-17q-133 0 -172 -14t-53 -72l-39 -151h-86l27 311h850v-311zM488 -104q54 0 96 -48t43 -126q0 -78 -67 -149t-161 -110l-34 33q137 57 137 174
q0 62 -37 88t-62 33q-24 8 -24 10q0 41 28 68q27 27 81 27z" />
    <glyph glyph-name="tcaron.smallcap" horiz-adv-x="993" 
d="M756 1438l-226 -396h-79l-228 396h56l208 -252h5l208 252h56zM930 627h-82l-33 143q-14 61 -52 77.5t-169 16.5h-19v-751q0 -23 27 -29l119 -14l4 -70h-453l4 70l117 14q27 6 27 29v751h-17q-133 0 -171.5 -14t-53.5 -72l-39 -151h-86l27 311h850v-311z" />
    <glyph glyph-name="ugrave.smallcap" horiz-adv-x="1110" 
d="M922 643v-330q0 -158 -98 -250t-269 -92q-170 0 -267 86t-98 260v508q0 23 -26 29l-98 16l-7 68h412l-4 -68l-98 -16q-27 -6 -27 -29v-473q0 -283 260 -282q123 0 186 70t64 198v305q0 139 -8 173t-37 40l-98 14l-4 68h364l-4 -68l-96 -14q-29 -6 -38 -42t-9 -171z
M655 1040h-45l-338 377h187z" />
    <glyph glyph-name="uacute.smallcap" horiz-adv-x="1110" 
d="M922 643v-330q0 -158 -98 -250t-269 -92q-170 0 -267 86t-98 260v508q0 23 -26 29l-98 16l-7 68h412l-4 -68l-98 -16q-27 -6 -27 -29v-473q0 -283 260 -282q123 0 186 70t64 198v305q0 139 -8 173t-37 40l-98 14l-4 68h364l-4 -68l-96 -14q-29 -6 -38 -42t-9 -171z
M881 1417l-338 -377h-47l192 377h193z" />
    <glyph glyph-name="ucircumflex.smallcap" horiz-adv-x="1110" 
d="M922 643v-330q0 -158 -98 -250t-269 -92q-170 0 -267 86t-98 260v508q0 23 -26 29l-98 16l-7 68h412l-4 -68l-98 -16q-27 -6 -27 -29v-473q0 -283 260 -282q123 0 186 70t64 198v305q0 139 -8 173t-37 40l-98 14l-4 68h364l-4 -68l-96 -14q-29 -6 -38 -42t-9 -171z
M834 1040h-56l-209 252h-4l-209 -252h-55l227 398h78z" />
    <glyph glyph-name="udieresis.smallcap" horiz-adv-x="1110" 
d="M885 1223q0 -49 -31 -85t-82 -36t-82 36t-31 85t31 84.5t81 35.5t82 -35.5t32 -84.5zM475 1223q0 -49 -30.5 -85t-82 -36t-82 36t-30.5 85t30.5 84.5t82 35.5t82 -35.5t30.5 -84.5zM922 643v-330q0 -158 -98.5 -250t-268.5 -92t-267.5 86t-97.5 260v508q0 23 -26 29
l-98 16l-7 68h412l-4 -68l-98 -16q-27 -6 -27 -29v-473q0 -283 260 -282q123 0 186.5 70.5t63.5 197.5v305q0 139 -8 173t-37 40l-98 14l-4 68h364l-4 -68l-96 -14q-29 -6 -38 -42t-9 -171z" />
    <glyph glyph-name="umacron.smallcap" horiz-adv-x="1112" 
d="M922 643v-330q0 -158 -98 -250t-269 -92q-170 0 -267 86t-98 260v508q0 23 -26 29l-98 16l-7 68h412l-4 -68l-98 -16q-27 -6 -27 -29v-473q0 -283 260 -282q123 0 186 70t64 198v305q0 139 -8 173t-37 40l-98 14l-4 68h364l-4 -68l-96 -14q-29 -6 -38 -42t-9 -171z
M846 1104h-506l6 84h494z" />
    <glyph glyph-name="ubreve.smallcap" horiz-adv-x="1112" 
d="M922 643v-330q0 -158 -98 -250t-269 -92q-170 0 -267 86t-98 260v508q0 23 -26 29l-98 16l-7 68h412l-4 -68l-98 -16q-27 -6 -27 -29v-473q0 -283 260 -282q123 0 186 70t64 198v305q0 139 -8 173t-37 40l-98 14l-4 68h364l-4 -68l-96 -14q-29 -6 -38 -42t-9 -171z
M576 1034q-149 0 -221 173q-28 68 -60 210h47q52 -135 106 -209t128 -74t126 74q53 74 107 209h47q-45 -221 -111 -301q-67 -82 -169 -82z" />
    <glyph glyph-name="uring.smallcap" horiz-adv-x="1112" 
d="M922 643v-330q0 -158 -98 -250t-269 -92q-170 0 -267 86t-98 260v508q0 23 -26 29l-98 16l-7 68h412l-4 -68l-98 -16q-27 -6 -27 -29v-473q0 -283 260 -282q123 0 186 70t64 198v305q0 139 -8 173t-37 40l-98 14l-4 68h364l-4 -68l-96 -14q-29 -6 -38 -42t-9 -171z
M698 1240q0 54 -32 92q-33 38 -88 38q-54 0 -88 -38t-34 -92t34 -92q32 -38 88 -38t88 38t32 92zM760 1239q0 -78 -50 -131t-132 -53t-133 53q-50 53 -50 131t50 131q51 53 133 53t132 -53t50 -131z" />
    <glyph glyph-name="uhungarumlaut.smallcap" horiz-adv-x="1112" 
d="M1001 1417l-303 -377h-45l178 377h170zM692 1417l-303 -377h-45l178 377h170zM922 643v-330q0 -158 -98.5 -250t-268.5 -92t-267.5 86t-97.5 260v508q0 23 -26 29l-98 16l-7 68h412l-4 -68l-98 -16q-27 -6 -27 -29v-473q0 -283 260 -282q123 0 186.5 70.5t63.5 197.5v305
q0 139 -8 173t-37 40l-98 14l-4 68h364l-4 -68l-96 -14q-29 -6 -38 -42t-9 -171z" />
    <glyph glyph-name="uogonek.smallcap" horiz-adv-x="1112" 
d="M612 -214q0 -116 108 -116q56 0 93 43l23 -24q-10 -49 -57 -86t-120 -37t-123.5 47t-50.5 121t42 137t104 106q-33 -6 -74 -6q-172 0 -269.5 86t-97.5 260v508q0 23 -26 29l-96 16l-7 68h412l-6 -68l-98 -16q-27 -6 -27 -29v-473q0 -145 70.5 -213.5t191.5 -68.5
t184.5 70.5t63.5 197.5v305q0 139 -8 173t-37 40l-98 14l-4 68h364l-4 -68l-96 -14q-29 -6 -38 -42t-9 -171v-330q0 -205 -170 -315q-66 -43 -103 -101.5t-37 -110.5z" />
    <glyph glyph-name="wcircumflex.smallcap" horiz-adv-x="1470" 
d="M1501 938l-4 -70l-65 -12q-39 -10 -63 -45t-66 -156l-224 -659h-135l-194 620h-17l-211 -620h-135l-283 831q-8 20 -45 27l-90 14l-6 70h438l-4 -70l-92 -12q-29 -4 -31 -21t19 -83l194 -592h19l186 571l-30 96q-4 18 -46 27l-88 14l-6 70h447l-6 -70l-91 -12
q-14 -2 -23 -13t13 -91l185 -592h18l158 495q49 152 31 185q-7 12 -27 16l-72 12l-6 70h352zM1030 1040h-55l-209 252h-4l-209 -252h-55l227 398h78z" />
    <glyph glyph-name="wgrave.smallcap" horiz-adv-x="1470" 
d="M1501 938l-4 -70l-65 -12q-39 -10 -63 -45t-66 -156l-224 -659h-135l-194 620h-17l-211 -620h-135l-283 831q-8 20 -45 27l-90 14l-6 70h438l-4 -70l-92 -12q-29 -4 -31 -21t19 -83l194 -592h19l186 571l-30 96q-4 18 -46 27l-88 14l-6 70h447l-6 -70l-91 -12
q-14 -2 -23 -13t13 -91l185 -592h18l158 495q49 152 31 185q-7 12 -27 16l-72 12l-6 70h352zM848 1040h-45l-338 377h186z" />
    <glyph glyph-name="wacute.smallcap" horiz-adv-x="1470" 
d="M1501 938l-4 -70l-65 -12q-39 -10 -63 -45t-66 -156l-224 -659h-135l-194 620h-17l-211 -620h-135l-283 831q-8 20 -45 27l-90 14l-6 70h438l-4 -70l-92 -12q-29 -4 -31 -21t19 -83l194 -592h19l186 571l-30 96q-4 18 -46 27l-88 14l-6 70h447l-6 -70l-91 -12
q-14 -2 -23 -13t13 -91l185 -592h18l158 495q49 152 31 185q-7 12 -27 16l-72 12l-6 70h352zM1044 1417l-337 -377h-48l193 377h192z" />
    <glyph glyph-name="wdieresis.smallcap" horiz-adv-x="1470" 
d="M1501 938l-4 -70l-65 -12q-39 -10 -63 -45t-66 -156l-224 -659h-135l-194 620h-17l-211 -620h-135l-283 831q-8 20 -45 27l-90 14l-6 70h438l-4 -70l-92 -12q-29 -4 -31 -21t19 -83l194 -592h19l186 571l-30 96q-4 18 -46 27l-88 14l-6 70h447l-6 -70l-91 -12
q-14 -2 -23 -13t13 -91l185 -592h18l158 495q49 152 31 185q-7 12 -27 16l-72 12l-6 70h352zM666 1223q0 -49 -31 -85t-82 -36t-82 36t-31 85t31 85t82 36t82 -36t31 -85zM1075 1223q0 -49 -31 -85q-32 -36 -82 -36t-81 36t-31 85t31 85t81 36t82 -36t31 -85z" />
    <glyph glyph-name="yacute.smallcap" horiz-adv-x="917" 
d="M539 113q0 -23 26 -29l119 -14l4 -70h-455l7 70l118 14q27 6 27 29v266l-270 432q-20 31 -62 45l-71 12l-5 70h420l-6 -70l-82 -10q-57 -8 6 -117l168 -295h17l176 308q55 94 -6 104l-74 10l-4 70h346l-4 -70l-57 -10q-63 -20 -113 -102l-225 -369v-274zM748 1417
l-338 -377h-48l193 377h193z" />
    <glyph glyph-name="ycircumflex.smallcap" horiz-adv-x="917" 
d="M539 113q0 -23 26 -29l119 -14l4 -70h-455l7 70l118 14q27 6 27 29v266l-270 432q-20 31 -62 45l-71 12l-5 70h420l-6 -70l-82 -10q-57 -8 6 -117l168 -295h17l176 308q55 94 -6 104l-74 10l-4 70h346l-4 -70l-57 -10q-63 -20 -113 -102l-225 -369v-274zM760 1040h-55
l-209 252h-4l-209 -252h-56l228 398h77z" />
    <glyph glyph-name="ydieresis.smallcap" horiz-adv-x="917" 
d="M539 113q0 -23 26 -29l119 -14l4 -70h-455l7 70l118 14q27 6 27 29v266l-270 432q-20 31 -62 45l-71 12l-5 70h420l-6 -70l-82 -10q-57 -8 6 -117l168 -295h17l176 308q55 94 -6 104l-74 10l-4 70h346l-4 -70l-57 -10q-63 -20 -113 -102l-225 -369v-274zM383 1223
q0 -49 -31 -85t-82 -36t-82 36t-30 85q0 49 30 85q31 36 82 36t82 -36t31 -85zM793 1223q0 -49 -31 -85t-82 -36t-82 36t-31 85t31 85t81 36t82 -36t32 -85z" />
    <glyph glyph-name="zacute.smallcap" horiz-adv-x="935" 
d="M80 0v70l596 790v4h-191q-207 0 -244 -37q-19 -18 -34 -63l-31 -129h-80v303h760v-72l-598 -788v-4l184 2q186 0 238 17q51 17 65 75l37 135h88l-32 -303h-758zM799 1417l-338 -377h-47l192 377h193z" />
    <glyph glyph-name="zdotaccent.smallcap" horiz-adv-x="935" 
d="M80 0v70l596 790v4h-191q-207 0 -244 -37q-19 -18 -34 -63l-31 -129h-80v303h760v-72l-598 -788v-4l184 2q186 0 238 17q51 17 65 75l37 135h88l-32 -303h-758zM588 1234q0 -50 -32 -87t-84 -37t-84 37t-32 88t32 87t84 36t84 -37t32 -87z" />
    <glyph glyph-name="zcaron.smallcap" horiz-adv-x="935" 
d="M80 0v70l596 790v4h-191q-207 0 -244 -37q-19 -18 -34 -63l-31 -129h-80v303h760v-72l-598 -788v-4l184 2q186 0 238 17q51 17 65 75l37 135h88l-32 -303h-758zM719 1438l-227 -398h-78l-228 398h56l209 -252h4l209 252h55z" />
    <glyph glyph-name="solidus" horiz-adv-x="401" 
d="M-401 -238l1099 1518h105l-1102 -1518h-102z" />
    <glyph glyph-name="plusinferior" horiz-adv-x="675" 
d="M381 63v-229h-64v229h-225l4 62h221v227h64v-227h219l4 -62h-223z" />
    <glyph glyph-name="minusinferior" horiz-adv-x="675" 
d="M614 59h-512l2 68h506z" />
    <glyph glyph-name="zero.lnum" 
d="M799 628q0 282 -75 440.5t-210 158.5t-212 -151.5t-77 -427.5t82 -438.5t216 -162.5t205 149.5t71 431.5zM958 652q0 -298 -120.5 -489.5t-319.5 -191.5t-325.5 177.5t-126.5 472.5t126 488.5t324 193.5t320 -176.5t122 -474.5z" />
    <glyph glyph-name="one.lnum" 
d="M471 152v1001l-295 16l6 60l432 76v-1153q0 -39 48 -48l190 -28l6 -76h-668l7 76l227 28q47 14 47 48z" />
    <glyph glyph-name="two.lnum" 
d="M707 920q0 119 -73 191.5t-194 72.5q-172 0 -319 -158l-19 47q172 233 418 234q160 0 260.5 -93.5t100.5 -226.5t-85 -259.5t-309.5 -327.5t-296.5 -269l29 -6h154q203 0 285.5 8t114.5 28.5t54 76.5l37 100h84l-55 -338h-815l-10 102q47 47 135 131t127 123t105.5 106.5
t136 154.5t102.5 158t33 145z" />
    <glyph glyph-name="three.lnum" 
d="M352 -45q-123 0 -193.5 40t-71.5 92t26.5 80t75.5 28t93.5 -44.5t55.5 -107.5q27 -6 72 -6q137 0 231 86t92 209q0 123 -81.5 193.5t-193.5 70.5t-202 -47l-25 49q244 145 310 201q111 96 111 186t-63 145.5t-171 55.5q-147 0 -309 -146l-21 47q78 90 192.5 155t240.5 65
t217 -67.5t92 -179.5t-92 -201t-269 -181v-2q66 16 117 16q131 0 219 -84t90 -221q2 -168 -162 -300t-381 -132z" />
    <glyph glyph-name="four.lnum" 
d="M612 481v615h-10l-455 -615h465zM756 385v-385h-144v385h-559l-10 74l616 839h97v-817h219l-14 -96h-205z" />
    <glyph glyph-name="five.lnum" 
d="M881 412q0 -182 -146.5 -312.5t-353.5 -130.5q-139 0 -216 50.5t-77 121.5q0 41 26.5 68t74.5 27t91.5 -43t53.5 -107q55 -35 133 -35q121 0 196.5 86t75.5 201q0 156 -128 249t-441 134l127 551h590l-6 -154h-533l-63 -274q253 -28 377 -101t171.5 -152t47.5 -179z" />
    <glyph glyph-name="six.lnum" 
d="M799 348q0 137 -85 233.5t-215 96.5t-237 -103q-18 -27 -18 -164t84 -258.5t208 -121.5t193.5 90t69.5 227zM944 375q0 -174 -128 -291t-310 -117t-301 140.5t-119 347.5q0 322 229.5 557t573.5 307l18 -59q-510 -152 -641 -615l4 -2q133 127 300 127t270.5 -110.5
t103.5 -284.5z" />
    <glyph glyph-name="seven.lnum" 
d="M846 1139h-363q-166 0 -208 -9.5t-56 -52.5q-45 -115 -49 -123h-66l41 326h816l10 -86l-602 -1208h-121l598 1142v11z" />
    <glyph glyph-name="eight.lnum" 
d="M532 31q126 0 197.5 67.5t71.5 163.5t-33 132t-43 50.5t-40 34t-42 28.5t-49 28.5t-49.5 25.5t-55.5 27.5t-53 25.5q-199 -141 -198 -305q0 -119 84 -198.5t210 -79.5zM750 973q0 109 -74 191.5t-184 82.5t-173 -65.5t-63 -173.5t90.5 -174.5t243.5 -137.5
q160 109 160 277zM930 312q0 -138 -121 -243.5t-303 -105.5t-297 97.5t-115 238.5q0 215 289 338v4q-121 61 -189.5 135t-68.5 197t112.5 228.5t280.5 105.5t271.5 -92.5t103.5 -227.5q0 -201 -250 -317v-2q139 -68 213 -143t74 -213z" />
    <glyph glyph-name="nine.lnum" 
d="M780 866q0 134 -84 255.5t-208 121.5t-193.5 -89.5t-69.5 -227.5t84 -233t214 -95t239 100q18 34 18 168zM936 819q0 -322 -228.5 -556t-574.5 -308l-16 59q508 154 639 615l-4 2q-133 -127 -300 -127t-270.5 111.5t-103.5 284.5t128 290t310 117t301 -142.5t119 -345.5z
" />
    <glyph glyph-name="dollar.lnum" 
d="M795 297q0 107 -68 166t-203 112q-137 -508 -137 -509q229 -39 318.5 42.5t89.5 188.5zM270 1011q0 -93 58.5 -148.5t171.5 -100.5l121 446q-68 14 -113 15q-115 0 -176.5 -59.5t-61.5 -152.5zM129 962q0 144 107.5 243.5t308.5 101.5q72 0 100 -2l55 206h76
q-57 -215 -59 -215q23 -2 55 -10l109 31v-404h-74l-62 254q-43 16 -57 21l-121 -453q92 -35 145.5 -61.5t141.5 -92t88 -228.5t-128 -272.5t-337 -111.5q-60 0 -115 6l-83 -315h-74l88 324q-78 12 -162 45l-27 358h68l94 -281q16 -10 53 -20l138 514q-162 66 -245 142
t-83 220z" />
    <glyph glyph-name="cent.lnum" 
d="M285 524q0 -148 53 -249t143 -146l191 715q-43 23 -105 22q-123 0 -202.5 -97t-79.5 -245zM129 446q0 215 139.5 356.5t337.5 141.5q53 0 92 -8l97 364h75l-104 -385q129 -57 129 -159q0 -39 -24.5 -64.5t-55.5 -25.5q-68 0 -100 59l-164 -619q25 -8 63 -8q152 0 256 127
l41 -22q-57 -111 -152 -172.5t-210 -61.5q-23 0 -35 2l-84 -311h-74l86 326q-141 39 -227 167t-86 293z" />
    <glyph glyph-name="sterling.lnum" 
d="M455 905q0 -4 12 -274h334l4 -80h-336v-90q0 -154 -70 -273v-10q8 -2 129 -39t189 -37q67 0 107 40t83 151l43 -12q4 -127 -57.5 -218.5t-190.5 -91.5q-66 0 -125 26t-139 83l-78 57q-102 -129 -292 -172l-21 70q147 45 209.5 136t62.5 232q0 45 -4 148h-206l6 80h196
l-6 213q0 211 108.5 339t295.5 128q100 0 159.5 -42t59.5 -112q0 -39 -28 -67.5t-74 -28.5t-75.5 41t-17.5 102q-41 27 -96 27q-182 0 -182 -326z" />
    <glyph glyph-name="yen.lnum" 
d="M600 545v-174h340l6 -82h-346v-162q0 -31 37 -37l160 -20l6 -70h-563l6 70l160 20q37 6 36 37v162h-336l7 82h329v174h-336l7 82h290l-294 512q-25 41 -84 57l-86 14l-7 70h488l-6 -70l-103 -12q-18 -2 -29 -17t56 -141l207 -389h8l221 436q51 98 -18 113l-78 10l-6 70
h411l-6 -70l-59 -10q-33 -10 -51.5 -18t-43 -32t-42.5 -60l-246 -463h305l6 -82h-346z" />
    <glyph glyph-name="Euro.lnum" horiz-adv-x="1056" 
d="M647 -31q-174 0 -300 127t-167 338h-137l6 80h119q-2 31 -2 89t2 87h-125l6 80h129q41 230 183 372t346 142q129 0 218 -50t89 -120q0 -40 -26 -66t-70 -26t-77 43q-32 43 -40 104q-49 33 -129 33q-142 0 -232 -116t-112 -316h424l6 -80h-436v-49q0 -76 8 -127h422l6 -80
h-414q37 -166 132 -255t220 -89q164 0 289 150l41 -23q-129 -248 -379 -248z" />
    <glyph glyph-name="degree.lnum" 
d="M510 1245q-114 0 -180 -74t-66 -181t68 -182t178 -75t180 75q68 76 68 182t-68 180t-180 75zM510 1329q154 -1 247 -99t93 -241t-93 -241t-246 -98t-247 98t-94 240t93 242t247 99z" />
    <glyph glyph-name="plus.lnum" 
d="M565 590v-381h-104v381h-375l6 100h369v379h104v-379h367l6 -100h-373z" />
    <glyph glyph-name="minus.lnum" 
d="M938 590h-852l6 100h840z" />
    <glyph glyph-name="plusminus.lnum" 
d="M938 188h-852l6 101h840zM565 631v-305h-104v305h-375l6 100h369v338h104v-338h367l6 -100h-373z" />
    <glyph glyph-name="logicalnot.lnum" 
d="M932 788v-430h-105v330h-735l6 100h834z" />
    <glyph glyph-name="equal.lnum" 
d="M918 410h-812l7 100h798zM911 766h-798l-7 100h812z" />
    <glyph glyph-name="notequal.lnum" 
d="M315 113l84 297h-293l7 100h315l72 256h-387l-7 100h422l80 281h99l-80 -281h291l-7 -100h-313l-72 -256h385l7 -100h-420l-84 -297h-99z" />
    <glyph glyph-name="approxequal.lnum" 
d="M336 485q-33 0 -52.5 -4t-48 -32.5t-47.5 -81.5h-86q20 106 80 162.5t132 56.5t200.5 -67.5t167.5 -67.5t58.5 4t48 32.5t47.5 81.5h86q-20 -106 -80 -162.5t-138 -56.5t-206.5 67.5t-161.5 67.5zM336 829q-33 0 -52.5 -4t-48 -32.5t-47.5 -81.5h-86q20 106 80 162.5
t132 56.5t200.5 -67.5t167.5 -67.5t58.5 4t48 32.5t47.5 81.5h86q-20 -106 -80 -162.5t-138 -56.5t-206.5 67.5t-161.5 67.5z" />
    <glyph glyph-name="multiply.lnum" 
d="M930 987l-346 -346l346 -348l-70 -72l-348 348l-348 -348l-70 72l346 348l-346 346l70 70l348 -346l348 346z" />
    <glyph glyph-name="divide.lnum" 
d="M621 926q0 -43 -31 -75t-76 -32t-75 32t-29 75q0 42 30 74t74 32q45 0 76 -32t31 -74zM621 352q0 -42 -30 -74t-75 -32t-76 32q-30 32 -30 74t30 74q31 31 76 31t75 -31t30 -74zM938 590h-852l6 100h840z" />
    <glyph glyph-name="less.lnum" 
d="M899 231l-819 385v50l819 385l25 -93l-668 -311v-10l668 -313z" />
    <glyph glyph-name="greater.lnum" 
d="M944 616l-819 -385l-25 93l668 313v10l-668 311l25 93l819 -385v-50z" />
    <glyph glyph-name="lessequal.lnum" 
d="M938 188h-852l6 101h840zM895 362l-809 334v54l809 340l23 -89l-642 -268v-18l642 -271z" />
    <glyph glyph-name="greaterequal.lnum" 
d="M938 696l-809 -334l-23 82l642 271v18l-642 268l23 89l809 -340v-54zM938 188h-852l6 101h840z" />
    <glyph glyph-name="bar.lnum" horiz-adv-x="512" 
d="M211 -381v1790h90v-1790h-90z" />
    <glyph glyph-name="brokenbar.lnum" horiz-adv-x="512" 
d="M211 -285v686h90v-686h-90zM211 629v686h90v-686h-90z" />
    <glyph glyph-name="bullet.lnum" 
d="M905 641q0 -45 -40.5 -146.5t-72.5 -133.5t-134.5 -73.5t-146.5 -41.5t-146.5 42t-132.5 74t-72.5 134t-42.5 146t43 145.5t73.5 132t133 72.5t146.5 42t145.5 -42t132 -72.5t72.5 -132t42 -146.5z" />
    <glyph glyph-name="asciitilde.lnum" 
d="M647 512q-70 0 -171 73.5t-133 73.5t-55.5 -27.5t-54.5 -105.5h-53q41 240 197 240q70 0 171 -74t133 -74t55.5 28t54.5 106h53q-41 -240 -197 -240z" />
    <glyph glyph-name="quotesingle.lnum" horiz-adv-x="512" 
d="M457 1272l-301 -447h-68l215 500h2z" />
    <glyph glyph-name="quotedbl.lnum" 
d="M551 1272l-301 -447h-68l215 500h2zM870 1272l-299 -447h-67l215 500h2z" />
    <glyph glyph-name="parenleft.lnum" 
d="M297 639q0 176 53 340q91 283 312 479q90 82 178 125q49 -66 49 -70q-182 -97 -336 -335t-154 -539q0 -158 47 -306t122 -257q154 -223 321 -309l-49 -72q-181 89 -353 323q-84 117 -137 281t-53 340z" />
    <glyph glyph-name="parenright.lnum" 
d="M623 639q0 301 -154 540t-336 334l51 70q178 -87 351 -323q84 -117 137 -281t53 -340t-53 -340q-91 -281 -311 -479q-89 -82 -177 -125q-51 66 -51 69q182 96 336 335t154 540z" />
    <glyph glyph-name="bracketleft.lnum" 
d="M846 -252h-516v1784h516v-86h-416v-1612h416v-86z" />
    <glyph glyph-name="bracketright.lnum" 
d="M178 -252v86h416v1612h-416v86h516v-1784h-516z" />
    <glyph glyph-name="asterisk.lnum" 
d="M856 948l-113 -55l-182 63l-20 -26l114 -152l-16 -127l-43 -10l-86 94l4 189l-31 8l-106 -150l-125 -26l-29 37l66 116l176 49v35l-176 54l-68 110l25 37l131 -25l106 -155l33 10v190l82 93l45 -15l16 -127l-118 -151l20 -27l182 62l113 -56v-45z" />
    <glyph glyph-name="braceleft.lnum" 
d="M512 422q0 147 -268 160l-23 57l23 55q268 8 268 160q0 66 -57 186t-58 211q1 137 101 216t288 92v-68q-116 -11 -184 -65t-68 -124t58 -190q57 -120 57 -215q0 -94 -86 -169t-176 -79v-24q90 -6 176 -80t86 -167t-57 -212q-57 -118 -57 -188t67 -128q68 -57 184 -67v-64
q-186 7 -287 89t-102 219q0 92 58 211q57 119 57 184z" />
    <glyph glyph-name="braceright.lnum" 
d="M510 422q0 -66 57.5 -184.5t57.5 -210.5q0 -137 -101.5 -218t-287.5 -90v64q115 10 183 67.5t68 127.5t-57 188.5t-57 211.5t86 166.5t176 80.5v24q-90 4 -176 79t-86 169t57 214.5t57 190.5t-67.5 124.5t-183.5 64.5v68q188 -12 288.5 -91t100.5 -217
q0 -92 -57.5 -211.5t-57.5 -185.5q0 -152 268 -160l23 -55l-23 -57q-268 -12 -268 -160z" />
    <glyph glyph-name="section.lnum" 
d="M340 872q-96 -58 -96 -156q0 -54 47 -106t100 -86q148 -94 201.5 -129.5t91.5 -81.5q94 58 94 136t-46 128.5t-104 88.5t-101.5 65t-96 62t-90.5 79zM889 510q0 -68 -48 -132.5t-126 -103.5q43 -66 43 -141q0 -104 -90 -185t-224 -81q-90 0 -157.5 40t-67.5 107
q0 39 25.5 65.5t64.5 26.5q100 0 127 -145q33 -14 87 -14t88 36.5t34 94.5t-39 110t-81 81.5t-117 75.5t-105.5 67.5t-99 83t-68.5 170.5q0 78 48 142t124 103q-43 68 -43 153t88 165t196 80t176.5 -40t68.5 -108q0 -39 -27 -65.5t-66 -26.5q-98 0 -127 145q-31 14 -79 14
t-82.5 -33.5t-34.5 -89.5t40 -106.5t82 -80t118 -76.5t104.5 -67.5t78.5 -63.5t69.5 -88t19.5 -113z" />
    <glyph glyph-name="paragraph.lnum" 
d="M840 -66h-97v627q-100 -29 -188 -29q-227 0 -347 104.5t-120 277.5t119 269.5t323 96.5h310v-1346z" />
    <glyph glyph-name="period.lnum" horiz-adv-x="512" 
d="M383 96q0 -51 -36 -89t-90 -38t-91 38t-37 89t37 87t91 36t90 -36t36 -87z" />
    <glyph glyph-name="comma.lnum" horiz-adv-x="512" 
d="M422 43q0 -190 -285 -397l-45 32q172 127 172 271q0 66 -47.5 103t-75.5 49t-28 14q0 49 34.5 81.5t99.5 32.5t120 -54t55 -132z" />
    <glyph glyph-name="colon.lnum" horiz-adv-x="512" 
d="M385 96q0 -51 -36 -89t-90 -38t-91 38t-37 89t37 87t91 36t90 -36t36 -87zM385 731q0 -51 -36 -88t-90 -37t-91 37t-37 88t37 87t91 36t90 -36t36 -87z" />
    <glyph glyph-name="semicolon.lnum" horiz-adv-x="512" 
d="M422 43q0 -190 -285 -397l-45 32q172 127 172 271q0 66 -47.5 103t-75.5 49t-28 14q0 49 34.5 81.5t99.5 32.5t120 -54t55 -132zM385 731q0 -51 -36 -88t-90 -37t-91 37t-37 88t37 87t91 36t90 -36t36 -87z" />
    <glyph glyph-name="periodcentered.lnum" horiz-adv-x="512" 
d="M385 465q0 -51 -36 -89t-90 -38t-91 38t-37 89t37 87t91 36t90 -36t36 -87z" />
    <glyph glyph-name="hyphen.lnum" horiz-adv-x="671" 
d="M606 588h-536l6 104h524z" />
    <glyph glyph-name="endash.lnum" 
d="M944 590h-860l6 100h848z" />
    <glyph glyph-name="tribol_north.orn" horiz-adv-x="1536" 
d="M1028 281l-260 534l-260 -534h520zM180 92l590 1104l586 -1104h-1176z" />
    <glyph glyph-name="tribol_east.orn" horiz-adv-x="1536" 
d="M485 381l535 260l-535 260v-520zM297 1229l1104 -590l-1104 -586v1176z" />
    <glyph glyph-name="tribol_south.orn" horiz-adv-x="1536" 
d="M1028 1008h-520l260 -535zM180 1196h1176l-586 -1104z" />
    <glyph glyph-name="tribol_west.orn" horiz-adv-x="1536" 
d="M1049 381v520l-535 -260zM1237 1229v-1176l-1104 586z" />
    <glyph glyph-name="trisol_north.orn" horiz-adv-x="1536" 
d="M180 92l590 1104l586 -1104h-1176z" />
    <glyph glyph-name="trisol_east.orn" horiz-adv-x="1536" 
d="M297 1229l1104 -590l-1104 -586v1176z" />
    <glyph glyph-name="trisol_south.orn" horiz-adv-x="1536" 
d="M180 1196h1176l-586 -1104z" />
    <glyph glyph-name="trisol_west.orn" horiz-adv-x="1536" 
d="M1237 1229v-1176l-1104 586z" />
    <glyph glyph-name="arrow_north.orn" horiz-adv-x="1536" 
d="M698 -25l11 1104l-484 -514l-100 88l635 654h14l637 -654l-100 -88l-486 514l11 -1104h-138z" />
    <glyph glyph-name="arrow_east.orn" horiz-adv-x="1536" 
d="M786 -4l-88 98l514 486l-1103 -11v138l1103 -11l-514 486l88 100l654 -637v-14z" />
    <glyph glyph-name="arrow_south.orn" horiz-adv-x="1536" 
d="M760 -27l-637 654l98 88l486 -514l-11 1104h138l-9 -1104l484 514l100 -88l-637 -654h-12z" />
    <glyph glyph-name="arrow_west.orn" horiz-adv-x="1536" 
d="M750 -4l-654 635v14l654 637l88 -100l-514 -486l1103 11v-138l-1103 11l514 -486z" />
    <glyph glyph-name="sqrreg_2.orn" 
d="M831 109v641h-641v-641h641zM84 854h856v-854h-856v854z" />
    <glyph glyph-name="sqrbol_2.orn" 
d="M754 186v484h-484v-484h484zM84 854h856v-854h-856v854z" />
    <glyph glyph-name="sqrshd_2.orn" 
d="M176 94h74l-74 74v-74zM438 94l-262 260v-131l131 -129h131zM629 94l-453 451v-131l322 -320h131zM819 94l-643 641v-133l512 -508h131zM848 252l-512 512h-131l643 -643v131zM848 440l-324 324h-131l455 -455v131zM848 629l-133 135h-133l266 -266v131zM848 764h-76
l76 -76v76zM84 854h856v-854h-856v854z" />
    <glyph glyph-name="sqrsol_2.orn" 
d="M84 0v854h856v-854h-856z" />
    <glyph glyph-name="sqrreg_1.orn" horiz-adv-x="1536" 
d="M1296 113v1056h-1056v-1056h1056zM1409 1282v-1282h-1282v1282h1282z" />
    <glyph glyph-name="sqrbol_1.orn" horiz-adv-x="1536" 
d="M362 1047v-811h812v811h-812zM1409 1282v-1282h-1282v1282h1282z" />
    <glyph glyph-name="sqrshd_1.orn" horiz-adv-x="1536" 
d="M240 113h163l-163 163v-163zM453 113h237l-450 450v-237zM240 854v-238l503 -503h238zM1034 113h238l-1032 1032v-238zM1296 139v238l-792 792h-238zM1296 428v238l-503 503h-238zM1296 719v237l-213 213h-237zM1296 1169h-159l159 -159v159zM1409 1282v-1282h-1282v1282
h1282z" />
    <glyph glyph-name="sqrsol_1.orn" horiz-adv-x="1536" 
d="M1409 1282v-1282h-1282v1282h1282z" />
    <glyph glyph-name="crcreg_2.orn" 
d="M852 428q0 143 -98.5 243.5t-241.5 100.5t-241.5 -100.5t-98.5 -243.5t98.5 -243.5t241.5 -100.5t241.5 100.5t98.5 243.5zM512 -20q-188 0 -318.5 130t-130.5 318t130.5 317t318.5 129t318.5 -129t130.5 -317t-130.5 -318t-318.5 -130z" />
    <glyph glyph-name="crcbol_2.orn" 
d="M770 427q0 110 -74.5 186.5t-183.5 76.5t-183.5 -76.5t-74.5 -186.5t73.5 -185.5t184.5 -75.5t184.5 75.5t73.5 185.5zM512 -20q-188 0 -318.5 130t-130.5 318t130.5 317t318.5 129t318.5 -129t130.5 -317t-130.5 -318t-318.5 -130z" />
    </font>
</defs>
</svg>
