<?xml version="1.0" standalone="no"?>
<!DOCTYPE svg PUBLIC "-//W3C//DTD SVG 1.1//EN" "http://www.w3.org/Graphics/SVG/1.1/DTD/svg11.dtd" >
<svg xmlns="http://www.w3.org/2000/svg">
<metadata>
Created by FontPrep 20130207 at Thu Nov 26 10:14:44 2015
 By Kelly
Copyright (c) 2004-2009, Joshua Darden &#38; Phil's Fonts, Inc. All rights reserved. Published by Garagefonts USA 301-879-9222 www.garagefonts.com
</metadata>
<defs>
<font id="86c291733e0db2717de3ed98226f1d88" horiz-adv-x='1024' >
  <font-face 
    font-family="FreightTextProMedium-Regular"
    font-weight="400"
    font-stretch="normal"
    units-per-em="2048"
    panose-1="2 0 6 3 7 0 0 2 0 4"
    ascent="1491"
    descent="-557"
    x-height="918"
    cap-height="1280"
    bbox="-401 -553 2826 2015"
    underline-thickness="40"
    underline-position="-231"
    unicode-range="U+0020-FB04"
  />
<missing-glyph 
 />
    <glyph glyph-name="ff" unicode="ff" horiz-adv-x="1255" 
d="M1403 1301q0 -52 -27.5 -77.5t-71.5 -25.5t-82.5 35.5t-56.5 107.5l-59 5q-147 -84 -148 -353v-75h281l-14 -103h-267v-700q0 -33 78 -37l111 -6l6 -72h-496l7 72l57 6q70 10 70 39v702h-431v-676q0 -43 48 -49l151 -22l6 -72h-506l7 72l79 22q47 8 48 49v666l-168 10
l12 99h145l2 22q20 209 144.5 338t289.5 129q78 0 132.5 -37t54.5 -89t-27.5 -77.5t-71.5 -25.5t-82.5 35t-56.5 108l-59 4q-147 -84 -148 -352v-55h420l2 43q10 209 138.5 337.5t296.5 128.5q78 0 132 -37t54 -89z" />
    <glyph glyph-name="fi" unicode="fi" horiz-adv-x="1153" 
d="M791 117v698h-431v-700q0 -33 78 -37l111 -6l6 -72h-496l7 72l57 6q70 6 70 39v692l-168 10l12 99h145l2 43q10 213 139.5 339.5t333.5 126.5q72 0 137.5 -38.5t65.5 -108.5q0 -45 -28.5 -73.5t-71.5 -28.5q-104 0 -135 125l-2 8l-117 24q-145 -82 -146 -342v-75h336
l262 26v-829q0 -33 78 -37l60 -6l6 -72h-445l7 72l57 6q70 6 70 39z" />
    <glyph glyph-name="fl" unicode="fl" horiz-adv-x="1153" 
d="M760 1178q-104 0 -135 125l-2 8l-117 24q-145 -82 -146 -342v-75h431v264q-20 -4 -31 -4zM791 815h-431v-700q0 -33 78 -37l111 -6l6 -72h-496l7 72l57 6q70 6 70 39v692l-168 10l12 99h145l2 43q10 213 139.5 339.5t333.5 126.5q84 0 144 -45l157 45v-1312q0 -33 78 -37
l60 -6l6 -72h-445l7 72l57 6q70 6 70 39v698z" />
    <glyph glyph-name="ffi" unicode="ffi" horiz-adv-x="1751" 
d="M1556 115q0 -33 78 -37l60 -6l6 -72h-445l7 72l57 6q70 6 70 39v698h-431v-700q0 -33 78 -37l111 -6l6 -72h-496l7 72l57 6q70 10 70 39v702h-431v-676q0 -43 48 -49l151 -22l6 -72h-506l7 72l79 22q47 8 48 49v666l-168 10l12 99h145l2 22q20 209 144.5 338t289.5 129
q78 0 132.5 -37t54.5 -89t-27.5 -77.5t-71.5 -25.5t-82.5 35t-56.5 108l-59 4q-147 -84 -148 -352v-55h420l2 43q10 213 139.5 339.5t333.5 126.5q72 0 137.5 -38.5t65.5 -108.5q0 -45 -28.5 -73.5t-71.5 -28.5q-104 0 -135 125l-2 8l-117 24q-145 -82 -146 -342v-75h336
l262 26v-829z" />
    <glyph glyph-name="ffl" unicode="ffl" horiz-adv-x="1751" 
d="M1358 1178q-104 0 -135 125l-2 8l-117 24q-145 -82 -146 -342v-75h431v264q-20 -4 -31 -4zM1389 815h-431v-700q0 -33 78 -37l111 -6l6 -72h-496l7 72l57 6q70 10 70 39v702h-431v-676q0 -43 48 -49l151 -22l6 -72h-506l7 72l79 22q47 8 48 49v666l-168 10l12 99h145
l2 22q20 209 144.5 338t289.5 129q78 0 132.5 -37t54.5 -89t-27.5 -77.5t-71.5 -25.5t-82.5 35t-56.5 108l-59 4q-147 -84 -148 -352v-55h420l2 43q10 213 139.5 339.5t333.5 126.5q84 0 144 -45l157 45v-1312q0 -33 78 -37l60 -6l6 -72h-445l7 72l57 6q70 6 70 39v698z" />
    <glyph glyph-name=".notdef" 
 />
    <glyph glyph-name=".null" horiz-adv-x="0" 
 />
    <glyph glyph-name="nonmarkingreturn" horiz-adv-x="681" 
 />
    <glyph glyph-name="space" unicode=" " horiz-adv-x="466" 
 />
    <glyph glyph-name="exclam" unicode="!" horiz-adv-x="581" 
d="M414 91q0 -50 -34 -86t-87 -36t-89 37t-36 86t36 84t89 35t87 -35t34 -85zM292.5 389q-18.5 0 -20.5 12l-86 820q-4 43 17.5 65.5t87.5 22.5h4q66 0 87 -22.5t17 -65.5l-86 -820q-2 -12 -20.5 -12z" />
    <glyph glyph-name="quotedbl" unicode="&#x22;" horiz-adv-x="757" 
d="M414 1266l-310 -441h-77l219 498h4zM745 1266l-309 -441h-76l220 498h2z" />
    <glyph glyph-name="numbersign" unicode="#" horiz-adv-x="1159" 
d="M713 446l102 381h-348l-105 -381h351zM1180 827h-285l-102 -381h264v-77h-285l-102 -381h-80l102 381h-350l-102 -381h-80l102 381h-262v77h283l102 381h-262v78h283l106 387h80l-105 -387h349l104 387h80l-105 -387h265v-78z" />
    <glyph glyph-name="dollar" unicode="$" horiz-adv-x="1044" 
d="M297 1017q0 -87 55.5 -141.5t159.5 -97.5q8 27 19.5 71t37 138t41.5 156l17 61q-66 14 -105 15q-109 0 -167 -57.5t-58 -144.5zM801 299q0 104 -70 159.5t-196 106.5q-133 -492 -134 -493q221 -46 310.5 38.5t89.5 188.5zM135 958q0 141 105.5 245t312.5 106q72 0 100 -2
l56 204h79l-57 -213l62 -12l106 29v-408h-80l-59 254q-33 14 -60 23l-116 -434q242 -99 312.5 -185t70.5 -226q0 -141 -129 -254.5t-344 -115.5q-60 0 -119 6l-84 -315h-80l88 326q-72 12 -162 45l-28 364h75l92 -280q14 -8 52 -21l135 500q-143 58 -210 113t-92.5 114.5
t-25.5 136.5z" />
    <glyph glyph-name="percent" unicode="%" horiz-adv-x="1527" 
d="M1393 288q0 103 -65.5 176t-174.5 73t-174.5 -73t-65.5 -176t65.5 -175t174.5 -72t174.5 72t65.5 175zM614 990q0 103 -65.5 175t-174 72t-174 -71.5t-65.5 -175.5t65.5 -176.5t174 -72.5t174 73t65.5 176zM1493 290q0 -142 -93 -241.5t-247 -99.5t-247 97.5t-93 241.5
t93 242.5t246 98.5t247 -98.5t94 -240.5zM1339 1309l-1038 -1340h-111l1039 1340h110zM715 989q0 -143 -93.5 -241.5t-245.5 -98.5t-246.5 98.5t-94.5 240.5t93 241.5t246.5 99.5t247 -98.5t93.5 -241.5z" />
    <glyph glyph-name="ampersand" unicode="&#x26;" horiz-adv-x="1423" 
d="M504 109q176 0 307 186q-63 133 -158.5 206.5t-251.5 139.5q-182 -115 -184 -272q-2 -106 84 -183t203 -77zM698 1012q0 84 -51 148.5t-143 64.5t-149.5 -55.5t-57.5 -146.5t58.5 -157.5t183.5 -117.5q159 80 159 264zM416 -31q-170 0 -268.5 98.5t-98.5 228.5t80 230.5
t211 155.5q-94 43 -144.5 117.5t-50.5 169.5q0 141 111.5 240.5t269.5 99.5t250 -81t92 -188q0 -215 -260 -327q211 -100 316 -279q119 162 120 211q2 23 -13 35t-46 16l-41 6l-4 70h444l-8 -70l-43 -10q-139 -35 -219 -141l-145 -193q70 -145 123.5 -198.5t125.5 -53.5
t175 60l32 -55q-137 -143 -260 -143t-188.5 59t-126.5 184q-80 -102 -194.5 -172t-239.5 -70z" />
    <glyph glyph-name="quotesingle" unicode="'" horiz-adv-x="425" 
d="M414 1266l-310 -441h-77l221 498h2z" />
    <glyph glyph-name="parenleft" unicode="(" horiz-adv-x="808" 
d="M188 428q0 178 53.5 342t182.5 341t309 265l53 -71q-182 -98 -336.5 -337t-154.5 -540t154.5 -539.5t336.5 -334.5l-53 -74q-180 88 -309 265t-182.5 341t-53.5 342z" />
    <glyph glyph-name="parenright" unicode=")" horiz-adv-x="808" 
d="M514 428q0 301 -154.5 539.5t-336.5 337.5l55 71q180 -88 308 -265t181.5 -341t53.5 -342t-53.5 -342t-181.5 -341t-308 -265l-55 71q182 98 336.5 337t154.5 540z" />
    <glyph glyph-name="asterisk" unicode="*" horiz-adv-x="714" 
d="M705 948l-109 -61l-188 69l-21 -26l123 -156l-23 -125l-43 -12l-92 88l8 199l-30 8l-107 -160l-127 -20l-28 36l57 119l186 49v37l-186 54l-59 114l26 37l131 -18l107 -166l32 10l-4 199l88 86l46 -15l22 -125l-127 -155l21 -27l188 68l109 -62v-45z" />
    <glyph glyph-name="plus" unicode="+" horiz-adv-x="983" 
d="M547 426v-379h-109v379h-375l7 109h368v376h109v-376h366l7 -109h-373z" />
    <glyph glyph-name="comma" unicode="," horiz-adv-x="475" 
d="M416 47q0 -117 -81 -213t-212 -194l-53 32q70 51 123 123t53 153t-64.5 115.5t-81 42t-16.5 9.5q0 53 39 89t107 36t127 -56.5t59 -136.5z" />
    <glyph glyph-name="hyphen" unicode="-" horiz-adv-x="671" 
d="M608 426h-540l6 109h528z" />
    <glyph glyph-name="period" unicode="." horiz-adv-x="479" 
d="M377 106q0 -55 -39 -96t-97 -41t-99 41q-40 41 -40 96q0 54 40 94t100 40t97 -40q38 -40 38 -94z" />
    <glyph glyph-name="slash" unicode="/" horiz-adv-x="571" 
d="M14 -434l441 1796h98l-440 -1796h-99z" />
    <glyph glyph-name="zero" unicode="0" horiz-adv-x="1142" 
d="M938 477q0 170 -103.5 278.5t-265 108.5t-263 -106.5t-101.5 -276.5t103.5 -278.5t265 -108.5t263 106.5t101.5 276.5zM1067 481.5q0 -227.5 -139.5 -370t-358.5 -142.5t-356 140.5t-137 368t139 369.5t358.5 142t356.5 -140t137 -367.5z" />
    <glyph glyph-name="one" unicode="1" horiz-adv-x="776" 
d="M315 141v695l-225 18l6 61l385 66v-840q0 -39 47 -47l140 -22l6 -72h-543l6 72l131 22q47 14 47 47z" />
    <glyph glyph-name="two" unicode="2" horiz-adv-x="958" 
d="M370 842q-81 0 -140.5 -40t-96.5 -91l-41 22q43 121 140.5 188.5t222.5 67.5t215 -76.5t90 -193.5q0 -143 -156 -283q-82 -74 -387 -286v-11h90q293 0 375 18.5t119 92.5l39 80h67l-22 -330h-811l-11 119q297 221 401 329t104 196q0 89 -58.5 143.5t-139.5 54.5z" />
    <glyph glyph-name="three" unicode="3" horiz-adv-x="866" 
d="M801 63q0 -186 -160 -330.5t-367 -144.5q-109 0 -180 44t-71 96t29.5 81t78.5 29t95 -47t57 -108q18 -4 53 -5q109 0 195.5 82t86.5 211t-75 207t-177 78t-180 -35l-22 55q18 12 107 68.5t171 128t82 160.5q0 90 -57 149.5t-150 59.5q-133 0 -227 -131q-18 4 -41 22
q43 121 145.5 188.5t233.5 67.5t213 -74.5t82 -178.5t-63.5 -187.5t-206.5 -165.5v-4q152 -4 250 -88t98 -228z" />
    <glyph glyph-name="four" unicode="4" horiz-adv-x="980" 
d="M586 180v557h-6l-428 -557h434zM752 41v-418h-166v418h-570l-6 70l666 868h76v-799h235l-14 -139h-221z" />
    <glyph glyph-name="five" unicode="5" horiz-adv-x="870" 
d="M772 51q0 -190 -150.5 -326.5t-351.5 -136.5q-109 0 -179.5 40t-70.5 92t30 81t79 29t94 -44t56 -103q18 -4 53 -5q125 0 207 84t82 211q0 268 -525 408l148 577h555l-6 -170h-496l-70 -268q545 -150 545 -469z" />
    <glyph glyph-name="six" unicode="6" horiz-adv-x="1046" 
d="M786 360q0 135 -77.5 231.5t-202.5 96.5t-223 -98q-18 -18 -19 -121q0 -168 80 -295t200 -127t181 89t61 224zM958 390q0 -184 -128 -306.5t-326 -122.5t-311 150.5t-113 368.5t127 415t329.5 311.5t430.5 128.5l6 -65q-279 -37 -449 -198t-233 -392l2 -2
q133 119 299 119t266 -111.5t100 -295.5z" />
    <glyph glyph-name="seven" unicode="7" horiz-adv-x="956" 
d="M776 803h-307q-231 0 -255 -10t-38 -41l-57 -123h-68l41 329h811l10 -94l-639 -1241h-112l614 1170v10z" />
    <glyph glyph-name="eight" unicode="8" horiz-adv-x="1019" 
d="M248 303q0 -113 81 -189.5t201 -76.5t188 62.5t68 141.5t-21.5 114.5t-33.5 55t-42 42t-44 34t-55 34t-54.5 29.5t-61.5 29.5t-58 28.5q-168 -129 -168 -305zM721 985q0 100 -66.5 182t-166.5 82t-159 -63.5t-59 -151.5q0 -132 101.5 -197.5t212.5 -119.5q137 94 137 268
zM938 314q0 -140 -123 -242.5t-309 -102.5t-305 94.5t-119 239.5q0 113 77 198t203 134v2q-117 63 -181 138t-64 197t108.5 230.5t277.5 108.5t275.5 -92.5t106.5 -233.5q0 -190 -242 -297v-2q141 -72 218 -152t77 -220z" />
    <glyph glyph-name="nine" unicode="9" horiz-adv-x="1046" 
d="M780 492q0 168 -80 294.5t-200 126.5t-181 -89t-61 -224t78 -231.5t202 -96.5t224 99q18 19 18 121zM965 481q0 -218 -127 -415t-330 -311.5t-430 -129.5l-6 66q279 37 448.5 197.5t233.5 392.5l-2 2q-133 -119 -299 -119t-266.5 111t-100.5 295t128 306.5t326 122.5
t311.5 -150t113.5 -368z" />
    <glyph glyph-name="colon" unicode=":" horiz-adv-x="475" 
d="M377 106.5q0 -55.5 -39 -96.5t-97 -41t-98.5 41t-40.5 96.5t40 94.5t99.5 39t97.5 -39t38 -94.5zM377 733q0 -55 -39 -96t-97 -41t-98.5 41t-40.5 96t40 94t99.5 39t97.5 -39t38 -94z" />
    <glyph glyph-name="semicolon" unicode=";" horiz-adv-x="475" 
d="M416 47q0 -117 -81 -213t-212 -194l-53 32q70 51 123 123t53 153t-64.5 115.5t-81 42t-16.5 9.5q0 53 39 89t107 36t127 -56.5t59 -136.5zM377 733q0 -55 -39 -96t-97 -41t-98.5 41t-40.5 96t40 94t99.5 39t97.5 -39t38 -94z" />
    <glyph glyph-name="less" unicode="&#x3c;" horiz-adv-x="983" 
d="M881 68l-824 387v53l824 387l26 -100l-663 -310v-6l663 -311z" />
    <glyph glyph-name="equal" unicode="=" horiz-adv-x="983" 
d="M899 248h-815l6 108h803zM893 604h-803l-6 109h815z" />
    <glyph glyph-name="greater" unicode="&#x3e;" horiz-adv-x="983" 
d="M926 455l-824 -387l-26 100l663 311v6l-663 310l26 100l824 -387v-53z" />
    <glyph glyph-name="question" unicode="?" horiz-adv-x="743" 
d="M438 91q0 -50 -33.5 -86t-87 -36t-89 37t-35.5 86t35.5 84t89 35t87 -35t33.5 -85zM666 972q0 -126 -51.5 -178.5t-168.5 -98.5q-116 -46 -144 -76t-28 -70q0 -74 95 -168h-62q-139 115 -139 220t56.5 152.5t150.5 85.5t119.5 49t55.5 37.5t30 57.5q0 68 -90.5 113
t-225.5 45q-55 0 -137 -15q-23 29 -23 73t45.5 77t118.5 33q162 0 280 -105.5t118 -231.5z" />
    <glyph glyph-name="at" unicode="@" horiz-adv-x="1708" 
d="M876 858q-56 0 -79 -24q-53 -53 -106.5 -224.5t-53.5 -283.5q0 -53 34.5 -83t70.5 -30t123 126t175 284q33 59 33 100q-20 43 -80.5 89t-116.5 46zM475 295q0 121 71.5 294t169.5 271t214 98q66 0 118 -38.5t72 -110.5h23l45 121h108l-118 -334l-37 -334
q-20 -106 106 -106q131 0 224.5 116.5t107.5 307.5q20 272 -165 454.5t-471 191.5t-500 -189.5t-233 -498.5t172 -507t476 -207q117 0 252 39l23 -74q-141 -47 -279 -47q-322 0 -539 230.5t-195 567.5t262 557t564 210t534 -217t189 -515q-16 -231 -150.5 -364t-305.5 -133
t-198 63.5t-7 130.5l55 234h-29q-211 -401 -348 -402q-82 0 -146.5 62.5t-64.5 128.5z" />
    <glyph glyph-name="A" unicode="A" horiz-adv-x="1228" 
d="M748 547l-170 551h-13l-184 -551h367zM866 142q0 31 -41 159l-51 160h-422l-49 -158q-56 -147 -43.5 -178t47.5 -37l82 -16l6 -72h-428l6 72l58 14q47 10 87.5 52.5t151.5 359.5l238 665v74l184 86l387 -1180q14 -41 66 -49l110 -22l7 -72h-557l6 72l100 16q29 6 42 14.5
t13 39.5z" />
    <glyph glyph-name="B" unicode="B" horiz-adv-x="1191" 
d="M858 956q0 108 -76.5 177t-232.5 69h-109v-506l138 2q143 2 211.5 76t68.5 182zM915 342q0 127 -102 200.5t-272 73.5h-101v-507l142 -31l49 2q117 4 200.5 69.5t83.5 192.5zM1124 346q0 -166 -137 -256t-377 -90h-526l6 72l84 10q72 8 72 37v1046q0 14 -13.5 20.5
t-58.5 12.5l-84 10l-6 72h537q240 0 345 -78t105 -203t-89 -216t-232 -113v-11q190 -16 282 -104t92 -209z" />
    <glyph glyph-name="C" unicode="C" horiz-adv-x="1396" 
d="M809 -31q-311 0 -513 175.5t-202 485.5t205 494.5t516 184.5q160 0 283 -41l164 30v-419h-95l-55 262q-137 82 -307 82q-219 0 -356.5 -161t-137.5 -421t137.5 -425t382.5 -165q141 0 252 62l88 282h99l-45 -395l-105 18q-139 -49 -311 -49z" />
    <glyph glyph-name="D" unicode="D" horiz-adv-x="1406" 
d="M1104 633q0 251 -156.5 410t-445.5 159h-62v-1091l148 -31q242 0 379 151t137 402zM1315 662q0 -280 -201 -471t-569 -191h-461l6 72l84 10q72 8 72 37v1046q0 14 -13.5 20.5t-58.5 12.5l-84 10l-6 72l469 6q340 4 551 -170t211 -454z" />
    <glyph glyph-name="E" unicode="E" horiz-adv-x="1216" 
d="M246 119v1046q0 14 -13.5 20.5t-58.5 12.5l-84 10l-6 72h1006v-381h-99l-49 199q-14 51 -43 69.5t-105.5 25.5t-279.5 7h-74v-510h56q121 0 155.5 7.5t44.5 37.5l47 137h80l-43 -440h-78l-16 131q-4 31 -37 40t-160 9h-49v-532h58q363 0 406.5 26.5t62.5 75.5l49 189h110
l-39 -371h-1003l6 72l84 10q72 8 72 37z" />
    <glyph glyph-name="F" unicode="F" horiz-adv-x="1155" 
d="M1067 899h-98l-45 199q-16 52 -45 71t-107.5 25t-279.5 6h-52v-522h78q121 0 156 7t47 38l47 137h80l-45 -440h-76l-16 131q-4 31 -38 40t-159 9h-74v-485q0 -25 72 -33l125 -10l6 -72h-559l6 72l84 10q72 8 72 37v1046q0 14 -13.5 20.5t-58.5 12.5l-84 10l-6 72h983
v-381z" />
    <glyph glyph-name="G" unicode="G" horiz-adv-x="1466" 
d="M1255 449v-308l123 -12l4 -55q-296 -104 -590 -104t-496 176t-202 485t215 493.5t527 184.5q160 0 278 -41l164 30v-419h-96l-56 262q-129 82 -307 82q-217 0 -362.5 -162t-145.5 -421t133.5 -424t370.5 -165q139 0 250 51v351q0 14 -14.5 21t-57.5 11l-104 11l-6 71h538
l-6 -71l-88 -11q-72 -8 -72 -36z" />
    <glyph glyph-name="H" unicode="H" horiz-adv-x="1509" 
d="M1069 119v493h-629v-497q0 -25 72 -33l84 -10l6 -72h-518l6 72l84 10q72 8 72 37v1046q0 14 -13.5 20.5t-58.5 12.5l-84 10l-6 72h518l-6 -72l-84 -10q-72 -8 -72 -37v-463h629v467q0 26 -72 33l-84 10l-6 72h518l-6 -72l-84 -10q-72 -8 -71 -37v-1046q0 -14 13 -20.5
t58 -12.5l84 -10l6 -72h-518l6 72l84 10q72 8 72 37z" />
    <glyph glyph-name="I" unicode="I" horiz-adv-x="737" 
d="M272 1165q0 14 -13 20.5t-58 12.5l-105 10l-6 72h559l-6 -72l-104 -10q-72 -8 -72 -37v-1046q0 -25 72 -33l104 -10l6 -72h-559l6 72l105 10q72 8 71 37v1046z" />
    <glyph glyph-name="J" unicode="J" horiz-adv-x="831" 
d="M115 195q112 0 157 -154h2q49 16 93.5 70.5t44.5 384.5v669q0 26 -72 33l-125 10l-6 72h577l-6 -72l-102 -10q-72 -8 -72 -37v-626q0 -276 -100 -421t-287 -145q-90 0 -148.5 38t-58.5 87t28 75t75 26z" />
    <glyph glyph-name="K" unicode="K" horiz-adv-x="1308" 
d="M440 115q0 -25 72 -33l84 -10l6 -72h-518l6 72l84 10q72 8 72 37v1046q0 14 -13.5 20.5t-58.5 12.5l-84 10l-6 72h518l-6 -72l-84 -10q-72 -8 -72 -37v-538l377 366q180 176 84 205q-10 2 -24 4l-84 10l-7 72h519l-7 -72l-69 -10q-49 -8 -93 -35.5t-116 -99.5l-326 -320
l416 -571q39 -53 61.5 -69.5t63.5 -22.5l59 -8l6 -72h-479l6 72l70 14q31 6 -4 57l-330 482l-123 -117v-393z" />
    <glyph glyph-name="L" unicode="L" horiz-adv-x="1175" 
d="M246 119v1046q0 14 -13.5 20.5t-58.5 12.5l-84 10l-6 72h537l-7 -72l-102 -10q-72 -8 -72 -37v-1081h64q327 0 371.5 26.5t60.5 75.5l59 228h107l-45 -410h-973l6 72l84 10q72 8 72 37z" />
    <glyph glyph-name="M" unicode="M" horiz-adv-x="1751" 
d="M1688 0h-543l6 72l115 14q31 4 40 88t1 315l-25 662h-14l-398 -1110h-98l-387 1065h-25l-26 -608q-12 -279 -9 -344.5t33 -67.5l117 -14l6 -72h-444l6 72l115 14q23 4 43 39t41 373l26 503q8 162 -82 185l-123 22l-6 72h467l346 -958h11l336 958h452l-6 -72l-139 -12
q-49 -6 -49 -59l24 -648q8 -244 21.5 -321.5t46.5 -81.5l114 -14z" />
    <glyph glyph-name="N" unicode="N" horiz-adv-x="1540" 
d="M1278 782v-800h-104l-809 1103h-11v-587q0 -152 2 -221.5t13.5 -115.5t26 -56.5t48.5 -16.5l99 -16l6 -72h-469l6 72l96 16q35 6 50.5 16.5t28.5 65t13 328.5v503q0 86 -19 129.5t-69 63.5l-96 14l-6 72h371l731 -1001h10v503q0 314 -19 358t-71 52l-98 16l-7 72h472
l-7 -72l-96 -16q-35 -6 -50 -16.5t-26.5 -56.5t-13.5 -115.5t-2 -221.5z" />
    <glyph glyph-name="O" unicode="O" horiz-adv-x="1525" 
d="M1214 625q0 270 -133 437t-323.5 167t-318.5 -154.5t-128 -426.5t132 -438.5t322.5 -166.5t319.5 156t129 426zM1432 651q0 -285 -196 -484.5t-480 -199.5t-473 185.5t-189 469.5t195.5 484.5t479.5 200.5t473.5 -185.5t189.5 -470.5z" />
    <glyph glyph-name="P" unicode="P" horiz-adv-x="1173" 
d="M901 897q0 139 -80 221t-215 82h-166v-588q74 -18 156 -18q135 0 220 82t85 221zM1110 938q0 -203 -142.5 -312.5t-359.5 -109.5q-57 0 -168 8v-409q0 -25 72 -33l123 -10l6 -72h-557l6 72l84 10q72 8 72 37v1046q0 14 -13.5 20.5t-58.5 12.5l-84 10l-6 72h526
q240 0 370 -97.5t130 -244.5z" />
    <glyph glyph-name="Q" unicode="Q" horiz-adv-x="1525" 
d="M1214 625q0 270 -133 437t-323.5 167t-318.5 -154.5t-128 -426.5t132 -438.5t322.5 -166.5t319.5 156t129 426zM1250 -369q-179 0 -302 78t-215 258q-279 8 -459 191.5t-180 465.5t195.5 482.5t479.5 200.5t473.5 -185.5t189.5 -476.5q0 -227 -132.5 -406.5
t-341.5 -242.5q100 -174 238.5 -226.5t341.5 -29.5l6 -68q-115 -41 -294 -41z" />
    <glyph glyph-name="R" unicode="R" horiz-adv-x="1239" 
d="M870 930q0 135 -75.5 204.5t-223.5 61.5l-131 -4v-537l146 -12q133 10 208.5 81t75.5 206zM440 115q0 -25 72 -33l100 -10l6 -72h-534l6 72l84 10q72 8 72 37v1046q0 14 -13.5 20.5t-58.5 12.5l-84 10l-6 72h530q236 0 352.5 -84t116.5 -221t-78.5 -227.5t-213.5 -137.5
l262 -405q49 -70 74.5 -91.5t58.5 -27.5l63 -14l8 -72h-329l-324 571l-164 -6v-450z" />
    <glyph glyph-name="S" unicode="S" horiz-adv-x="1058" 
d="M720 124.5q71 68.5 71 163.5t-55.5 156t-192.5 114q-136 53 -214.5 88t-143 110.5t-64.5 208.5q0 134 137 265.5t535 55.5l106 29v-408h-86l-63 262q-113 49 -227 49t-173 -57t-59 -140t34.5 -121t47 -52t63.5 -39t98.5 -43t90.5 -36t127 -55t149.5 -116t65.5 -220
t-131 -254.5t-349 -115.5q-174 -2 -362 62l-29 364h86l92 -280q129 -63 252 -61t194 70.5z" />
    <glyph glyph-name="T" unicode="T" horiz-adv-x="1267" 
d="M1196 879h-98l-47 198q-14 51 -46 85t-270 38h-4v-1085q0 -25 72 -33l123 -10l6 -72h-596l6 72l123 10q72 8 72 37v1081h-5q-193 0 -248 -17.5t-75 -84.5l-57 -219h-103l35 401h1112v-401z" />
    <glyph glyph-name="U" unicode="U" horiz-adv-x="1462" 
d="M1219 782v-364q0 -207 -132.5 -328t-363.5 -121t-359 116t-128 343v737q0 14 -13.5 20.5t-58.5 12.5l-84 10l-6 72h518l-6 -72l-84 -10q-72 -8 -72 -37v-688q0 -389 367 -389q160 0 250 94t90 260v344q1 314 -19 358t-71 52l-99 16l-6 72h471l-6 -72l-96 -16
q-35 -6 -50.5 -16.5t-28.5 -65t-13 -328.5z" />
    <glyph glyph-name="V" unicode="V" horiz-adv-x="1282" 
d="M1317 1280l-6 -72l-58 -14q-72 -16 -109.5 -80.5t-131.5 -331.5l-277 -784h-192l-396 1139q-14 41 -63 49l-113 22l-6 72h557l-6 -72l-100 -16q-47 -8 -48 -37t48 -176l270 -819h23l213 622q82 258 75.5 333t-90.5 87l-49 6l-6 72h465z" />
    <glyph glyph-name="W" unicode="W" horiz-adv-x="1894" 
d="M371 1151q0 -27 47 -172l229 -721h10l267 727l-52 152q-14 41 -65 49l-107 22l-6 72h551l-6 -72l-106 -16q-23 -4 -41.5 -23.5t41.5 -189.5l231 -723l10 2l164 524q57 186 71.5 266t-1 106t-70.5 38l-82 16l-6 72h471l-6 -72l-45 -14q-49 -16 -84 -52t-144 -360
l-256 -784h-122l-289 862h-6l-310 -862h-124l-385 1139q-14 41 -64 49l-113 22l-6 72h559l-6 -72l-102 -16q-47 -8 -47 -41z" />
    <glyph glyph-name="X" unicode="X" horiz-adv-x="1284" 
d="M1286 0h-536l6 72l84 12q59 8 47 47t-99 170l-178 270h-10l-219 -335q-100 -133 4 -152l68 -12l6 -72h-453l6 72l74 16q47 10 81 41t87 102l297 408l-348 498q-31 41 -72 49l-98 22l-6 72h536l-6 -72l-80 -12q-61 -10 -51 -51q8 -31 96 -168l146 -219h10l188 286
q90 133 -4 152l-69 12l-7 72h449l-6 -72l-72 -16q-47 -10 -85 -42t-87 -101l-256 -359l383 -547q29 -39 72 -49l96 -22z" />
    <glyph glyph-name="Y" unicode="Y" horiz-adv-x="1232" 
d="M727 115q0 -25 72 -33l123 -10l6 -72h-598l6 72l125 10q72 8 71 37v413l-368 586q-43 59 -109 74l-65 16l-6 72h524l-6 -72l-82 -12q-69 -11 -33.5 -85.5t70.5 -131.5l205 -338h10l229 403q45 74 40 109t-58 45l-49 10l-7 72h414l-6 -72l-29 -8q-61 -18 -102 -49
t-88 -102l-289 -488v-446z" />
    <glyph glyph-name="Z" unicode="Z" horiz-adv-x="1169" 
d="M80 0v74l799 1116v10h-238q-296 0 -334.5 -40t-60.5 -103l-41 -170h-88v393h987v-76l-797 -1116l-2 -10l248 2q318 0 358.5 35t61.5 90l49 180h104l-43 -385h-1003z" />
    <glyph glyph-name="bracketleft" unicode="[" horiz-adv-x="753" 
d="M713 -455h-520v1788h520v-90h-416v-1608h416v-90z" />
    <glyph glyph-name="backslash" unicode="\" horiz-adv-x="571" 
d="M555 -434h-98l-441 1796h99z" />
    <glyph glyph-name="bracketright" unicode="]" horiz-adv-x="753" 
d="M41 -455v90h416v1608h-416v90h520v-1788h-520z" />
    <glyph glyph-name="asciicircum" unicode="^" horiz-adv-x="819" 
d="M670 1044h-56l-202 222h-4l-203 -222h-55l217 383h86z" />
    <glyph glyph-name="underscore" unicode="_" horiz-adv-x="962" 
d="M981 -109h-999l6 109h987z" />
    <glyph glyph-name="grave" unicode="`" horiz-adv-x="819" 
d="M508 1044h-45l-346 383h200z" />
    <glyph glyph-name="a" unicode="a" horiz-adv-x="917" 
d="M242 255q0 -71 43 -114t115 -43t167 86l11 305q-188 -47 -262 -105t-74 -129zM717 -33q-129 0 -137 150h-11q-133 -147 -243 -147t-183 69.5t-73 169.5q0 125 121.5 205t390.5 143v18q0 160 -50.5 219.5t-148.5 59.5q-49 0 -100.5 -16.5t-51.5 -30.5q0 -2 24 -34.5
t24 -70.5t-30 -67t-78 -29t-78 28t-30 68q0 76 134.5 162t255.5 86q182 0 244.5 -90t52.5 -332l-15 -348q-4 -80 47 -80q37 0 101 50l35 -46q-106 -137 -201 -137z" />
    <glyph glyph-name="b" unicode="b" horiz-adv-x="1054" 
d="M807 423q0 165 -70.5 266.5t-193.5 101.5t-221 -121v-492q113 -125 224 -125t186 102.5t75 267.5zM989 482q0 -200 -130 -356.5t-349 -156.5q-39 0 -116 14.5t-115 30.5h-3l-98 -57h-24v1227q0 39 -23 47l-137 57l6 51l322 88v-645h10q135 152 298 152t261 -126t98 -326z
" />
    <glyph glyph-name="c" unicode="c" horiz-adv-x="901" 
d="M477 -31q-180 0 -295.5 132t-115.5 341t143 357.5t342 148.5q133 0 212 -58.5t79 -127.5t-35 -95t-87 -26t-85 57.5t-17 132.5v5q-45 33 -112 32q-115 0 -189.5 -94t-74.5 -260t90 -281.5t236 -115.5t241 108l41 -22q-57 -113 -154.5 -173.5t-218.5 -60.5z" />
    <glyph glyph-name="d" unicode="d" horiz-adv-x="1075" 
d="M504 850q-114 0 -185 -98t-71 -264t76.5 -270.5t196.5 -104.5t212 82v524q-115 131 -229 131zM733 111h-6q-121 -139 -283 -139t-270 129.5t-108 333.5t137 353.5t360 149.5q76 0 168 -29h2v328q0 39 -22 47l-146 43l8 51l328 49v-1282q0 -39 23 -47l137 -41l-6 -51
l-322 -37v142z" />
    <glyph glyph-name="e" unicode="e" horiz-adv-x="944" 
d="M497 872q-87 0 -159 -72.5t-90 -195.5h426q8 123 -41 195.5t-136 72.5zM477 -31q-180 0 -295.5 132t-115.5 342t138 357.5t339 147.5q145 0 232 -84t87 -223q0 -61 -12 -111l-608 9v-23q0 -176 90 -287.5t236 -111.5t241 108l41 -22q-57 -113 -154.5 -173.5t-218.5 -60.5
z" />
    <glyph glyph-name="f" unicode="f" horiz-adv-x="657" 
d="M805 1301q0 -52 -27.5 -77.5t-71.5 -25.5t-82.5 35.5t-56.5 107.5l-59 5q-147 -84 -148 -353v-75h281l-14 -103h-267v-700q0 -33 78 -37l111 -6l6 -72h-496l7 72l57 6q70 6 70 39v692l-168 10l12 99h145l2 43q10 209 138.5 337.5t295.5 128.5q78 0 132.5 -37t54.5 -89z
" />
    <glyph glyph-name="g" unicode="g" horiz-adv-x="962" 
d="M750 -231q0 176 -215 184q-43 2 -119 -1t-115 -3q-39 -14 -81 -62.5t-42 -113.5q0 -98 81 -157.5t209 -59.5t205 60.5t77 152.5zM637 614q0 143 -70 213q-51 51 -127 51t-130 -65t-54 -168q0 -154 84 -237q45 -45 104 -46q193 0 193 252zM905 -154q0 -162 -148.5 -265
t-379.5 -103q-162 0 -259.5 65.5t-97.5 173.5q0 158 199 240v8q-59 10 -99 56.5t-40 101.5t47 109.5t121 86.5q0 8 8 11q-174 82 -174 282q0 143 106 239.5t246 96.5t260 -57h279v-127l-223 39v-12q57 -76 57 -170q0 -135 -106.5 -231.5t-256.5 -96.5q-66 0 -122 14
q-31 -14 -60 -41.5t-29 -61.5t38 -61.5t94 -27.5l241 6q125 0 212 -80t87 -195z" />
    <glyph glyph-name="h" unicode="h" horiz-adv-x="1087" 
d="M754 117v428q0 145 -46 203.5t-150 58.5t-220 -86v-606q0 -33 78 -37l69 -6l7 -72h-455l6 72l57 6q70 6 70 39v1067q0 39 -23 47l-137 57l6 51l322 88v-624h10q176 145 328 145q104 0 175 -70t71 -223v-538q0 -16 16 -24.5t68 -14.5l53 -6l6 -72h-440l6 72l53 6
q70 4 70 39z" />
    <glyph glyph-name="i" unicode="i" horiz-adv-x="557" 
d="M195 117v518q0 94 -15.5 122.5t-73.5 43.5l-49 12l2 55l303 80v-833q0 -33 78 -37l60 -6l6 -72h-445l7 72l57 6q70 6 70 39zM369 1245q0 -51 -29 -86t-82 -35t-82 35t-29 86t29 86t82 35t82 -35t29 -86z" />
    <glyph glyph-name="j" unicode="j" horiz-adv-x="526" 
d="M12 -535q-66 0 -107.5 32t-41.5 83t33.5 81t74.5 30q94 0 146 -115q72 31 71 246v813q0 94 -15 122.5t-73 43.5l-49 12l2 55l303 80v-997q-14 -217 -122.5 -351.5t-221.5 -134.5zM362 1245q0 -51 -28.5 -86t-81.5 -35t-82 35t-29 86t29 86t82 35t81.5 -35t28.5 -86z" />
    <glyph glyph-name="k" unicode="k" horiz-adv-x="1007" 
d="M338 115q0 -16 15.5 -23.5t62.5 -13.5l49 -6l6 -72h-434l6 72l57 6q70 8 70 39v1067q0 39 -23 47l-137 57l6 51l322 88v-958l141 131q133 122 147 150t15 41q0 43 -80 53l-31 4l-6 70h443l-6 -70l-31 -6q-53 -8 -110.5 -48t-178.5 -151l-100 -92l274 -381q63 -86 105 -90
l67 -8l6 -72h-293l-110 184l-170 256l-82 -75v-250z" />
    <glyph glyph-name="l" unicode="l" horiz-adv-x="557" 
d="M195 117v1067q0 39 -23 47l-137 57l6 51l321 88v-1312q0 -33 78 -37l60 -6l6 -72h-445l7 72l57 6q70 6 70 39z" />
    <glyph glyph-name="m" unicode="m" horiz-adv-x="1662" 
d="M1321 117v428q0 262 -188 262q-98 0 -209 -94q2 -18 2 -58v-538q0 -16 16 -24.5t68 -14.5l53 -6l6 -72h-440l6 72l53 6q70 4 70 39v428q0 262 -189 262q-90 0 -207 -86v-606q0 -33 78 -37l70 -6l6 -72h-455l7 72l57 6q70 6 70 39v518q0 94 -15.5 122.5t-73.5 43.5l-49 12
l2 55l303 80v-145h7q166 145 311 145q104 0 168 -63q41 -41 59 -97h8q174 160 328 160q104 0 175 -70t71 -223v-538q0 -16 16.5 -24.5t67.5 -14.5l53 -6l6 -72h-440l6 72l53 6q70 4 70 39z" />
    <glyph glyph-name="n" unicode="n" horiz-adv-x="1120" 
d="M778 545q0 145 -46 203.5t-150 58.5t-220 -86v-606q0 -33 78 -37l70 -6l6 -72h-455l7 72l57 6q70 6 70 39v518q0 94 -15.5 122.5t-73.5 43.5l-49 12l2 55l303 80v-145h11q176 145 327 145q104 0 175 -70t71 -223v-538q0 -16 16.5 -24.5t67.5 -14.5l53 -6l7 -72h-441l6 72
l54 6q70 4 69 39v428z" />
    <glyph glyph-name="o" unicode="o" horiz-adv-x="1060" 
d="M809 399q0 272 -109 387q-72 78 -184 78t-188 -93t-76 -253q0 -270 110 -387q72 -78 182 -78t187.5 93t77.5 253zM995 477q0 -207 -139 -357.5t-342 -150.5t-325.5 139.5t-122.5 346.5t141 350t341 143t323.5 -132t123.5 -339z" />
    <glyph glyph-name="p" unicode="p" horiz-adv-x="1075" 
d="M827 423q0 165 -70.5 266.5t-193.5 101.5t-221 -121v-492q113 -125 224 -125t186 102.5t75 267.5zM1010 482q0 -200 -129 -356.5t-349 -156.5q-94 0 -188 29h-2v-387q0 -33 78 -37l80 -6l6 -72h-465l6 72l57 6q70 6 70 39v1022q0 94 -15.5 122.5t-72.5 43.5l-49 12l2 55
l303 80v-166h10q135 152 298 152t261.5 -126t98.5 -326z" />
    <glyph glyph-name="q" unicode="q" horiz-adv-x="1052" 
d="M504 850q-114 0 -185 -98t-71 -264t76.5 -270.5t196.5 -104.5t212 82v524q-115 131 -229 131zM733 111h-6q-121 -139 -283 -139t-270 129.5t-108 333.5t137 353.5t360 149.5q102 0 213 -45h2l99 57h24v-1337q0 -16 16.5 -24.5t67.5 -14.5l53 -6l6 -72h-464l6 72l78 6
q70 4 69 39v498z" />
    <glyph glyph-name="r" unicode="r" horiz-adv-x="788" 
d="M774 833.5q0 -51.5 -27.5 -83t-83.5 -31.5t-100 67q-127 -74 -201 -219v-452q0 -33 78 -37l80 -6l6 -72h-465l7 72l57 6q70 6 70 39v518q0 94 -15.5 122.5t-73.5 43.5l-49 12l2 55l303 80v-262h11q88 143 148.5 202.5t123.5 59.5t96 -31.5t33 -83z" />
    <glyph glyph-name="s" unicode="s" horiz-adv-x="831" 
d="M389 -31q-164 0 -276 43l-13 271h103l47 -181q80 -57 156 -57t135 46t59 118q0 93 -139.5 146.5t-182 75.5t-108.5 71.5t-66 167.5q0 117 88.5 199.5t220.5 82.5t224 -34l63 26l13 -291h-101l-41 170q-67 51 -145 51t-125 -37t-47 -99t48 -97t141 -72t131 -56t106 -70
t68 -176q0 -124 -97.5 -211t-261.5 -87z" />
    <glyph glyph-name="t" unicode="t" horiz-adv-x="729" 
d="M412 -31q-111 0 -177.5 71t-64.5 218l14 551l-166 10l2 62l267 223l65 -12l-2 -174h336l-14 -103h-320l-16 -512q-6 -201 176 -201q78 0 170 52l10 -52q-55 -61 -132 -97t-148 -36z" />
    <glyph glyph-name="u" unicode="u" horiz-adv-x="1083" 
d="M140 834q-24 0 -66 6l-49 6l-7 72h324l-16 -545q0 -145 46 -203.5t150 -58.5t219 86v606q0 16 -15 24.5t-62 12.5l-80 6l-9 72h334v-773q0 -39 23 -47l137 -41l-6 -51l-322 -37v146h-10q-176 -145 -328 -146q-105 0 -175 71t-70 222l6 539q0 33 -24 33z" />
    <glyph glyph-name="v" unicode="v" horiz-adv-x="958" 
d="M993 918l-6 -70l-51 -14q-45 -6 -68.5 -34t-58.5 -118l-270 -700h-105l-315 772q-18 43 -38 56t-69 21l-47 13l-8 74h461l-6 -72l-58 -8q-72 -10 -47 -74l228 -580l186 512q29 70 21.5 100.5t-60.5 37.5l-57 14l-7 70h375z" />
    <glyph glyph-name="w" unicode="w" horiz-adv-x="1425" 
d="M1458 918l-6 -70l-43 -10q-53 -8 -76.5 -35t-54.5 -121l-227 -700h-99l-227 593l-238 -593h-98l-274 772q-16 43 -35 59t-60 23l-45 8l-6 74h434l-6 -72l-47 -8q-76 -10 -51 -78l195 -563l186 487l-25 70q-16 43 -35.5 57t-68.5 23l-47 12l-6 72h442l-6 -70l-47 -10
q-76 -6 -51 -78l202 -570l150 492q25 76 13.5 112.5t-75.5 45.5l-41 8l-6 70h379z" />
    <glyph glyph-name="x" unicode="x" horiz-adv-x="985" 
d="M987 0h-442l6 70l41 12q47 10 49 33.5t-43 85.5l-135 188h-2l-142 -188q-64 -82 -49 -99.5t52 -21.5l53 -10l6 -70h-393l6 70l59 12q43 6 74 30.5t98 104.5l189 229l-193 254q-57 76 -88 100.5t-78 33.5l-45 12l-6 72h447l-7 -70l-41 -12q-47 -8 -46 -32t49 -87l110 -156
h2l117 156q61 79 47 98t-49 23l-53 10l-7 70h400l-6 -70l-60 -12q-49 -6 -79.5 -31t-98.5 -105l-162 -196l213 -287q55 -74 87 -99.5t73 -33.5l41 -12z" />
    <glyph glyph-name="y" unicode="y" horiz-adv-x="940" 
d="M236 -535q-75 0 -110.5 31t-35.5 80t25.5 80t74.5 31q78 0 121 -66q37 18 80 135l86 240v4l-364 754q-20 43 -38 56t-67 21l-43 13l-8 74h451l-7 -72l-51 -8q-76 -8 -45 -74l246 -543l168 475q25 72 14.5 101.5t-65.5 36.5l-56 14l-6 70h385l-6 -70l-53 -14
q-45 -6 -68.5 -34t-58.5 -118l-240 -631l-102 -313q-47 -143 -99.5 -208t-127.5 -65z" />
    <glyph glyph-name="z" unicode="z" horiz-adv-x="950" 
d="M354 76q209 0 280 23.5t109 103.5l72 147h98l-84 -350h-768v68l582 774h-51q-211 0 -274.5 -22.5t-79.5 -104.5l-39 -148h-103v351h754v-68l-578 -774h82z" />
    <glyph glyph-name="braceleft" unicode="{" horiz-adv-x="688" 
d="M219 -172q0 90 60.5 210t60.5 185q0 145 -268 158l-23 59l23 58q268 8 268 157q0 66 -60.5 186t-60.5 212q0 137 104.5 218t294.5 91v-72q-117 -10 -184 -63t-67 -123t60 -190t60 -216t-86 -170.5t-176 -76.5v-25q90 -4 176 -78t86 -168t-60 -213t-60 -189t67.5 -125.5
t183.5 -66.5v-67q-188 10 -293.5 91t-105.5 218z" />
    <glyph glyph-name="bar" unicode="|" horiz-adv-x="565" 
d="M236 -383v1796h94v-1796h-94z" />
    <glyph glyph-name="braceright" unicode="}" horiz-adv-x="688" 
d="M348 223q0 -66 60.5 -185.5t60.5 -209.5q0 -137 -105.5 -218t-293.5 -91v67q117 10 184.5 66.5t67.5 126.5t-60.5 188.5t-60.5 212.5t86 168t176 78v25q-90 2 -176 76.5t-86 169.5t60.5 216t60.5 191t-68 123t-184 63v72q190 -10 294.5 -91t104.5 -218q0 -92 -60.5 -212
t-60.5 -186q0 -150 268 -157l23 -58l-23 -59q-268 -12 -268 -158z" />
    <glyph glyph-name="asciitilde" unicode="~" horiz-adv-x="819" 
d="M545 340q-74 0 -177.5 74.5t-134.5 74.5t-53 -28.5t-53 -104.5h-53q41 252 200 252q57 0 119 -38t112 -74.5t81 -36.5t53.5 28.5t52.5 104.5h53q-41 -252 -200 -252z" />
    <glyph glyph-name="nbspace" unicode="&#xa0;" horiz-adv-x="466" 
 />
    <glyph glyph-name="exclamdown" unicode="&#xa1;" horiz-adv-x="581" 
d="M295 -31h-4q-66 0 -87.5 22.5t-17.5 65.5l86 820q2 12 20.5 12t20.5 -12l86 -820q4 -43 -17.5 -65.5t-86.5 -22.5zM414 1187q0 -50 -34 -85t-87 -35t-89 35t-36 84t36 86t89 37t87 -36t34 -86z" />
    <glyph glyph-name="cent" unicode="&#xa2;" horiz-adv-x="909" 
d="M242 538q0 -142 49 -239.5t135 -144.5l182 682q-45 27 -102 26q-115 0 -189.5 -91t-74.5 -233zM66 449q0 221 142 360t343 139q51 0 86 -8l96 360h80l-102 -380q63 -27 97 -72t34 -93t-28 -76t-60 -28q-70 0 -103 49l-39 -143q-39 -143 -75 -287l-39 -143q37 -10 73 -10
q143 0 240 108l41 -22q-57 -111 -152.5 -172.5t-210.5 -61.5q-22 0 -32 2l-84 -311h-80l88 326q-141 39 -228 168t-87 295z" />
    <glyph glyph-name="sterling" unicode="&#xa3;" horiz-adv-x="976" 
d="M690 1290q104 0 162 -42t57 -115q-1 -45 -31 -76t-80 -31t-81 44t-21 112q-41 25 -90 24q-166 0 -166 -315q0 -99 9 -279h327l6 -84h-331q2 -29 2 -90q0 -143 -74 -262v-10q18 -4 131 -36q114 -32 178 -32t105 41t92 154l45 -12q6 -131 -59 -231t-197 -99q-52 -1 -108 21
t-81 37t-84 63t-63 51q-113 -137 -303 -178l-25 80q154 49 214 135t61 227l-2 141h-220l7 84h209l-7 199q0 221 115 350t303 129z" />
    <glyph glyph-name="currency" unicode="&#xa4;" horiz-adv-x="890" 
d="M651 736q0 87 -55.5 148.5t-149.5 61.5t-150 -61.5t-56 -148.5t56 -149.5t149 -62.5t149.5 62.5t56.5 149.5zM446.5 430q-96.5 0 -178.5 51l-114 -114l-72 71l115 115q-53 80 -53 181t51 179l-119 119l74 74l118 -119q82 53 179 53t182 -55l112 113l72 -72l-115 -115
q50 -84 50 -177t-52 -175l127 -127l-73 -74l-125 125q-82 -53 -178.5 -53z" />
    <glyph glyph-name="yen" unicode="&#xa5;" horiz-adv-x="1253" 
d="M731 541v-166h367l6 -84h-373v-148q0 -41 47 -49l152 -22l6 -72h-592l6 72l152 22q47 8 47 49v148h-359l7 84h352v166h-359l7 84h315l-313 493q-39 59 -109 74l-67 16l-7 72h514l-6 -72l-84 -12q-49 -8 -38 -61.5t77 -155.5l193 -322h10l213 387q39 74 34 109t-57 45
l-47 10l-6 72h408l-6 -72l-27 -8q-61 -20 -102 -50t-84 -101l-242 -424h332l6 -84h-373z" />
    <glyph glyph-name="brokenbar" unicode="&#xa6;" horiz-adv-x="565" 
d="M236 -285v686h94v-686h-94zM236 629v686h94v-686h-94z" />
    <glyph glyph-name="section" unicode="&#xa7;" horiz-adv-x="862" 
d="M690 457q0 47 -29.5 90t-77.5 82.5t-164 112t-165 126.5q-35 -20 -60.5 -58t-25.5 -80t28.5 -85t82.5 -85t162 -110t165 -126q84 51 84 133zM809 537q0 -85 -49 -151.5t-121 -102.5q49 -70 49 -161t-97 -173t-233 -82q-86 0 -154.5 41t-68.5 110q0 45 29 74t72 29
q102 0 137 -158q33 -12 71 -12q119 0 119 137q0 47 -39 96t-79.5 78.5t-158.5 105.5t-165 128q-70 76 -70 161t48 150t120 100q-49 74 -49 158t94 164t219 80q86 0 155 -41t69 -111q0 -45 -29 -73.5t-72 -28.5q-102 0 -137 157q-87 34 -130.5 -8.5t-43.5 -94.5t40 -100
t81 -77.5t159 -105.5t164 -128q70 -76 70 -161z" />
    <glyph glyph-name="dieresis" unicode="&#xa8;" horiz-adv-x="819" 
d="M735 1243q0 -53 -33 -91t-88 -38t-88 38t-32 91q0 53 32 91q33 38 88 38t88 -38t33 -91zM326 1243q0 -53 -33 -91t-88 -38t-88 38t-33 91t33 91t88 38t88 -38t33 -91z" />
    <glyph glyph-name="copyright" unicode="&#xa9;" horiz-adv-x="1503" 
d="M778 262q-182 0 -283.5 102.5t-101.5 268.5t105.5 274.5t271.5 108.5q86 0 164 -25l94 25v-268h-55l-47 149q-56 45 -162 45t-174 -75t-68 -213t73 -229t204 -91q74 0 114 33l70 161h57l-24 -247l-62 12q-82 -31 -176 -31zM1343 639q0 246 -173 424t-418.5 178
t-418.5 -178t-173 -424t173 -423t418.5 -177t418.5 177t173 423zM1421 639q0 -279 -195.5 -474.5t-474 -195.5t-474 195.5t-195.5 474.5t195.5 475.5t474 196.5t474 -196.5t195.5 -475.5z" />
    <glyph glyph-name="ordfeminine" unicode="&#xaa;" horiz-adv-x="710" 
d="M290 694q36 0 76.5 19.5t65.5 42.5l6 196q-242 -49 -241 -151q0 -47 28.5 -77t64.5 -30zM550 586q-100 0 -114 110h-4q-121 -110 -201 -110t-131 44t-51 118q0 180 391 256l2 55q6 76 -45 125t-121 49q-33 0 -61.5 -16.5t-28.5 -26.5q0 -2 13.5 -21t13.5 -49
q0 -31 -21.5 -50t-58.5 -19t-60.5 22.5t-23.5 56.5q0 63 107.5 121t215.5 58t165 -59.5t53 -145.5l-12 -334q-2 -43 11 -62.5t47 -19.5t66 21l7 -41q-59 -82 -159 -82z" />
    <glyph glyph-name="guillemotleft" unicode="&#xab;" horiz-adv-x="1003" 
d="M543 156l-21 -41l-444 291v94l444 291l21 -41l-293 -297zM932 135l-21 -41l-444 312v94l444 311l21 -41l-314 -317z" />
    <glyph glyph-name="logicalnot" unicode="&#xac;" horiz-adv-x="983" 
d="M911 633v-434h-108v325h-731l6 109h833z" />
    <glyph glyph-name="uni00AD" unicode="&#xad;" horiz-adv-x="671" 
d="M608 426h-540l6 109h528z" />
    <glyph glyph-name="registered" unicode="&#xae;" horiz-adv-x="1503" 
d="M895 800.5q0 141.5 -190 133.5l-48 -2v-273l78 -10q160 10 160 151.5zM657 387q0 -20 29 -27l68 -12l2 -63h-310l5 63l59 12q27 6 27 27v512q0 23 -27 29l-59 12l-5 64h312q133 0 200.5 -54.5t67.5 -130.5q0 -156 -172 -207l133 -200q37 -49 66 -56l63 -8l4 -63h-202
l-44 80l-137 219l-80 4v-201zM1343 639q0 246 -173 424t-418.5 178t-418.5 -178t-173 -424t173 -423t418.5 -177t418.5 177t173 423zM1421 639q0 -279 -195.5 -474.5t-474 -195.5t-474 195.5t-195.5 474.5t195.5 475.5t474 196.5t474 -196.5t195.5 -475.5z" />
    <glyph glyph-name="macron" unicode="&#xaf;" horiz-adv-x="819" 
d="M670 1108h-516l6 84h504z" />
    <glyph glyph-name="degree" unicode="&#xb0;" horiz-adv-x="839" 
d="M420 1237q-108 0 -174 -72t-66 -175t66 -176t174 -73t174 73t66 176t-66 175q-65 72 -174 72zM420 1329q154 -1 247 -99t93 -241t-93 -241t-246 -98t-247 98t-94 240t93 242t247 99z" />
    <glyph glyph-name="plusminus" unicode="&#xb1;" horiz-adv-x="983" 
d="M547 487v-337h-109v337h-375l7 109h368v334h109v-334h366l7 -109h-373zM918 12h-852l6 109h839z" />
    <glyph glyph-name="twosuperior" unicode="&#xb2;" horiz-adv-x="675" 
d="M255 1237q-83 0 -181 -86l-21 29q125 172 295 172q111 0 178.5 -59.5t67.5 -137.5t-35 -125t-63.5 -81.5t-117.5 -106t-212 -166.5v-8h96q180 0 225 7t64 42l29 51h59l-47 -209h-545l-8 72q31 29 86 78t83 74.5t121 117.5t93 199q0 64 -42 100.5t-125 36.5z" />
    <glyph glyph-name="threesuperior" unicode="&#xb3;" horiz-adv-x="675" 
d="M242 528q-90 0 -144.5 30t-54.5 79q0 29 22.5 50.5t61.5 21.5t68.5 -36t35.5 -83q6 -2 39 -2q72 0 122 48t50 119.5t-47 109.5t-107 38t-110 -24l-22 39q14 8 39.5 23t40 23.5t37 21.5t34.5 23.5t51 42.5t39 82t-37.5 78.5t-112.5 28.5t-175 -76l-27 33q137 154 305 154
q90 0 155.5 -44t65.5 -110q0 -39 -25 -85.5t-227 -147.5v-4q100 39 193.5 -11.5t93.5 -155.5t-108.5 -185.5t-255.5 -80.5z" />
    <glyph glyph-name="acute" unicode="&#xb4;" horiz-adv-x="819" 
d="M702 1427l-346 -383h-49l187 383h208z" />
    <glyph glyph-name="mu" unicode="&#xb5;" horiz-adv-x="1083" 
d="M140 834q-24 0 -66 6l-49 6l-7 72h324l-16 -594q0 -117 46 -165t150 -48t219 86v606q0 16 -15 24.5t-62 12.5l-80 6l-9 72h334v-773q0 -39 23 -47l137 -41l-6 -51l-322 -37v146h-10q-4 -4 -19.5 -22.5t-21.5 -25t-20.5 -21.5t-22.5 -21.5t-22.5 -17.5t-26.5 -16
t-32.5 -13.5t-61.5 -8.5q-117 0 -174 113q-4 4 -4 6h-11l21 -573l-205 -19l27 766l6 539q0 33 -24 33z" />
    <glyph glyph-name="mu" unicode="&#x3bc;" horiz-adv-x="1083" 
d="M140 834q-24 0 -66 6l-49 6l-7 72h324l-16 -594q0 -117 46 -165t150 -48t219 86v606q0 16 -15 24.5t-62 12.5l-80 6l-9 72h334v-773q0 -39 23 -47l137 -41l-6 -51l-322 -37v146h-10q-4 -4 -19.5 -22.5t-21.5 -25t-20.5 -21.5t-22.5 -21.5t-22.5 -17.5t-26.5 -16
t-32.5 -13.5t-61.5 -8.5q-117 0 -174 113q-4 4 -4 6h-11l21 -573l-205 -19l27 766l6 539q0 33 -24 33z" />
    <glyph glyph-name="paragraph" unicode="&#xb6;" horiz-adv-x="1026" 
d="M842 -66h-105v613q-98 -27 -180 -27q-233 0 -354 105.5t-121 282.5t123 274.5t319 97.5h318v-1346z" />
    <glyph glyph-name="periodcentered" unicode="&#xb7;" horiz-adv-x="475" 
d="M377 467q0 -55 -39 -96t-97 -41t-99 41q-40 41 -40 96t40 94t100 39t97 -39q38 -39 38 -94z" />
    <glyph glyph-name="cedilla" unicode="&#xb8;" horiz-adv-x="819" 
d="M649 -310q0 -95 -114.5 -162t-315.5 -81l-18 49q322 39 321 176q0 49 -45 79t-117 30t-139 -12v41l223 233h91l-154 -160q125 0 196.5 -49t71.5 -144z" />
    <glyph glyph-name="onesuperior" unicode="&#xb9;" horiz-adv-x="675" 
d="M432 662q0 -23 31 -29l108 -17l4 -57h-464l4 57l131 17q31 6 30 29v561l-174 12l4 41l326 78v-692z" />
    <glyph glyph-name="ordmasculine" unicode="&#xba;" horiz-adv-x="800" 
d="M590 903q0 205 -84 285q-49 49 -124 49t-124 -67.5t-49 -180.5q0 -197 86 -287q45 -45 120 -45t125 66.5t50 179.5zM750 948.5q0 -153.5 -99.5 -258t-254.5 -104.5t-251 104t-96 256t100.5 257.5t254.5 105.5t250 -103.5t96 -257z" />
    <glyph glyph-name="guillemotright" unicode="&#xbb;" horiz-adv-x="1003" 
d="M543 406l-445 -312l-20 41l313 318l-313 317l20 41l445 -311v-94zM932 406l-445 -291l-20 41l293 297l-293 297l20 41l445 -291v-94z" />
    <glyph glyph-name="onequarter" unicode="&#xbc;" horiz-adv-x="1464" 
d="M1165 -4v344h-6l-272 -344h278zM1165 -293v221h-348l-8 56l399 508h103v-496h137l-8 -68h-129v-221h-146zM172 -238l1092 1518h112l-1091 -1518h-113zM432 662q0 -23 31 -29l108 -17l4 -57h-464l4 57l131 17q31 6 30 29v561l-174 12l4 41l326 78v-692z" />
    <glyph glyph-name="onehalf" unicode="&#xbd;" horiz-adv-x="1464" 
d="M1210 246q0 66 -42 102t-109 37q-98 0 -197 -86l-20 29q125 172 295 172q111 0 179 -60t66 -139q0 -80 -35 -125t-62 -78t-94 -87t-137 -108t-100 -79v-8h97q180 0 225 7t63 42l29 51h59l-47 -209h-544l-9 72q31 29 86 78q174 155 206 198q70 92 81 126q10 34 10 65z
M141 -238l1092 1518h113l-1092 -1518h-113zM432 662q0 -23 31 -29l108 -17l4 -57h-464l4 57l131 17q31 6 30 29v561l-174 12l4 41l326 78v-692z" />
    <glyph glyph-name="threequarters" unicode="&#xbe;" horiz-adv-x="1464" 
d="M242 528q-90 0 -145 30q-54 30 -54 69t23 61q24 22 62 21q38 0 68 -36t35 -83q6 -2 39 -2q72 0 122 48t50 120t-47 110t-107 37q-60 0 -110 -24l-22 39q62 35 78 45t38 23q22 14 35 24q12 10 29 23t39 43t22 69t-38 67q-39 28 -113 29q-74 0 -174 -76l-27 33
q137 154 305 154q90 0 156 -44t66 -117t-83 -128q-57 -40 -170 -98v-4q99 39 193 -11t94 -156q0 -105 -108 -186q-109 -80 -256 -80zM1165 -4v344h-6l-272 -344h278zM1165 -293v221h-348l-8 56l399 508h103v-496h137l-8 -68h-129v-221h-146zM172 -238l1092 1518h112
l-1091 -1518h-113z" />
    <glyph glyph-name="questiondown" unicode="&#xbf;" horiz-adv-x="743" 
d="M643 79q0 -44 -45 -77t-119 -33q-162 0 -279.5 105.5t-117.5 231.5t51 178.5t168 98.5q117 45 145 75t27 71q0 74 -94 168h61q140 -115 140 -220t-57 -152.5t-151 -85.5t-119.5 -49t-55 -37.5t-29.5 -57.5q0 -68 90 -113t225 -45q55 0 138 15q22 -29 22 -73zM555 1186
q0 -49 -36 -84t-89 -35t-87 35t-34 85t34 86t87 36t89 -37t36 -86z" />
    <glyph glyph-name="Agrave" unicode="&#xc0;" horiz-adv-x="1228" 
d="M748 547l-170 551h-13l-184 -551h367zM866 142q0 32 -41 159l-51 160h-422l-49 -158q-56 -147 -40 -186q9 -23 44 -29l82 -16l6 -72h-428l6 72l58 14q47 10 75 39q53 56 164 373l238 665v74l184 86l387 -1180q14 -41 66 -49l110 -22l7 -72h-557l6 72l100 16q29 6 42 14
t13 40zM672 1386h-45l-346 383h200z" />
    <glyph glyph-name="Aacute" unicode="&#xc1;" horiz-adv-x="1228" 
d="M748 547l-170 551h-13l-184 -551h367zM866 142q0 32 -41 159l-51 160h-422l-49 -158q-56 -147 -40 -186q9 -23 44 -29l82 -16l6 -72h-428l6 72l58 14q47 10 75 39q53 56 164 373l238 665v74l184 86l387 -1180q14 -41 66 -49l110 -22l7 -72h-557l6 72l100 16q29 6 42 14
t13 40zM928 1769l-346 -383h-50l187 383h209z" />
    <glyph glyph-name="Acircumflex" unicode="&#xc2;" horiz-adv-x="1228" 
d="M748 547l-170 551h-13l-184 -551h367zM866 142q0 32 -41 159l-51 160h-422l-49 -158q-56 -147 -40 -186q9 -23 44 -29l82 -16l6 -72h-428l6 72l58 14q47 10 75 39q53 56 164 373l238 665v74l184 86l387 -1180q14 -41 66 -49l110 -22l7 -72h-557l6 72l100 16q29 6 42 14
t13 40zM874 1386h-55l-203 222h-4l-202 -222h-56l217 383h86z" />
    <glyph glyph-name="Atilde" unicode="&#xc3;" horiz-adv-x="1228" 
d="M748 547l-170 551h-13l-184 -551h367zM866 142q0 32 -41 159l-51 160h-422l-49 -158q-56 -147 -40 -186q9 -23 44 -29l82 -16l6 -72h-428l6 72l58 14q47 10 75 39q53 56 164 373l238 665v74l184 86l387 -1180q14 -41 66 -49l110 -22l7 -72h-557l6 72l100 16q29 6 42 14
t13 40zM750 1407q-74 0 -178 75q-104 74 -134 74q-32 0 -54 -28t-52 -105h-53q41 252 200 252q57 0 119 -37q62 -36 112 -74t81 -38t53 28t53 105h53q-41 -252 -200 -252z" />
    <glyph glyph-name="Adieresis" unicode="&#xc4;" horiz-adv-x="1228" 
d="M530 1585q0 -53 -32.5 -91t-88 -38t-88 38t-32.5 91t32.5 91t88 38t88 -38t32.5 -91zM940 1585q0 -53 -33 -91t-88 -38t-88 38t-33 91t33 91t88 38t88 -38t33 -91zM748 547l-170 551h-13l-184 -551h367zM866 142q0 31 -41 159l-51 160h-422l-49 -158q-56 -147 -43.5 -178
t47.5 -37l82 -16l6 -72h-428l6 72l58 14q47 10 87.5 52.5t151.5 359.5l238 665v74l184 86l387 -1180q14 -41 66 -49l110 -22l7 -72h-557l6 72l100 16q29 6 42 14.5t13 39.5z" />
    <glyph glyph-name="Aring" unicode="&#xc5;" horiz-adv-x="1228" 
d="M735 1409q0 53 -32.5 91t-88 38t-88 -38t-32.5 -91t32.5 -91t88 -38t88 38t32.5 91zM748 547l-170 555h-13l-184 -555h367zM432 1420q0 66 50 119.5t132 53.5t132.5 -53t50.5 -131q0 -106 -82 -158l364 -1108q14 -41 66 -49l110 -22l7 -72h-557l6 72l100 16q29 6 42 14.5
t13 39.5t-41 159l-51 160h-422l-49 -158q-56 -147 -43.5 -178t47.5 -37l82 -16l6 -72h-428l6 72l58 14q47 10 87.5 52.5t151.5 359.5l267 743q-105 42 -105 179z" />
    <glyph glyph-name="AE" unicode="&#xc6;" horiz-adv-x="1644" 
d="M748 547v643h-21l-321 -643h342zM748 461h-386l-63 -127q-76 -151 -81 -187t4 -45.5t32 -13.5l80 -16l6 -72h-442l6 72l59 14q55 16 101.5 48t214.5 364l286 569q57 111 -55 131l-55 10l-6 72h1093v-381h-90l-49 199q-8 33 -18.5 47t-38 34.5t-375.5 20.5h-43v-510h28
q125 0 160 7.5t45 37.5l47 137h74l-43 -440h-72l-16 131q-4 31 -37 40t-162 9h-24v-532h22q374 0 416.5 26.5t58.5 75.5l52 189h102l-39 -371h-956l6 72l110 22q47 8 48 49v318z" />
    <glyph glyph-name="Ccedilla" unicode="&#xc7;" horiz-adv-x="1396" 
d="M94 637q0 303 205 487.5t516 184.5q160 0 283 -41l164 30v-419h-95l-55 262q-137 82 -307 82q-219 0 -356.5 -161t-137.5 -421t137.5 -425t382.5 -165q141 0 252 62l88 282h99l-45 -395l-105 18q-117 -43 -276 -49l-84 -86q125 0 196.5 -49t71.5 -144t-114.5 -162
t-315.5 -81l-18 49q322 39 321 176q0 49 -44.5 79t-118.5 30t-138 -12v41l154 161q-289 16 -474.5 189.5t-185.5 476.5z" />
    <glyph glyph-name="Egrave" unicode="&#xc8;" horiz-adv-x="1216" 
d="M246 119v1046q0 15 -14 21t-58 12l-84 10l-6 72h1006v-381h-99l-49 199q-14 51 -43 69q-29 17 -105 25t-280 8h-74v-510h56q122 0 156 7t44 38l47 137h80l-43 -440h-78l-16 131q-4 31 -37 40t-160 9h-49v-532h58q363 0 420 35q31 18 49 67l49 189h110l-39 -371h-1003
l6 72l84 10q72 8 72 37zM686 1386h-45l-346 383h201z" />
    <glyph glyph-name="Eacute" unicode="&#xc9;" horiz-adv-x="1216" 
d="M246 119v1046q0 15 -14 21t-58 12l-84 10l-6 72h1006v-381h-99l-49 199q-14 51 -43 69q-29 17 -105 25t-280 8h-74v-510h56q122 0 156 7t44 38l47 137h80l-43 -440h-78l-16 131q-4 31 -37 40t-160 9h-49v-532h58q363 0 420 35q31 18 49 67l49 189h110l-39 -371h-1003
l6 72l84 10q72 8 72 37zM963 1769l-347 -383h-49l187 383h209z" />
    <glyph glyph-name="Ecircumflex" unicode="&#xca;" horiz-adv-x="1216" 
d="M246 119v1046q0 15 -14 21t-58 12l-84 10l-6 72h1006v-381h-99l-49 199q-14 51 -43 69q-29 17 -105 25t-280 8h-74v-510h56q122 0 156 7t44 38l47 137h80l-43 -440h-78l-16 131q-4 31 -37 40t-160 9h-49v-532h58q363 0 420 35q31 18 49 67l49 189h110l-39 -371h-1003
l6 72l84 10q72 8 72 37zM868 1386h-55l-203 222h-4l-203 -222h-55l217 383h86z" />
    <glyph glyph-name="Edieresis" unicode="&#xcb;" horiz-adv-x="1216" 
d="M524 1585q0 -53 -32.5 -91t-88 -38t-88 38t-32.5 91t32.5 91t88 38t88 -38t32.5 -91zM934 1585q0 -53 -33 -91t-88 -38t-88 38t-33 91t33 91t88 38t88 -38t33 -91zM246 119v1046q0 14 -13.5 20.5t-58.5 12.5l-84 10l-6 72h1006v-381h-99l-49 199q-14 51 -43 69.5
t-105.5 25.5t-279.5 7h-74v-510h56q121 0 155.5 7.5t44.5 37.5l47 137h80l-43 -440h-78l-16 131q-4 31 -37 40t-160 9h-49v-532h58q363 0 406.5 26.5t62.5 75.5l49 189h110l-39 -371h-1003l6 72l84 10q72 8 72 37z" />
    <glyph glyph-name="Igrave" unicode="&#xcc;" horiz-adv-x="737" 
d="M272 1165q0 15 -13 21t-58 12l-105 10l-6 72h559l-6 -72l-104 -10q-72 -8 -72 -37v-1046q0 -25 72 -33l104 -10l6 -72h-559l6 72l105 10q72 8 71 37v1046zM406 1386h-46l-346 383h201z" />
    <glyph glyph-name="Iacute" unicode="&#xcd;" horiz-adv-x="737" 
d="M272 1165q0 15 -13 21t-58 12l-105 10l-6 72h559l-6 -72l-104 -10q-72 -8 -72 -37v-1046q0 -25 72 -33l104 -10l6 -72h-559l6 72l105 10q72 8 71 37v1046zM725 1769l-346 -383h-49l186 383h209z" />
    <glyph glyph-name="Icircumflex" unicode="&#xce;" horiz-adv-x="737" 
d="M272 1165q0 15 -13 21t-58 12l-105 10l-6 72h559l-6 -72l-104 -10q-72 -8 -72 -37v-1046q0 -25 72 -33l104 -10l6 -72h-559l6 72l105 10q72 8 71 37v1046zM629 1386h-56l-202 222h-4l-203 -222h-55l217 383h86z" />
    <glyph glyph-name="Idieresis" unicode="&#xcf;" horiz-adv-x="737" 
d="M285 1585q0 -53 -33 -91t-88 -38t-88 38t-33 91t33 91t88 38t88 -38t33 -91zM694 1585q0 -53 -32.5 -91t-88 -38t-88 38t-32.5 91t32.5 91t88 38t88 -38t32.5 -91zM272 1165q0 14 -13 20.5t-58 12.5l-105 10l-6 72h559l-6 -72l-104 -10q-72 -8 -72 -37v-1046
q0 -25 72 -33l104 -10l6 -72h-559l6 72l105 10q72 8 71 37v1046z" />
    <glyph glyph-name="Eth" unicode="&#xd0;" horiz-adv-x="1380" 
d="M426 694h238l6 -84h-244v-499l147 -31q242 -12 386 140t145 388q0 274 -161 434t-456 160h-61v-508zM246 610h-178l6 84h172v443q0 41 -47 49l-111 22l-6 72l455 6q333 4 547 -170t214 -444q0 -309 -197 -491q-198 -181 -573 -181h-446l6 72l111 22q47 8 47 49v467z" />
    <glyph glyph-name="Ntilde" unicode="&#xd1;" horiz-adv-x="1540" 
d="M1278 782v-800h-104l-809 1103h-11v-587q0 -152 2 -222q4 -145 39 -172q14 -10 49 -16l99 -16l6 -72h-469l6 72l96 16q35 6 50 16q36 24 40 172q2 70 2 222v503q0 86 -19 129t-69 64l-96 14l-6 72h371l731 -1001h10v503q0 314 -19 358t-71 52l-98 16l-7 72h472l-7 -72
l-96 -16q-35 -6 -50 -16q-36 -24 -40 -172q-2 -70 -2 -222zM905 1407q-74 0 -177 75q-103 74 -134 74q-32 0 -54 -28t-53 -105h-53q41 252 201 252q57 0 119 -37q62 -36 111 -74q50 -38 81 -38q32 0 54 28t53 105h53q-41 -252 -201 -252z" />
    <glyph glyph-name="Ograve" unicode="&#xd2;" horiz-adv-x="1525" 
d="M1214 625q0 270 -133 437t-323 167t-318 -155t-129 -426q0 -271 132 -438q133 -167 323 -167t319 156t129 426zM1432 651q0 -285 -196 -485t-480 -199q-284 -1 -472 185q-190 186 -190 470t196 484t480 201t472 -185q190 -186 190 -471zM860 1386h-45l-346 383h201z" />
    <glyph glyph-name="Oacute" unicode="&#xd3;" horiz-adv-x="1525" 
d="M1214 625q0 270 -133 437t-323 167t-318 -155t-129 -426q0 -271 132 -438q133 -167 323 -167t319 156t129 426zM1432 651q0 -285 -196 -485t-480 -199q-284 -1 -472 185q-190 186 -190 470t196 484t480 201t472 -185q190 -186 190 -471zM1055 1769l-346 -383h-50l187 383
h209z" />
    <glyph glyph-name="Ocircumflex" unicode="&#xd4;" horiz-adv-x="1525" 
d="M1214 625q0 270 -133 437t-323 167t-318 -155t-129 -426q0 -271 132 -438q133 -167 323 -167t319 156t129 426zM1432 651q0 -285 -196 -485t-480 -199q-284 -1 -472 185q-190 186 -190 470t196 484t480 201t472 -185q190 -186 190 -471zM1022 1386h-55l-203 222h-4
l-203 -222h-55l217 383h86z" />
    <glyph glyph-name="Otilde" unicode="&#xd5;" horiz-adv-x="1525" 
d="M1214 625q0 270 -133 437t-323 167t-318 -155t-129 -426q0 -271 132 -438q133 -167 323 -167t319 156t129 426zM1432 651q0 -285 -196 -485t-480 -199q-284 -1 -472 185q-190 186 -190 470t196 484t480 201t472 -185q190 -186 190 -471zM897 1407q-74 0 -177 75
q-103 74 -134 74t-54 -28t-53 -105h-53q41 252 201 252q57 0 118 -37q61 -36 111 -74t82 -38t54 28t52 105h54q-41 -252 -201 -252z" />
    <glyph glyph-name="Odieresis" unicode="&#xd6;" horiz-adv-x="1525" 
d="M678 1585q0 -53 -33 -91t-88 -38t-88 38t-33 91t33 91t88 38t88 -38t33 -91zM1087 1585q0 -53 -32.5 -91t-88 -38t-88 38t-32.5 91t32.5 91t88 38t88 -38t32.5 -91zM1214 625q0 270 -133 437t-323.5 167t-318.5 -154.5t-128 -426.5t132 -438.5t322.5 -166.5t319.5 156
t129 426zM1432 651q0 -285 -196 -484.5t-480 -199.5t-473 185.5t-189 469.5t195.5 484.5t479.5 200.5t473.5 -185.5t189.5 -470.5z" />
    <glyph glyph-name="multiply" unicode="&#xd7;" horiz-adv-x="983" 
d="M913 825l-346 -344l346 -346l-77 -76l-344 344l-345 -344l-77 76l346 346l-346 344l77 76l345 -344l344 344z" />
    <glyph glyph-name="Oslash" unicode="&#xd8;" horiz-adv-x="1525" 
d="M1194 624q0 268 -160 447q-537 -924 -538 -924q117 -88 256 -88q197 0 319.5 148.5t122.5 416.5zM268 654q0 -270 166 -451l539 925q-117 94 -262 95q-197 0 -320 -149.5t-123 -419.5zM1380 651q0 -281 -177 -481.5t-472 -200.5q-164 0 -299 66l-108 -187h-95l131 228
q-131 86 -204.5 229.5t-73.5 321.5q0 281 177 481.5t472 200.5q166 0 305 -70l99 170h96l-123 -211q129 -88 200.5 -229.5t71.5 -317.5z" />
    <glyph glyph-name="Ugrave" unicode="&#xd9;" horiz-adv-x="1462" 
d="M1219 782v-364q-1 -207 -133 -328t-363 -121t-359 116t-128 343v737q0 15 -14 21t-58 12l-84 10l-6 72h518l-6 -72l-84 -10q-72 -8 -72 -37v-688q0 -389 367 -389q160 0 250 94t90 260v344q1 314 -19 358t-71 52l-99 16l-6 72h471l-6 -72l-96 -16q-35 -6 -50 -16
q-36 -24 -40 -172q-2 -70 -2 -222zM829 1386h-45l-346 383h201z" />
    <glyph glyph-name="Uacute" unicode="&#xda;" horiz-adv-x="1462" 
d="M1219 782v-364q-1 -207 -133 -328t-363 -121t-359 116t-128 343v737q0 15 -14 21t-58 12l-84 10l-6 72h518l-6 -72l-84 -10q-72 -8 -72 -37v-688q0 -389 367 -389q160 0 250 94t90 260v344q1 314 -19 358t-71 52l-99 16l-6 72h471l-6 -72l-96 -16q-35 -6 -50 -16
q-36 -24 -40 -172q-2 -70 -2 -222zM1106 1769l-346 -383h-49l186 383h209z" />
    <glyph glyph-name="Ucircumflex" unicode="&#xdb;" horiz-adv-x="1462" 
d="M1219 782v-364q-1 -207 -133 -328t-363 -121t-359 116t-128 343v737q0 15 -14 21t-58 12l-84 10l-6 72h518l-6 -72l-84 -10q-72 -8 -72 -37v-688q0 -389 367 -389q160 0 250 94t90 260v344q1 314 -19 358t-71 52l-99 16l-6 72h471l-6 -72l-96 -16q-35 -6 -50 -16
q-36 -24 -40 -172q-2 -70 -2 -222zM1032 1386h-55l-203 222h-4l-203 -222h-55l217 383h86z" />
    <glyph glyph-name="Udieresis" unicode="&#xdc;" horiz-adv-x="1462" 
d="M647 1585q0 -53 -32.5 -91t-88 -38t-88 38t-32.5 91t32.5 91t88 38t88 -38t32.5 -91zM1057 1585q0 -53 -33 -91t-88 -38t-88 38t-33 91t33 91t88 38t88 -38t33 -91zM1219 782v-364q0 -207 -132.5 -328t-363.5 -121t-359 116t-128 343v737q0 14 -13.5 20.5t-58.5 12.5
l-84 10l-6 72h518l-6 -72l-84 -10q-72 -8 -72 -37v-688q0 -389 367 -389q160 0 250 94t90 260v344q1 314 -19 358t-71 52l-99 16l-6 72h471l-6 -72l-96 -16q-35 -6 -50.5 -16.5t-28.5 -65t-13 -328.5z" />
    <glyph glyph-name="Yacute" unicode="&#xdd;" horiz-adv-x="1232" 
d="M727 115q0 -25 72 -33l123 -10l6 -72h-598l6 72l125 10q72 8 71 37v413l-368 586q-43 59 -109 74l-65 16l-6 72h524l-6 -72l-82 -12q-91 -15 37 -217l205 -338h10l229 403q45 74 40 109t-58 45l-49 10l-7 72h414l-6 -72l-29 -8q-61 -18 -102 -49t-88 -102l-289 -488v-446
zM909 1769l-346 -383h-49l186 383h209z" />
    <glyph glyph-name="Thorn" unicode="&#xde;" horiz-adv-x="1204" 
d="M901 643q0 141 -96 224t-268 83h-97v-583q82 -21 196 -21t189.5 78t75.5 219zM1110 678q0 -195 -142.5 -303.5t-359.5 -108.5q-61 0 -168 10v-161q0 -25 72 -33l123 -10l6 -72h-557l6 72l84 10q72 8 72 37v1046q0 14 -13.5 20.5t-58.5 12.5l-84 10l-6 72h518l-6 -72
l-84 -10q-72 -10 -72 -37v-131h170q242 0 371 -98t129 -254z" />
    <glyph glyph-name="germandbls" unicode="&#xdf;" horiz-adv-x="1064" 
d="M1032 355q0 -155 -101.5 -271.5t-236.5 -116.5q-96 0 -164.5 52.5t-68.5 118.5t36.5 104.5t98.5 38.5t91.5 -46.5t14 -99.5t-64.5 -74q33 -16 63 -16q76 0 130.5 65.5t54.5 161.5q0 137 -104.5 289t-295.5 260v53q137 23 202 87.5t65 183.5q0 80 -55.5 137t-131.5 57
q-205 0 -205 -303v-1036h-301l7 72l69 6q57 2 58 39v692l-168 10l12 99l145 6l2 24q20 238 126 355.5t269 117.5t251 -76.5t88 -205.5q0 -199 -244 -273q143 -82 250.5 -219t107.5 -292z" />
    <glyph glyph-name="agrave" unicode="&#xe0;" horiz-adv-x="917" 
d="M400 98q72 0 167 86l11 305q-188 -47 -262 -105t-74 -129t43 -114t115 -43zM717 -33q-129 0 -137 150h-11q-133 -147 -243 -147t-183 69q-74 70 -73 170q0 125 121 205q122 80 391 143v18q0 159 -50 219t-149 60q-49 0 -100 -16t-52 -31q0 -2 23 -32t24 -71
q1 -40 -29 -69t-78 -29t-78 28t-30 68q1 76 135 162t255 86q182 0 244 -90t53 -332l-15 -348q-4 -80 47 -80q37 0 101 50l35 -46q-106 -137 -201 -137zM512 1044h-45l-346 383h201z" />
    <glyph glyph-name="aacute" unicode="&#xe1;" horiz-adv-x="917" 
d="M400 98q72 0 167 86l11 305q-188 -47 -262 -105t-74 -129t43 -114t115 -43zM717 -33q-129 0 -137 150h-11q-133 -147 -243 -147t-183 69q-74 70 -73 170q0 125 121 205q122 80 391 143v18q0 159 -50 219t-149 60q-49 0 -100 -16t-52 -31q0 -2 23 -32t24 -71
q1 -40 -29 -69t-78 -29t-78 28t-30 68q1 76 135 162t255 86q182 0 244 -90t53 -332l-15 -348q-4 -80 47 -80q37 0 101 50l35 -46q-106 -137 -201 -137zM748 1427l-347 -383h-49l187 383h209z" />
    <glyph glyph-name="acircumflex" unicode="&#xe2;" horiz-adv-x="917" 
d="M400 98q72 0 167 86l11 305q-188 -47 -262 -105t-74 -129t43 -114t115 -43zM717 -33q-129 0 -137 150h-11q-133 -147 -243 -147t-183 69q-74 70 -73 170q0 125 121 205q122 80 391 143v18q0 159 -50 219t-149 60q-49 0 -100 -16t-52 -31q0 -2 23 -32t24 -71
q1 -40 -29 -69t-78 -29t-78 28t-30 68q1 76 135 162t255 86q182 0 244 -90t53 -332l-15 -348q-4 -80 47 -80q37 0 101 50l35 -46q-106 -137 -201 -137zM674 1044h-56l-202 222h-4l-203 -222h-55l217 383h86z" />
    <glyph glyph-name="atilde" unicode="&#xe3;" horiz-adv-x="917" 
d="M400 98q72 0 167 86l11 305q-188 -47 -262 -105t-74 -129t43 -114t115 -43zM717 -33q-129 0 -137 150h-11q-133 -147 -243 -147t-183 69q-74 70 -73 170q0 125 121 205q122 80 391 143v18q0 159 -50 219t-149 60q-49 0 -100 -16t-52 -31q0 -2 23 -32t24 -71
q1 -40 -29 -69t-78 -29t-78 28t-30 68q1 76 135 162t255 86q182 0 244 -90t53 -332l-15 -348q-4 -80 47 -80q37 0 101 50l35 -46q-106 -137 -201 -137zM549 1065q-74 0 -177 75q-103 74 -134 74t-54 -28t-53 -105h-53q41 252 201 252q57 0 118 -38q61 -39 111 -75t82 -36
t54 28t52 105h54q-41 -252 -201 -252z" />
    <glyph glyph-name="adieresis" unicode="&#xe4;" horiz-adv-x="917" 
d="M350 1243q0 -53 -32.5 -91t-88 -38t-88 38t-32.5 91t32.5 91t88 38t88 -38t32.5 -91zM760 1243q0 -53 -33 -91t-88 -38t-88 38t-33 91t33 91t88 38t88 -38t33 -91zM242 255q0 -71 43 -114t115 -43t167 86l11 305q-188 -47 -262 -105t-74 -129zM717 -33q-129 0 -137 150
h-11q-133 -147 -243 -147t-183 69.5t-73 169.5q0 125 121.5 205t390.5 143v18q0 160 -50.5 219.5t-148.5 59.5q-49 0 -100.5 -16.5t-51.5 -30.5q0 -2 24 -34.5t24 -70.5t-30 -67t-78 -29t-78 28t-30 68q0 76 134.5 162t255.5 86q182 0 244.5 -90t52.5 -332l-15 -348
q-4 -80 47 -80q37 0 101 50l35 -46q-106 -137 -201 -137z" />
    <glyph glyph-name="aring" unicode="&#xe5;" horiz-adv-x="917" 
d="M242 255q0 -71 43 -114t115 -43t167 86l11 305q-188 -47 -262 -105t-74 -129zM565 1243q0 53 -32.5 91t-88 38t-88 -38t-32.5 -91t32.5 -91t88 -38t88 38t32.5 91zM717 -33q-129 0 -137 150h-11q-133 -147 -243 -147t-183 69.5t-73 169.5q0 125 121.5 205t390.5 143v18
q0 160 -50.5 219.5t-148.5 59.5q-49 0 -100.5 -16.5t-51.5 -30.5q0 -2 24 -34.5t24 -70.5t-30 -67t-78 -29t-78 28t-30 68q0 76 134.5 162t255.5 86q182 0 244.5 -90t52.5 -332l-15 -348q-4 -80 47 -80q37 0 101 50l35 -46q-106 -137 -201 -137zM627 1243q0 -78 -50.5 -131
t-132.5 -53t-132 53t-50 131t50 131t132 53t132.5 -53t50.5 -131z" />
    <glyph glyph-name="ae" unicode="&#xe6;" horiz-adv-x="1452" 
d="M1005 872q-87 0 -159 -72.5t-90 -195.5h426q8 123 -41 195.5t-136 72.5zM242 254q0 -72 43 -114t110 -42q117 0 217 119q-39 100 -39 211q1 30 5 59q-188 -47 -262 -104t-74 -129zM315 -31q-98 0 -171.5 70t-73.5 170q0 125 121.5 205t390.5 143l2 27q12 141 -45.5 205.5
t-155.5 64.5q-49 0 -100.5 -16.5t-51.5 -30.5q0 -2 24 -34.5t24 -70.5t-30 -67t-78 -29t-78 28t-30 68q0 76 134.5 162t255.5 86q225 0 272 -137q139 135 326 135q145 0 232 -84t87 -223q0 -61 -12 -111l-608 9v-23q0 -176 90 -287.5t236 -111.5t241 108l41 -22
q-57 -113 -154.5 -173.5t-213.5 -60.5t-206 54.5t-145 146.5q-145 -201 -324 -201z" />
    <glyph glyph-name="ccedilla" unicode="&#xe7;" horiz-adv-x="901" 
d="M66 428q0 223 143 371.5t342 148.5q133 0 212 -58.5t79 -127.5t-35 -95t-87 -26t-85 57.5t-17 132.5v5q-45 33 -112 32q-115 0 -189.5 -94t-74.5 -260t90 -281.5t236 -115.5t241 108l41 -22q-102 -205 -315 -230l-86 -90q125 0 196.5 -49t71.5 -144t-115 -162t-315 -81
l-19 49q322 39 322 176q0 49 -45 79t-119 30t-137 -12v41l153 161q-166 14 -271 142.5t-105 314.5z" />
    <glyph glyph-name="egrave" unicode="&#xe8;" horiz-adv-x="944" 
d="M674 604q8 123 -41 196q-49 72 -136 72t-159 -72t-90 -196h426zM543 948q145 0 232 -84t87 -223q0 -61 -12 -111l-608 9v-23q0 -176 90 -288t236 -112t241 109l41 -22q-56 -113 -154 -173t-219 -61q-180 0 -296 132q-115 132 -115 342q0 209 138 357t339 148zM569 1044
h-45l-346 383h201z" />
    <glyph glyph-name="eacute" unicode="&#xe9;" horiz-adv-x="944" 
d="M674 604q8 123 -41 196q-49 72 -136 72t-159 -72t-90 -196h426zM543 948q145 0 232 -84t87 -223q0 -61 -12 -111l-608 9v-23q0 -176 90 -288t236 -112t241 109l41 -22q-56 -113 -154 -173t-219 -61q-180 0 -296 132q-115 132 -115 342q0 209 138 357t339 148zM764 1427
l-346 -383h-49l186 383h209z" />
    <glyph glyph-name="ecircumflex" unicode="&#xea;" horiz-adv-x="944" 
d="M674 604q8 123 -41 196q-49 72 -136 72t-159 -72t-90 -196h426zM543 948q145 0 232 -84t87 -223q0 -61 -12 -111l-608 9v-23q0 -176 90 -288t236 -112t241 109l41 -22q-56 -113 -154 -173t-219 -61q-180 0 -296 132q-115 132 -115 342q0 209 138 357t339 148zM731 1044
h-55l-203 222h-4l-203 -222h-55l217 383h86z" />
    <glyph glyph-name="edieresis" unicode="&#xeb;" horiz-adv-x="944" 
d="M387 1243q0 -53 -32.5 -91t-88 -38t-88.5 38t-33 91t33 91t88.5 38t88 -38t32.5 -91zM797 1243q0 -53 -33 -91t-88 -38t-88 38t-33 91t33 91t88 38t88 -38t33 -91zM497 872q-87 0 -159 -72.5t-90 -195.5h426q8 123 -41 195.5t-136 72.5zM477 -31q-180 0 -295.5 132
t-115.5 342t138 357.5t339 147.5q145 0 232 -84t87 -223q0 -61 -12 -111l-608 9v-23q0 -176 90 -287.5t236 -111.5t241 108l41 -22q-57 -113 -154.5 -173.5t-218.5 -60.5z" />
    <glyph glyph-name="igrave" unicode="&#xec;" horiz-adv-x="557" 
d="M195 117v518q1 94 -15 123t-74 43l-49 12l2 55l303 80v-833q0 -33 78 -37l60 -6l6 -72h-445l7 72l57 6q70 6 70 39zM367 1044h-45l-347 383h201z" />
    <glyph glyph-name="iacute" unicode="&#xed;" horiz-adv-x="557" 
d="M195 117v518q1 94 -15 123t-74 43l-49 12l2 55l303 80v-833q0 -33 78 -37l60 -6l6 -72h-445l7 72l57 6q70 6 70 39zM571 1427l-346 -383h-49l186 383h209z" />
    <glyph glyph-name="icircumflex" unicode="&#xee;" horiz-adv-x="557" 
d="M195 117v518q1 94 -15 123t-74 43l-49 12l2 55l303 80v-833q0 -33 78 -37l60 -6l6 -72h-445l7 72l57 6q70 6 70 39zM539 1044h-56l-202 222h-5l-202 -222h-56l218 383h86z" />
    <glyph glyph-name="idieresis" unicode="&#xef;" horiz-adv-x="557" 
d="M195 1243q0 -53 -33 -91t-88.5 -38t-88 38t-32.5 91t32.5 91t88 38t88.5 -38t33 -91zM604 1243q0 -53 -32.5 -91t-88 -38t-88.5 38t-33 91t33 91t88.5 38t88 -38t32.5 -91zM195 117v518q0 94 -15.5 122.5t-73.5 43.5l-49 12l2 55l303 80v-833q0 -33 78 -37l60 -6l6 -72
h-445l7 72l57 6q70 6 70 39z" />
    <glyph glyph-name="eth" unicode="&#xf0;" horiz-adv-x="1046" 
d="M248 544q0 -282 127 -409q79 -78 185 -78t179.5 88.5t73.5 228.5q0 286 -125 408q-78 78 -186 78t-181 -88t-73 -228zM532 -31q-207 0 -336.5 141.5t-129.5 352.5t129 344t297 133q207 0 313 -190q-54 255 -232 407l-305 -102v88l221 74q-98 61 -223 96l25 61
q170 -35 309 -121l264 88v-88q-178 -59 -180 -59q309 -248 313 -655q0 -252 -129 -411t-336 -159z" />
    <glyph glyph-name="ntilde" unicode="&#xf1;" horiz-adv-x="1120" 
d="M778 545q0 145 -46 203t-150 59q-104 0 -220 -86v-606q0 -33 78 -37l70 -6l6 -72h-455l7 72l57 6q70 6 70 39v518q1 94 -15 123t-74 43l-49 12l2 55l303 80v-145h11q176 145 327 145q104 0 175 -70t71 -223v-538q0 -17 16 -25t68 -14l53 -6l7 -72h-441l6 72l54 6
q70 4 69 39v428zM694 1065q-74 0 -177 75q-103 74 -134 74t-53 -28t-54 -105h-53q41 252 201 252q56 0 118 -38q62 -39 112 -75t81 -36t53 28t54 105h53q-41 -252 -201 -252z" />
    <glyph glyph-name="ograve" unicode="&#xf2;" horiz-adv-x="1060" 
d="M809 399q0 272 -109 387q-72 78 -184 78t-188 -93t-76 -253q0 -270 110 -387q72 -78 182 -78t188 93t77 253zM548 948q200 0 324 -132t123 -339q0 -207 -139 -357t-342 -151t-326 139t-122 347q0 207 141 350t341 143zM608 1044h-45l-346 383h201z" />
    <glyph glyph-name="oacute" unicode="&#xf3;" horiz-adv-x="1060" 
d="M809 399q0 272 -109 387q-72 78 -184 78t-188 -93t-76 -253q0 -270 110 -387q72 -78 182 -78t188 93t77 253zM548 948q200 0 324 -132t123 -339q0 -207 -139 -357t-342 -151t-326 139t-122 347q0 207 141 350t341 143zM844 1427l-346 -383h-49l186 383h209z" />
    <glyph glyph-name="ocircumflex" unicode="&#xf4;" horiz-adv-x="1060" 
d="M809 399q0 272 -109 387q-72 78 -184 78t-188 -93t-76 -253q0 -270 110 -387q72 -78 182 -78t188 93t77 253zM548 948q200 0 324 -132t123 -339q0 -207 -139 -357t-342 -151t-326 139t-122 347q0 207 141 350t341 143zM791 1044h-56l-203 222h-4l-202 -222h-56l217 383
h86z" />
    <glyph glyph-name="otilde" unicode="&#xf5;" horiz-adv-x="1060" 
d="M809 399q0 272 -109 387q-72 78 -184 78t-188 -93t-76 -253q0 -270 110 -387q72 -78 182 -78t188 93t77 253zM548 948q200 0 324 -132t123 -339q0 -207 -139 -357t-342 -151t-326 139t-122 347q0 207 141 350t341 143zM666 1065q-74 0 -178 75q-104 74 -134 74
q-32 0 -54 -28t-52 -105h-53q41 252 200 252q57 0 119 -38q62 -39 112 -75t81 -36t53 28t53 105h53q-41 -252 -200 -252z" />
    <glyph glyph-name="odieresis" unicode="&#xf6;" horiz-adv-x="1060" 
d="M446 1243q0 -53 -32.5 -91t-88 -38t-88 38t-32.5 91t32.5 91t88 38t88 -38t32.5 -91zM856 1243q0 -53 -32.5 -91t-88 -38t-88.5 38t-33 91t33 91t88.5 38t88 -38t32.5 -91zM809 399q0 272 -109 387q-72 78 -184 78t-188 -93t-76 -253q0 -270 110 -387q72 -78 182 -78
t187.5 93t77.5 253zM995 477q0 -207 -139 -357.5t-342 -150.5t-325.5 139.5t-122.5 346.5t141 350t341 143t323.5 -132t123.5 -339z" />
    <glyph glyph-name="divide" unicode="&#xf7;" horiz-adv-x="995" 
d="M606 766q0 -43 -30.5 -75t-75.5 -32t-75 32t-30 75t30 74.5t75 31.5t75.5 -31.5t30.5 -74.5zM606 193q0 -43 -29.5 -75t-74.5 -32t-76 32t-31 75t31 73.5t76 30.5t74.5 -30.5t29.5 -73.5zM913 426h-829l6 109h817z" />
    <glyph glyph-name="oslash" unicode="&#xf8;" horiz-adv-x="1060" 
d="M815 418q0 180 -90 309l-346 -600q81 -70 187 -70t177.5 90.5t71.5 270.5zM488 860q-110 0 -180 -88t-70 -272t92 -316l346 602q-78 74 -188 74zM983 459q0 -207 -132 -348.5t-329 -141.5q-109 0 -207 49l-161 -282h-82l184 319q-184 139 -184 404q0 207 132 348t328 141
q111 0 209 -49l189 326h82l-211 -365q86 -66 134 -171t48 -230z" />
    <glyph glyph-name="ugrave" unicode="&#xf9;" horiz-adv-x="1083" 
d="M741 115h-10q-176 -145 -328 -146q-105 0 -175 71t-70 222l6 539q0 31 -34 33q-21 2 -56 6l-49 6l-7 72h324l-16 -545q0 -145 46 -203t150 -59q104 0 219 86v606q0 16 -15 24t-62 13l-80 6l-9 72h334v-773q0 -39 23 -47l137 -41l-6 -51l-322 -37v146zM598 1044h-45
l-346 383h201z" />
    <glyph glyph-name="uacute" unicode="&#xfa;" horiz-adv-x="1083" 
d="M741 115h-10q-176 -145 -328 -146q-105 0 -175 71t-70 222l6 539q0 31 -34 33q-21 2 -56 6l-49 6l-7 72h324l-16 -545q0 -145 46 -203t150 -59q104 0 219 86v606q0 16 -15 24t-62 13l-80 6l-9 72h334v-773q0 -39 23 -47l137 -41l-6 -51l-322 -37v146zM834 1427l-347 -383
h-49l187 383h209z" />
    <glyph glyph-name="ucircumflex" unicode="&#xfb;" horiz-adv-x="1083" 
d="M741 115h-10q-176 -145 -328 -146q-105 0 -175 71t-70 222l6 539q0 31 -34 33q-21 2 -56 6l-49 6l-7 72h324l-16 -545q0 -145 46 -203t150 -59q104 0 219 86v606q0 16 -15 24t-62 13l-80 6l-9 72h334v-773q0 -39 23 -47l137 -41l-6 -51l-322 -37v146zM780 1044h-55
l-203 222h-4l-203 -222h-55l217 383h86z" />
    <glyph glyph-name="udieresis" unicode="&#xfc;" horiz-adv-x="1083" 
d="M741 115h-10q-176 -145 -328 -146q-105 0 -175 71t-70 222l6 539q0 31 -34 33q-21 2 -56 6l-49 6l-7 72h324l-16 -545q0 -145 46 -203t150 -59q104 0 219 86v606q0 16 -15 24t-62 13l-80 6l-9 72h334v-773q0 -39 23 -47l137 -41l-6 -51l-322 -37v146zM428 1243
q0 -53 -33 -91t-88 -38t-88 38t-33 91t33 91t88 38t88 -38t33 -91zM838 1243q0 -53 -33 -91t-88 -38t-88 38t-33 91t33 91t88 38t88 -38t33 -91z" />
    <glyph glyph-name="yacute" unicode="&#xfd;" horiz-adv-x="940" 
d="M236 -535q-76 0 -110 31q-36 31 -36 80t26 80t74 31q78 0 121 -66q37 18 80 135l86 240v4l-364 754q-19 43 -37 56t-68 21l-43 13l-8 74h451l-7 -72l-51 -8q-76 -8 -45 -74l246 -543l168 475q25 72 15 102t-66 36l-56 14l-6 70h385l-6 -70l-53 -14q-45 -6 -69 -34
t-58 -118l-240 -631l-102 -313q-47 -143 -99 -208t-128 -65zM762 1427l-346 -383h-49l186 383h209z" />
    <glyph glyph-name="thorn" unicode="&#xfe;" horiz-adv-x="1054" 
d="M807 423q0 165 -70.5 266.5t-193.5 101.5t-221 -121v-492q113 -125 224 -125t186 102.5t75 267.5zM989 482q0 -200 -129 -356.5t-348 -156.5q-94 0 -188 29h-2v-387q0 -33 77 -37l80 -6l6 -72h-465l7 72l57 6q70 6 70 39v1571q0 39 -23 47l-137 57l6 51l322 88v-645h10
q135 152 298 152t261 -126t98 -326z" />
    <glyph glyph-name="ydieresis" unicode="&#xff;" horiz-adv-x="940" 
d="M406 1243q0 -53 -33 -91t-88.5 -38t-88 38t-32.5 91t32.5 91t88 38t88.5 -38t33 -91zM815 1243q0 -53 -32.5 -91t-88 -38t-88.5 38t-33 91t33 91t88.5 38t88 -38t32.5 -91zM236 -535q-75 0 -110.5 31t-35.5 80t25.5 80t74.5 31q78 0 121 -66q37 18 80 135l86 240v4
l-364 754q-20 43 -38 56t-67 21l-43 13l-8 74h451l-7 -72l-51 -8q-76 -8 -45 -74l246 -543l168 475q25 72 14.5 101.5t-65.5 36.5l-56 14l-6 70h385l-6 -70l-53 -14q-45 -6 -68.5 -34t-58.5 -118l-240 -631l-102 -313q-47 -143 -99.5 -208t-127.5 -65z" />
    <glyph glyph-name="Amacron" unicode="&#x100;" horiz-adv-x="1228" 
d="M748 547l-170 551h-13l-184 -551h367zM866 142q0 32 -41 159l-51 160h-422l-49 -158q-56 -147 -40 -186q9 -23 44 -29l82 -16l6 -72h-428l6 72l58 14q47 10 75 39q53 56 164 373l238 665v74l184 86l387 -1180q14 -41 66 -49l110 -22l7 -72h-557l6 72l100 16q29 6 42 14
t13 40zM887 1470h-516l6 84h504z" />
    <glyph glyph-name="amacron" unicode="&#x101;" horiz-adv-x="917" 
d="M400 98q72 0 167 86l11 305q-188 -47 -262 -105t-74 -129t43 -114t115 -43zM717 -33q-129 0 -137 150h-11q-133 -147 -243 -147t-183 69q-74 70 -73 170q0 125 121 205q122 80 391 143v18q0 159 -50 219t-149 60q-49 0 -100 -16t-52 -31q0 -2 23 -32t24 -71
q1 -40 -29 -69t-78 -29t-78 28t-30 68q1 76 135 162t255 86q182 0 244 -90t53 -332l-15 -348q-4 -80 47 -80q37 0 101 50l35 -46q-106 -137 -201 -137zM700 1108h-516l6 84h504z" />
    <glyph glyph-name="Abreve" unicode="&#x102;" horiz-adv-x="1228" 
d="M748 547l-170 551h-13l-184 -551h367zM866 142q0 32 -41 159l-51 160h-422l-49 -158q-56 -147 -40 -186q9 -23 44 -29l82 -16l6 -72h-428l6 72l58 14q47 10 75 39q53 56 164 373l238 665v74l184 86l387 -1180q14 -41 66 -49l110 -22l7 -72h-557l6 72l100 16q29 6 42 14
t13 40zM897 1790q-45 -233 -111 -314t-170 -79q-157 0 -221 175q-34 88 -59 218h45q80 -176 128 -229t97 -53t82 20t67 73t62 112q27 61 28 63l7 14h45z" />
    <glyph glyph-name="abreve" unicode="&#x103;" horiz-adv-x="917" 
d="M400 98q72 0 167 86l11 305q-188 -47 -262 -105t-74 -129t43 -114t115 -43zM717 -33q-129 0 -137 150h-11q-133 -147 -243 -147t-183 69q-74 70 -73 170q0 125 121 205q122 80 391 143v18q0 159 -50 219t-149 60q-49 0 -100 -16t-52 -31q0 -2 23 -32t24 -71
q1 -40 -29 -69t-78 -29t-78 28t-30 68q1 76 135 162t255 86q182 0 244 -90t53 -332l-15 -348q-4 -80 47 -80q37 0 101 50l35 -46q-106 -137 -201 -137zM442 1034q-157 0 -221 175q-33 86 -59 218h45q80 -176 128 -229t97 -53t82 20t67 73t62 113q27 60 35 76h45
q-45 -233 -109 -311q-68 -82 -172 -82z" />
    <glyph glyph-name="Aogonek" unicode="&#x104;" horiz-adv-x="1228" 
d="M748 547l-170 551h-13l-184 -551h367zM1073 -444q-78 0 -131 50t-53 138q0 135 178 256h-362l6 72l100 16q29 6 42 14.5t13 39.5t-41 159l-51 160h-422l-49 -158q-56 -147 -43.5 -178t47.5 -37l82 -16l6 -72h-428l6 72l58 14q47 10 87.5 52.5t151.5 359.5l238 665v74
l184 86l387 -1180q14 -41 66 -49l110 -22l7 -72q-102 -18 -165 -74.5t-63 -136.5q0 -49 27 -81t83 -32t97 41l21 -24q-6 -53 -58.5 -95t-130.5 -42z" />
    <glyph glyph-name="aogonek" unicode="&#x105;" horiz-adv-x="917" 
d="M242 255q0 -71 43 -114t115 -43t167 86l11 305q-188 -47 -262 -105t-74 -129zM722 -444q-83 0 -136.5 50t-53.5 136t45.5 148.5t110.5 93.5q-106 4 -108 133h-11q-133 -147 -243 -147t-183 69.5t-73 169.5q0 125 121.5 205t390.5 143v18q0 160 -50.5 219.5t-148.5 59.5
q-49 0 -100.5 -16.5t-51.5 -30.5q0 -2 24 -34.5t24 -70.5t-30 -67t-78 -29t-78 28t-30 68q0 76 134.5 162t255.5 86q182 0 244.5 -90t52.5 -332l-15 -348q-4 -80 47 -80q37 0 101 50l35 -46q-20 -45 -121 -112q-53 -37 -89 -93.5t-36 -107.5t33 -83t91 -32t99 41l20 -24
q-6 -53 -58 -95t-135 -42z" />
    <glyph glyph-name="Cacute" unicode="&#x106;" horiz-adv-x="1396" 
d="M809 -31q-311 0 -513 175q-202 176 -202 486t205 494t516 185q160 0 283 -41l164 30v-419h-95l-55 262q-137 82 -307 82q-219 0 -356 -161t-137 -421t136 -425q138 -165 383 -165q141 0 252 62l88 282h99l-45 -395l-105 18q-139 -49 -311 -49zM1073 1790l-346 -383h-49
l186 383h209z" />
    <glyph glyph-name="cacute" unicode="&#x107;" horiz-adv-x="901" 
d="M551 948q133 0 212 -58t79 -128t-35 -95q-35 -26 -87 -26t-85 57t-17 133v5q-45 33 -112 32q-115 0 -190 -94q-74 -94 -74 -260t90 -282t236 -116t241 109l41 -22q-56 -113 -154 -173t-219 -61q-180 0 -296 132q-115 132 -115 341q0 210 143 358t342 148zM805 1427
l-346 -383h-49l186 383h209z" />
    <glyph glyph-name="Ccircumflex" unicode="&#x108;" horiz-adv-x="1396" 
d="M809 -31q-311 0 -513 175q-202 176 -202 486t205 494t516 185q160 0 283 -41l164 30v-419h-95l-55 262q-137 82 -307 82q-219 0 -356 -161t-137 -421t136 -425q138 -165 383 -165q141 0 252 62l88 282h99l-45 -395l-105 18q-139 -49 -311 -49zM1020 1407h-55l-203 221h-4
l-203 -221h-55l217 383h86z" />
    <glyph glyph-name="ccircumflex" unicode="&#x109;" horiz-adv-x="901" 
d="M551 948q133 0 212 -58t79 -128t-35 -95q-35 -26 -87 -26t-85 57t-17 133v5q-45 33 -112 32q-115 0 -190 -94q-74 -94 -74 -260t90 -282t236 -116t241 109l41 -22q-56 -113 -154 -173t-219 -61q-180 0 -296 132q-115 132 -115 341q0 210 143 358t342 148zM772 1044h-55
l-203 222h-4l-203 -222h-55l217 383h86z" />
    <glyph glyph-name="Cdotaccent" unicode="&#x10a;" horiz-adv-x="1396" 
d="M809 -31q-311 0 -513 175q-202 176 -202 486t205 494t516 185q160 0 283 -41l164 30v-419h-95l-55 262q-137 82 -307 82q-219 0 -356 -161t-137 -421t136 -425q138 -165 383 -165q141 0 252 62l88 282h99l-45 -395l-105 18q-139 -49 -311 -49zM920 1606q0 -54 -33 -92
t-88 -38t-88 38t-33 92t33 91q33 38 88 38t88 -38t33 -91z" />
    <glyph glyph-name="cdotaccent" unicode="&#x10b;" horiz-adv-x="901" 
d="M551 948q133 0 212 -58t79 -128t-35 -95q-35 -26 -87 -26t-85 57t-17 133v5q-45 33 -112 32q-115 0 -190 -94q-74 -94 -74 -260t90 -282t236 -116t241 109l41 -22q-56 -113 -154 -173t-219 -61q-180 0 -296 132q-115 132 -115 341q0 210 143 358t342 148zM633 1243
q0 -53 -33 -91t-88 -38t-88 38t-33 91t33 91t88 38t88 -38t33 -91z" />
    <glyph glyph-name="Ccaron" unicode="&#x10c;" horiz-adv-x="1396" 
d="M809 -31q-311 0 -513 175q-202 176 -202 486t205 494t516 185q160 0 283 -41l164 30v-419h-95l-55 262q-137 82 -307 82q-219 0 -356 -161t-137 -421t136 -425q138 -165 383 -165q141 0 252 62l88 282h99l-45 -395l-105 18q-139 -49 -311 -49zM999 1790l-217 -383h-86
l-217 383h56l202 -221h4l203 221h55z" />
    <glyph glyph-name="ccaron" unicode="&#x10d;" horiz-adv-x="901" 
d="M551 948q133 0 212 -58t79 -128t-35 -95q-35 -26 -87 -26t-85 57t-17 133v5q-45 33 -112 32q-115 0 -190 -94q-74 -94 -74 -260t90 -282t236 -116t241 109l41 -22q-56 -113 -154 -173t-219 -61q-180 0 -296 132q-115 132 -115 341q0 210 143 358t342 148zM772 1427
l-217 -383h-86l-217 383h55l203 -221h4l203 221h55z" />
    <glyph glyph-name="Dcaron" unicode="&#x10e;" horiz-adv-x="1406" 
d="M1104 633q0 251 -157 410t-445 159h-62v-1091l148 -31q242 0 379 151t137 402zM1315 662q0 -280 -201 -470q-201 -192 -569 -192h-461l6 72l84 10q72 8 72 37v1046q0 15 -14 21t-58 12l-84 10l-6 72l469 6q340 4 551 -170t211 -454zM885 1790l-217 -383h-86l-217 383h55
l203 -221h4l202 221h56z" />
    <glyph glyph-name="dcaron" unicode="&#x10f;" horiz-adv-x="1531" 
d="M504 850q-114 0 -186 -97q-70 -97 -70 -264t77 -271t197 -105q120 0 211 82v524q-115 131 -229 131zM733 111h-6q-121 -139 -283 -139t-270 129q-108 130 -108 334q0 203 137 353t360 150q76 0 168 -29h2v328q0 39 -22 47l-146 43l8 51l328 49v-1282q0 -39 23 -47
l137 -41l-6 -51l-322 -37v142zM1430 1241q0 -117 -81 -213t-212 -194l-54 32q70 51 123 123q54 72 54 144t-49 108q-49 37 -81 51t-32 17q0 53 39 89t107 36t126 -56q60 -56 60 -137z" />
    <glyph glyph-name="Dcroat" unicode="&#x110;" horiz-adv-x="1380" 
d="M426 694h238l6 -84h-244v-499l147 -31q242 -12 386.5 139t144.5 407t-161 416t-456 160h-61v-508zM246 610h-178l6 84h172v443q0 41 -47 49l-111 22l-6 72l455 6q332 4 546.5 -170t214.5 -444q0 -309 -197.5 -490.5t-572.5 -181.5h-446l6 72l111 22q47 8 47 49v467z" />
    <glyph glyph-name="dcroat" unicode="&#x111;" horiz-adv-x="1075" 
d="M504 850q-114 0 -185 -98t-71 -264t76.5 -270.5t196.5 -104.5t212 82v524q-115 131 -229 131zM733 111h-6q-121 -139 -283 -139t-270 129.5t-108 333.5t137 353.5t360 149.5q76 0 168 -29h2v162h-229l6 84h223v82q0 39 -22 47l-146 43l8 51l328 49v-272h172l6 -84
l-178 -4v-922q0 -39 23 -47l137 -41l-6 -51l-322 -37v142z" />
    <glyph glyph-name="Emacron" unicode="&#x112;" horiz-adv-x="1216" 
d="M246 119v1046q0 15 -14 21t-58 12l-84 10l-6 72h1006v-381h-99l-49 199q-14 51 -43 69q-29 17 -105 25t-280 8h-74v-510h56q122 0 156 7t44 38l47 137h80l-43 -440h-78l-16 131q-4 31 -37 40t-160 9h-49v-532h58q363 0 420 35q31 18 49 67l49 189h110l-39 -371h-1003
l6 72l84 10q72 8 72 37zM889 1470h-516l6 84h504z" />
    <glyph glyph-name="emacron" unicode="&#x113;" horiz-adv-x="944" 
d="M674 604q8 123 -41 196q-49 72 -136 72t-159 -72t-90 -196h426zM543 948q145 0 232 -84t87 -223q0 -61 -12 -111l-608 9v-23q0 -176 90 -288t236 -112t241 109l41 -22q-56 -113 -154 -173t-219 -61q-180 0 -296 132q-115 132 -115 342q0 209 138 357t339 148zM752 1108
h-516l6 84h503z" />
    <glyph glyph-name="Ebreve" unicode="&#x114;" horiz-adv-x="1216" 
d="M246 119v1046q0 15 -14 21t-58 12l-84 10l-6 72h1006v-381h-99l-49 199q-14 51 -43 69q-29 17 -105 25t-280 8h-74v-510h56q122 0 156 7t44 38l47 137h80l-43 -440h-78l-16 131q-4 31 -37 40t-160 9h-49v-532h58q363 0 420 35q31 18 49 67l49 189h110l-39 -371h-1003
l6 72l84 10q72 8 72 37zM918 1790q-45 -229 -109 -311q-27 -33 -72 -58t-100 -25q-105 1 -168 78t-113 316h45q80 -176 128 -229q47 -53 97 -53t92 25q42 26 91 123q49 96 53 109q5 13 10 25h46z" />
    <glyph glyph-name="ebreve" unicode="&#x115;" horiz-adv-x="944" 
d="M674 604q8 123 -41 196q-49 72 -136 72t-159 -72t-90 -196h426zM543 948q145 0 232 -84t87 -223q0 -61 -12 -111l-608 9v-23q0 -176 90 -288t236 -112t241 109l41 -22q-56 -113 -154 -173t-219 -61q-180 0 -296 132q-115 132 -115 342q0 209 138 357t339 148zM532 1034
q-157 0 -221 175q-29 75 -59 218h45q80 -176 128 -229t97 -53t82 20t67 73t62 113q27 60 35 76h45q-45 -231 -110 -312q-66 -81 -171 -81z" />
    <glyph glyph-name="Edotaccent" unicode="&#x116;" horiz-adv-x="1216" 
d="M246 119v1046q0 15 -14 21t-58 12l-84 10l-6 72h1006v-381h-99l-49 199q-14 51 -43 69q-29 17 -105 25t-280 8h-74v-510h56q122 0 156 7t44 38l47 137h80l-43 -440h-78l-16 131q-4 31 -37 40t-160 9h-49v-532h58q363 0 420 35q31 18 49 67l49 189h110l-39 -371h-1003
l6 72l84 10q72 8 72 37zM745 1606q0 -53 -32 -92q-33 -38 -88 -38t-88 38t-33 92t33 91q33 38 88 38t87 -38t33 -91z" />
    <glyph glyph-name="edotaccent" unicode="&#x117;" horiz-adv-x="944" 
d="M674 604q8 123 -41 196q-49 72 -136 72t-159 -72t-90 -196h426zM543 948q145 0 232 -84t87 -223q0 -61 -12 -111l-608 9v-23q0 -176 90 -288t236 -112t241 109l41 -22q-56 -113 -154 -173t-219 -61q-180 0 -296 132q-115 132 -115 342q0 209 138 357t339 148zM633 1243
q0 -53 -33 -91t-88 -38t-88 38t-33 91t33 91t88 38t88 -38t33 -91z" />
    <glyph glyph-name="Eogonek" unicode="&#x118;" horiz-adv-x="1216" 
d="M899 -444q-78 0 -131 50t-53 138q0 135 178 256h-809l6 72l84 10q72 8 72 37v1046q0 14 -13.5 20.5t-58.5 12.5l-84 10l-6 72h1006v-381h-99l-49 199q-14 51 -43 69.5t-105.5 25.5t-279.5 7h-74v-510h56q121 0 155.5 7.5t44.5 37.5l47 137h80l-43 -440h-78l-16 131
q-4 31 -37 40t-160 9h-49v-532h58q363 0 406.5 26.5t62.5 75.5l49 189h110l-39 -371h-112q-115 -104 -115 -211q0 -49 27 -81t83 -32t97 41l20 -24q-6 -53 -58 -95t-130 -42z" />
    <glyph glyph-name="eogonek" unicode="&#x119;" horiz-adv-x="944" 
d="M497 872q-87 0 -159 -72.5t-90 -195.5h426q8 123 -41 195.5t-136 72.5zM576 -444q-78 0 -131.5 50t-53.5 127t43 139t107 103q-20 -6 -64 -6q-180 0 -295.5 132t-115.5 342t138 357.5t339 147.5q145 0 232 -84t87 -223q0 -61 -12 -111l-608 9v-23q0 -176 90 -287.5
t236 -111.5t241 108l41 -22q-59 -117 -168 -191q-63 -45 -104 -107.5t-41 -113.5t26.5 -83t82.5 -32t97 41l21 -24q-6 -53 -58 -95t-130 -42z" />
    <glyph glyph-name="Ecaron" unicode="&#x11a;" horiz-adv-x="1216" 
d="M246 119v1046q0 15 -14 21t-58 12l-84 10l-6 72h1006v-381h-99l-49 199q-14 51 -43 69q-29 17 -105 25t-280 8h-74v-510h56q122 0 156 7t44 38l47 137h80l-43 -440h-78l-16 131q-4 31 -37 40t-160 9h-49v-532h58q363 0 420 35q31 18 49 67l49 189h110l-39 -371h-1003
l6 72l84 10q72 8 72 37zM913 1790l-217 -383h-86l-217 383h56l202 -221h4l203 221h55z" />
    <glyph glyph-name="ecaron" unicode="&#x11b;" horiz-adv-x="944" 
d="M674 604q8 123 -41 196q-49 72 -136 72t-159 -72t-90 -196h426zM543 948q145 0 232 -84t87 -223q0 -61 -12 -111l-608 9v-23q0 -176 90 -288t236 -112t241 109l41 -22q-56 -113 -154 -173t-219 -61q-180 0 -296 132q-115 132 -115 342q0 209 138 357t339 148zM772 1427
l-217 -383h-86l-217 383h55l203 -221h4l203 221h55z" />
    <glyph glyph-name="Gcircumflex" unicode="&#x11c;" horiz-adv-x="1466" 
d="M1255 449v-308l123 -12l4 -55q-296 -104 -590 -104t-496 175t-202 485t215 494t527 185q160 0 278 -41l164 30v-419h-96l-56 262q-129 82 -307 82q-217 0 -362 -162t-145 -421t132 -424q133 -165 371 -165q139 0 250 51v351q0 14 -14 21t-58 11l-104 11l-6 71h538l-6 -71
l-88 -11q-72 -8 -72 -36zM1053 1407h-56l-202 221h-4l-203 -221h-56l218 383h86z" />
    <glyph glyph-name="gcircumflex" unicode="&#x11d;" horiz-adv-x="962" 
d="M750 -231q0 176 -215 184q-43 2 -119 -1t-115 -3q-39 -15 -81 -63t-42 -113q0 -97 81 -157t209 -60t205 60t77 153zM637 614q0 143 -70 213q-51 51 -127 51t-130 -65q-54 -66 -54 -168q0 -154 84 -237q45 -45 104 -46q193 0 193 252zM905 -154q0 -162 -148 -265
t-380 -103q-162 0 -259 66t-98 173q0 158 199 240v8q-59 11 -99 57t-40 101t47 109t121 87q0 8 8 11q-174 82 -174 282q0 144 105 240t246 96t261 -57h279v-127l-223 39v-12q57 -76 57 -170q-1 -135 -107 -231t-256 -97q-66 0 -122 14q-31 -14 -60 -42q-29 -27 -29 -61
t38 -62t94 -27l241 6q125 0 212 -80t87 -195zM700 1044h-55l-203 222h-4l-202 -222h-56l217 383h86z" />
    <glyph glyph-name="Gbreve" unicode="&#x11e;" horiz-adv-x="1466" 
d="M1255 449v-308l123 -12l4 -55q-296 -104 -590 -104t-496 175t-202 485t215 494t527 185q160 0 278 -41l164 30v-419h-96l-56 262q-129 82 -307 82q-217 0 -362 -162t-145 -421t132 -424q133 -165 371 -165q139 0 250 51v351q0 14 -14 21t-58 11l-104 11l-6 71h538l-6 -71
l-88 -11q-72 -8 -72 -36zM1096 1790q-45 -229 -109 -311q-27 -33 -72 -58t-100 -25q-105 1 -170 80t-110 314h45q80 -176 128 -229t97 -53t91 25q42 26 91 123q49 96 53 109t6 17t5 8h45z" />
    <glyph glyph-name="gbreve" unicode="&#x11f;" horiz-adv-x="962" 
d="M750 -231q0 176 -215 184q-43 2 -119 -1t-115 -3q-39 -15 -81 -63t-42 -113q0 -97 81 -157t209 -60t205 60t77 153zM637 614q0 143 -70 213q-51 51 -127 51t-130 -65q-54 -66 -54 -168q0 -154 84 -237q45 -45 104 -46q193 0 193 252zM905 -154q0 -162 -148 -265
t-380 -103q-162 0 -259 66t-98 173q0 158 199 240v8q-59 11 -99 57t-40 101t47 109t121 87q0 8 8 11q-174 82 -174 282q0 144 105 240t246 96t261 -57h279v-127l-223 39v-12q57 -76 57 -170q-1 -135 -107 -231t-256 -97q-66 0 -122 14q-31 -14 -60 -42q-29 -27 -29 -61
t38 -62t94 -27l241 6q125 0 212 -80t87 -195zM444 1034q-157 0 -221 175q-33 86 -59 218h45q80 -176 128 -229t97 -53t82 20t67 73t62 113q27 60 35 76h45q-45 -233 -109 -311q-68 -82 -172 -82z" />
    <glyph glyph-name="Gdotaccent" unicode="&#x120;" horiz-adv-x="1466" 
d="M1255 449v-308l123 -12l4 -55q-296 -104 -590 -104t-496 175t-202 485t215 494t527 185q160 0 278 -41l164 30v-419h-96l-56 262q-129 82 -307 82q-217 0 -362 -162t-145 -421t132 -424q133 -165 371 -165q139 0 250 51v351q0 14 -14 21t-58 11l-104 11l-6 71h538l-6 -71
l-88 -11q-72 -8 -72 -36zM936 1606q0 -54 -33 -92t-88 -38t-88 38t-33 92t33 91q33 38 88 38t88 -38t33 -91z" />
    <glyph glyph-name="gdotaccent" unicode="&#x121;" horiz-adv-x="962" 
d="M750 -231q0 176 -215 184q-43 2 -119 -1t-115 -3q-39 -15 -81 -63t-42 -113q0 -97 81 -157t209 -60t205 60t77 153zM637 614q0 143 -70 213q-51 51 -127 51t-130 -65q-54 -66 -54 -168q0 -154 84 -237q45 -45 104 -46q193 0 193 252zM905 -154q0 -162 -148 -265
t-380 -103q-162 0 -259 66t-98 173q0 158 199 240v8q-59 11 -99 57t-40 101t47 109t121 87q0 8 8 11q-174 82 -174 282q0 144 105 240t246 96t261 -57h279v-127l-223 39v-12q57 -76 57 -170q-1 -135 -107 -231t-256 -97q-66 0 -122 14q-31 -14 -60 -42q-29 -27 -29 -61
t38 -62t94 -27l241 6q125 0 212 -80t87 -195zM571 1243q-1 -53 -33 -91t-87 -38t-89 38q-33 38 -32 91q0 53 32 91t88 38t88 -38t33 -91z" />
    <glyph glyph-name="Gcommaaccent" unicode="&#x122;" horiz-adv-x="1466" 
d="M1255 449v-308l123 -12l4 -55q-296 -104 -590 -104t-496 175t-202 485t215 494t527 185q160 0 278 -41l164 30v-419h-96l-56 262q-129 82 -307 82q-217 0 -362 -162t-145 -421t132 -424q133 -165 371 -165q139 0 250 51v351q0 14 -14 21t-58 11l-104 11l-6 71h538l-6 -71
l-88 -11q-72 -8 -72 -36zM858 -344q0 102 -131 139q0 45 31 73t89 28t101 -50t43 -112q1 -98 -69 -171t-164 -108l-39 33q57 20 98 64t41 104z" />
    <glyph glyph-name="gcommaaccent" unicode="&#x123;" horiz-adv-x="962" 
d="M461 1294q0 -102 131 -139q0 -45 -31 -72.5t-89 -27.5t-101 49.5t-43 112.5q0 98 69.5 170.5t163.5 107.5l39 -33q-57 -20 -98 -64t-41 -104zM750 -231q0 176 -215 184q-43 2 -119 -1t-115 -3q-39 -14 -81 -62.5t-42 -113.5q0 -98 81 -157.5t209 -59.5t205 60.5t77 152.5
zM637 614q0 143 -70 213q-51 51 -127 51t-130 -65t-54 -168q0 -154 84 -237q45 -45 104 -46q193 0 193 252zM905 -154q0 -162 -148.5 -265t-379.5 -103q-162 0 -259.5 65.5t-97.5 173.5q0 158 199 240v8q-59 10 -99 56.5t-40 101.5t47 109.5t121 86.5q0 8 8 11
q-174 82 -174 282q0 143 106 239.5t246 96.5t260 -57h279v-127l-223 39v-12q57 -76 57 -170q0 -135 -106.5 -231.5t-256.5 -96.5q-66 0 -122 14q-31 -14 -60 -41.5t-29 -61.5t38 -61.5t94 -27.5l241 6q125 0 212 -80t87 -195z" />
    <glyph glyph-name="Hcircumflex" unicode="&#x124;" horiz-adv-x="1509" 
d="M1069 119v493h-629v-497q0 -25 72 -33l84 -10l6 -72h-518l6 72l84 10q72 8 72 37v1046q0 15 -14 21t-58 12l-84 10l-6 72h518l-6 -72l-84 -10q-72 -8 -72 -37v-463h629v467q0 13 -14 21t-58 12l-84 10l-6 72h518l-6 -72l-84 -10q-72 -8 -71 -37v-1046q0 -15 13 -21
t58 -12l84 -10l6 -72h-518l6 72l84 10q72 8 72 37zM1014 1407h-56l-202 221h-4l-203 -221h-55l217 383h86z" />
    <glyph glyph-name="hcircumflex" unicode="&#x125;" horiz-adv-x="1087" 
d="M754 117v428q0 145 -46 203t-150 59q-104 0 -220 -86v-606q0 -33 78 -37l69 -6l7 -72h-455l6 72l57 6q70 6 70 39v1067q0 39 -23 47l-137 57l6 51l322 88v-624h10q176 145 328 145q104 0 175 -70t71 -223v-538q0 -17 16 -25t68 -14l53 -6l6 -72h-440l6 72l53 6
q70 4 70 39zM721 1509h-55l-203 222h-4l-203 -222h-55l217 383h86z" />
    <glyph glyph-name="Hbar" unicode="&#x126;" horiz-adv-x="1509" 
d="M440 698h629v209h-629v-209zM1069 119v493h-629v-497q0 -25 72 -33l84 -10l6 -72h-518l6 72l84 10q72 8 72 37v788h-242l6 84h236v174q0 14 -13.5 20.5t-58.5 12.5l-84 10l-6 72h518l-6 -72l-84 -10q-72 -8 -72 -37v-170h629v174q0 26 -72 33l-84 10l-6 72h518l-6 -72
l-84 -10q-72 -8 -71 -37v-170h239l6 -84h-245v-792q0 -14 13 -20.5t58 -12.5l84 -10l6 -72h-518l6 72l84 10q72 8 72 37z" />
    <glyph glyph-name="hbar" unicode="&#x127;" horiz-adv-x="1087" 
d="M754 117v428q0 145 -46 203.5t-150 58.5t-220 -86v-606q0 -33 78 -37l69 -6l7 -72h-455l6 72l57 6q70 6 70 39v954h-178l6 84h172v29q0 39 -23 47l-137 57l6 51l322 88v-272h223l6 -84h-229v-268h10q176 145 328 145q104 0 175 -70t71 -223v-538q0 -16 16 -24.5t68 -14.5
l53 -6l6 -72h-440l6 72l53 6q70 4 70 39z" />
    <glyph glyph-name="Imacron" unicode="&#x12a;" horiz-adv-x="737" 
d="M272 1165q0 15 -13 21t-58 12l-105 10l-6 72h559l-6 -72l-104 -10q-72 -8 -72 -37v-1046q0 -25 72 -33l104 -10l6 -72h-559l6 72l105 10q72 8 71 37v1046zM629 1470h-516l6 84h504z" />
    <glyph glyph-name="imacron" unicode="&#x12b;" horiz-adv-x="557" 
d="M195 117v518q1 94 -15 123t-74 43l-49 12l2 55l303 80v-833q0 -33 78 -37l60 -6l6 -72h-445l7 72l57 6q70 6 70 39zM539 1108h-516l6 84h503z" />
    <glyph glyph-name="Ibreve" unicode="&#x12c;" horiz-adv-x="737" 
d="M649 1790q-45 -231 -108 -311q-27 -33 -72 -58t-100 -25t-101 26q-46 24 -72 57q-52 65 -82 196q-11 43 -26 115h45q80 -176 128 -229q47 -53 97 -53t82 20t67 73q34 53 62 112q27 61 28 63l7 14h45zM272 1165q0 15 -13 21t-58 12l-105 10l-6 72h559l-6 -72l-104 -10
q-72 -8 -72 -37v-1046q0 -25 72 -33l104 -10l6 -72h-559l6 72l105 10q72 8 71 37v1046z" />
    <glyph glyph-name="ibreve" unicode="&#x12d;" horiz-adv-x="557" 
d="M279 1034q-55 0 -101 25t-72 57q-57 68 -108 311h45q80 -176 128 -229q47 -53 97 -53t82 20t67 73q34 53 62 113q27 60 35 76h45q-45 -231 -110 -312t-170 -81zM195 117v518q1 94 -15 123t-74 43l-49 12l2 55l303 80v-833q0 -33 78 -37l60 -6l6 -72h-445l7 72l57 6
q70 6 70 39z" />
    <glyph glyph-name="Iogonek" unicode="&#x12e;" horiz-adv-x="737" 
d="M463 -444q-78 0 -131 50t-53 131t61 154.5t137 108.5h-387l6 72l105 10q72 8 71 37v1046q0 14 -13 20.5t-58 12.5l-105 10l-6 72h559l-6 -72l-104 -10q-72 -8 -72 -37v-1046q0 -25 72 -33l104 -10l6 -72q-100 -16 -162.5 -73.5t-62.5 -137.5q0 -49 26.5 -81t82.5 -32
t98 41l20 -24q-6 -53 -58 -95t-130 -42z" />
    <glyph glyph-name="iogonek" unicode="&#x12f;" horiz-adv-x="557" 
d="M369 1245q0 -51 -29 -86t-82 -35t-82 35t-29 86t29 86t82 35t82 -35t29 -86zM313 -444q-80 0 -136 45t-56 131t65.5 157.5t151.5 110.5h-277l7 72l57 6q70 6 70 39v518q0 94 -15.5 122.5t-73.5 43.5l-49 12l2 55l303 80v-833q0 -33 78 -37l60 -6l6 -72
q-106 -16 -172 -74.5t-66 -148.5q0 -45 30 -73t87 -28t98 41l21 -24q-6 -53 -58.5 -95t-132.5 -42z" />
    <glyph glyph-name="Idotaccent" unicode="&#x130;" horiz-adv-x="737" 
d="M272 1165q0 15 -13 21t-58 12l-105 10l-6 72h559l-6 -72l-104 -10q-72 -8 -72 -37v-1046q0 -25 72 -33l104 -10l6 -72h-559l6 72l105 10q72 8 71 37v1046zM489 1606q0 -53 -32 -92q-33 -38 -88 -38t-88 38t-33 92t33 91q33 38 88 38t87 -38t33 -91z" />
    <glyph glyph-name="dotlessi" unicode="&#x131;" horiz-adv-x="557" 
d="M195 117v518q0 94 -15.5 122.5t-73.5 43.5l-49 12l2 55l303 80v-833q0 -33 78 -37l60 -6l6 -72h-445l7 72l57 6q70 6 70 39z" />
    <glyph glyph-name="Jcircumflex" unicode="&#x134;" horiz-adv-x="831" 
d="M115 195q112 0 157 -154h2q49 16 76 49q60 74 62 406v669q0 26 -72 33l-125 10l-6 72h577l-6 -72l-102 -10q-72 -8 -72 -37v-626q0 -277 -100 -421t-287 -145q-90 0 -148 38q-59 38 -59 87t28 75t75 26zM748 1407h-56l-203 221h-4l-202 -221h-56l217 383h86z" />
    <glyph glyph-name="jcircumflex" unicode="&#x135;" horiz-adv-x="526" 
d="M-137 -420q0 51 34 81t74 30q94 0 146 -115q72 31 71 246v813q0 94 -15 123t-73 43l-49 12l2 55l303 80v-997q-14 -217 -123 -351t-221 -135q-66 0 -108 32t-41 83zM522 1044h-55l-203 222h-4l-203 -222h-55l217 383h86z" />
    <glyph glyph-name="Kcommaaccent" unicode="&#x136;" horiz-adv-x="1308" 
d="M846 -266q0 -98 -69.5 -171t-164.5 -108l-39 33q57 20 98.5 64.5t41.5 90.5q0 77 -38.5 105.5t-92.5 46.5q0 45 30.5 73t88.5 28t101.5 -49.5t43.5 -112.5zM440 115q0 -25 72 -33l84 -10l6 -72h-518l6 72l84 10q72 8 72 37v1046q0 14 -13.5 20.5t-58.5 12.5l-84 10l-6 72
h518l-6 -72l-84 -10q-72 -8 -72 -37v-538l377 366q180 176 84 205q-10 2 -24 4l-84 10l-7 72h519l-7 -72l-69 -10q-49 -8 -93 -35.5t-116 -99.5l-326 -320l416 -571q39 -53 61.5 -69.5t63.5 -22.5l59 -8l6 -72h-479l6 72l70 14q31 6 -4 57l-330 482l-123 -117v-393z" />
    <glyph glyph-name="kcommaaccent" unicode="&#x137;" horiz-adv-x="1007" 
d="M338 115q0 -15 15 -23t63 -14l49 -6l6 -72h-434l6 72l57 6q70 8 70 39v1067q0 39 -23 47l-137 57l6 51l322 88v-958l141 131q133 122 147 150t15 41q0 43 -80 53l-31 4l-6 70h443l-6 -70l-31 -6q-52 -8 -110 -48t-179 -151l-100 -92l274 -381q63 -86 105 -90l67 -8l6 -72
h-293l-110 184l-170 256l-82 -75v-250zM543 -344q0 102 -131 139q0 45 30 73q31 28 89 28q57 0 101 -50t44 -112q0 -98 -70 -171t-164 -108l-39 33q57 20 99 64t41 104z" />
    <glyph glyph-name="Lacute" unicode="&#x139;" horiz-adv-x="1175" 
d="M246 119v1046q0 15 -14 21t-58 12l-84 10l-6 72h537l-7 -72l-102 -10q-72 -8 -72 -37v-1081h64q328 0 385 35q31 18 47 67l59 228h107l-45 -410h-973l6 72l84 10q72 8 72 37zM696 1790l-346 -383h-49l186 383h209z" />
    <glyph glyph-name="lacute" unicode="&#x13a;" horiz-adv-x="557" 
d="M195 117v1067q0 39 -23 47l-137 57l6 51l321 88v-1312q0 -33 78 -37l60 -6l6 -72h-445l7 72l57 6q70 6 70 39zM571 1872l-346 -383h-49l186 383h209z" />
    <glyph glyph-name="Lcommaaccent" unicode="&#x13b;" horiz-adv-x="1175" 
d="M739 -266q0 -98 -69.5 -171t-163.5 -108l-39 33q57 20 98 64.5t41 90.5q0 78 -37.5 105.5t-93.5 46.5q0 45 31 73t89 28t101 -49.5t43 -112.5zM246 119v1046q0 14 -13.5 20.5t-58.5 12.5l-84 10l-6 72h537l-7 -72l-102 -10q-72 -8 -72 -37v-1081h64q327 0 371.5 26.5
t60.5 75.5l59 228h107l-45 -410h-973l6 72l84 10q72 8 72 37z" />
    <glyph glyph-name="lcommaaccent" unicode="&#x13c;" horiz-adv-x="557" 
d="M416 -266q0 -98 -70 -171t-164 -108l-39 33q57 20 98.5 64.5t41.5 90.5q0 77 -38.5 105.5t-92.5 46.5q0 45 30.5 73t88.5 28t101.5 -49.5t43.5 -112.5zM195 117v1067q0 39 -23 47l-137 57l6 51l321 88v-1312q0 -33 78 -37l60 -6l6 -72h-445l7 72l57 6q70 6 70 39z" />
    <glyph glyph-name="Lcaron" unicode="&#x13d;" horiz-adv-x="1413" 
d="M1354 1118q0 -117 -81 -213t-212 -194l-53 32q70 51 123 123t53 144t-48.5 108.5t-81 51t-32.5 16.5q0 53 39 89t107 36t127 -56.5t59 -136.5zM246 119v1046q0 14 -13.5 20.5t-58.5 12.5l-84 10l-6 72h537l-7 -72l-102 -10q-72 -8 -72 -37v-1081h64q327 0 371.5 26.5
t60.5 75.5l59 228h107l-45 -410h-973l6 72l84 10q72 8 72 37z" />
    <glyph glyph-name="lcaron" unicode="&#x13e;" horiz-adv-x="993" 
d="M891 1241q0 -117 -81 -213t-212 -194l-53 32q70 51 123 123t53 144t-48.5 108.5t-81 51t-32.5 16.5q0 53 38.5 89t106.5 36t127.5 -56.5t59.5 -136.5zM195 117v1067q0 39 -23 47l-137 57l6 51l321 88v-1312q0 -33 78 -37l60 -6l6 -72h-445l7 72l57 6q70 6 70 39z" />
    <glyph glyph-name="Ldot" unicode="&#x13f;" horiz-adv-x="1433" 
d="M246 119v1046q0 15 -14 21t-58 12l-84 10l-6 72h537l-7 -72l-102 -10q-72 -8 -72 -37v-1081h64q328 0 385 35q31 18 47 67l59 228h107l-45 -410h-973l6 72l84 10q72 8 72 37zM1458 641q0 -55 -39 -96t-97 -41t-98 41t-40 96t40 94t99 39t97 -39t38 -94z" />
    <glyph glyph-name="ldotaccent" unicode="&#x140;" horiz-adv-x="929" 
d="M195 117v1067q0 39 -23 47l-137 57l6 51l321 88v-1312q0 -33 78 -37l60 -6l6 -72h-445l7 72l57 6q70 6 70 39zM877 641q0 -55 -39 -96q-40 -41 -98 -41t-98 41t-40 96t40 94t99 39t97 -39t39 -94z" />
    <glyph glyph-name="Lslash" unicode="&#x141;" horiz-adv-x="1175" 
d="M246 1137q0 41 -47 49l-109 22l-6 72h537l-7 -72l-127 -22q-47 -8 -47 -49v-582l226 59v-88l-226 -59v-387h64q327 0 371.5 26.5t60.5 75.5l59 228h107l-45 -410h-973l6 72l109 22q47 8 47 49v273l-176 -47v88l176 47v633z" />
    <glyph glyph-name="lslash" unicode="&#x142;" horiz-adv-x="557" 
d="M362 143q0 -41 48 -49l110 -22l6 -72h-465l7 72l79 22q47 14 48 49v271l-43 -13q-45 -10 -91 -22l-43 -12v88l177 47v672q0 39 -23 47l-137 57l6 51l321 98v-880l170 47v-88l-170 -45v-318z" />
    <glyph glyph-name="Nacute" unicode="&#x143;" horiz-adv-x="1540" 
d="M1278 782v-800h-104l-809 1103h-11v-587q0 -152 2 -222q4 -145 39 -172q14 -10 49 -16l99 -16l6 -72h-469l6 72l96 16q35 6 50 16q36 24 40 172q2 70 2 222v503q0 86 -19 129t-69 64l-96 14l-6 72h371l731 -1001h10v503q0 314 -19 358t-71 52l-98 16l-7 72h472l-7 -72
l-96 -16q-35 -6 -50 -16q-36 -24 -40 -172q-2 -70 -2 -222zM1065 1790l-346 -383h-49l186 383h209z" />
    <glyph glyph-name="nacute" unicode="&#x144;" horiz-adv-x="1120" 
d="M778 545q0 145 -46 203t-150 59q-104 0 -220 -86v-606q0 -33 78 -37l70 -6l6 -72h-455l7 72l57 6q70 6 70 39v518q1 94 -15 123t-74 43l-49 12l2 55l303 80v-145h11q176 145 327 145q104 0 175 -70t71 -223v-538q0 -17 16 -25t68 -14l53 -6l7 -72h-441l6 72l54 6
q70 4 69 39v428zM893 1427l-346 -383h-49l186 383h209z" />
    <glyph glyph-name="Ncommaaccent" unicode="&#x145;" horiz-adv-x="1540" 
d="M1278 782v-800h-104l-809 1103h-11v-587q0 -152 2 -222q4 -145 39 -172q14 -10 49 -16l99 -16l6 -72h-469l6 72l96 16q35 6 50 16q36 24 40 172q2 70 2 222v503q0 86 -19 129t-69 64l-96 14l-6 72h371l731 -1001h10v503q0 314 -19 358t-71 52l-98 16l-7 72h472l-7 -72
l-96 -16q-35 -6 -50 -16q-36 -24 -40 -172q-2 -70 -2 -222zM922 -266q0 -98 -70 -171t-164 -108l-39 33q57 20 99 64t40 108q-1 63 -43 92q-42 30 -88 43q0 45 31 73t89 28q57 0 101 -50t44 -112z" />
    <glyph glyph-name="ncommaaccent" unicode="&#x146;" horiz-adv-x="1120" 
d="M711 -266q0 -98 -70 -171t-164 -108l-39 33q57 20 98.5 64.5t41.5 90.5q0 77 -39.5 106.5t-92.5 45.5q0 45 31 73t89 28t101.5 -49.5t43.5 -112.5zM778 545q0 145 -46 203.5t-150 58.5t-220 -86v-606q0 -33 78 -37l70 -6l6 -72h-455l7 72l57 6q70 6 70 39v518
q0 94 -15.5 122.5t-73.5 43.5l-49 12l2 55l303 80v-145h11q176 145 327 145q104 0 175 -70t71 -223v-538q0 -16 16.5 -24.5t67.5 -14.5l53 -6l7 -72h-441l6 72l54 6q70 4 69 39v428z" />
    <glyph glyph-name="Ncaron" unicode="&#x147;" horiz-adv-x="1540" 
d="M1278 782v-800h-104l-809 1103h-11v-587q0 -152 2 -222q4 -145 39 -172q14 -10 49 -16l99 -16l6 -72h-469l6 72l96 16q35 6 50 16q36 24 40 172q2 70 2 222v503q0 86 -19 129t-69 64l-96 14l-6 72h371l731 -1001h10v503q0 314 -19 358t-71 52l-98 16l-7 72h472l-7 -72
l-96 -16q-35 -6 -50 -16q-36 -24 -40 -172q-2 -70 -2 -222zM1030 1790l-217 -383h-86l-217 383h55l203 -221h4l203 221h55z" />
    <glyph glyph-name="ncaron" unicode="&#x148;" horiz-adv-x="1120" 
d="M778 545q0 145 -46 203t-150 59q-104 0 -220 -86v-606q0 -33 78 -37l70 -6l6 -72h-455l7 72l57 6q70 6 70 39v518q1 94 -15 123t-74 43l-49 12l2 55l303 80v-145h11q176 145 327 145q104 0 175 -70t71 -223v-538q0 -17 16 -25t68 -14l53 -6l7 -72h-441l6 72l54 6
q70 4 69 39v428zM805 1427l-217 -383h-86l-217 383h55l203 -221h4l203 221h55z" />
    <glyph glyph-name="Omacron" unicode="&#x14c;" horiz-adv-x="1525" 
d="M1214 625q0 270 -133 437t-323 167t-318 -155t-129 -426q0 -271 132 -438q133 -167 323 -167t319 156t129 426zM1432 651q0 -285 -196 -485t-480 -199q-284 -1 -472 185q-190 186 -190 470t196 484t480 201t472 -185q190 -186 190 -471zM1026 1470h-516l6 84h504z" />
    <glyph glyph-name="omacron" unicode="&#x14d;" horiz-adv-x="1060" 
d="M809 399q0 272 -109 387q-72 78 -184 78t-188 -93t-76 -253q0 -270 110 -387q72 -78 182 -78t188 93t77 253zM548 948q200 0 324 -132t123 -339q0 -207 -139 -357t-342 -151t-326 139t-122 347q0 207 141 350t341 143zM791 1108h-517l7 84h503z" />
    <glyph glyph-name="Obreve" unicode="&#x14e;" horiz-adv-x="1525" 
d="M1049 1790q-45 -229 -109 -311q-27 -33 -72 -58t-100 -25q-105 1 -168 78t-113 316h45q80 -176 128 -229t98 -53t91 25q42 26 91 123q48 96 53 111t11 23h45zM1214 625q0 270 -133 437t-323 167t-318 -155t-129 -426q0 -271 132 -438q133 -167 323 -167t319 156t129 426z
M1432 651q0 -285 -196 -485t-480 -199q-284 -1 -472 185q-190 186 -190 470t196 484t480 201t472 -185q190 -186 190 -471z" />
    <glyph glyph-name="obreve" unicode="&#x14f;" horiz-adv-x="1060" 
d="M809 399q0 272 -109 387q-72 78 -184 78t-188 -93t-76 -253q0 -270 110 -387q72 -78 182 -78t188 93t77 253zM548 948q200 0 324 -132t123 -339q0 -207 -139 -357t-342 -151t-326 139t-122 347q0 207 141 350t341 143zM530 1034q-157 0 -221 175q-33 86 -59 218h45
q80 -176 128 -229t97 -53t82 20t67 73t62 113q27 60 35 76h45q-45 -233 -109 -311q-68 -82 -172 -82z" />
    <glyph glyph-name="Ohungarumlaut" unicode="&#x150;" horiz-adv-x="1525" 
d="M1214 625q0 270 -133 437t-323 167t-318 -155t-129 -426q0 -271 132 -438q133 -167 323 -167t319 156t129 426zM1432 651q0 -285 -196 -485t-480 -199q-284 -1 -472 185q-190 186 -190 470t196 484t480 201t472 -185q190 -186 190 -471zM885 1790l-316 -383h-45l176 383
h185zM1196 1790l-315 -383h-45l176 383h184z" />
    <glyph glyph-name="ohungarumlaut" unicode="&#x151;" horiz-adv-x="1060" 
d="M809 399q0 272 -109 387q-72 78 -184 78t-188 -93t-76 -253q0 -270 110 -387q72 -78 182 -78t188 93t77 253zM548 948q200 0 324 -132t123 -339q0 -207 -139 -357t-342 -151t-326 139t-122 347q0 207 141 350t341 143zM641 1427l-315 -383h-45l176 383h184zM952 1427
l-315 -383h-45l176 383h184z" />
    <glyph glyph-name="OE" unicode="&#x152;" horiz-adv-x="1933" 
d="M967 84v1092l-148 30q-250 0 -390 -152t-140 -402t161.5 -409t454.5 -159h62zM854 0q-338 0 -549 173t-211 451t201 468t569 190l942 -2v-381h-90l-49 199q-8 33 -18.5 47t-38 34.5t-375.5 20.5h-88v-510h74q125 0 159.5 7.5t44.5 37.5l48 137h73l-43 -440h-71l-17 131
q-4 31 -36.5 40t-161.5 9h-70v-532h67q374 0 416.5 26.5t59.5 75.5l51 189h102l-39 -371h-950z" />
    <glyph glyph-name="oe" unicode="&#x153;" horiz-adv-x="1687" 
d="M1246 872q-87 0 -158.5 -72.5t-90.5 -195.5h426q8 123 -41 195.5t-136 72.5zM523 864q-112 0 -187.5 -90t-77.5 -250q-4 -272 111 -393q71 -78 181 -78t186.5 90t78.5 250q4 274 -108 393q-72 78 -184 78zM557 948q238 0 363 -188q139 188 372 188q145 0 232.5 -84
t87.5 -223q0 -61 -13 -111l-608 9v-23q0 -176 90 -287.5t236 -111.5t242 108l40 -22q-57 -113 -154 -173.5t-218 -60.5q-217 1 -334 183q-143 -182 -361 -182t-342 141t-118 348t145 348t340 141z" />
    <glyph glyph-name="Racute" unicode="&#x154;" horiz-adv-x="1239" 
d="M870 930q0 135 -75 205q-76 70 -224 61l-131 -4v-537l146 -12q133 10 209 81q75 71 75 206zM440 115q0 -25 72 -33l100 -10l6 -72h-534l6 72l84 10q72 8 72 37v1046q0 15 -14 21t-58 12l-84 10l-6 72h530q236 0 353 -84t117 -221t-80 -227q-78 -90 -213 -138l262 -405
q49 -69 75 -91t58 -28l63 -14l8 -72h-329l-324 571l-164 -6v-450zM911 1790l-346 -383h-49l186 383h209z" />
    <glyph glyph-name="racute" unicode="&#x155;" horiz-adv-x="788" 
d="M774 834q0 -51 -28 -83t-84 -32t-99 67q-127 -74 -201 -219v-452q0 -33 78 -37l80 -6l6 -72h-465l7 72l57 6q70 6 70 39v518q1 94 -15 123t-74 43l-49 12l2 55l303 80v-262h11q88 142 148 202q59 60 123 60t97 -32t33 -82zM786 1427l-346 -383h-49l187 383h208z" />
    <glyph glyph-name="Rcommaaccent" unicode="&#x156;" horiz-adv-x="1239" 
d="M870 930q0 135 -75 205q-76 70 -224 61l-131 -4v-537l146 -12q133 10 209 81q75 71 75 206zM440 115q0 -25 72 -33l100 -10l6 -72h-534l6 72l84 10q72 8 72 37v1046q0 15 -14 21t-58 12l-84 10l-6 72h530q236 0 353 -84t117 -221t-80 -227q-78 -90 -213 -138l262 -405
q49 -69 75 -91t58 -28l63 -14l8 -72h-329l-324 571l-164 -6v-450zM831 -266q1 -98 -69 -171t-164 -108l-39 33q57 20 98 64t41 107q0 62 -42 93q-42 30 -89 43q0 45 31 73t89 28t101 -50t43 -112z" />
    <glyph glyph-name="rcommaaccent" unicode="&#x157;" horiz-adv-x="788" 
d="M412 -266q0 -98 -70 -171t-164 -108l-39 33q57 20 98.5 64.5t41.5 90.5q0 77 -39.5 106.5t-92.5 45.5q0 45 31 73t89 28t101.5 -49.5t43.5 -112.5zM774 833.5q0 -51.5 -27.5 -83t-83.5 -31.5t-100 67q-127 -74 -201 -219v-452q0 -33 78 -37l80 -6l6 -72h-465l7 72l57 6
q70 6 70 39v518q0 94 -15.5 122.5t-73.5 43.5l-49 12l2 55l303 80v-262h11q88 143 148.5 202.5t123.5 59.5t96 -31.5t33 -83z" />
    <glyph glyph-name="Rcaron" unicode="&#x158;" horiz-adv-x="1239" 
d="M870 930q0 135 -75 205q-76 70 -224 61l-131 -4v-537l146 -12q133 10 209 81q75 71 75 206zM440 115q0 -25 72 -33l100 -10l6 -72h-534l6 72l84 10q72 8 72 37v1046q0 15 -14 21t-58 12l-84 10l-6 72h530q236 0 353 -84t117 -221t-80 -227q-78 -90 -213 -138l262 -405
q49 -69 75 -91t58 -28l63 -14l8 -72h-329l-324 571l-164 -6v-450zM879 1790l-217 -383h-87l-217 383h56l202 -221h5l202 221h56z" />
    <glyph glyph-name="rcaron" unicode="&#x159;" horiz-adv-x="788" 
d="M774 834q0 -51 -28 -83t-84 -32t-99 67q-127 -74 -201 -219v-452q0 -33 78 -37l80 -6l6 -72h-465l7 72l57 6q70 6 70 39v518q1 94 -15 123t-74 43l-49 12l2 55l303 80v-262h11q88 142 148 202q59 60 123 60t97 -32t33 -82zM682 1427l-217 -383h-86l-217 383h55l203 -221
h4l203 221h55z" />
    <glyph glyph-name="Sacute" unicode="&#x15a;" horiz-adv-x="1058" 
d="M720 125q71 68 71 163t-61 162q-24 26 -74 54t-142 65q-92 36 -140 57q-124 55 -188 130q-65 76 -65 209q0 134 108 238q168 159 564 83l106 29v-408h-86l-63 262q-113 49 -227 49t-173 -56q-59 -58 -59 -142t35 -121t47 -51t63 -39t99 -43t90 -36q43 -18 86 -37
q125 -55 190 -134q66 -79 66 -220t-131 -255t-349 -115q-174 -2 -362 62l-29 364h86l92 -280q129 -63 252 -61t194 71zM862 1790l-346 -383h-49l186 383h209z" />
    <glyph glyph-name="sacute" unicode="&#x15b;" horiz-adv-x="831" 
d="M748 266q0 -123 -98 -210t-261 -87q-164 0 -276 43l-13 271h103l47 -181q80 -57 156 -57t135 46t59 118q0 98 -166 157q-166 60 -226 107q-61 47 -82 94q-22 47 -22 111q0 110 88 192t221 82q132 0 224 -34l63 26l13 -291h-101l-41 170q-67 51 -145 51t-125 -38t-47 -98
q0 -62 48 -97t141 -72t131 -56q116 -58 152 -137q22 -49 22 -110zM725 1427l-346 -383h-49l186 383h209z" />
    <glyph glyph-name="Scircumflex" unicode="&#x15c;" horiz-adv-x="1058" 
d="M720 125q71 68 71 163t-61 162q-24 26 -74 54t-142 65q-92 36 -140 57q-124 55 -188 130q-65 76 -65 209q0 134 108 238q168 159 564 83l106 29v-408h-86l-63 262q-113 49 -227 49t-173 -56q-59 -58 -59 -142t35 -121t47 -51t63 -39t99 -43t90 -36q43 -18 86 -37
q125 -55 190 -134q66 -79 66 -220t-131 -255t-349 -115q-174 -2 -362 62l-29 364h86l92 -280q129 -63 252 -61t194 71zM788 1407h-55l-203 221h-4l-202 -221h-56l217 383h86z" />
    <glyph glyph-name="scircumflex" unicode="&#x15d;" horiz-adv-x="831" 
d="M748 266q0 -123 -98 -210t-261 -87q-164 0 -276 43l-13 271h103l47 -181q80 -57 156 -57t135 46t59 118q0 98 -166 157q-166 60 -226 107q-61 47 -82 94q-22 47 -22 111q0 110 88 192t221 82q132 0 224 -34l63 26l13 -291h-101l-41 170q-67 51 -145 51t-125 -38t-47 -98
q0 -62 48 -97t141 -72t131 -56q116 -58 152 -137q22 -49 22 -110zM698 1044h-55l-203 222h-4l-203 -222h-55l217 383h86z" />
    <glyph glyph-name="Scedilla" unicode="&#x15e;" horiz-adv-x="1058" 
d="M768 -310q0 -95 -114.5 -162t-315.5 -81l-19 49q322 39 322 176q0 49 -45.5 79t-117.5 30t-138 -12v41l152 159h-5q-174 -2 -362 62l-29 364h86l92 -280q129 -63 252 -61t194 70.5t71 163.5t-55.5 156t-192.5 114q-136 53 -214.5 88t-143 110.5t-64.5 208.5
q0 134 137 265.5t535 55.5l106 29v-408h-86l-63 262q-113 49 -227 49t-173 -57t-59 -140t34.5 -121t47 -52t63.5 -39t98.5 -43t90.5 -36t127 -55t149.5 -116t65.5 -210q0 -132 -101.5 -237.5t-275.5 -134.5l-90 -94q125 0 196.5 -49t71.5 -144z" />
    <glyph glyph-name="scedilla" unicode="&#x15f;" horiz-adv-x="831" 
d="M655 -310q0 -95 -114.5 -162t-315.5 -81l-18 49q322 39 321 176q0 49 -45 79t-119 30t-137 -12v41l152 159q-156 4 -266 43l-13 271h103l47 -181q80 -57 156 -57t135 46t59 118q0 93 -139.5 146.5t-182 75.5t-108.5 71.5t-66 167.5q0 117 88.5 199.5t220.5 82.5t224 -34
l63 26l13 -291h-101l-41 170q-67 51 -145 51t-125 -37t-47 -99t48 -97t141 -72t131 -56t106 -70t68 -166t-72 -196t-199 -104l-90 -94q125 0 196.5 -49t71.5 -144z" />
    <glyph glyph-name="Scaron" unicode="&#x160;" horiz-adv-x="1058" 
d="M720 125q71 68 71 163t-61 162q-24 26 -74 54t-142 65q-92 36 -140 57q-124 55 -188 130q-65 76 -65 209q0 134 108 238q168 159 564 83l106 29v-408h-86l-63 262q-113 49 -227 49t-173 -56q-59 -58 -59 -142t35 -121t47 -51t63 -39t99 -43t90 -36q43 -18 86 -37
q125 -55 190 -134q66 -79 66 -220t-131 -255t-349 -115q-174 -2 -362 62l-29 364h86l92 -280q129 -63 252 -61t194 71zM788 1769l-217 -383h-86l-217 383h56l202 -221h4l203 221h55z" />
    <glyph glyph-name="scaron" unicode="&#x161;" horiz-adv-x="831" 
d="M748 266q0 -123 -98 -210t-261 -87q-164 0 -276 43l-13 271h103l47 -181q80 -57 156 -57t135 46t59 118q0 98 -166 157q-166 60 -226 107q-61 47 -82 94q-22 47 -22 111q0 110 88 192t221 82q132 0 224 -34l63 26l13 -291h-101l-41 170q-67 51 -145 51t-125 -38t-47 -98
q0 -62 48 -97t141 -72t131 -56q116 -58 152 -137q22 -49 22 -110zM676 1427l-217 -383h-86l-217 383h55l203 -221h4l203 221h55z" />
    <glyph glyph-name="Tcommaaccent" unicode="&#x162;" horiz-adv-x="1267" 
d="M768 -266q0 -98 -70 -171t-163 -108l-39 33q57 20 98 64t41 107q0 62 -39 90t-92 46q0 45 31 73t89 28t101 -50t43 -112zM1196 879h-98l-47 198q-13 51 -33 73q-41 46 -283 50h-4v-1085q0 -25 72 -33l123 -10l6 -72h-596l6 72l123 10q72 8 72 37v1081h-5q-194 0 -248 -17
t-75 -85l-57 -219h-103l35 401h1112v-401z" />
    <glyph glyph-name="tcommaaccent" unicode="&#x163;" horiz-adv-x="729" 
d="M408 -342q0 104 -132 139q0 45 31 73t89 28t101.5 -49.5t43.5 -112.5q0 -98 -70 -171t-164 -108l-39 33q57 20 98.5 64.5t41.5 103.5zM412 -31q-111 0 -177.5 71t-64.5 218l14 551l-166 10l2 62l267 223l65 -12l-2 -174h336l-14 -103h-320l-16 -512q-6 -201 176 -201
q78 0 170 52l10 -52q-55 -61 -132 -97t-148 -36z" />
    <glyph glyph-name="Tcaron" unicode="&#x164;" horiz-adv-x="1267" 
d="M1196 879h-98l-47 198q-13 51 -33 73q-41 46 -283 50h-4v-1085q0 -25 72 -33l123 -10l6 -72h-596l6 72l123 10q72 8 72 37v1081h-5q-194 0 -248 -17t-75 -85l-57 -219h-103l35 401h1112v-401zM893 1790l-217 -383h-86l-217 383h55l203 -221h4l203 221h55z" />
    <glyph glyph-name="tcaron" unicode="&#x165;" horiz-adv-x="757" 
d="M721 1276q0 -138 -234 -309l-43 26q55 39 98.5 97.5t43.5 100.5q0 70 -35.5 98t-93.5 57q0 43 30.5 71.5t84 28.5t101.5 -46t48 -124zM412 -31q-111 0 -177.5 71t-64.5 218l14 551l-166 10l2 62l267 223l65 -12l-2 -174h336l-14 -103h-320l-16 -512q-6 -201 176 -201
q78 0 170 52l10 -52q-55 -61 -132 -97t-148 -36z" />
    <glyph glyph-name="Umacron" unicode="&#x16a;" horiz-adv-x="1462" 
d="M1219 782v-364q-1 -207 -133 -328t-363 -121t-359 116t-128 343v737q0 15 -14 21t-58 12l-84 10l-6 72h518l-6 -72l-84 -10q-72 -8 -72 -37v-688q0 -389 367 -389q160 0 250 94t90 260v344q1 314 -19 358t-71 52l-99 16l-6 72h471l-6 -72l-96 -16q-35 -6 -50 -16
q-36 -24 -40 -172q-2 -70 -2 -222zM1032 1470h-516l6 84h504z" />
    <glyph glyph-name="umacron" unicode="&#x16b;" horiz-adv-x="1083" 
d="M741 115h-10q-176 -145 -328 -146q-105 0 -175 71t-70 222l6 539q0 31 -34 33q-21 2 -56 6l-49 6l-7 72h324l-16 -545q0 -145 46 -203t150 -59q104 0 219 86v606q0 16 -15 24t-62 13l-80 6l-9 72h334v-773q0 -39 23 -47l137 -41l-6 -51l-322 -37v146zM760 1108h-516l6 84
h504z" />
    <glyph glyph-name="Ubreve" unicode="&#x16c;" horiz-adv-x="1462" 
d="M1219 782v-364q-1 -207 -133 -328t-363 -121t-359 116t-128 343v737q0 15 -14 21t-58 12l-84 10l-6 72h518l-6 -72l-84 -10q-72 -8 -72 -37v-688q0 -389 367 -389q160 0 250 94t90 260v344q1 314 -19 358t-71 52l-99 16l-6 72h471l-6 -72l-96 -16q-35 -6 -50 -16
q-36 -24 -40 -172q-2 -70 -2 -222zM1053 1790q-45 -229 -109 -311q-27 -33 -72 -58t-100 -25q-105 1 -170 80t-110 314h45q80 -176 128 -229t97 -53t91 25q42 26 91 123q48 96 52 109t8 17l4 8h45z" />
    <glyph glyph-name="ubreve" unicode="&#x16d;" horiz-adv-x="1083" 
d="M741 115h-10q-176 -145 -328 -146q-105 0 -175 71t-70 222l6 539q0 31 -34 33q-21 2 -56 6l-49 6l-7 72h324l-16 -545q0 -145 46 -203t150 -59q104 0 219 86v606q0 16 -15 24t-62 13l-80 6l-9 72h334v-773q0 -39 23 -47l137 -41l-6 -51l-322 -37v146zM500 1034
q-54 0 -100 25t-72 57q-58 71 -109 311h45q80 -176 128 -229t98 -53t82 20t66 73t62 113q27 60 35 76h45q-45 -231 -110 -312t-170 -81z" />
    <glyph glyph-name="Uring" unicode="&#x16e;" horiz-adv-x="1462" 
d="M1219 782v-364q-1 -207 -133 -328t-363 -121t-359 116t-128 343v737q0 15 -14 21t-58 12l-84 10l-6 72h518l-6 -72l-84 -10q-72 -8 -72 -37v-688q0 -389 367 -389q160 0 250 94t90 260v344q1 314 -19 358t-71 52l-99 16l-6 72h471l-6 -72l-96 -16q-35 -6 -50 -16
q-36 -24 -40 -172q-2 -70 -2 -222zM885 1606q0 53 -33 91t-88 38t-88 -38t-33 -91q0 -54 33 -92t88 -38t88 39q33 38 33 91zM946 1606q0 -78 -50 -131t-132 -53t-132 52q-50 54 -50 132t50 131t132 53t132 -53t50 -131z" />
    <glyph glyph-name="uring" unicode="&#x16f;" horiz-adv-x="1083" 
d="M741 115h-10q-176 -145 -328 -146q-105 0 -175 71t-70 222l6 539q0 31 -34 33q-21 2 -56 6l-49 6l-7 72h324l-16 -545q0 -145 46 -203t150 -59q104 0 219 86v606q0 16 -15 24t-62 13l-80 6l-9 72h334v-773q0 -39 23 -47l137 -41l-6 -51l-322 -37v146zM621 1243
q0 53 -33 91t-88 38t-88 -38t-33 -91t33 -91t88 -38t88 38t33 91zM682 1243q0 -78 -50 -131t-132 -53t-132 53t-51 131q1 78 51 131t132 53t132 -53t50 -131z" />
    <glyph glyph-name="Uhungarumlaut" unicode="&#x170;" horiz-adv-x="1462" 
d="M1219 782v-364q-1 -207 -133 -328t-363 -121t-359 116t-128 343v737q0 15 -14 21t-58 12l-84 10l-6 72h518l-6 -72l-84 -10q-72 -8 -72 -37v-688q0 -389 367 -389q160 0 250 94t90 260v344q1 314 -19 358t-71 52l-99 16l-6 72h471l-6 -72l-96 -16q-35 -6 -50 -16
q-36 -24 -40 -172q-2 -70 -2 -222zM883 1790l-316 -383h-45l176 383h185zM1194 1790l-315 -383h-45l176 383h184z" />
    <glyph glyph-name="uhungarumlaut" unicode="&#x171;" horiz-adv-x="1083" 
d="M942 1427l-315 -383h-45l176 383h184zM631 1427l-316 -383h-45l176 383h185zM140 834q-24 0 -66 6l-49 6l-7 72h324l-16 -545q0 -145 46 -203.5t150 -58.5t219 86v606q0 16 -15 24.5t-62 12.5l-80 6l-9 72h334v-773q0 -39 23 -47l137 -41l-6 -51l-322 -37v146h-10
q-176 -145 -328 -146q-105 0 -175 71t-70 222l6 539q0 33 -24 33z" />
    <glyph glyph-name="Uogonek" unicode="&#x172;" horiz-adv-x="1462" 
d="M850 -206q0 -118 109 -118q56 0 98 41l20 -24q-6 -53 -58 -95t-130 -42t-131 50t-53 138q0 123 151 238q-61 -12 -131 -13q-233 0 -361 116t-128 343v737q0 14 -13.5 20.5t-58.5 12.5l-84 10l-6 72h518l-6 -72l-84 -10q-72 -8 -72 -37v-688q0 -389 367 -389q160 0 250 94
t90 260v344q1 314 -19 358t-71 52l-99 16l-6 72h471l-6 -72l-96 -16q-35 -6 -50.5 -16.5t-28.5 -65t-13 -328.5v-364q0 -254 -211 -391q-72 -47 -115 -113t-43 -120z" />
    <glyph glyph-name="uogonek" unicode="&#x173;" horiz-adv-x="1083" 
d="M140 834q-24 0 -66 6l-49 6l-7 72h324l-16 -545q0 -145 46 -203.5t150 -58.5t219 86v606q0 16 -15 24.5t-62 12.5l-80 6l-9 72h334v-773q0 -39 23 -47l137 -41l-6 -51q-106 -37 -171 -98.5t-65 -138.5q0 -92 111 -93q63 0 104 41l21 -24q-6 -53 -58 -95t-134 -42
t-135.5 43t-53.5 125q0 182 221 262l-162 -17v146h-10q-176 -145 -328 -146q-105 0 -175 71t-70 222l6 539q0 33 -24 33z" />
    <glyph glyph-name="Wcircumflex" unicode="&#x174;" horiz-adv-x="1894" 
d="M371 1151q0 -27 47 -172l229 -721h10l267 727l-52 152q-14 41 -65 49l-107 22l-6 72h551l-6 -72l-106 -16q-23 -4 -33 -14q-28 -28 33 -199l231 -723l10 2l164 524q99 325 71 372q-15 26 -71 38l-82 16l-6 72h471l-6 -72l-45 -14q-49 -16 -73 -40q-46 -46 -155 -372
l-256 -784h-122l-289 862h-6l-310 -862h-124l-385 1139q-14 41 -64 49l-113 22l-6 72h559l-6 -72l-102 -16q-47 -8 -47 -41zM1247 1407h-55l-203 221h-4l-203 -221h-55l217 383h86z" />
    <glyph glyph-name="wcircumflex" unicode="&#x175;" horiz-adv-x="1425" 
d="M1458 918l-6 -70l-43 -10q-53 -8 -77 -35t-54 -121l-227 -700h-99l-227 593l-238 -593h-98l-274 772q-17 43 -35 59t-60 23l-45 8l-6 74h434l-6 -72l-47 -8q-76 -10 -51 -78l195 -563l186 487l-25 70q-16 43 -35 57t-69 23l-47 12l-6 72h442l-6 -70l-47 -10
q-76 -6 -51 -78l202 -570l150 492q26 76 14 113t-76 45l-41 8l-6 70h379zM979 1044h-55l-203 222h-4l-203 -222h-55l217 383h86z" />
    <glyph glyph-name="Ycircumflex" unicode="&#x176;" horiz-adv-x="1232" 
d="M727 115q0 -25 72 -33l123 -10l6 -72h-598l6 72l125 10q72 8 71 37v413l-368 586q-43 59 -109 74l-65 16l-6 72h524l-6 -72l-82 -12q-91 -15 37 -217l205 -338h10l229 403q45 74 40 109t-58 45l-49 10l-7 72h414l-6 -72l-29 -8q-61 -18 -102 -49t-88 -102l-289 -488v-446
zM928 1407h-56l-202 221h-4l-203 -221h-55l217 383h86z" />
    <glyph glyph-name="ycircumflex" unicode="&#x177;" horiz-adv-x="940" 
d="M236 -535q-76 0 -110 31q-36 31 -36 80t26 80t74 31q78 0 121 -66q37 18 80 135l86 240v4l-364 754q-19 43 -37 56t-68 21l-43 13l-8 74h451l-7 -72l-51 -8q-76 -8 -45 -74l246 -543l168 475q25 72 15 102t-66 36l-56 14l-6 70h385l-6 -70l-53 -14q-45 -6 -69 -34
t-58 -118l-240 -631l-102 -313q-47 -143 -99 -208t-128 -65zM770 1044h-55l-203 222h-4l-203 -222h-55l217 383h86z" />
    <glyph glyph-name="Ydieresis" unicode="&#x178;" horiz-adv-x="1232" 
d="M573 1585q0 -53 -32.5 -91t-88 -38t-88 38t-32.5 91t32.5 91t88 38t88 -38t32.5 -91zM983 1585q0 -53 -32.5 -91t-88 -38t-88.5 38t-33 91t33 91t88.5 38t88 -38t32.5 -91zM727 115q0 -25 72 -33l123 -10l6 -72h-598l6 72l125 10q72 8 71 37v413l-368 586q-43 59 -109 74
l-65 16l-6 72h524l-6 -72l-82 -12q-69 -11 -33.5 -85.5t70.5 -131.5l205 -338h10l229 403q45 74 40 109t-58 45l-49 10l-7 72h414l-6 -72l-29 -8q-61 -18 -102 -49t-88 -102l-289 -488v-446z" />
    <glyph glyph-name="Zacute" unicode="&#x179;" horiz-adv-x="1169" 
d="M80 0v74l799 1116v10h-238q-298 0 -349 -55q-24 -25 -46 -88l-41 -170h-88v393h987v-76l-797 -1116l-2 -10l248 2q317 0 374 48q26 22 46 77l49 180h104l-43 -385h-1003zM897 1790l-346 -383h-49l186 383h209z" />
    <glyph glyph-name="zacute" unicode="&#x17a;" horiz-adv-x="950" 
d="M354 76q209 0 280 24t109 103l72 147h98l-84 -350h-768v68l582 774h-51q-210 0 -274 -23t-80 -104l-39 -148h-103v351h754v-68l-578 -774h82zM788 1427l-346 -383h-49l187 383h208z" />
    <glyph glyph-name="Zdotaccent" unicode="&#x17b;" horiz-adv-x="1169" 
d="M80 0v74l799 1116v10h-238q-298 0 -349 -55q-24 -25 -46 -88l-41 -170h-88v393h987v-76l-797 -1116l-2 -10l248 2q317 0 374 48q26 22 46 77l49 180h104l-43 -385h-1003zM715 1606q0 -54 -33 -92t-88 -38t-88 38t-33 92t33 91q33 38 88 38t88 -38t33 -91z" />
    <glyph glyph-name="zdotaccent" unicode="&#x17c;" horiz-adv-x="950" 
d="M354 76q209 0 280 24t109 103l72 147h98l-84 -350h-768v68l582 774h-51q-210 0 -274 -23t-80 -104l-39 -148h-103v351h754v-68l-578 -774h82zM596 1243q0 -53 -33 -91t-88 -38t-88 38t-33 91t33 91t88 38t88 -38t33 -91z" />
    <glyph glyph-name="Zcaron" unicode="&#x17d;" horiz-adv-x="1169" 
d="M80 0v74l799 1116v10h-238q-298 0 -349 -55q-24 -25 -46 -88l-41 -170h-88v393h987v-76l-797 -1116l-2 -10l248 2q317 0 374 48q26 22 46 77l49 180h104l-43 -385h-1003zM844 1769l-217 -383h-86l-217 383h55l203 -221h4l202 221h56z" />
    <glyph glyph-name="zcaron" unicode="&#x17e;" horiz-adv-x="950" 
d="M354 76q209 0 280 24t109 103l72 147h98l-84 -350h-768v68l582 774h-51q-210 0 -274 -23t-80 -104l-39 -148h-103v351h754v-68l-578 -774h82zM725 1427l-217 -383h-86l-217 383h55l203 -221h4l203 221h55z" />
    <glyph glyph-name="florin" unicode="&#x192;" 
d="M1061 1153q0 -55 -28.5 -89t-78.5 -34t-83 40t-40 108l-122 -23q-33 -57 -95 -360h242l8 -99h-262q-47 -238 -97 -390t-132 -240q-98 -98 -242 -99q-68 0 -114 36t-46 89t29 85t78 32t80.5 -41t38.5 -102l118 47q45 90 97 387l28 188l-178 8l6 60l195 47q61 262 168 375
q49 51 120.5 81.5t142.5 30.5t119 -41t48 -96z" />
    <glyph glyph-name="Aringacute" unicode="&#x1fa;" horiz-adv-x="1228" 
d="M735 1409q0 53 -33 91t-88 38t-88 -38q-32 -38 -32 -91t32 -91t88 -38q55 0 88 38t33 91zM748 547l-170 555h-13l-184 -555h367zM432 1420q0 66 50 120q50 53 132 53t132 -53t50 -145t-81 -144l364 -1108q14 -41 66 -49l110 -22l7 -72h-557l6 72l100 16q29 6 42 14t13 40
t-41 159l-51 160h-422l-49 -158q-56 -147 -40 -186q9 -23 44 -29l82 -16l6 -72h-428l6 72l58 14q47 10 75 39q53 56 164 373l267 743q-105 42 -105 179zM928 2015l-346 -383h-50l187 383h209z" />
    <glyph glyph-name="aringacute" unicode="&#x1fb;" horiz-adv-x="909" 
d="M400 98q72 0 167 86l11 305q-188 -47 -262 -105t-74 -129t43 -114t115 -43zM565 1243q0 53 -33 91t-88 38t-88 -38q-32 -38 -32 -91t32 -91t88 -38q55 0 88 38t33 91zM717 -33q-129 0 -137 150h-11q-133 -147 -243 -147t-183 69q-74 70 -73 170q0 125 121 205
q122 80 391 143v18q0 159 -50 219t-149 60q-49 0 -100 -16t-52 -31q0 -2 23 -32t24 -71q1 -40 -29 -69t-78 -29t-78 28t-30 68q1 76 135 162t255 86q182 0 244 -90t53 -332l-15 -348q-4 -80 47 -80q37 0 101 50l35 -46q-106 -137 -201 -137zM627 1243q0 -78 -50 -131
q-51 -53 -133 -53t-132 53t-50 131t50 131t132 53t132 -53t51 -131zM737 1901l-346 -383h-49l186 383h209z" />
    <glyph glyph-name="AEacute" unicode="&#x1fc;" horiz-adv-x="1644" 
d="M748 547v643h-21l-321 -643h342zM748 461h-386l-63 -127q-73 -146 -80 -185q-6 -39 3 -48t32 -13l80 -16l6 -72h-442l6 72l59 14q55 16 83 36q65 45 233 376l286 569q57 111 -55 131l-55 10l-6 72h1093v-381h-90l-49 199q-9 33 -19 47q-10 15 -29 29q-35 26 -384 26h-43
v-510h28q125 0 160 7t45 38l47 137h74l-43 -440h-72l-16 131q-4 31 -37 40t-162 9h-24v-532h22q374 0 430 34q30 18 45 68l52 189h102l-39 -371h-956l6 72l110 22q47 8 48 49v318zM1319 1790l-346 -383h-49l186 383h209z" />
    <glyph glyph-name="aeacute" unicode="&#x1fd;" horiz-adv-x="1452" 
d="M1182 604q8 123 -41 196q-49 72 -136 72t-159 -72t-90 -196h426zM395 98q117 0 217 119q-39 100 -39 211q1 30 5 59q-188 -47 -262 -104t-74 -129t43 -114t110 -42zM315 -31q-98 0 -172 70t-73 170q0 125 121 205q122 80 391 143l2 27q12 141 -45 206t-156 64
q-49 0 -100 -16t-52 -31q0 -2 23 -32t24 -71q1 -40 -29 -69t-78 -29t-78 28t-30 68q1 76 135 162t255 86q225 0 272 -137q139 135 326 135q145 0 232 -84t87 -223q0 -61 -12 -111l-608 9v-23q0 -176 90 -288t236 -112t241 109l41 -22q-56 -113 -154 -173t-214 -60t-206 54
t-145 146q-145 -201 -324 -201zM1079 1427l-346 -383h-49l186 383h209z" />
    <glyph glyph-name="Oslashacute" unicode="&#x1fe;" horiz-adv-x="1525" 
d="M752 59q198 1 320 149t122 416t-160 447q-537 -924 -538 -924q117 -88 256 -88zM268 653q0 -270 166 -450l539 925q-117 94 -262 95q-197 0 -320 -150t-123 -420zM1380 651q0 -281 -177 -481t-472 -201q-164 0 -299 66l-108 -187h-95l131 228q-131 86 -204 229
q-74 143 -74 322q0 281 177 481t472 201q166 0 305 -70l99 170h96l-123 -211q128 -88 200 -230t72 -317zM1034 1790l-346 -383h-49l186 383h209z" />
    <glyph glyph-name="oslashacute" unicode="&#x1ff;" horiz-adv-x="1060" 
d="M566 57q106 0 178 90q72 91 71 271q0 180 -90 309l-346 -600q81 -70 187 -70zM488 860q-110 0 -180 -88t-70 -272t92 -316l346 602q-78 74 -188 74zM983 459q0 -207 -132 -348t-329 -142q-109 0 -207 49l-161 -282h-82l184 319q-184 139 -184 404q0 207 132 348t328 141
q111 0 209 -49l189 326h82l-211 -365q86 -66 134 -171t48 -230zM823 1427l-346 -383h-49l186 383h209z" />
    <glyph glyph-name="Scommaaccent" unicode="&#x218;" horiz-adv-x="1058" 
d="M720 125q71 68 71 163t-61 162q-24 26 -74 54t-142 65q-92 36 -140 57q-124 55 -188 130q-65 76 -65 209q0 134 108 238q168 159 564 83l106 29v-408h-86l-63 262q-113 49 -227 49t-173 -56q-59 -58 -59 -142t35 -121t47 -51t63 -39t99 -43t90 -36q43 -18 86 -37
q125 -55 190 -134q66 -79 66 -220t-131 -255t-349 -115q-174 -2 -362 62l-29 364h86l92 -280q129 -63 252 -61t194 71zM547 -344q0 102 -131 139q0 45 30 73q31 28 89 28q57 0 101 -50t44 -112q0 -98 -70 -171t-164 -108l-38 33q57 20 98 64t41 104z" />
    <glyph glyph-name="scommaaccent" unicode="&#x219;" horiz-adv-x="831" 
d="M748 266q0 -123 -98 -210t-261 -87q-164 0 -276 43l-13 271h103l47 -181q80 -57 156 -57t135 46t59 118q0 98 -166 157q-166 60 -226 107q-61 47 -82 94q-22 47 -22 111q0 110 88 192t221 82q132 0 224 -34l63 26l13 -291h-101l-41 170q-67 51 -145 51t-125 -38t-47 -98
q0 -62 48 -97t141 -72t131 -56q116 -58 152 -137q22 -49 22 -110zM541 -266q0 -98 -70 -171t-164 -108l-39 33q56 20 98 64t42 107q0 62 -43 93t-89 43q0 45 31 73t89 28t102 -50t43 -112z" />
    <glyph glyph-name="uni021A" unicode="&#x21a;" horiz-adv-x="1267" 
d="M768 -266q0 -98 -69.5 -171t-163.5 -108l-39 33q57 20 98 64.5t41 90.5q0 77 -38.5 105.5t-92.5 46.5q0 45 31 73t89 28t101 -49.5t43 -112.5zM1196 879h-98l-47 198q-14 51 -46 85t-270 38h-4v-1085q0 -25 72 -33l123 -10l6 -72h-596l6 72l123 10q72 8 72 37v1081h-5
q-193 0 -248 -17.5t-75 -84.5l-57 -219h-103l35 401h1112v-401z" />
    <glyph glyph-name="uni021B" unicode="&#x21b;" horiz-adv-x="729" 
d="M541 -264q0 -98 -70 -171t-164 -108l-39 33q56 20 98 64t42 107q0 62 -43 93t-89 43q0 45 31 73t89 28t102 -50t43 -112zM412 -31q-111 0 -178 71t-64 218l14 551l-166 10l2 62l267 223l65 -12l-2 -174h336l-14 -103h-320l-16 -512q-6 -201 176 -201q78 0 170 52l10 -52
q-55 -61 -132 -97t-148 -36z" />
    <glyph glyph-name="dotlessj" unicode="&#x237;" horiz-adv-x="526" 
d="M12 -535q-66 0 -107.5 32t-41.5 83t33.5 81t74.5 30q94 0 146 -115q72 31 71 246v813q0 94 -15 122.5t-73 43.5l-49 12l2 55l303 80v-997q-14 -217 -122.5 -351.5t-221.5 -134.5z" />
    <glyph glyph-name="circumflex" unicode="&#x2c6;" horiz-adv-x="819" 
d="M670 1044h-56l-202 222h-4l-203 -222h-55l217 383h86z" />
    <glyph glyph-name="caron" unicode="&#x2c7;" horiz-adv-x="819" 
d="M670 1427l-217 -383h-86l-217 383h55l203 -221h4l202 221h56z" />
    <glyph glyph-name="breve" unicode="&#x2d8;" horiz-adv-x="819" 
d="M409.5 1034q-55.5 0 -100.5 24.5t-89.5 80t-90.5 288.5h45q80 -176 128 -229t98 -53t82 20.5t69 78.5t62 112q24 55 32 71h45q-45 -232 -90 -288t-90 -80.5t-100.5 -24.5z" />
    <glyph glyph-name="dotaccent" unicode="&#x2d9;" horiz-adv-x="819" 
d="M530 1243q0 -53 -32.5 -91t-88 -38t-88 38t-32.5 91t32.5 91t88 38t88 -38t32.5 -91z" />
    <glyph glyph-name="ring" unicode="&#x2da;" horiz-adv-x="819" 
d="M530 1243q0 53 -32.5 91t-88 38t-88 -38t-32.5 -91t32.5 -91t88 -38t88 38t32.5 91zM592 1243q0 -78 -50 -131t-132 -53t-132.5 53t-50.5 131t50.5 131t132.5 53t132 -53t50 -131z" />
    <glyph glyph-name="ogonek" unicode="&#x2db;" horiz-adv-x="819" 
d="M399 -200q0 -124 110 -124q56 0 97 41l21 -24q-6 -53 -58.5 -95t-130.5 -42t-131 50t-53 144t90 178t213 142h47q-92 -59 -148.5 -134.5t-56.5 -135.5z" />
    <glyph glyph-name="tilde" unicode="&#x2dc;" horiz-adv-x="819" 
d="M545 1065q-74 0 -177 75q-102 74 -134 74t-54 -28t-53 -105h-53q41 252 200 252q56 0 118 -38q62 -39 112 -75t82 -36t54 28t52 105h53q-41 -252 -200 -252z" />
    <glyph glyph-name="hungarumlaut" unicode="&#x2dd;" horiz-adv-x="819" 
d="M520 1427l-315 -383h-45l176 383h184zM831 1427l-315 -383h-45l176 383h184z" />
    <glyph glyph-name="Wgrave" unicode="&#x1e80;" horiz-adv-x="1894" 
d="M371 1151q0 -27 47 -172l229 -721h10l267 727l-52 152q-14 41 -65 49l-107 22l-6 72h551l-6 -72l-106 -16q-23 -4 -33 -14q-28 -28 33 -199l231 -723l10 2l164 524q99 325 71 372q-15 26 -71 38l-82 16l-6 72h471l-6 -72l-45 -14q-49 -16 -73 -40q-46 -46 -155 -372
l-256 -784h-122l-289 862h-6l-310 -862h-124l-385 1139q-14 41 -64 49l-113 22l-6 72h559l-6 -72l-102 -16q-47 -8 -47 -41zM1112 1407h-45l-346 383h201z" />
    <glyph glyph-name="wgrave" unicode="&#x1e81;" horiz-adv-x="1425" 
d="M1458 918l-6 -70l-43 -10q-53 -8 -77 -35t-54 -121l-227 -700h-99l-227 593l-238 -593h-98l-274 772q-17 43 -35 59t-60 23l-45 8l-6 74h434l-6 -72l-47 -8q-76 -10 -51 -78l195 -563l186 487l-25 70q-16 43 -35 57t-69 23l-47 12l-6 72h442l-6 -70l-47 -10
q-76 -6 -51 -78l202 -570l150 492q26 76 14 113t-76 45l-41 8l-6 70h379zM829 1044h-45l-346 383h201z" />
    <glyph glyph-name="Wacute" unicode="&#x1e82;" horiz-adv-x="1894" 
d="M371 1151q0 -27 47 -172l229 -721h10l267 727l-52 152q-14 41 -65 49l-107 22l-6 72h551l-6 -72l-106 -16q-23 -4 -33 -14q-28 -28 33 -199l231 -723l10 2l164 524q99 325 71 372q-15 26 -71 38l-82 16l-6 72h471l-6 -72l-45 -14q-49 -16 -73 -40q-46 -46 -155 -372
l-256 -784h-122l-289 862h-6l-310 -862h-124l-385 1139q-14 41 -64 49l-113 22l-6 72h559l-6 -72l-102 -16q-47 -8 -47 -41zM1280 1790l-346 -383h-49l186 383h209z" />
    <glyph glyph-name="wacute" unicode="&#x1e83;" horiz-adv-x="1425" 
d="M1458 918l-6 -70l-43 -10q-53 -8 -77 -35t-54 -121l-227 -700h-99l-227 593l-238 -593h-98l-274 772q-17 43 -35 59t-60 23l-45 8l-6 74h434l-6 -72l-47 -8q-76 -10 -51 -78l195 -563l186 487l-25 70q-16 43 -35 57t-69 23l-47 12l-6 72h442l-6 -70l-47 -10
q-76 -6 -51 -78l202 -570l150 492q26 76 14 113t-76 45l-41 8l-6 70h379zM1057 1427l-346 -383h-49l186 383h209z" />
    <glyph glyph-name="Wdieresis" unicode="&#x1e84;" horiz-adv-x="1894" 
d="M907 1605.5q0 -53.5 -32.5 -91t-88 -37.5t-88 37.5t-32.5 91t32.5 91.5t88 38t88 -38t32.5 -91.5zM1317 1605.5q0 -53.5 -33 -91t-88 -37.5t-88 37.5t-33 91t33 91.5t88 38t88 -38t33 -91.5zM371 1151q0 -27 47 -172l229 -721h10l267 727l-52 152q-14 41 -65 49l-107 22
l-6 72h551l-6 -72l-106 -16q-23 -4 -41.5 -23.5t41.5 -189.5l231 -723l10 2l164 524q57 186 71.5 266t-1 106t-70.5 38l-82 16l-6 72h471l-6 -72l-45 -14q-49 -16 -84 -52t-144 -360l-256 -784h-122l-289 862h-6l-310 -862h-124l-385 1139q-14 41 -64 49l-113 22l-6 72h559
l-6 -72l-102 -16q-47 -8 -47 -41z" />
    <glyph glyph-name="wdieresis" unicode="&#x1e85;" horiz-adv-x="1425" 
d="M629 1243q0 -53 -33 -91t-88 -38t-88 38t-33 91t33 91t88 38t88 -38t33 -91zM1038 1243q0 -53 -32.5 -91t-88 -38t-88 38t-32.5 91t32.5 91t88 38t88 -38t32.5 -91zM1458 918l-6 -70l-43 -10q-53 -8 -76.5 -35t-54.5 -121l-227 -700h-99l-227 593l-238 -593h-98l-274 772
q-16 43 -35 59t-60 23l-45 8l-6 74h434l-6 -72l-47 -8q-76 -10 -51 -78l195 -563l186 487l-25 70q-16 43 -35.5 57t-68.5 23l-47 12l-6 72h442l-6 -70l-47 -10q-76 -6 -51 -78l202 -570l150 492q25 76 13.5 112.5t-75.5 45.5l-41 8l-6 70h379z" />
    <glyph glyph-name="thinspace" unicode="&#x2009;" horiz-adv-x="155" 
 />
    <glyph glyph-name="endash" unicode="&#x2013;" horiz-adv-x="962" 
d="M911 426h-856l6 109h844z" />
    <glyph glyph-name="emdash" unicode="&#x2014;" horiz-adv-x="1925" 
d="M1874 426h-1819l6 109h1807z" />
    <glyph glyph-name="quoteleft" unicode="&#x2018;" horiz-adv-x="475" 
d="M399 891q0 -53 -38.5 -89t-106.5 -36t-127 56.5t-59 135.5q0 117 80.5 213.5t211.5 194.5l54 -33q-70 -51 -123 -122.5t-53 -143.5t50 -109.5t80.5 -51t30.5 -15.5z" />
    <glyph glyph-name="quoteright" unicode="&#x2019;" horiz-adv-x="475" 
d="M416 1157q0 -117 -81 -213t-212 -194l-53 32q70 51 123 123t53 144t-49 108q-49 37 -81 51t-32 17q0 53 39 89t107 36t126 -56q60 -56 60 -137z" />
    <glyph glyph-name="quotesinglbase" unicode="&#x201a;" horiz-adv-x="475" 
d="M416 47q0 -117 -81 -213t-212 -194l-53 32q70 51 123 123t53 144t-49 108q-49 37 -81 51t-32 17q0 53 39 89t107 36t126 -56q60 -56 60 -137z" />
    <glyph glyph-name="quotedblleft" unicode="&#x201c;" horiz-adv-x="888" 
d="M842 891q0 -53 -39 -89t-107 -36t-127 56t-59 136q0 117 81 213t212 195l53 -33q-70 -51 -123 -123t-53 -144t57 -114q36 -26 71 -43q34 -16 34 -18zM399 891q0 -53 -39 -89q-38 -36 -106 -36t-127 56t-59 136q0 117 80 213q81 96 212 195l54 -33q-70 -51 -123 -123
t-53 -144t57 -114q36 -26 70 -43q34 -16 34 -18z" />
    <glyph glyph-name="quotedblright" unicode="&#x201d;" horiz-adv-x="888" 
d="M416 1157q0 -117 -81 -213t-212 -194l-53 32q70 51 123 123t53 153t-64.5 115.5t-81 42t-16.5 9.5q0 53 39 89t107 36t127 -56.5t59 -136.5zM860 1157q0 -117 -81 -213t-212 -194l-53 32q70 51 123 123t53 153t-64.5 115.5t-81 42t-16.5 9.5q0 53 39 89t107 36t127 -56.5
t59 -136.5z" />
    <glyph glyph-name="quotedblbase" unicode="&#x201e;" horiz-adv-x="888" 
d="M416 47q0 -117 -81 -213t-212 -194l-53 32q70 51 123 123t53 144t-49 108q-49 37 -81 51t-32 17q0 53 39 89t107 36t126 -56q60 -56 60 -137zM860 47q0 -117 -81 -213t-212 -194l-53 32q70 51 123 123t53 144t-49 109t-80 50q-32 14 -33 17q0 53 39 89t107 36t127 -56
t59 -137z" />
    <glyph glyph-name="dagger" unicode="&#x2020;" horiz-adv-x="962" 
d="M524 801v-1120h-82v1120h-366l-8 84h374v395h82v-395h377l-8 -84h-369z" />
    <glyph glyph-name="daggerdbl" unicode="&#x2021;" horiz-adv-x="962" 
d="M524 43v-362h-82v362h-374l8 84h366v704h-366l-8 84h374v365h82v-365h377l-8 -84h-369v-704h369l8 -84h-377z" />
    <glyph glyph-name="bullet" unicode="&#x2022;" horiz-adv-x="931" 
d="M860 475q0 -45 -41 -146t-73 -133t-134 -74t-146 -42t-146 42t-133 74q-30 32 -72 134q-43 102 -43 146t43 146t73 132q32 30 134 72t146 42t145 -42t132 -72t73 -132t42 -147z" />
    <glyph glyph-name="ellipsis" unicode="&#x2026;" horiz-adv-x="1425" 
d="M1327 106q0 -55 -39 -96t-97 -41t-98 41t-40 96q0 54 40 94t99 40t97 -40t38 -94zM852 106q0 -55 -39 -96t-97 -41t-99 41q-40 41 -39 96q0 55 39 95q39 39 99 39t98 -40t38 -94zM377 106q0 -55 -39 -96t-97 -41t-99 41q-40 41 -40 96q0 54 40 94t100 40t97 -40
q38 -40 38 -94z" />
    <glyph glyph-name="perthousand" unicode="&#x2030;" horiz-adv-x="2306" 
d="M1393 288q0 103 -65.5 176t-174.5 73t-174.5 -73t-65.5 -176t65.5 -175t174.5 -72t174.5 72t65.5 175zM2171 288q0 103 -65.5 176t-174 73t-174 -73t-65.5 -176t65.5 -175t174 -72t174 72t65.5 175zM614 990q0 103 -65.5 175t-174 72t-174 -71.5t-65.5 -175.5
t65.5 -176.5t174 -72.5t174 73t65.5 176zM1493 290q0 -142 -93 -241.5t-247 -99.5t-247 97.5t-93 241.5t93 242.5t246 98.5t247 -98.5t94 -240.5zM2271 290q0 -142 -93 -241.5t-246.5 -99.5t-247 97.5t-93.5 241.5t93.5 242.5t245.5 98.5t246.5 -98.5t94.5 -240.5z
M1339 1309l-1038 -1340h-111l1039 1340h110zM715 989q0 -143 -93.5 -241.5t-245.5 -98.5t-246.5 98.5t-94.5 240.5t93 241.5t246.5 99.5t247 -98.5t93.5 -241.5z" />
    <glyph glyph-name="guilsinglleft" unicode="&#x2039;" horiz-adv-x="634" 
d="M543 135l-21 -41l-444 312v94l444 311l21 -41l-293 -317z" />
    <glyph glyph-name="guilsinglright" unicode="&#x203a;" horiz-adv-x="634" 
d="M563 406l-444 -312l-21 41l293 318l-293 317l21 41l444 -311v-94z" />
    <glyph glyph-name="fraction" unicode="&#x2044;" horiz-adv-x="1075" 
d="M1075 1307l-956 -1340h-119l958 1340h117z" />
    <glyph glyph-name="zerosuperior" unicode="&#x2070;" horiz-adv-x="675" 
d="M346 592q66 0 97.5 72.5t31.5 264.5t-33.5 279.5t-103.5 87.5t-102.5 -73.5t-32.5 -257.5q0 -373 143 -373zM340 543q-135 0 -219 99.5t-84 289.5t86 302t219 112t215 -101t82 -289t-82 -300.5t-217 -112.5z" />
    <glyph glyph-name="foursuperior" unicode="&#x2074;" horiz-adv-x="675" 
d="M377 848v344h-6l-273 -344h279zM377 559v221h-348l-9 56l400 507h102v-495h137l-8 -68h-129v-221h-145z" />
    <glyph glyph-name="fivesuperior" unicode="&#x2075;" horiz-adv-x="675" 
d="M274 539q-120 0 -176.5 32.5t-56.5 87.5q0 33 21.5 52.5t62.5 19.5t71.5 -33.5t36.5 -85.5q33 -16 87 -16t99.5 41t45.5 111q0 168 -381 217l94 368h416l-4 -129h-373l-33 -129q406 -51 406 -268q0 -106 -98 -187t-218 -81z" />
    <glyph glyph-name="sixsuperior" unicode="&#x2076;" horiz-adv-x="675" 
d="M352 590q64 0 99.5 51t35.5 136t-43.5 138.5t-113.5 53.5t-117 -43q-8 -28 -8 -106t41.5 -154t105.5 -76zM335 541q-126 0 -209 87t-83 222q0 199 155.5 338t389.5 166l14 -45q-162 -33 -259 -122t-132 -208l4 -4q94 68 192.5 67.5t165 -66.5t66.5 -176t-89 -184.5
t-215 -74.5z" />
    <glyph glyph-name="sevensuperior" unicode="&#x2077;" horiz-adv-x="675" 
d="M530 1214h-151q-147 0 -182 -6t-52 -30l-41 -74h-51l31 229h563l6 -51l-383 -733h-118l378 661v4z" />
    <glyph glyph-name="eightsuperior" unicode="&#x2078;" horiz-adv-x="675" 
d="M350 590q72 0 114 36t42 81t-13.5 63t-20.5 29.5t-26.5 24t-27.5 19.5t-35 19t-46 24t-63 25q-92 -66 -92 -159q-2 -70 47 -116t121 -46zM469 1132q0 76 -41.5 123.5t-103.5 47.5t-100 -35t-38 -75q0 -71 49 -109.5t99 -59.5q49 -21 57 -25q78 57 78 133zM337 541
q-130 0 -212 54t-82 144q0 63 48 114.5t132 78.5v2q-78 37 -121 80.5t-43 121.5t76 147t201 69t199.5 -54.5t74.5 -142.5q0 -121 -164 -174v-2q90 -41 139.5 -89t49.5 -133t-84 -150.5t-214 -65.5z" />
    <glyph glyph-name="ninesuperior" unicode="&#x2079;" horiz-adv-x="675" 
d="M340 920q64 0 123 45q8 25 8 105t-42.5 155t-106.5 75t-99 -51t-35 -135t44 -139t108 -55zM37 1090q0 110 88 186t214 76t209 -88t83 -222q0 -201 -155 -339.5t-388 -167.5l-14 47q160 33 258 122t131 209l-2 2q-91 -65 -191 -65t-166.5 65t-66.5 175z" />
    <glyph glyph-name="plussuperior" unicode="&#x207a;" horiz-adv-x="675" 
d="M381 913v-227h-66v227h-223l2 66h221v225h66v-225h219l4 -66h-223z" />
    <glyph glyph-name="minussuperior" unicode="&#x207b;" horiz-adv-x="675" 
d="M614 911h-512l2 68h506z" />
    <glyph glyph-name="zeroinferior" unicode="&#x2080;" horiz-adv-x="675" 
d="M475 78q1 366 -137 366q-70 0 -102 -74t-33 -257q0 -373 143 -373q66 0 98 73t31 265zM342 494q133 0 215 -102t82 -288q0 -188 -82 -300t-217 -113q-135 0 -219 99q-84 100 -84 290t86 302t219 112z" />
    <glyph glyph-name="oneinferior" unicode="&#x2081;" horiz-adv-x="675" 
d="M432 -190q0 -23 31 -29l108 -17l4 -57h-464l4 57l131 17q31 6 30 29v561l-174 12l4 41l326 78v-692z" />
    <glyph glyph-name="twoinferior" unicode="&#x2082;" horiz-adv-x="675" 
d="M422 246q0 66 -42 102t-125 37q-83 0 -181 -86l-21 29q125 172 295 172q110 0 178 -60t68 -139q0 -80 -35 -125t-61 -77t-95 -87q-67 -55 -137 -109t-100 -79v-8h96q180 0 225 7t64 42l29 51h59l-47 -209h-545l-8 72q31 29 142 128t165 167q54 69 65 105t11 67z" />
    <glyph glyph-name="threeinferior" unicode="&#x2083;" horiz-adv-x="675" 
d="M242 -324q-90 0 -145 30q-54 30 -54 69t23 61q24 22 62 21q38 0 68 -36t35 -83q6 -2 39 -2q72 0 122 48t50 120t-47 110t-107 37q-60 0 -110 -24l-22 39q62 35 78 45t38 23q22 14 35 24q12 10 29 23t39 43t22 69t-38 67q-39 28 -113 29q-74 0 -174 -76l-27 33
q137 154 305 154q90 0 156 -44t66 -117t-83 -128q-57 -40 -170 -98v-4q99 39 193 -11t94 -156q0 -105 -108 -186q-109 -80 -256 -80z" />
    <glyph glyph-name="fourinferior" unicode="&#x2084;" horiz-adv-x="675" 
d="M377 -4v344h-6l-273 -344h279zM377 -293v221h-348l-9 56l400 508h102v-496h137l-8 -68h-129v-221h-145z" />
    <glyph glyph-name="fiveinferior" unicode="&#x2085;" horiz-adv-x="675" 
d="M41 -193q0 72 84 72q41 0 72 -34t36 -85q33 -16 87 -16t99 41q46 41 46 111q0 168 -381 217l94 368h416l-4 -129h-373l-33 -129q406 -51 406 -268q0 -106 -98 -187t-218 -81t-177 32q-56 33 -56 88z" />
    <glyph glyph-name="sixinferior" unicode="&#x2086;" horiz-adv-x="675" 
d="M205 -32q-1 -78 41 -154t106 -76t101 51q35 51 35 136t-45 138q-43 53 -113 53t-117 -42q-8 -28 -8 -106zM639 -52q0 -110 -89 -184t-215 -75q-126 0 -209 87t-83 222q0 199 156 338t389 166l14 -45q-162 -33 -259 -122t-132 -208l4 -4q95 67 193 67t164 -66t67 -176z
" />
    <glyph glyph-name="seveninferior" unicode="&#x2087;" horiz-adv-x="675" 
d="M530 362h-151q-147 0 -182 -6t-52 -30l-41 -74h-51l31 229h563l6 -51l-383 -733h-118l378 661v4z" />
    <glyph glyph-name="eightinferior" unicode="&#x2088;" horiz-adv-x="675" 
d="M350 -262q72 0 114 36t42 81t-13.5 63.5t-20.5 29.5t-26.5 23.5t-27.5 19.5t-35 19.5t-49 25t-60 23.5q-92 -66 -92 -159q-2 -70 47 -116t121 -46zM469 280q0 76 -41.5 123.5t-103.5 47.5t-100 -35t-38 -75q0 -71 49 -109.5t95 -56.5q45 -19 50 -22.5t11 -5.5
q78 57 78 133zM337 -311q-130 0 -212 54t-82 144q0 63 48 114.5t132 78.5v2q-78 37 -121 80t-43 122t76 147.5t201 68.5t199.5 -54.5t74.5 -142.5q0 -121 -164 -174v-2q90 -41 139.5 -89t49.5 -133t-84 -150.5t-214 -65.5z" />
    <glyph glyph-name="nineinferior" unicode="&#x2089;" horiz-adv-x="675" 
d="M340 68q64 0 123 45q8 25 8 105t-42 155q-43 76 -107 76q-64 1 -99 -51t-35 -136t44 -139t108 -55zM339 500q126 0 209 -88t83 -222q0 -202 -155 -340t-388 -167l-14 47q160 33 258 122t131 209l-2 2q-91 -65 -191 -65t-167 66t-67 174q0 110 89 186q88 76 214 76z" />
    <glyph glyph-name="Euro" unicode="&#x20ac;" horiz-adv-x="1073" 
d="M655 -31q-178 0 -304 128t-163 339h-137l6 84h119q-2 27 -2 68t4 98h-127l6 84h131q44 230 190 374t345 144q127 0 219 -50t92 -120q0 -45 -28 -74q-28 -28 -76 -28q-49 0 -83 44t-46 105q-51 33 -115 33q-135 0 -221 -115t-109 -313h408l6 -84h-420v-45q0 -66 6 -121
h408l6 -84h-399q37 -162 128 -247t231 -85t267 142l41 -23q-129 -254 -383 -254z" />
    <glyph glyph-name="trademark" unicode="&#x2122;" horiz-adv-x="1878" 
d="M754 1280v-279h-62l-12 39q-37 115 -72 148t-137 33h-2v-607q0 -23 25 -28l90 -13l2 -55h-371l4 55l90 13q27 6 27 28v607h-2q-86 0 -126 -36t-77 -145l-14 -39h-56l15 279h678zM1833 518h-334l2 55l62 15q16 4 21 27.5t3 99.5l-8 475h-20l-220 -647h-102l-174 653h-21
l-12 -399q-4 -137 -1 -171t24 -42l65 -11l2 -55h-270l4 55l61 11q14 2 29 25.5t19 187.5l12 385q0 27 -25 30l-71 13l-5 55h300l139 -569h20l185 569h303l-4 -55l-70 -13q-29 -6 -29 -30l8 -467q2 -121 41 -127l62 -15z" />
    <glyph glyph-name="minus" unicode="&#x2212;" horiz-adv-x="995" 
d="M913 426h-829l6 109h817z" />
    <glyph glyph-name="uni2215" unicode="&#x2215;" horiz-adv-x="1075" 
d="M1075 1307l-956 -1340h-119l958 1340h117z" />
    <glyph glyph-name="approxequal" unicode="&#x2248;" horiz-adv-x="983" 
d="M316 319q-32 0 -50 -4t-44.5 -31.5t-45.5 -82.5h-94q20 109 81 168t131 59t199.5 -67.5t167.5 -67.5t56 4t44.5 31.5t45.5 83.5h94q-20 -109 -80.5 -168.5t-138.5 -59.5t-206 67.5t-160 67.5zM316 666q-32 0 -50 -4.5t-44.5 -32t-45.5 -82.5h-94q20 109 81 168t131 59
t199.5 -67.5t167.5 -67.5t56 4t44.5 31.5t45.5 83.5h94q-20 -109 -80.5 -168.5t-138.5 -59.5t-206 68t-160 68z" />
    <glyph glyph-name="notequal" unicode="&#x2260;" horiz-adv-x="983" 
d="M291 -47l84 295h-291l6 108h316l69 248h-385l-6 109h422l78 274h106l-78 -274h287l-6 -109h-311l-70 -248h381l6 -108h-418l-84 -295h-106z" />
    <glyph glyph-name="lessequal" unicode="&#x2264;" horiz-adv-x="983" 
d="M918 12h-852l6 109h839zM262 553l635 -264l-23 -99l-808 340v66l808 340l23 -98l-635 -265v-20z" />
    <glyph glyph-name="greaterequal" unicode="&#x2265;" horiz-adv-x="983" 
d="M918 12h-852l6 109h839zM721 553v20l-635 265l23 98l809 -340v-66l-809 -340l-23 99z" />
    <glyph glyph-name="pcircle" unicode="&#x24df;" horiz-adv-x="1503" 
d="M946 783q0 73 -47 112t-129 39h-63v-305q41 -8 97 -8t99 44.5t43 117.5zM1069 798q0 -100 -82 -172.5t-192 -72.5q-39 0 -88 6v-172q0 -25 26 -27l80 -12l2 -63h-319l2 63l61 12q27 6 27 27v514q0 20 -27 27l-61 14l-2 62h295q139 0 208.5 -53t69.5 -153zM1343 639
q0 246 -173 424t-418.5 178t-418.5 -178t-173 -424t173 -423t418.5 -177t418.5 177t173 423zM1421 639q0 -279 -195.5 -474.5t-474 -195.5t-474 195.5t-195.5 474.5t195.5 475.5t474 196.5t474 -196.5t195.5 -475.5z" />
    <glyph glyph-name="commaaccent" unicode="&#xf6c3;" horiz-adv-x="819" 
d="M408 -344q0 104 -132 139q0 45 31 73t89 28t101.5 -49.5t43.5 -112.5q0 -98 -70 -171t-164 -108l-39 33q57 20 98.5 64.5t41.5 103.5z" />
    <glyph glyph-name="J.alt" horiz-adv-x="970" 
d="M788 428q0 -236 -116.5 -348.5t-299.5 -112.5t-276.5 66.5t-93.5 163.5q0 59 34 95t80 36t77.5 -26t31.5 -76t-39 -93q18 -31 67.5 -57.5t113.5 -26.5q117 0 172 79t55 245v764q0 41 -47 49l-150 22l-6 72h578l-6 -72l-127 -22q-47 -8 -48 -49v-709z" />
    <glyph glyph-name="Jcircumflex.alt" horiz-adv-x="970" 
d="M788 428q0 -236 -116 -348t-300 -113q-183 0 -277 67q-93 67 -93 163q0 59 34 95t80 36t78 -26t32 -76t-40 -93q18 -31 68 -57t113 -27q117 0 172 79t55 245v764q0 41 -47 49l-150 22l-6 72h578l-6 -72l-127 -22q-47 -8 -48 -49v-709zM944 1407h-55l-203 221h-4
l-203 -221h-55l217 383h86z" />
    <glyph glyph-name="dot" horiz-adv-x="475" 
d="M377 467q0 -55 -39 -96t-97 -41t-99 41q-40 41 -40 96t40 94t100 39t97 -39q38 -39 38 -94z" />
    <glyph glyph-name="a.smallcap" horiz-adv-x="980" 
d="M295 389h280l-126 408h-21zM977 0h-432l4 72l63 10q25 4 42.5 11.5t-25.5 133.5l-31 95h-324l-26 -82q-29 -88 -25 -119t43 -39l53 -10l5 -72h-334l4 72l39 8q55 10 82.5 53t93.5 232l176 503v41l184 56l281 -844q8 -24 22.5 -27.5t34.5 -7.5l66 -14z" />
    <glyph glyph-name="b.smallcap" horiz-adv-x="999" 
d="M686 692q0 78 -55.5 127t-161.5 49h-80v-356l105 2q94 2 143 51t49 127zM520 70q205 0 205 182q0 94 -70.5 144t-187.5 50h-78v-358l107 -18h24zM915 252q0 -252 -405 -252h-412l4 72l74 16q35 8 35 35v692q0 27 -35 35l-74 16l-4 72h426q356 0 357 -209
q0 -92 -71 -155.5t-177 -79.5v-9q135 -14 208.5 -76.5t73.5 -156.5z" />
    <glyph glyph-name="c.smallcap" horiz-adv-x="1089" 
d="M606 -23q-233 0 -380.5 126t-147.5 353.5t150.5 364.5t381.5 137q111 0 219 -32l132 28v-333h-91l-53 208q-92 49 -203 50q-154 0 -247 -109.5t-93 -299.5t93.5 -302.5t259.5 -112.5q100 0 172 39l71 215h97l-31 -309l-90 18q-104 -41 -240 -41z" />
    <glyph glyph-name="d.smallcap" horiz-adv-x="1112" 
d="M842 462q0 182 -103.5 290t-302.5 108h-47v-758l107 -22q164 0 255 100t91 282zM1034 483q0 -205 -148.5 -344t-414.5 -139h-373l4 72l74 16q35 8 35 35v692q0 27 -35 35l-74 16l-4 72l375 4q254 2 407.5 -126t153.5 -333z" />
    <glyph glyph-name="e.smallcap" horiz-adv-x="1038" 
d="M211 123v692q0 27 -35 35l-74 16l-4 72h807v-305h-92l-33 131q-16 70 -65 85t-242 15h-84v-358h60q74 0 102.5 8t36.5 35l35 102h71l-32 -348h-70l-14 96q-4 27 -28 35t-108 8h-53v-368h82q141 0 199.5 7t84 25.5t44.5 67.5l32 121h99l-29 -295h-803l4 72l74 16
q35 8 35 35z" />
    <glyph glyph-name="f.smallcap" horiz-adv-x="983" 
d="M885 633h-90l-33 131q-20 70 -68.5 85t-240.5 15h-64v-370h68q76 0 104.5 7t38.5 36l35 100h72l-35 -348h-68l-14 96q-4 27 -28.5 36t-106.5 9h-66v-307q0 -29 33 -35l106 -16l4 -72h-434l4 72l74 16q35 8 35 35v692q0 27 -35 35l-74 16l-4 72h787v-305z" />
    <glyph glyph-name="g.smallcap" horiz-adv-x="1134" 
d="M944 297v-180l92 -11l4 -47q-201 -82 -436 -82t-380.5 130.5t-145.5 354.5t151.5 360t380.5 136q109 0 213 -32l129 28v-329h-98l-51 204q-82 49 -197 50q-150 0 -241 -111.5t-91 -299.5t89.5 -300.5t246.5 -112.5q92 0 162 33v209q0 31 -37 37l-84 16l-4 72h414l-4 -72
l-78 -16q-35 -6 -35 -37z" />
    <glyph glyph-name="h.smallcap" horiz-adv-x="1200" 
d="M813 123v321h-426v-321q0 -27 33 -35l76 -16l4 -72h-404l4 72l74 16q35 8 35 35v692q0 27 -35 35l-74 16l-4 72h404l-4 -72l-76 -16q-33 -8 -33 -35v-299h426v299q0 27 -35 35l-73 16l-7 72h406l-4 -72l-76 -16q-35 -8 -35 -35v-692q0 -27 35 -35l76 -16l4 -72h-406l7 72
l73 16q35 8 35 35z" />
    <glyph glyph-name="i.smallcap" horiz-adv-x="634" 
d="M229 815q0 29 -34 35l-91 16l-4 72h435l-5 -72l-88 -16q-35 -6 -34 -35v-692q0 -29 34 -35l88 -16l5 -72h-435l4 72l91 16q35 6 34 35v692z" />
    <glyph glyph-name="j.smallcap" horiz-adv-x="671" 
d="M489 815v-403q0 -434 -309 -435q-72 0 -121 35t-49 78t24 65q24 21 64 21t76 -32q35 -32 47 -101h2q49 27 69 89q19 62 19 216v467q0 29 -35 35l-104 16l-4 72h442l-4 -72l-82 -16q-35 -8 -35 -35z" />
    <glyph glyph-name="j.smallcap.alt" horiz-adv-x="774" 
d="M637 815v-489q0 -178 -89.5 -264.5t-233.5 -86.5t-215.5 55.5t-71.5 131.5q0 49 28.5 79.5t67.5 30.5t65.5 -22.5t26.5 -66.5t-33 -77q43 -55 123 -55q156 0 156 244v520q0 29 -35 35l-107 16l-4 72h449l-4 -72l-88 -16q-35 -6 -35 -35z" />
    <glyph glyph-name="k.smallcap" horiz-adv-x="1052" 
d="M389 123q0 -27 33 -35l76 -16l4 -72h-404l4 72l74 16q35 8 35 35v692q0 27 -35 35l-74 16l-4 72h404l-4 -72l-76 -16q-33 -8 -33 -35v-360q213 217 232.5 236.5t25.5 26.5t17.5 18.5t16.5 17.5t19.5 22.5t14.5 42.5q0 35 -45 43l-25 4l-4 72h389l-4 -72l-37 -8
q-115 -25 -190 -100l-201 -197l293 -422q23 -32 37 -38.5t21 -9.5t20.5 -5t17.5 -4l41 -10l4 -72h-387l4 72l41 14q15 4 15 9t-2.5 8t-10.5 16l-215 330l-88 -84v-242z" />
    <glyph glyph-name="l.smallcap" horiz-adv-x="940" 
d="M211 123v692q0 27 -35 35l-74 16l-4 72h412l-4 -72l-84 -16q-33 -6 -33 -35v-735h31q131 0 185 7t78 25.5t42 67.5l39 139h96l-33 -319h-729l4 72l74 16q35 8 35 35z" />
    <glyph glyph-name="m.smallcap" horiz-adv-x="1355" 
d="M1311 0h-424l4 72l80 16q25 4 30 47t0 219l-10 471h-20l-287 -794h-141l-244 807h-20l-15 -478q-6 -205 -3 -236.5t28 -35.5l86 -16l4 -72h-328l4 72l80 16q20 4 34 21.5t21 250.5l17 455q0 29 -31 37l-88 14l-6 72h369l208 -696h21l256 696h356l-4 -72l-90 -16
q-33 -6 -33 -37l11 -459q3 -210 17.5 -236t33.5 -30l80 -16z" />
    <glyph glyph-name="n.smallcap" horiz-adv-x="1183" 
d="M993 553v-565h-133l-567 788h-21v-391q0 -236 18.5 -265.5t43.5 -33.5l76 -14l4 -72h-348l4 72l69 14q29 6 46.5 32t17.5 267v350q0 84 -53 109l-70 22l-4 72h303l526 -729h21v344q0 237 -17.5 265t-44.5 34l-76 14l-6 72h351l-5 -72l-71 -14q-27 -6 -45.5 -33.5
t-18.5 -265.5z" />
    <glyph glyph-name="o.smallcap" horiz-adv-x="1157" 
d="M885 459q0 197 -88.5 307.5t-220.5 110.5t-217 -102.5t-85 -299.5t88.5 -307.5t220.5 -110.5t217 102.5t85 299.5zM1079 475q0 -213 -147.5 -356.5t-361.5 -143.5t-353 134.5t-139 347.5t147.5 357t362.5 144t353 -135t138 -348z" />
    <glyph glyph-name="p.smallcap" horiz-adv-x="974" 
d="M711 641q0 100 -65.5 160.5t-180.5 60.5h-76v-418q49 -14 131 -14t136.5 55.5t54.5 155.5zM903 652q0 -129 -115.5 -211.5t-279.5 -82.5q-61 0 -119 7v-242q0 -29 33 -35l98 -16l4 -72h-426l4 72l74 16q35 8 35 35v692q0 27 -35 35l-74 16l-4 72h418q182 0 284.5 -78.5
t102.5 -207.5z" />
    <glyph glyph-name="q.smallcap" horiz-adv-x="1157" 
d="M885 459q0 197 -88.5 307.5t-220.5 110.5t-217 -102.5t-85 -299.5t88.5 -307.5t220.5 -110.5t217 102.5t85 299.5zM78 462q0 208 147.5 352t362.5 144t353 -135t138 -350q0 -166 -95 -294t-247 -177q66 -115 167.5 -150.5t250.5 -21.5l8 -68q-91 -32 -229 -32t-231 57
t-166 190q-203 10 -331 143.5t-128 341.5z" />
    <glyph glyph-name="r.smallcap" horiz-adv-x="1032" 
d="M737 653q0 213 -245 207l-105 -2v-389l137 -14q213 20 213 198zM387 123q0 -27 35 -35l76 -16l4 -72h-406l4 72l76 16q33 8 33 35v692q0 27 -33 35l-76 16l-4 72h459q188 0 282.5 -69.5t94.5 -182.5q0 -195 -246 -264l193 -281q35 -51 86 -61l41 -8l4 -72h-252l-246 389
l-125 2v-268z" />
    <glyph glyph-name="s.smallcap" horiz-adv-x="876" 
d="M788 265q0 -120 -102 -204t-262 -84t-315 43l-17 289h82l72 -215q82 -35 184 -35t152.5 43.5t50.5 107.5t-31 95t-72 50.5t-158 56t-194.5 100t-77.5 176.5t91.5 190.5t259.5 79.5q106 0 213 -20l81 23v-314h-77l-60 197q-86 33 -177 33t-136 -38.5t-45 -92.5t36 -91
t73.5 -52t156.5 -54t195.5 -101.5t76.5 -182.5z" />
    <glyph glyph-name="t.smallcap" horiz-adv-x="1009" 
d="M946 616h-90l-33 132q-16 70 -56 90t-157 20h-16v-735q0 -29 35 -35l98 -16l4 -72h-450l4 72l96 16q35 6 35 35v735h-13q-119 0 -159.5 -17.5t-59.5 -82.5l-39 -142h-94l27 322h868v-322z" />
    <glyph glyph-name="u.smallcap" horiz-adv-x="1114" 
d="M930 553v-242q0 -156 -99.5 -248t-270.5 -92t-270.5 86t-99.5 252v506q0 27 -34 35l-74 16l-6 72h405l-4 -72l-76 -16q-35 -8 -34 -35v-450q0 -145 66.5 -215t184.5 -70t180 67.5t62 198.5v207q0 240 -17.5 266.5t-43.5 32.5l-76 14l-4 72h350l-4 -72l-72 -14
q-27 -6 -45 -33t-18 -266z" />
    <glyph glyph-name="v.smallcap" horiz-adv-x="987" 
d="M991 938l-4 -74l-39 -8q-57 -12 -81.5 -52t-92.5 -231l-203 -575h-176l-284 819q-8 25 -56 33l-67 14l-4 74h432l-4 -74l-64 -10q-29 -4 -38 -16t6 -55q14 -43 16 -47.5t4 -11.5t4 -13l190 -566h25l150 457q49 158 41.5 205t-62.5 53l-39 4l-4 74h350z" />
    <glyph glyph-name="w.smallcap" horiz-adv-x="1486" 
d="M1507 938l-4 -74l-35 -10q-53 -14 -85.5 -63.5t-90.5 -217.5l-196 -575h-150l-186 596h-21l-204 -596h-152l-283 819q-8 25 -55 33l-72 14l-4 74h441l-4 -74l-68 -10q-20 -4 -36.5 -11.5t26.5 -131.5l176 -518h20l172 518l-32 106q-8 25 -58 33l-67 14l-7 74h453l-6 -74
l-66 -10q-18 -2 -29.5 -19t21.5 -124l162 -518h20l121 380q71 217 57 246t-42 35l-49 10l-5 74h338z" />
    <glyph glyph-name="x.smallcap" horiz-adv-x="1050" 
d="M1024 0h-438l4 72l55 8q43 6 33 37q-6 20 -60 98l-126 184h-5l-147 -204q-62 -77 -44.5 -93t48.5 -22l47 -8l4 -72h-366l4 72l61 14q70 14 131 94l221 277l-245 338q-35 47 -76 55l-72 16l-4 72h440l-6 -72l-53 -8q-18 -4 -25.5 -10t-5 -27t57.5 -98l110 -166h4l136 186
q45 66 44 86.5t-49 28.5l-47 8l-4 72h369l-4 -72l-64 -14q-66 -14 -131 -94l-209 -256l265 -365q31 -41 73 -49l70 -16z" />
    <glyph glyph-name="y.smallcap" horiz-adv-x="915" 
d="M551 123q0 -29 35 -35l98 -16l4 -72h-452l4 72l98 16q35 6 35 35v250l-264 424q-27 41 -76 55l-47 12l-4 74h413l-4 -74l-55 -8q-72 -10 12 -160l141 -252h21l156 271q76 131 -7 143l-41 6l-4 74h318l-4 -74l-25 -8q-29 -10 -64.5 -32t-86.5 -109l-201 -332v-260z" />
    <glyph glyph-name="z.smallcap" horiz-adv-x="966" 
d="M90 0v76l586 778v4h-193q-150 0 -192.5 -21.5t-67.5 -97.5l-30 -118h-87v317h775v-78l-590 -778v-4l198 2q205 0 235 31.5t44 78.5l35 117h96l-33 -307h-776z" />
    <glyph glyph-name="fi.smallcap" horiz-adv-x="1617" 
d="M885 633h-90l-33 131q-20 70 -68 85t-241 15h-64v-370h68q77 0 105 7t38 36l35 100h72l-35 -348h-68l-14 96q-4 27 -29 36t-106 9h-66v-307q0 -29 33 -35l106 -16l4 -72h-434l4 72l74 16q35 8 35 35v692q0 27 -35 35l-74 16l-4 72h787v-305zM1212 815q0 29 -34 35l-91 16
l-4 72h435l-5 -72l-88 -16q-35 -6 -34 -35v-692q0 -29 34 -35l88 -16l5 -72h-435l4 72l91 16q35 6 34 35v692z" />
    <glyph glyph-name="fl.smallcap" horiz-adv-x="1923" 
d="M885 633h-90l-33 131q-20 70 -68 85t-241 15h-64v-370h68q77 0 105 7t38 36l35 100h72l-35 -348h-68l-14 96q-4 27 -29 36t-106 9h-66v-307q0 -29 33 -35l106 -16l4 -72h-434l4 72l74 16q35 8 35 35v692q0 27 -35 35l-74 16l-4 72h787v-305zM1194 123v692q0 27 -35 35
l-74 16l-4 72h412l-4 -72l-84 -16q-33 -6 -33 -35v-735h31q131 0 185 7t78 25t42 68l39 139h96l-33 -319h-729l4 72l74 16q35 8 35 35z" />
    <glyph glyph-name="ff.smallcap" horiz-adv-x="1966" 
d="M885 633h-90l-33 131q-20 70 -68 85t-241 15h-64v-370h68q77 0 105 7t38 36l35 100h72l-35 -348h-68l-14 96q-4 27 -29 36t-106 9h-66v-307q0 -29 33 -35l106 -16l4 -72h-434l4 72l74 16q35 8 35 35v692q0 27 -35 35l-74 16l-4 72h787v-305zM1868 633h-90l-33 131
q-21 70 -69 85t-240 15h-64v-370h68q76 0 104 7t39 36l35 100h72l-35 -348h-68l-14 96q-4 27 -29 36t-106 9h-66v-307q0 -29 33 -35l106 -16l5 -72h-435l4 72l74 16q35 8 35 35v692q0 27 -35 35l-74 16l-4 72h787v-305z" />
    <glyph glyph-name="ffi.smallcap" horiz-adv-x="2600" 
d="M2195 815q0 29 -34 35l-90 16l-5 72h435l-4 -72l-89 -16q-35 -6 -34 -35v-692q0 -29 34 -35l89 -16l4 -72h-435l5 72l90 16q35 6 34 35v692zM1868 633h-90l-33 131q-20 70 -68.5 85t-240.5 15h-64v-370h68q76 0 104.5 7t38.5 36l35 100h72l-35 -348h-68l-14 96
q-4 27 -28.5 36t-106.5 9h-66v-307q0 -29 33 -35l106 -16l5 -72h-435l4 72l74 16q35 8 35 35v692q0 27 -35 35l-74 16l-4 72h787v-305zM885 633h-90l-33 131q-20 70 -68.5 85t-240.5 15h-64v-370h68q76 0 104.5 7t38.5 36l35 100h72l-35 -348h-68l-14 96q-4 27 -28.5 36
t-106.5 9h-66v-307q0 -29 33 -35l106 -16l4 -72h-434l4 72l74 16q35 8 35 35v692q0 27 -35 35l-74 16l-4 72h787v-305z" />
    <glyph glyph-name="ffl.smallcap" horiz-adv-x="2906" 
d="M2177 123v692q0 27 -35 35l-74 16l-4 72h412l-4 -72l-84 -16q-33 -6 -33 -35v-735h31q131 0 185.5 7t78 25.5t41.5 67.5l39 139h96l-33 -319h-729l4 72l74 16q35 8 35 35zM1868 633h-90l-33 131q-20 70 -68.5 85t-240.5 15h-64v-370h68q76 0 104.5 7t38.5 36l35 100h72
l-35 -348h-68l-14 96q-4 27 -28.5 36t-106.5 9h-66v-307q0 -29 33 -35l106 -16l5 -72h-435l4 72l74 16q35 8 35 35v692q0 27 -35 35l-74 16l-4 72h787v-305zM885 633h-90l-33 131q-20 70 -68.5 85t-240.5 15h-64v-370h68q76 0 104.5 7t38.5 36l35 100h72l-35 -348h-68
l-14 96q-4 27 -28.5 36t-106.5 9h-66v-307q0 -29 33 -35l106 -16l4 -72h-434l4 72l74 16q35 8 35 35v692q0 27 -35 35l-74 16l-4 72h787v-305z" />
    <glyph glyph-name="germandbls.smallcap" horiz-adv-x="1753" 
d="M1665 265q0 -120 -102 -204t-263 -84t-315 43l-16 289h82l71 -215q82 -35 184 -35t153 44q50 44 50 109t-39 102t-94 56q-56 19 -110 38q-143 47 -216 107t-73 173t91 191t259 79q106 0 213 -20l82 23v-314h-78l-59 197q-86 33 -177 33q-90 0 -136 -38q-46 -39 -46 -93
t36 -91t74 -52t157 -54t195 -101t77 -183zM788 265q0 -120 -102 -204t-262 -84t-315 43l-17 289h82l72 -215q82 -35 184 -35t153 44q50 43 50 107t-37 101t-95 58q-57 20 -112 39q-143 47 -216 107t-73 173t91 191t260 79q106 0 213 -20l81 23v-314h-77l-60 197
q-86 33 -177 33t-136 -38q-45 -39 -45 -93t36 -91t74 -52t156 -54q120 -39 196 -101t76 -183z" />
    <glyph glyph-name="agrave.smallcap" horiz-adv-x="980" 
d="M295 389h280l-126 408h-21zM977 0h-432l4 72l63 10q25 4 34 8q26 12 -17 137l-31 95h-324l-26 -82q-29 -88 -25 -119t43 -39l53 -10l5 -72h-334l4 72l39 8q55 10 83 53t93 232l176 503v41l184 56l281 -844q8 -24 29 -29q8 -2 28 -6l66 -14zM518 1044h-45l-346 383h201z
" />
    <glyph glyph-name="aacute.smallcap" horiz-adv-x="980" 
d="M295 389h280l-126 408h-21zM977 0h-432l4 72l63 10q25 4 34 8q26 12 -17 137l-31 95h-324l-26 -82q-29 -88 -25 -119t43 -39l53 -10l5 -72h-334l4 72l39 8q55 10 83 53t93 232l176 503v41l184 56l281 -844q8 -24 29 -29q8 -2 28 -6l66 -14zM795 1427l-346 -383h-50
l187 383h209z" />
    <glyph glyph-name="acircumflex.smallcap" horiz-adv-x="980" 
d="M295 389h280l-126 408h-21zM977 0h-432l4 72l63 10q25 4 34 8q26 12 -17 137l-31 95h-324l-26 -82q-29 -88 -25 -119t43 -39l53 -10l5 -72h-334l4 72l39 8q55 10 83 53t93 232l176 503v41l184 56l281 -844q8 -24 29 -29q8 -2 28 -6l66 -14zM739 1044h-55l-203 222h-4
l-203 -222h-55l217 383h86z" />
    <glyph glyph-name="atilde.smallcap" horiz-adv-x="980" 
d="M295 389h280l-126 408h-21zM977 0h-432l4 72l63 10q25 4 34 8q26 12 -17 137l-31 95h-324l-26 -82q-29 -88 -25 -119t43 -39l53 -10l5 -72h-334l4 72l39 8q55 10 83 53t93 232l176 503v41l184 56l281 -844q8 -24 29 -29q8 -2 28 -6l66 -14zM625 1065q-73 0 -177 75
q-104 74 -135 74t-53 -28t-53 -105h-53q41 252 200 252q56 0 118 -38q62 -39 112 -75t82 -36t54 28t52 105h53q-41 -252 -200 -252z" />
    <glyph glyph-name="adieresis.smallcap" horiz-adv-x="980" 
d="M395 1243q0 -53 -32.5 -91t-88 -38t-88 38t-32.5 91t32.5 91t88 38t88 -38t32.5 -91zM805 1243q0 -53 -33 -91t-88 -38t-88 38t-33 91t33 91t88 38t88 -38t33 -91zM295 389h280l-126 408h-21zM977 0h-432l4 72l63 10q25 4 42.5 11.5t-25.5 133.5l-31 95h-324l-26 -82
q-29 -88 -25 -119t43 -39l53 -10l5 -72h-334l4 72l39 8q55 10 82.5 53t93.5 232l176 503v41l184 56l281 -844q8 -24 22.5 -27.5t34.5 -7.5l66 -14z" />
    <glyph glyph-name="aring.smallcap" horiz-adv-x="919" 
d="M264 389h281l-127 408h-21zM571 1065q0 53 -32.5 91t-88 38t-88 -38t-32.5 -91t32.5 -91t88 -38t88 38t32.5 91zM450.5 1249q81.5 0 132 -53t50.5 -142t-76 -143l262 -790q8 -24 22.5 -27.5t35.5 -7.5l65 -14l4 -72h-432l4 72l64 10q25 4 34 8t11 24.5t-29 112.5l-31 95
h-323l-27 -82q-29 -88 -24.5 -119t43.5 -39l53 -10l4 -72h-334l4 72l39 8q55 10 82 53t94 232l187 534q-96 47 -97 166q0 78 50.5 131t132 53z" />
    <glyph glyph-name="aringacute.smallcap" horiz-adv-x="919" 
d="M264 389h281l-127 408h-21zM571 1065q0 53 -32 91q-33 38 -88 38t-89 -38t-32 -91q0 -53 32 -91t88 -38t89 38q32 38 32 91zM450 1249q82 0 133 -53q50 -53 50 -142t-76 -143l262 -790q8 -24 29 -29q8 -2 29 -6l65 -14l4 -72h-432l4 72l64 10q26 4 34 8q28 13 -18 137
l-31 95h-323l-27 -82q-29 -88 -25 -119t44 -39l53 -10l4 -72h-334l4 72l39 8q55 10 82 53t94 232l187 534q-96 47 -97 166q0 78 50 131t132 53zM754 1667l-346 -383h-50l187 383h209z" />
    <glyph glyph-name="amacron.smallcap" horiz-adv-x="980" 
d="M295 389h280l-126 408h-21zM977 0h-432l4 72l63 10q25 4 34 8q26 12 -17 137l-31 95h-324l-26 -82q-29 -88 -25 -119t43 -39l53 -10l5 -72h-334l4 72l39 8q55 10 83 53t93 232l176 503v41l184 56l281 -844q8 -24 29 -29q8 -2 28 -6l66 -14zM766 1108h-516l6 84h504z" />
    <glyph glyph-name="abreve.smallcap" horiz-adv-x="980" 
d="M295 389h280l-126 408h-21zM977 0h-432l4 72l63 10q25 4 34 8q26 12 -17 137l-31 95h-324l-26 -82q-29 -88 -25 -119t43 -39l53 -10l5 -72h-334l4 72l39 8q55 10 83 53t93 232l176 503v41l184 56l281 -844q8 -24 29 -29q8 -2 28 -6l66 -14zM500 1034q-54 0 -100 25
t-72 57q-58 71 -109 311h45q80 -176 128 -229t98 -53t82 20t66 73t62 113q27 60 35 76h45q-45 -231 -110 -312t-170 -81z" />
    <glyph glyph-name="aogonek.smallcap" horiz-adv-x="980" 
d="M295 389h280l-126 408h-21zM787 -444q-80 0 -133.5 48t-53.5 134t70.5 157.5t165.5 104.5h-291l4 72l63 10q25 4 42.5 11.5t-25.5 133.5l-31 95h-324l-26 -82q-29 -88 -25 -119t43 -39l53 -10l5 -72h-334l4 72l39 8q55 10 82.5 53t93.5 232l176 503v41l184 56l281 -844
q8 -24 22.5 -27.5t34.5 -7.5l66 -14l4 -72q-86 -16 -161 -84t-75 -137q0 -102 111 -103q63 0 104 41l21 -24q-6 -53 -58 -95t-132 -42z" />
    <glyph glyph-name="ae.smallcap" horiz-adv-x="1388" 
d="M621 401v469h-13l-239 -469h252zM621 123v211h-285l-41 -78q-74 -133 -56.5 -150.5t35.5 -21.5l54 -12l4 -72h-342l6 72l41 10q57 14 99 62.5t132 220.5l207 403q39 76 -43 90l-45 8l-6 72h872v-303h-84l-34 133q-16 68 -65.5 83t-244.5 15h-39v-360h27q78 0 101.5 7
t31.5 34l35 102h68l-35 -344h-62l-14 96q-4 27 -25.5 35t-103.5 8h-23v-372h33q207 0 259 15t73 83l37 123h92l-31 -293h-743l4 72l78 16q33 6 33 35z" />
    <glyph glyph-name="aeacute.smallcap" horiz-adv-x="1388" 
d="M621 401v469h-13l-239 -469h252zM621 123v211h-285l-41 -78q-72 -131 -47 -160q8 -8 26 -12l54 -12l4 -72h-342l6 72l41 10q57 14 99 62t132 221l207 403q39 76 -43 90l-45 8l-6 72h872v-303h-84l-34 133q-15 68 -65 83t-245 15h-39v-360h27q77 0 101 7t32 34l35 102h68
l-35 -344h-62l-14 96q-4 27 -26 35t-103 8h-23v-372h33q207 0 259 15t73 83l37 123h92l-31 -293h-743l4 72l78 16q33 6 33 35zM1090 1427l-347 -383h-49l187 383h209z" />
    <glyph glyph-name="ccedilla.smallcap" horiz-adv-x="1089" 
d="M78 463q0 221 150.5 358t381.5 137q111 0 219 -32l132 28v-333h-91l-53 208q-92 49 -203 50q-154 0 -247 -109.5t-93 -299.5t93.5 -302.5t259.5 -112.5q100 0 172 39l71 215h97l-31 -309l-90 18q-88 -33 -199 -38l-92 -97q125 0 196.5 -49t71.5 -144t-114.5 -162
t-315.5 -81l-18 49q322 39 321 176q0 49 -45 79t-119 30t-137 -12v41l162 170q-215 12 -347 137t-132 346z" />
    <glyph glyph-name="cacute.smallcap" horiz-adv-x="1089" 
d="M606 -23q-233 0 -381 126q-147 125 -147 353t150 365q151 137 382 137q111 0 219 -32l132 28v-333h-91l-53 208q-92 49 -203 50q-154 0 -246 -110q-92 -109 -94 -299q0 -190 94 -302t259 -113q100 0 172 39l71 215h97l-31 -309l-90 18q-104 -41 -240 -41zM895 1427
l-346 -383h-49l186 383h209z" />
    <glyph glyph-name="ccircumflex.smallcap" horiz-adv-x="1089" 
d="M606 -23q-233 0 -381 126q-147 125 -147 353t150 365q151 137 382 137q111 0 219 -32l132 28v-333h-91l-53 208q-92 49 -203 50q-154 0 -246 -110q-92 -109 -94 -299q0 -190 94 -302t259 -113q100 0 172 39l71 215h97l-31 -309l-90 18q-104 -41 -240 -41zM846 1044h-55
l-203 222h-4l-203 -222h-55l217 383h86z" />
    <glyph glyph-name="cdotaccent.smallcap" horiz-adv-x="1089" 
d="M606 -23q-233 0 -381 126q-147 125 -147 353t150 365q151 137 382 137q111 0 219 -32l132 28v-333h-91l-53 208q-92 49 -203 50q-154 0 -246 -110q-92 -109 -94 -299q0 -190 94 -302t259 -113q100 0 172 39l71 215h97l-31 -309l-90 18q-104 -41 -240 -41zM717 1243
q0 -53 -33 -91t-88 -38t-88 38t-33 91t33 91t88 38t88 -38t33 -91z" />
    <glyph glyph-name="ccaron.smallcap" horiz-adv-x="1089" 
d="M606 -23q-233 0 -381 126q-147 125 -147 353t150 365q151 137 382 137q111 0 219 -32l132 28v-333h-91l-53 208q-92 49 -203 50q-154 0 -246 -110q-92 -109 -94 -299q0 -190 94 -302t259 -113q100 0 172 39l71 215h97l-31 -309l-90 18q-104 -41 -240 -41zM866 1427
l-217 -383h-86l-217 383h55l203 -221h4l203 221h55z" />
    <glyph glyph-name="dcaron.smallcap" horiz-adv-x="1112" 
d="M842 462q0 182 -104 290t-302 108h-47v-758l107 -22q164 0 255 100t91 282zM1034 483q0 -205 -148 -344t-415 -139h-373l4 72l74 16q35 8 35 35v692q0 27 -35 35l-74 16l-4 72l375 4q253 2 407 -126t154 -333zM788 1427l-217 -383h-86l-217 383h56l202 -221h4l203 221h55
z" />
    <glyph glyph-name="eth.smallcap" horiz-adv-x="1153" 
d="M430 520h213l6 -84h-219v-334l107 -22q164 0 255 100t91 282t-103.5 290t-302.5 108h-47v-340zM252 436h-164l6 84h158v295q0 27 -35 35l-74 16l-4 72l375 4q254 2 407.5 -126t153.5 -333t-148.5 -344t-414.5 -139h-373l4 72l74 16q35 8 35 35v313z" />
    <glyph glyph-name="dcroat.smallcap" horiz-adv-x="1153" 
d="M430 520h213l6 -84h-219v-334l107 -22q164 0 255 100t91 282q1 182 -103 290t-303 108h-47v-340zM252 436h-164l6 84h158v295q0 27 -35 35l-74 16l-4 72l375 4q254 2 408 -126t154 -333t-149 -344q-148 -139 -415 -139h-373l4 72l74 16q35 8 35 35v313z" />
    <glyph glyph-name="egrave.smallcap" horiz-adv-x="1038" 
d="M211 123v692q0 27 -35 35l-74 16l-4 72h807v-305h-92l-33 131q-16 70 -65 85t-242 15h-84v-358h60q75 0 103 8t36 35l35 102h71l-32 -348h-70l-14 96q-4 27 -28 35t-108 8h-53v-368h82q141 0 199 7t85 25q26 18 44 68l32 121h99l-29 -295h-803l4 72l74 16q35 8 35 35z
M606 1044h-45l-346 383h201z" />
    <glyph glyph-name="eacute.smallcap" horiz-adv-x="1038" 
d="M211 123v692q0 27 -35 35l-74 16l-4 72h807v-305h-92l-33 131q-16 70 -65 85t-242 15h-84v-358h60q75 0 103 8t36 35l35 102h71l-32 -348h-70l-14 96q-4 27 -28 35t-108 8h-53v-368h82q141 0 199 7t85 25q26 18 44 68l32 121h99l-29 -295h-803l4 72l74 16q35 8 35 35z
M819 1427l-346 -383h-49l186 383h209z" />
    <glyph glyph-name="ecircumflex.smallcap" horiz-adv-x="1038" 
d="M211 123v692q0 27 -35 35l-74 16l-4 72h807v-305h-92l-33 131q-16 70 -65 85t-242 15h-84v-358h60q75 0 103 8t36 35l35 102h71l-32 -348h-70l-14 96q-4 27 -28 35t-108 8h-53v-368h82q141 0 199 7t85 25q26 18 44 68l32 121h99l-29 -295h-803l4 72l74 16q35 8 35 35z
M770 1044h-55l-203 222h-4l-203 -222h-55l217 383h86z" />
    <glyph glyph-name="edieresis.smallcap" horiz-adv-x="1038" 
d="M418 1243q0 -53 -33 -91t-88 -38t-88 38t-33 91t33 91t88 38t88 -38t33 -91zM827 1243q0 -53 -32.5 -91t-88 -38t-88 38t-32.5 91t32.5 91t88 38t88 -38t32.5 -91zM211 123v692q0 27 -35 35l-74 16l-4 72h807v-305h-92l-33 131q-16 70 -65 85t-242 15h-84v-358h60
q74 0 102.5 8t36.5 35l35 102h71l-32 -348h-70l-14 96q-4 27 -28 35t-108 8h-53v-368h82q141 0 199.5 7t84 25.5t44.5 67.5l32 121h99l-29 -295h-803l4 72l74 16q35 8 35 35z" />
    <glyph glyph-name="emacron.smallcap" horiz-adv-x="1038" 
d="M211 123v692q0 27 -35 35l-74 16l-4 72h807v-305h-92l-33 131q-16 70 -65 85t-242 15h-84v-358h60q75 0 103 8t36 35l35 102h71l-32 -348h-70l-14 96q-4 27 -28 35t-108 8h-53v-368h82q141 0 199 7t85 25q26 18 44 68l32 121h99l-29 -295h-803l4 72l74 16q35 8 35 35z
M799 1108h-516l6 84h504z" />
    <glyph glyph-name="ebreve.smallcap" horiz-adv-x="1038" 
d="M211 123v692q0 27 -35 35l-74 16l-4 72h807v-305h-92l-33 131q-16 70 -65 85t-242 15h-84v-358h60q75 0 103 8t36 35l35 102h71l-32 -348h-70l-14 96q-4 27 -28 35t-108 8h-53v-368h82q141 0 199 7t85 25q26 18 44 68l32 121h99l-29 -295h-803l4 72l74 16q35 8 35 35z
M545 1034q-55 0 -101 25t-72 57q-58 71 -108 311h45q80 -176 128 -229q47 -53 97 -53t82 20t67 73q34 53 62 113q27 60 35 76h45q-45 -231 -110 -312t-170 -81z" />
    <glyph glyph-name="edotaccent.smallcap" horiz-adv-x="1038" 
d="M211 123v692q0 27 -35 35l-74 16l-4 72h807v-305h-92l-33 131q-16 70 -65 85t-242 15h-84v-358h60q75 0 103 8t36 35l35 102h71l-32 -348h-70l-14 96q-4 27 -28 35t-108 8h-53v-368h82q141 0 199 7t85 25q26 18 44 68l32 121h99l-29 -295h-803l4 72l74 16q35 8 35 35z
M659 1243q-1 -53 -33 -91t-87 -38t-88 38t-33 91t33 91t88 38t87 -38t33 -91z" />
    <glyph glyph-name="eogonek.smallcap" horiz-adv-x="1038" 
d="M711 -444q-78 0 -131.5 50t-53.5 138q0 135 179 256h-607l4 72l74 16q35 8 35 35v692q0 27 -35 35l-74 16l-4 72h807v-305h-92l-33 131q-16 70 -65 85t-242 15h-84v-358h60q74 0 102.5 8t36.5 35l35 102h71l-32 -348h-70l-14 96q-4 27 -28 35t-108 8h-53v-368h82
q141 0 199.5 7t84 25.5t44.5 67.5l32 121h99l-29 -295h-115q-115 -104 -114 -211q0 -49 26.5 -81t82.5 -32t98 41l20 -24q-6 -53 -58 -95t-130 -42z" />
    <glyph glyph-name="ecaron.smallcap" horiz-adv-x="1038" 
d="M211 123v692q0 27 -35 35l-74 16l-4 72h807v-305h-92l-33 131q-16 70 -65 85t-242 15h-84v-358h60q75 0 103 8t36 35l35 102h71l-32 -348h-70l-14 96q-4 27 -28 35t-108 8h-53v-368h82q141 0 199 7t85 25q26 18 44 68l32 121h99l-29 -295h-803l4 72l74 16q35 8 35 35z
M799 1427l-217 -383h-86l-217 383h55l203 -221h4l202 221h56z" />
    <glyph glyph-name="gcircumflex.smallcap" horiz-adv-x="1134" 
d="M944 297v-180l92 -11l4 -47q-200 -82 -436 -82q-236 1 -381 131t-145 354t151 360q152 136 381 136q109 0 213 -32l129 28v-329h-98l-51 204q-82 49 -197 50q-150 0 -240 -111q-90 -112 -92 -300q0 -188 90 -300t246 -113q92 0 162 33v209q0 31 -37 37l-84 16l-4 72h414
l-4 -72l-78 -16q-35 -6 -35 -37zM850 1044h-55l-203 222h-4l-203 -222h-55l217 383h86z" />
    <glyph glyph-name="gbreve.smallcap" horiz-adv-x="1134" 
d="M944 297v-180l92 -11l4 -47q-200 -82 -436 -82q-236 1 -381 131t-145 354t151 360q152 136 381 136q109 0 213 -32l129 28v-329h-98l-51 204q-82 49 -197 50q-150 0 -240 -111q-90 -112 -92 -300q0 -188 90 -300t246 -113q92 0 162 33v209q0 31 -37 37l-84 16l-4 72h414
l-4 -72l-78 -16q-35 -6 -35 -37zM590 1034q-54 0 -100 25t-72 57q-58 71 -109 311h45q80 -176 128 -229t98 -53t82 20q33 20 67 74t61 113t35 75h45q-45 -231 -110 -312t-170 -81z" />
    <glyph glyph-name="gdotaccent.smallcap" horiz-adv-x="1134" 
d="M944 297v-180l92 -11l4 -47q-200 -82 -436 -82q-236 1 -381 131t-145 354t151 360q152 136 381 136q109 0 213 -32l129 28v-329h-98l-51 204q-82 49 -197 50q-150 0 -240 -111q-90 -112 -92 -300q0 -188 90 -300t246 -113q92 0 162 33v209q0 31 -37 37l-84 16l-4 72h414
l-4 -72l-78 -16q-35 -6 -35 -37zM711 1243q0 -53 -33 -91t-88 -38t-88 38t-33 91t33 91t88 38t88 -38t33 -91z" />
    <glyph glyph-name="gcommaaccent.smallcap" horiz-adv-x="1134" 
d="M760 -262q0 -98 -69.5 -171t-164.5 -108l-39 33q57 20 98.5 64.5t41.5 90.5q0 77 -38.5 105.5t-92.5 46.5q0 45 30.5 73t88.5 28t101.5 -49.5t43.5 -112.5zM944 297v-180l92 -11l4 -47q-201 -82 -436 -82t-380.5 130.5t-145.5 354.5t151.5 360t380.5 136q109 0 213 -32
l129 28v-329h-98l-51 204q-82 49 -197 50q-150 0 -241 -111.5t-91 -299.5t89.5 -300.5t246.5 -112.5q92 0 162 33v209q0 31 -37 37l-84 16l-4 72h414l-4 -72l-78 -16q-35 -6 -35 -37z" />
    <glyph glyph-name="hcircumflex.smallcap" horiz-adv-x="1200" 
d="M813 123v321h-426v-321q0 -27 33 -35l76 -16l4 -72h-404l4 72l74 16q35 8 35 35v692q0 27 -35 35l-74 16l-4 72h404l-4 -72l-76 -16q-33 -8 -33 -35v-299h426v299q0 27 -35 35l-73 16l-7 72h406l-4 -72l-76 -16q-35 -8 -35 -35v-692q0 -27 35 -35l76 -16l4 -72h-406l7 72
l73 16q35 8 35 35zM860 1057h-55l-203 221h-4l-203 -221h-55l217 383h86z" />
    <glyph glyph-name="hbar.smallcap" horiz-adv-x="1200" 
d="M387 516h426v123h-426v-123zM813 123v321h-426v-321q0 -27 33 -35l76 -16l4 -72h-404l4 72l74 16q35 8 35 35v516h-174l6 68h168v108q0 27 -35 35l-74 16l-4 72h404l-4 -72l-76 -16q-33 -8 -33 -35v-108h426v108q0 27 -35 35l-73 16l-7 72h406l-4 -72l-76 -16
q-35 -8 -35 -35v-108h178l7 -68h-185v-516q0 -27 35 -35l76 -16l4 -72h-406l7 72l73 16q35 8 35 35z" />
    <glyph glyph-name="igrave.smallcap" horiz-adv-x="634" 
d="M229 815q0 29 -34 35l-91 16l-4 72h435l-5 -72l-88 -16q-35 -6 -34 -35v-692q0 -29 34 -35l88 -16l5 -72h-435l4 72l91 16q35 6 34 35v692zM373 1044h-45l-346 383h200z" />
    <glyph glyph-name="iacute.smallcap" horiz-adv-x="634" 
d="M229 815q0 29 -34 35l-91 16l-4 72h435l-5 -72l-88 -16q-35 -6 -34 -35v-692q0 -29 34 -35l88 -16l5 -72h-435l4 72l91 16q35 6 34 35v692zM655 1427l-346 -383h-49l186 383h209z" />
    <glyph glyph-name="icircumflex.smallcap" horiz-adv-x="634" 
d="M229 815q0 29 -34 35l-91 16l-4 72h435l-5 -72l-88 -16q-35 -6 -34 -35v-692q0 -29 34 -35l88 -16l5 -72h-435l4 72l91 16q35 6 34 35v692zM575 1044h-55l-203 222h-4l-202 -222h-56l217 383h86z" />
    <glyph glyph-name="idieresis.smallcap" horiz-adv-x="634" 
d="M233 1243q0 -53 -32.5 -91t-88 -38t-88 38t-32.5 91t32.5 91t88 38t88 -38t32.5 -91zM643 1243q0 -53 -32.5 -91t-88 -38t-88.5 38t-33 91t33 91t88.5 38t88 -38t32.5 -91zM229 815q0 29 -34 35l-91 16l-4 72h435l-5 -72l-88 -16q-35 -6 -34 -35v-692q0 -29 34 -35
l88 -16l5 -72h-435l4 72l91 16q35 6 34 35v692z" />
    <glyph glyph-name="imacron.smallcap" horiz-adv-x="634" 
d="M229 815q0 29 -34 35l-91 16l-4 72h435l-5 -72l-88 -16q-35 -6 -34 -35v-692q0 -29 34 -35l88 -16l5 -72h-435l4 72l91 16q35 6 34 35v692zM578 1108h-517l7 84h503z" />
    <glyph glyph-name="ibreve.smallcap" horiz-adv-x="634" 
d="M318 1034q-157 0 -222 175q-33 86 -59 218h45q80 -176 128 -229t97 -53t82 20t67 73t62 113q27 60 35 76h45q-45 -233 -109 -311q-67 -82 -171 -82zM229 815q0 29 -34 35l-91 16l-4 72h435l-5 -72l-88 -16q-35 -6 -34 -35v-692q0 -29 34 -35l88 -16l5 -72h-435l4 72
l91 16q35 6 34 35v692z" />
    <glyph glyph-name="iogonek.smallcap" horiz-adv-x="634" 
d="M309 -202q-1 -122 109 -122q56 0 98 41l21 -24q-6 -53 -58.5 -95t-130.5 -42t-131 50t-53 131t56 150.5t134 112.5h-254l4 72l91 16q35 6 34 35v692q0 29 -34 35l-91 16l-4 72h435l-5 -72l-88 -16q-35 -6 -34 -35v-692q0 -29 34 -35l88 -16l5 -72q-86 -16 -156 -80
t-70 -122z" />
    <glyph glyph-name="idotaccent.smallcap" horiz-adv-x="634" 
d="M229 815q0 29 -34 35l-91 16l-4 72h435l-5 -72l-88 -16q-35 -6 -34 -35v-692q0 -29 34 -35l88 -16l5 -72h-435l4 72l91 16q35 6 34 35v692zM438 1243q0 -53 -32 -91t-88 -38t-89 38t-32 91q0 53 32 91q33 38 88 38t88 -38t33 -91z" />
    <glyph glyph-name="dotlessi.smallcap" horiz-adv-x="634" 
d="M229 815q0 29 -34 35l-91 16l-4 72h435l-5 -72l-88 -16q-35 -6 -34 -35v-692q0 -29 34 -35l88 -16l5 -72h-435l4 72l91 16q35 6 34 35v692z" />
    <glyph glyph-name="jcircumflex.smallcap" horiz-adv-x="671" 
d="M489 815v-403q0 -434 -309 -435q-72 0 -121 35t-49 78t24 65q24 21 64 21t76 -32q35 -32 47 -101h2q49 27 69 89q19 62 19 216v467q0 29 -35 35l-104 16l-4 72h442l-4 -72l-82 -16q-35 -8 -35 -35zM657 1044h-55l-203 222h-4l-202 -222h-56l217 383h86z" />
    <glyph glyph-name="jcircumflex.smallcap.alt" horiz-adv-x="774" 
d="M637 815v-489q0 -178 -89 -264q-90 -86 -234 -87t-216 55t-71 132q0 49 28 80q29 30 68 30t65 -22t27 -67q0 -44 -33 -77q43 -55 123 -55q156 0 156 244v520q0 29 -35 35l-107 16l-4 72h449l-4 -72l-88 -16q-35 -6 -35 -35zM797 1044h-56l-202 222h-4l-203 -222h-56
l218 383h86z" />
    <glyph glyph-name="dotlessj.smallcap" horiz-adv-x="671" 
d="M10 90q0 86 88 86q41 0 76 -32t47 -101h2q49 27 68.5 89.5t19.5 215.5v467q0 29 -35 35l-104 16l-4 72h442l-4 -72l-82 -16q-35 -8 -35 -35v-403q0 -434 -309 -435q-72 0 -121 35t-49 78z" />
    <glyph glyph-name="kcommaaccent.smallcap" horiz-adv-x="1052" 
d="M698 -266q0 -98 -69.5 -171t-163.5 -108l-39 33q57 20 98 64.5t41 90.5q0 78 -37.5 105.5t-93.5 46.5q0 45 31 73t89 28t101 -49.5t43 -112.5zM389 123q0 -27 33 -35l76 -16l4 -72h-404l4 72l74 16q35 8 35 35v692q0 27 -35 35l-74 16l-4 72h404l-4 -72l-76 -16
q-33 -8 -33 -35v-360q213 217 232.5 236.5t25.5 26.5t17.5 18.5t16.5 17.5t19.5 22.5t14.5 42.5q0 35 -45 43l-25 4l-4 72h389l-4 -72l-37 -8q-115 -25 -190 -100l-201 -197l293 -422q23 -32 37 -38.5t21 -9.5t20.5 -5t17.5 -4l41 -10l4 -72h-387l4 72l41 14q15 4 15 9
t-2.5 8t-10.5 16l-215 330l-88 -84v-242z" />
    <glyph glyph-name="lacute.smallcap" horiz-adv-x="940" 
d="M211 123v692q0 27 -35 35l-74 16l-4 72h412l-4 -72l-84 -16q-33 -6 -33 -35v-735h31q131 0 185 7t78 25t42 68l39 139h96l-33 -319h-729l4 72l74 16q35 8 35 35zM594 1378l-346 -383h-49l186 383h209z" />
    <glyph glyph-name="lcommaaccent.smallcap" horiz-adv-x="940" 
d="M621 -266q0 -98 -70 -171t-164 -108l-39 33q57 20 98 64.5t41 90.5q0 78 -39 107t-92 45q0 45 31 73t89 28t101.5 -49.5t43.5 -112.5zM211 123v692q0 27 -35 35l-74 16l-4 72h412l-4 -72l-84 -16q-33 -6 -33 -35v-735h31q131 0 185 7t78 25.5t42 67.5l39 139h96l-33 -319
h-729l4 72l74 16q35 8 35 35z" />
    <glyph glyph-name="lcaron.smallcap" horiz-adv-x="1380" 
d="M211 123v692q0 27 -35 35l-74 16l-4 72h412l-4 -72l-84 -16q-33 -6 -33 -35v-735h31q131 0 185 7t78 25t42 68l39 139h96l-33 -319h-729l4 72l74 16q35 8 35 35zM1311 778q0 -117 -81 -213t-212 -194l-53 32q70 51 122 123q53 72 53 144t-56 114q-34 26 -70 43t-35 19
q0 53 39 89q38 36 106 36q68 -1 128 -57t59 -136z" />
    <glyph glyph-name="ldotaccent.smallcap" horiz-adv-x="1228" 
d="M211 123v692q0 27 -35 35l-74 16l-4 72h412l-4 -72l-84 -16q-33 -6 -33 -35v-735h31q131 0 185 7t78 25t42 68l39 139h96l-33 -319h-729l4 72l74 16q35 8 35 35zM1204 618q0 -55 -39 -96t-97 -41t-98 41t-40 96q0 54 40 94t99 40t97 -40t38 -94z" />
    <glyph glyph-name="lslash.smallcap" horiz-adv-x="980" 
d="M252 815q0 27 -35 35l-74 16l-4 72h412l-4 -72l-84 -16q-33 -6 -33 -35v-297l170 47v-90q-170 -45 -170 -47v-348h31q131 0 185 7t78 25.5t42 67.5l39 139h96l-33 -319h-729l4 72l74 16q35 8 35 35v258l-168 -45l2 90l166 45v344z" />
    <glyph glyph-name="ntilde.smallcap" horiz-adv-x="1183" 
d="M993 553v-565h-133l-567 788h-21v-391q0 -237 26 -277q11 -17 36 -22l76 -14l4 -72h-348l4 72l69 14q29 6 40 22q24 36 24 277v350q0 84 -53 109l-70 22l-4 72h303l526 -729h21v344q0 241 -24 275q-11 17 -38 24l-76 14l-6 72h351l-5 -72l-71 -14q-27 -6 -38 -22
q-26 -38 -26 -277zM745 1065q-74 0 -177 75q-103 74 -134 74q-32 0 -54 -28t-52 -105h-54q41 252 201 252q57 0 119 -38q62 -39 112 -75t80 -36t54 28q23 28 53 105h53q-41 -252 -201 -252z" />
    <glyph glyph-name="nacute.smallcap" horiz-adv-x="1183" 
d="M993 553v-565h-133l-567 788h-21v-391q0 -237 26 -277q11 -17 36 -22l76 -14l4 -72h-348l4 72l69 14q29 6 40 22q24 36 24 277v350q0 84 -53 109l-70 22l-4 72h303l526 -729h21v344q0 241 -24 275q-11 17 -38 24l-76 14l-6 72h351l-5 -72l-71 -14q-27 -6 -38 -22
q-26 -38 -26 -277zM889 1427l-346 -383h-49l186 383h209z" />
    <glyph glyph-name="ncommaaccent.smallcap" horiz-adv-x="1183" 
d="M743 -266q0 -98 -69.5 -171t-163.5 -108l-39 33q57 20 98 64.5t41 90.5q0 78 -39 107t-92 45q0 45 31 73t89 28t101 -49.5t43 -112.5zM993 553v-565h-133l-567 788h-21v-391q0 -236 18.5 -265.5t43.5 -33.5l76 -14l4 -72h-348l4 72l69 14q29 6 46.5 32t17.5 267v350
q0 84 -53 109l-70 22l-4 72h303l526 -729h21v344q0 237 -17.5 265t-44.5 34l-76 14l-6 72h351l-5 -72l-71 -14q-27 -6 -45.5 -33.5t-18.5 -265.5z" />
    <glyph glyph-name="ncaron.smallcap" horiz-adv-x="1183" 
d="M993 553v-565h-133l-567 788h-21v-391q0 -237 26 -277q11 -17 36 -22l76 -14l4 -72h-348l4 72l69 14q29 6 40 22q24 36 24 277v350q0 84 -53 109l-70 22l-4 72h303l526 -729h21v344q0 241 -24 275q-11 17 -38 24l-76 14l-6 72h351l-5 -72l-71 -14q-27 -6 -38 -22
q-26 -38 -26 -277zM852 1427l-217 -383h-86l-217 383h55l203 -221h4l203 221h55z" />
    <glyph glyph-name="ograve.smallcap" horiz-adv-x="1157" 
d="M885 459q0 197 -88 307q-89 110 -221 111q-132 -1 -217 -103t-85 -299t88 -307t220 -111q132 1 218 103q85 102 85 299zM1079 475q0 -213 -147 -356q-148 -143 -362 -143t-353 134t-139 347t147 357t363 144t353 -135q138 -135 138 -348zM643 1044h-45l-346 383h201z" />
    <glyph glyph-name="oacute.smallcap" horiz-adv-x="1157" 
d="M885 459q0 197 -88 307q-89 110 -221 111q-132 -1 -217 -103t-85 -299t88 -307t220 -111q132 1 218 103q85 102 85 299zM1079 475q0 -213 -147 -356q-148 -143 -362 -143t-353 134t-139 347t147 357t363 144t353 -135q138 -135 138 -348zM924 1427l-346 -383h-50l187 383
h209z" />
    <glyph glyph-name="ocircumflex.smallcap" horiz-adv-x="1157" 
d="M885 459q0 197 -88 307q-89 110 -221 111q-132 -1 -217 -103t-85 -299t88 -307t220 -111q132 1 218 103q85 102 85 299zM1079 475q0 -213 -147 -356q-148 -143 -362 -143t-353 134t-139 347t147 357t363 144t353 -135q138 -135 138 -348zM852 1044h-55l-203 222h-4
l-203 -222h-55l217 383h86z" />
    <glyph glyph-name="otilde.smallcap" horiz-adv-x="1157" 
d="M885 459q0 197 -88 307q-89 110 -221 111q-132 -1 -217 -103t-85 -299t88 -307t220 -111q132 1 218 103q85 102 85 299zM1079 475q0 -213 -147 -356q-148 -143 -362 -143t-353 134t-139 347t147 357t363 144t353 -135q138 -135 138 -348zM705 1065q-73 0 -177 75
q-104 74 -135 74t-53 -28t-53 -105h-54q41 252 201 252q56 0 118 -38q62 -39 112 -75t82 -36t54 28t52 105h53q-41 -252 -200 -252z" />
    <glyph glyph-name="odieresis.smallcap" horiz-adv-x="1157" 
d="M508 1243q0 -53 -33 -91t-88 -38t-88 38t-33 91t33 91t88 38t88 -38t33 -91zM918 1243q0 -53 -33 -91t-88.5 -38t-88 38t-32.5 91t32.5 91t88 38t88.5 -38t33 -91zM885 459q0 197 -88.5 307.5t-220.5 110.5t-217 -102.5t-85 -299.5t88.5 -307.5t220.5 -110.5t217 102.5
t85 299.5zM1079 475q0 -213 -147.5 -356.5t-361.5 -143.5t-353 134.5t-139 347.5t147.5 357t362.5 144t353 -135t138 -348z" />
    <glyph glyph-name="omacron.smallcap" horiz-adv-x="1157" 
d="M885 459q0 197 -88 307q-89 110 -221 111q-132 -1 -217 -103t-85 -299t88 -307t220 -111q132 1 218 103q85 102 85 299zM1079 475q0 -213 -147 -356q-148 -143 -362 -143t-353 134t-139 347t147 357t363 144t353 -135q138 -135 138 -348zM858 1108h-516l6 84h504z" />
    <glyph glyph-name="obreve.smallcap" horiz-adv-x="1157" 
d="M598 1034q-157 0 -221 175q-31 81 -60 218h45q80 -176 128 -229t98 -53t82 20q33 20 67 74t61 113q31 69 36 75h45q-45 -229 -110 -311q-66 -82 -171 -82zM885 459q0 197 -88 307q-89 110 -221 111q-132 -1 -217 -103t-85 -299t88 -307t220 -111q132 1 218 103
q85 102 85 299zM1079 475q0 -213 -147 -356q-148 -143 -362 -143t-353 134t-139 347t147 357t363 144t353 -135q138 -135 138 -348z" />
    <glyph glyph-name="ohungarumlaut.smallcap" horiz-adv-x="1157" 
d="M885 459q0 197 -88 307q-89 110 -221 111q-132 -1 -217 -103t-85 -299t88 -307t220 -111q132 1 218 103q85 102 85 299zM1079 475q0 -213 -147 -356q-148 -143 -362 -143t-353 134t-139 347t147 357t363 144t353 -135q138 -135 138 -348zM713 1427l-316 -383h-45l176 383
h185zM1024 1427l-315 -383h-45l176 383h184z" />
    <glyph glyph-name="oslash.smallcap" horiz-adv-x="1157" 
d="M920 458q0 196 -91 312q-381 -653 -380 -655q72 -57 167 -58q133 0 218.5 102.5t85.5 298.5zM309 476q0 -196 92 -314l381 655q-76 59 -172 60q-131 0 -216 -102.5t-85 -298.5zM1114 473q0 -211 -147.5 -354.5t-356.5 -143.5q-121 0 -219 43l-74 -129h-73l90 158
q-104 61 -162.5 168t-58.5 244q0 211 147.5 355t355.5 144q117 0 224 -43l67 117h74l-84 -147q102 -61 159.5 -168t57.5 -244z" />
    <glyph glyph-name="oslashacute.smallcap" horiz-adv-x="1157" 
d="M920 458q0 196 -91 312q-381 -653 -380 -655q72 -57 167 -58q132 1 218 103t86 298zM309 476q0 -196 92 -314l381 655q-76 59 -172 60q-131 -1 -216 -103t-85 -298zM1114 473q0 -211 -147 -354t-357 -144q-121 0 -219 43l-74 -129h-73l90 158q-104 61 -162 167t-59 245
q0 211 147 355t356 144q117 0 224 -43l67 117h74l-84 -147q101 -61 159 -168t58 -244zM926 1427l-346 -383h-50l187 383h209z" />
    <glyph glyph-name="oe.smallcap" horiz-adv-x="1521" 
d="M723 74v774l-109 22q-168 0 -263 -105.5t-95 -286.5t108.5 -292.5t311.5 -111.5h47zM625 0q-244 0 -395.5 128t-151.5 331t148.5 342t414.5 139l743 -2v-303h-84l-32 133q-18 68 -66.5 83t-245.5 15h-69v-360h49q80 0 107.5 7t35.5 34l35 102h66l-33 -344h-64l-14 96
q-4 27 -27.5 35t-109.5 8h-45v-372h65q145 0 206 7t87.5 25.5t40.5 65.5l35 123h92l-29 -293h-759z" />
    <glyph glyph-name="thorn.smallcap" horiz-adv-x="995" 
d="M725 478q0 101 -65.5 161.5t-180.5 60.5h-76v-417q49 -15 130 -15t136.5 54.5t55.5 155.5zM918 490q0 -129 -116 -211t-280 -82q-59 0 -119 6v-80q0 -29 33 -35l99 -16l4 -72h-426l4 72l73 16q35 8 35 35v692q0 29 -35 35l-90 16l-4 72h434l-4 -72l-88 -16
q-35 -6 -35 -33v-41h127q182 0 285 -78.5t103 -207.5z" />
    <glyph glyph-name="racute.smallcap" horiz-adv-x="1032" 
d="M737 653q0 213 -245 207l-105 -2v-389l137 -14q213 20 213 198zM387 123q0 -27 35 -35l76 -16l4 -72h-406l4 72l76 16q33 8 33 35v692q0 27 -33 35l-76 16l-4 72h459q189 0 283 -70t94 -182q0 -195 -246 -264l193 -281q35 -51 86 -61l41 -8l4 -72h-252l-246 389l-125 2
v-268zM770 1427l-346 -383h-49l186 383h209z" />
    <glyph glyph-name="rcommaaccent.smallcap" horiz-adv-x="1032" 
d="M711 -266q0 -98 -70 -171t-164 -108l-39 33q57 20 98.5 64.5t41.5 90.5q0 77 -39.5 106.5t-92.5 45.5q0 45 31 73t89 28t101.5 -49.5t43.5 -112.5zM737 653q0 213 -245 207l-105 -2v-389l137 -14q213 20 213 198zM387 123q0 -27 35 -35l76 -16l4 -72h-406l4 72l76 16
q33 8 33 35v692q0 27 -33 35l-76 16l-4 72h459q188 0 282.5 -69.5t94.5 -182.5q0 -195 -246 -264l193 -281q35 -51 86 -61l41 -8l4 -72h-252l-246 389l-125 2v-268z" />
    <glyph glyph-name="rcaron.smallcap" horiz-adv-x="1032" 
d="M737 653q0 213 -245 207l-105 -2v-389l137 -14q213 20 213 198zM387 123q0 -27 35 -35l76 -16l4 -72h-406l4 72l76 16q33 8 33 35v692q0 27 -33 35l-76 16l-4 72h459q189 0 283 -70t94 -182q0 -195 -246 -264l193 -281q35 -51 86 -61l41 -8l4 -72h-252l-246 389l-125 2
v-268zM756 1427l-217 -383h-86l-217 383h55l203 -221h4l202 221h56z" />
    <glyph glyph-name="sacute.smallcap" horiz-adv-x="876" 
d="M788 265q0 -120 -102 -204t-262 -84t-315 43l-17 289h82l72 -215q82 -35 184 -35t153 44q50 43 50 107t-37 101t-95 58q-57 20 -112 39q-143 47 -216 107t-73 173t91 191t260 79q106 0 213 -20l81 23v-314h-77l-60 197q-86 33 -177 33t-136 -38q-45 -39 -45 -93t36 -91
t74 -52t156 -54q120 -39 196 -101t76 -183zM731 1427l-346 -383h-49l186 383h209z" />
    <glyph glyph-name="scircumflex.smallcap" horiz-adv-x="876" 
d="M788 265q0 -120 -102 -204t-262 -84t-315 43l-17 289h82l72 -215q82 -35 184 -35t153 44q50 43 50 107t-37 101t-95 58q-57 20 -112 39q-143 47 -216 107t-73 173t91 191t260 79q106 0 213 -20l81 23v-314h-77l-60 197q-86 33 -177 33t-136 -38q-45 -39 -45 -93t36 -91
t74 -52t156 -54q120 -39 196 -101t76 -183zM698 1044h-55l-203 222h-4l-203 -222h-55l217 383h86z" />
    <glyph glyph-name="scedilla.smallcap" horiz-adv-x="876" 
d="M678 -310q0 -95 -114.5 -162t-315.5 -81l-19 49q322 39 322 176q0 49 -45.5 79t-117.5 30t-138 -12v41l160 167h-2q-145 0 -299 43l-17 289h82l72 -215q82 -35 184 -35t152.5 43.5t50.5 107.5t-31 95t-72 50.5t-158 56t-194.5 100t-77.5 176.5t91.5 190.5t259.5 79.5
q106 0 213 -20l81 23v-314h-77l-60 197q-86 33 -177 33t-136 -38.5t-45 -92.5t36 -91t73.5 -52t156.5 -54t195.5 -101t76.5 -172t-74.5 -188t-205.5 -100l-98 -105q125 0 196.5 -49t71.5 -144z" />
    <glyph glyph-name="scommaaccent.smallcap" horiz-adv-x="876" 
d="M575 -266q0 -98 -69.5 -171t-163.5 -108l-39 33q57 20 98 64.5t41 90.5q0 78 -39 107t-92 45q0 45 31 73t89 28t101 -49.5t43 -112.5zM788 265q0 -120 -102 -204t-262 -84t-315 43l-17 289h82l72 -215q82 -35 184 -35t152.5 43.5t50.5 107.5t-31 95t-72 50.5t-158 56
t-194.5 100t-77.5 176.5t91.5 190.5t259.5 79.5q106 0 213 -20l81 23v-314h-77l-60 197q-86 33 -177 33t-136 -38.5t-45 -92.5t36 -91t73.5 -52t156.5 -54t195.5 -101.5t76.5 -182.5z" />
    <glyph glyph-name="scaron.smallcap" horiz-adv-x="876" 
d="M788 265q0 -120 -102 -204t-262 -84t-315 43l-17 289h82l72 -215q82 -35 184 -35t153 44q50 43 50 107t-37 101t-95 58q-57 20 -112 39q-143 47 -216 107t-73 173t91 191t260 79q106 0 213 -20l81 23v-314h-77l-60 197q-86 33 -177 33t-136 -38q-45 -39 -45 -93t36 -91
t74 -52t156 -54q120 -39 196 -101t76 -183zM670 1427l-217 -383h-86l-217 383h55l203 -221h4l202 221h56z" />
    <glyph glyph-name="tcommaaccent.smallcap" horiz-adv-x="1009" 
d="M641 -266q0 -98 -69.5 -171t-163.5 -108l-39 33q57 20 98 64.5t41 90.5q0 77 -38.5 105.5t-92.5 46.5q0 45 30.5 73t88.5 28t101.5 -49.5t43.5 -112.5zM946 616h-90l-33 132q-16 70 -56 90t-157 20h-16v-735q0 -29 35 -35l98 -16l4 -72h-450l4 72l96 16q35 6 35 35v735
h-13q-119 0 -159.5 -17.5t-59.5 -82.5l-39 -142h-94l27 322h868v-322z" />
    <glyph glyph-name="tcaron.smallcap" horiz-adv-x="1007" 
d="M946 616h-90l-33 132q-16 70 -56 90t-157 20h-16v-735q0 -29 35 -35l98 -16l4 -72h-450l4 72l96 16q35 6 35 35v735h-13q-119 0 -159 -17t-60 -83l-39 -142h-94l27 322h868v-322zM758 1427l-217 -383h-86l-217 383h55l203 -221h4l202 221h56z" />
    <glyph glyph-name="ugrave.smallcap" horiz-adv-x="1114" 
d="M930 553v-242q0 -156 -100 -248t-270 -92q-171 0 -270 86t-100 252v506q0 27 -34 35l-74 16l-6 72h405l-4 -72l-76 -16q-35 -8 -34 -35v-450q1 -145 67 -215t184 -70t180 67q62 68 62 199v207q0 239 -23 275q-11 17 -38 24l-76 14l-4 72h350l-4 -72l-72 -14
q-27 -6 -38 -22q-25 -38 -25 -277zM664 1044h-46l-346 383h201z" />
    <glyph glyph-name="uacute.smallcap" horiz-adv-x="1114" 
d="M930 553v-242q0 -156 -100 -248t-270 -92q-171 0 -270 86t-100 252v506q0 27 -34 35l-74 16l-6 72h405l-4 -72l-76 -16q-35 -8 -34 -35v-450q1 -145 67 -215t184 -70t180 67q62 68 62 199v207q0 239 -23 275q-11 17 -38 24l-76 14l-4 72h350l-4 -72l-72 -14
q-27 -6 -38 -22q-25 -38 -25 -277zM920 1427l-347 -383h-49l187 383h209z" />
    <glyph glyph-name="ucircumflex.smallcap" horiz-adv-x="1114" 
d="M930 553v-242q0 -156 -100 -248t-270 -92q-171 0 -270 86t-100 252v506q0 27 -34 35l-74 16l-6 72h405l-4 -72l-76 -16q-35 -8 -34 -35v-450q1 -145 67 -215t184 -70t180 67q62 68 62 199v207q0 239 -23 275q-11 17 -38 24l-76 14l-4 72h350l-4 -72l-72 -14
q-27 -6 -38 -22q-25 -38 -25 -277zM844 1044h-56l-202 222h-4l-203 -222h-55l217 383h86z" />
    <glyph glyph-name="udieresis.smallcap" horiz-adv-x="1114" 
d="M500 1243q0 -53 -33 -91t-88 -38t-88 38t-33 91t33 91t88 38t88 -38t33 -91zM909 1243q0 -53 -32.5 -91t-88 -38t-88 38t-32.5 91t32.5 91t88 38t88 -38t32.5 -91zM930 553v-242q0 -156 -99.5 -248t-270.5 -92t-270.5 86t-99.5 252v506q0 27 -34 35l-74 16l-6 72h405
l-4 -72l-76 -16q-35 -8 -34 -35v-450q0 -145 66.5 -215t184.5 -70t180 67.5t62 198.5v207q0 240 -17.5 266.5t-43.5 32.5l-76 14l-4 72h350l-4 -72l-72 -14q-27 -6 -45 -33t-18 -266z" />
    <glyph glyph-name="umacron.smallcap" horiz-adv-x="1114" 
d="M930 553v-242q0 -156 -100 -248t-270 -92q-171 0 -270 86t-100 252v506q0 27 -34 35l-74 16l-6 72h405l-4 -72l-76 -16q-35 -8 -34 -35v-450q1 -145 67 -215t184 -70t180 67q62 68 62 199v207q0 239 -23 275q-11 17 -38 24l-76 14l-4 72h350l-4 -72l-72 -14
q-27 -6 -38 -22q-25 -38 -25 -277zM858 1108h-516l6 84h504z" />
    <glyph glyph-name="ubreve.smallcap" horiz-adv-x="1114" 
d="M930 553v-242q0 -156 -100 -248t-270 -92q-171 0 -270 86t-100 252v506q0 27 -34 35l-74 16l-6 72h405l-4 -72l-76 -16q-35 -8 -34 -35v-450q1 -145 67 -215t184 -70t180 67q62 68 62 199v207q0 239 -23 275q-11 17 -38 24l-76 14l-4 72h350l-4 -72l-72 -14
q-27 -6 -38 -22q-25 -38 -25 -277zM582 1034q-54 0 -100 25t-72 57q-52 64 -83 197q-11 43 -26 114h45q80 -176 128 -229t98 -53t82 20t66 73t62 113q27 60 35 76h45q-45 -231 -110 -312t-170 -81z" />
    <glyph glyph-name="uring.smallcap" horiz-adv-x="1114" 
d="M930 553v-242q0 -156 -100 -248t-270 -92q-171 0 -270 86t-100 252v506q0 27 -34 35l-74 16l-6 72h405l-4 -72l-76 -16q-35 -8 -34 -35v-450q1 -145 67 -215t184 -70t180 67q62 68 62 199v207q0 239 -23 275q-11 17 -38 24l-76 14l-4 72h350l-4 -72l-72 -14
q-27 -6 -38 -22q-25 -38 -25 -277zM702 1243q0 53 -32 91q-33 38 -88 38t-88 -38t-33 -91t33 -91t88 -38t88 38q32 38 32 91zM764 1243q0 -78 -50 -131t-132 -53t-132 53t-51 131q1 78 51 131t132 53t132 -53t50 -131z" />
    <glyph glyph-name="uhungarumlaut.smallcap" horiz-adv-x="1114" 
d="M930 553v-242q0 -156 -100 -248t-270 -92q-171 0 -270 86t-100 252v506q0 27 -34 35l-74 16l-6 72h405l-4 -72l-76 -16q-35 -8 -34 -35v-450q1 -145 67 -215t184 -70t180 67q62 68 62 199v207q0 239 -23 275q-11 17 -38 24l-76 14l-4 72h350l-4 -72l-72 -14
q-27 -6 -38 -22q-25 -38 -25 -277zM709 1427l-316 -383h-45l176 383h185zM1020 1427l-315 -383h-46l177 383h184z" />
    <glyph glyph-name="uogonek.smallcap" horiz-adv-x="1114" 
d="M664 -444q-78 0 -131.5 50t-53.5 127t45 141.5t109 102.5q-31 -6 -70 -6q-174 0 -273.5 86t-99.5 252v506q0 27 -34 35l-74 16l-6 72h405l-4 -72l-76 -16q-35 -8 -34 -35v-450q0 -145 66.5 -215t184.5 -70t180 67.5t62 198.5v207q0 240 -17.5 266.5t-43.5 32.5l-76 14
l-4 72h350l-4 -72l-72 -14q-27 -6 -45 -33t-18 -266v-242q0 -203 -170 -313q-61 -41 -98 -98.5t-37 -108.5t26.5 -83t82.5 -32t97 41l21 -24q-6 -53 -58 -95t-130 -42z" />
    <glyph glyph-name="wcircumflex.smallcap" horiz-adv-x="1486" 
d="M1507 938l-4 -74l-35 -10q-53 -14 -86 -63t-90 -218l-196 -575h-150l-186 596h-21l-204 -596h-152l-283 819q-8 25 -55 33l-72 14l-4 74h441l-4 -74l-68 -10q-20 -4 -28 -8q-25 -12 18 -135l176 -518h20l172 518l-32 106q-8 25 -58 33l-67 14l-7 74h453l-6 -74l-66 -10
q-18 -2 -24 -11q-17 -25 16 -132l162 -518h20l121 380q70 213 52 257q-8 17 -37 24l-49 10l-5 74h338zM1042 1044h-55l-203 222h-4l-202 -222h-56l217 383h86z" />
    <glyph glyph-name="wgrave.smallcap" horiz-adv-x="1486" 
d="M1507 938l-4 -74l-35 -10q-53 -14 -86 -63t-90 -218l-196 -575h-150l-186 596h-21l-204 -596h-152l-283 819q-8 25 -55 33l-72 14l-4 74h441l-4 -74l-68 -10q-20 -4 -28 -8q-25 -12 18 -135l176 -518h20l172 518l-32 106q-8 25 -58 33l-67 14l-7 74h453l-6 -74l-66 -10
q-18 -2 -24 -11q-17 -25 16 -132l162 -518h20l121 380q70 213 52 257q-8 17 -37 24l-49 10l-5 74h338zM877 1044h-46l-346 383h201z" />
    <glyph glyph-name="wacute.smallcap" horiz-adv-x="1486" 
d="M1507 938l-4 -74l-35 -10q-53 -14 -86 -63t-90 -218l-196 -575h-150l-186 596h-21l-204 -596h-152l-283 819q-8 25 -55 33l-72 14l-4 74h441l-4 -74l-68 -10q-20 -4 -28 -8q-25 -12 18 -135l176 -518h20l172 518l-32 106q-8 25 -58 33l-67 14l-7 74h453l-6 -74l-66 -10
q-18 -2 -24 -11q-17 -25 16 -132l162 -518h20l121 380q70 213 52 257q-8 17 -37 24l-49 10l-5 74h338zM1065 1427l-346 -383h-49l186 383h209z" />
    <glyph glyph-name="wdieresis.smallcap" horiz-adv-x="1486" 
d="M688 1243q0 -53 -32.5 -91t-88 -38t-88.5 38t-33 91t33 91t88.5 38t88 -38t32.5 -91zM1098 1243q0 -53 -33 -91t-88 -38t-88 38t-33 91t33 91t88 38t88 -38t33 -91zM1507 938l-4 -74l-35 -10q-53 -14 -85.5 -63.5t-90.5 -217.5l-196 -575h-150l-186 596h-21l-204 -596
h-152l-283 819q-8 25 -55 33l-72 14l-4 74h441l-4 -74l-68 -10q-20 -4 -36.5 -11.5t26.5 -131.5l176 -518h20l172 518l-32 106q-8 25 -58 33l-67 14l-7 74h453l-6 -74l-66 -10q-18 -2 -29.5 -19t21.5 -124l162 -518h20l121 380q71 217 57 246t-42 35l-49 10l-5 74h338z" />
    <glyph glyph-name="yacute.smallcap" horiz-adv-x="915" 
d="M551 123q0 -29 35 -35l98 -16l4 -72h-452l4 72l98 16q35 6 35 35v250l-264 424q-27 41 -76 55l-47 12l-4 74h413l-4 -74l-55 -8q-72 -10 12 -160l141 -252h21l156 271q76 131 -7 143l-41 6l-4 74h318l-4 -74l-25 -8q-29 -10 -46 -20q-52 -30 -105 -121l-201 -332v-260z
M764 1427l-346 -383h-49l186 383h209z" />
    <glyph glyph-name="ycircumflex.smallcap" horiz-adv-x="915" 
d="M551 123q0 -29 35 -35l98 -16l4 -72h-452l4 72l98 16q35 6 35 35v250l-264 424q-27 41 -76 55l-47 12l-4 74h413l-4 -74l-55 -8q-72 -10 12 -160l141 -252h21l156 271q76 131 -7 143l-41 6l-4 74h318l-4 -74l-25 -8q-29 -10 -46 -20q-52 -30 -105 -121l-201 -332v-260z
M760 1044h-55l-203 222h-4l-203 -222h-55l217 383h86z" />
    <glyph glyph-name="ydieresis.smallcap" horiz-adv-x="915" 
d="M399 1243q0 -53 -32.5 -91t-88 -38t-88 38t-32.5 91t32.5 91t88 38t88 -38t32.5 -91zM809 1243q0 -53 -33 -91t-88 -38t-88 38t-33 91t33 91t88 38t88 -38t33 -91zM551 123q0 -29 35 -35l98 -16l4 -72h-452l4 72l98 16q35 6 35 35v250l-264 424q-27 41 -76 55l-47 12
l-4 74h413l-4 -74l-55 -8q-72 -10 12 -160l141 -252h21l156 271q76 131 -7 143l-41 6l-4 74h318l-4 -74l-25 -8q-29 -10 -64.5 -32t-86.5 -109l-201 -332v-260z" />
    <glyph glyph-name="zacute.smallcap" horiz-adv-x="966" 
d="M90 0v76l586 778v4h-193q-151 0 -193 -22t-67 -97l-30 -118h-87v317h775v-78l-590 -778v-4l198 2q204 0 245 43q19 20 34 67l35 117h96l-33 -307h-776zM836 1427l-347 -383h-49l187 383h209z" />
    <glyph glyph-name="zdotaccent.smallcap" horiz-adv-x="966" 
d="M90 0v76l586 778v4h-193q-151 0 -193 -22t-67 -97l-30 -118h-87v317h775v-78l-590 -778v-4l198 2q204 0 245 43q19 20 34 67l35 117h96l-33 -307h-776zM614 1243q0 -53 -32 -91t-88 -38q-55 0 -88 38t-33 91t33 91t88 38q56 0 88 -38t32 -91z" />
    <glyph glyph-name="zcaron.smallcap" horiz-adv-x="966" 
d="M90 0v76l586 778v4h-193q-151 0 -193 -22t-67 -97l-30 -118h-87v317h775v-78l-590 -778v-4l198 2q204 0 245 43q19 20 34 67l35 117h96l-33 -307h-776zM737 1427l-217 -383h-86l-217 383h55l203 -221h4l203 221h55z" />
    <glyph glyph-name="solidus" horiz-adv-x="401" 
d="M-401 -238l1091 1518h113l-1092 -1518h-112z" />
    <glyph glyph-name="plusinferior" horiz-adv-x="675" 
d="M381 61v-227h-66v227h-223l2 66h221v225h66v-225h219l4 -66h-223z" />
    <glyph glyph-name="minusinferior" horiz-adv-x="675" 
d="M614 59h-512l2 68h506z" />
    <glyph glyph-name="zero.lnum" 
d="M780 602q0 625 -272 625q-121 0 -192.5 -151.5t-71.5 -425.5t76.5 -439.5t216.5 -165.5q119 0 181 147.5t62 409.5zM963 651q0 -297 -122.5 -490.5t-318.5 -193.5t-328.5 179.5t-132.5 473.5t133.5 489.5t327.5 195.5t317.5 -178.5t123.5 -475.5z" />
    <glyph glyph-name="one.lnum" 
d="M459 156v981l-287 18l6 62l447 86v-1147q0 -39 47 -47l182 -29l6 -80h-672l7 80l217 29q47 14 47 47z" />
    <glyph glyph-name="two.lnum" 
d="M620.5 1093.5q-69.5 71.5 -186.5 71.5q-74 0 -156.5 -39t-148.5 -108l-20 49q174 240 428 240q156 0 256 -94.5t100 -225.5t-83.5 -252t-197.5 -225t-222.5 -200.5t-174.5 -157.5v-13h152q342 0 394 29t79 82l39 80h88l-64 -330h-821l-10 109q311 295 370.5 362.5
t153.5 179.5t94 241q0 130 -69.5 201.5z" />
    <glyph glyph-name="three.lnum" 
d="M903 383q0 -172 -170 -303t-387 -131q-133 0 -198.5 39t-65.5 92t29.5 81.5t78.5 28.5t96.5 -44t57.5 -103q18 -4 74 -4q127 0 215 79.5t88 201.5t-86.5 194t-196.5 72t-188 -41l-27 49q25 16 84.5 52t86 52.5t81.5 54t105.5 95t50.5 133.5t-62.5 133t-181.5 57
t-281 -133l-20 49q82 92 196.5 156t242.5 64t221.5 -66.5t93.5 -178.5t-92.5 -201t-272.5 -181v-2q66 16 115 16q135 0 224 -86t89 -225z" />
    <glyph glyph-name="four.lnum" 
d="M596 479v584h-10l-432 -584h442zM762 381v-381h-166v381h-541l-10 78l617 839h100v-819h223l-14 -98h-209z" />
    <glyph glyph-name="five.lnum" 
d="M885 412q0 -182 -147.5 -312.5t-352.5 -130.5q-143 0 -224 52.5t-81 130.5q0 43 29.5 71.5t78.5 28.5t94.5 -44t55.5 -104q66 -47 164 -47t162.5 79t64.5 190q0 154 -125 246t-438 141l129 567h596l-6 -170h-533l-61 -260q594 -78 594 -438z" />
    <glyph glyph-name="six.lnum" 
d="M788 347q0 134 -81.5 230.5t-207.5 96.5t-225 -99q-18 -18 -18 -157t81 -262t201 -123t185 90t65 224zM950 393q0 -193 -131 -309.5t-299 -116.5q-201 0 -319.5 140.5t-118.5 347.5q0 330 230.5 557t578.5 305l18 -64q-272 -86 -418.5 -231t-207.5 -367l2 -2
q133 119 294.5 119t266 -110.5t104.5 -268.5z" />
    <glyph glyph-name="seven.lnum" 
d="M844 1124h-307q-207 0 -251 -6t-63 -45l-57 -123h-68l41 330h832l10 -94l-598 -1200h-133l594 1128v10z" />
    <glyph glyph-name="eight.lnum" 
d="M797 260q0 65 -21.5 100t-34 54.5t-41 41t-45.5 35t-106.5 60t-120.5 59.5q-186 -137 -186 -305q0 -115 84 -192.5t206 -77.5t193.5 64.5t71.5 160.5zM739 977q0 102 -70.5 185t-174.5 83t-166 -64.5t-62 -156.5q0 -158 129 -221.5t195 -95.5q149 102 149 270zM940 314
q0 -137 -124 -242t-308 -105t-304 95.5t-120 238.5q0 113 81 199t210 137v4q-121 63 -187.5 135t-66.5 192t111.5 229.5t279.5 109.5t275.5 -93.5t107.5 -230.5q0 -195 -248 -305v-4q143 -72 218 -147.5t75 -212.5z" />
    <glyph glyph-name="nine.lnum" 
d="M766 856q0 139 -81 262t-201 123t-185.5 -90t-65.5 -224t82 -230.5t208 -96.5t225 98q18 19 18 158zM940 819q0 -330 -230.5 -557t-578.5 -305l-18 63q272 86 418.5 231.5t207.5 366.5l-2 3q-133 -119 -294.5 -119t-266 110.5t-104.5 268.5q0 193 131 309.5t315 116.5
t303 -143.5t119 -344.5z" />
    <glyph glyph-name="dollar.lnum" 
d="M287 1017q0 -87 55.5 -141.5t159.5 -97.5q8 27 19 71t37 138t42 156l16 61q-63 14 -104 15q-109 0 -167 -57.5t-58 -144.5zM791 299q0 104 -69.5 159t-197.5 107q-133 -492 -133 -493q221 -46 310.5 38.5t89.5 188.5zM125 958q0 141 105.5 245t312.5 106q72 0 100 -2
l55 204h80l-57 -213l61 -12l107 29v-408h-80l-59 254q-33 14 -60 23l-117 -434q244 -99 313.5 -185.5t69.5 -226.5t-129 -253.5t-344 -115.5q-61 0 -118 6l-84 -315h-80l88 326q-72 12 -162 45l-29 364h76l92 -280q14 -8 51 -21l136 500q-143 58 -210 113t-92.5 114.5
t-25.5 136.5z" />
    <glyph glyph-name="cent.lnum" 
d="M299 538q0 -142 49 -239q49 -98 135 -145l183 682q-45 27 -103 26q-115 0 -189 -91t-75 -233zM123 449q0 221 142 360t343 139q51 0 86 -8l97 360h79l-102 -380q63 -27 97 -72t34 -93t-28 -76t-60 -28q-70 0 -102 49l-39 -143q-39 -143 -76 -287l-39 -143q37 -10 74 -10
q143 0 239 108l41 -22q-57 -111 -152 -172t-210 -62q-23 0 -33 2l-84 -311h-80l88 326q-141 39 -228 168t-87 295z" />
    <glyph glyph-name="sterling.lnum" 
d="M713 1311q104 0 161.5 -42t57.5 -116q0 -45 -31 -75.5t-81 -30.5t-80.5 44t-20.5 111q-41 25 -90 25q-166 0 -166 -316q0 -42 8 -278h328l6 -84h-332q2 -29 2 -90q0 -143 -74 -262v-11q18 -4 131.5 -35.5t177.5 -31.5t105 41t92 153l45 -12q6 -131 -58.5 -230.5
t-197.5 -99.5q-53 0 -108.5 21.5t-80 37t-83.5 63.5t-64 50q-113 -137 -303 -178l-24 80q154 49 214 135t60 228l-2 141h-219l6 84h209l-6 198q0 221 114.5 350.5t303.5 129.5z" />
    <glyph glyph-name="yen.lnum" 
d="M616 541v-166h326l6 -84h-332v-148q0 -43 48 -49l151 -22l6 -72h-592l7 72l151 22q47 6 47 49v148h-317l6 84h311v166h-317l6 84h274l-293 493q-33 55 -108 74l-68 16l-6 72h514l-6 -72l-84 -12q-25 -4 -34 -15.5t-0.5 -46t73.5 -155.5l172 -322h10l193 387
q50 95 31 120.5t-54 33.5l-47 10l-6 72h408l-7 -72l-26 -8q-43 -14 -68.5 -25.5t-58.5 -44t-60 -81.5l-221 -424h291l6 -84h-332z" />
    <glyph glyph-name="Euro.lnum" 
d="M631 -31q-178 0 -304 128t-163 339h-137l6 84h119q-2 27 -2 68t4 98h-127l6 84h131q43 231 189.5 374.5t344.5 143.5q127 0 219.5 -50t92.5 -120q0 -45 -28 -73.5t-77 -28.5t-83 44t-46 105q-51 33 -114 33q-135 0 -221.5 -114.5t-108.5 -313.5h407l6 -84h-419v-45
q0 -66 6 -121h407l6 -84h-399q37 -162 128.5 -247t231.5 -85t267 142l41 -23q-129 -254 -383 -254z" />
    <glyph glyph-name="degree.lnum" 
d="M512 1237q-109 0 -174.5 -71.5t-65.5 -175.5t65.5 -176.5t174.5 -72.5t174.5 73t65.5 176t-65.5 175t-174.5 72zM852 989q0 -143 -93 -241.5t-246 -98.5t-247 98.5t-94 240.5t93 241.5t247 99.5t247 -98.5t93 -241.5z" />
    <glyph glyph-name="plus.lnum" 
d="M567 586v-379h-108v379h-375l6 108h369v377h108v-377h367l6 -108h-373z" />
    <glyph glyph-name="minus.lnum" 
d="M926 586h-830l6 108h818z" />
    <glyph glyph-name="plusminus.lnum" 
d="M567 647v-338h-108v338h-375l6 109h369v334h108v-334h367l6 -109h-373zM938 172h-852l6 109h840z" />
    <glyph glyph-name="logicalnot.lnum" 
d="M932 793v-435h-109v326h-731l6 109h834z" />
    <glyph glyph-name="equal.lnum" 
d="M920 408h-816l7 108h802zM913 764h-802l-7 108h816z" />
    <glyph glyph-name="notequal.lnum" 
d="M311 113l84 295h-291l7 108h315l70 248h-385l-7 108h422l78 275h107l-78 -275h287l-7 -108h-311l-70 -248h381l7 -108h-418l-84 -295h-107z" />
    <glyph glyph-name="approxequal.lnum" 
d="M337 479q-32 0 -50.5 -4t-45 -31.5t-44.5 -83.5h-95q20 109 81 168.5t131 59.5t199.5 -67.5t167.5 -67.5t56.5 4t45 31.5t44.5 82.5h95q-20 -109 -81 -168t-138 -59t-205.5 67.5t-160.5 67.5zM337 825q-32 0 -50.5 -4t-45 -31.5t-44.5 -82.5h-95q20 109 81 168t131 59
t199.5 -67.5t167.5 -67.5t56.5 4t45 31.5t44.5 83.5h95q-20 -109 -81 -168.5t-138 -59.5t-205.5 67.5t-160.5 67.5z" />
    <glyph glyph-name="multiply.lnum" 
d="M942 985l-346 -344l346 -346l-78 -76l-344 344l-344 -344l-78 76l346 346l-346 344l78 76l344 -344l344 344z" />
    <glyph glyph-name="divide.lnum" 
d="M618 926q0 -43 -30 -75t-76 -32q-45 0 -75 32t-29 75q0 42 30 74t74 32q46 0 76 -32t30 -74zM618 352q0 -42 -30 -74t-74 -32q-45 0 -76 32q-30 32 -30 74t30 74q31 31 76 31q44 0 74 -31t30 -74zM926 586h-830l6 108h818z" />
    <glyph glyph-name="less.lnum" 
d="M901 227l-823 387v54l823 387l27 -101l-664 -309v-6l664 -311z" />
    <glyph glyph-name="greater.lnum" 
d="M946 614l-823 -387l-27 101l664 311v6l-664 309l27 101l823 -387v-54z" />
    <glyph glyph-name="lessequal.lnum" 
d="M938 172h-852l6 109h840zM283 713l635 -264l-23 -99l-809 340v66l809 340l23 -99l-635 -264v-20z" />
    <glyph glyph-name="greaterequal.lnum" 
d="M938 172h-852l6 109h840zM741 713v20l-635 264l23 99l809 -340v-66l-809 -340l-23 99z" />
    <glyph glyph-name="bar.lnum" horiz-adv-x="512" 
d="M209 -258v1796h94v-1796h-94z" />
    <glyph glyph-name="brokenbar.lnum" horiz-adv-x="512" 
d="M209 -285v686h94v-686h-94zM209 629v686h94v-686h-94z" />
    <glyph glyph-name="bullet.lnum" 
d="M905 641q0 -45 -40.5 -146.5t-72.5 -133.5t-134.5 -73.5t-146.5 -41.5t-146.5 42t-132.5 74t-72.5 134t-42.5 146t43 145.5t73.5 132t133 72.5t146.5 42t145.5 -42t132 -72.5t72.5 -132t42 -146.5z" />
    <glyph glyph-name="asciitilde.lnum" 
d="M647 506q-74 0 -177 74.5t-134 74.5t-53.5 -28.5t-53.5 -104.5h-53q41 252 201 252q57 0 118.5 -37t111.5 -74.5t81 -37.5t53.5 28.5t53.5 104.5h53q-41 -252 -201 -252z" />
    <glyph glyph-name="quotesingle.lnum" horiz-adv-x="512" 
d="M457 1266l-310 -441h-77l221 498h2z" />
    <glyph glyph-name="quotedbl.lnum" 
d="M547 1266l-309 -441h-78l219 498h4zM879 1266l-310 -441h-75l219 498h2z" />
    <glyph glyph-name="parenleft.lnum" 
d="M295 639q0 178 53 342q90 278 314 480q90 83 178 126l53 -71q-182 -98 -337 -337t-155 -540t155 -540t337 -335l-53 -73q-177 87 -354 325q-85 117 -138 281t-53 342z" />
    <glyph glyph-name="parenright.lnum" 
d="M621 639q0 301 -155 540t-337 337l55 71q178 -87 352 -324q85 -118 138 -282t53 -342t-53 -342q-91 -281 -313 -481q-89 -82 -177 -125l-55 71q182 98 337 337t155 540z" />
    <glyph glyph-name="bracketleft.lnum" 
d="M848 -254h-520v1788h520v-90h-416v-1608h416v-90z" />
    <glyph glyph-name="bracketright.lnum" 
d="M176 -254v90h416v1608h-416v90h520v-1788h-520z" />
    <glyph glyph-name="asterisk.lnum" 
d="M858 948l-108 -61l-189 69l-20 -26l123 -156l-23 -125l-43 -12l-92 88l8 199l-31 8l-106 -160l-127 -20l-29 36l58 119l186 49v37l-186 54l-60 114l27 37l131 -18l106 -166l33 10l-4 199l88 86l45 -15l23 -125l-127 -155l20 -27l189 68l108 -62v-45z" />
    <glyph glyph-name="braceleft.lnum" 
d="M387 27q0 92 60.5 210.5t60.5 184.5q0 145 -268 158l-23 59l23 57q268 8 268 158q0 66 -60.5 185.5t-60.5 211.5q0 137 104.5 218t294.5 92v-72q-117 -10 -184 -63.5t-67 -123.5t60 -190.5t60 -215.5t-86 -170t-176 -77v-24q90 -4 176 -78t86 -168t-60 -212.5t-60 -188.5
t67.5 -126.5t183.5 -66.5v-68q-188 10 -293.5 91t-105.5 219z" />
    <glyph glyph-name="braceright.lnum" 
d="M516 422q0 -66 60.5 -184.5t60.5 -210.5q0 -137 -105.5 -218t-293.5 -92v68q117 10 184 66.5t67 126.5t-60 188.5t-60 212.5t86 168t176 78v24q-90 2 -176 77t-86 170t60 215.5t60 190.5t-67.5 123.5t-183.5 63.5v72q190 -10 294.5 -91t104.5 -219q0 -92 -60.5 -211.5
t-60.5 -185.5q0 -150 268 -158l23 -57l-23 -59q-268 -12 -268 -158z" />
    <glyph glyph-name="section.lnum" 
d="M772 457q0 47 -30 90t-60 69q-62 52 -180 125q-117 73 -166 127q-35 -20 -61 -58q-25 -38 -25 -80t29 -85q48 -71 201 -168t208 -153q84 51 84 133zM891 537q0 -85 -49 -151t-121 -103q49 -70 49 -161t-97 -173t-233 -82q-86 0 -154 41t-69 110q0 45 29 74t71 29
q102 0 138 -158q33 -12 71 -12q119 0 119 137q0 47 -39 96t-80 79q-40 29 -158 105t-165 128q-70 76 -70 161t48 151t120 99q-49 74 -49 158t94 164t219 80q86 0 155 -41t68 -111q0 -45 -28 -74t-72 -28q-102 0 -137 157q-87 34 -141 -19q-33 -32 -33 -84t40 -100t81 -78
q40 -29 158 -105t176 -140t59 -149z" />
    <glyph glyph-name="paragraph.lnum" 
d="M840 -66h-105v613q-98 -27 -180 -27q-233 0 -354 106t-121 282t123 274t319 98h318v-1346z" />
    <glyph glyph-name="period.lnum" horiz-adv-x="512" 
d="M393 106.5q0 -55.5 -39 -96.5t-97 -41t-98 41t-40 96.5t40 94.5t99 39t97 -39t38 -94.5z" />
    <glyph glyph-name="comma.lnum" horiz-adv-x="512" 
d="M434 47q0 -117 -81 -213t-212 -194l-53 32q70 51 123 123t53 144t-49 109t-80 50q-32 14 -33 17q0 53 39 89t107 36t127 -56t59 -137z" />
    <glyph glyph-name="colon.lnum" horiz-adv-x="512" 
d="M395 106q0 -55 -39 -96t-97 -41t-98 41t-40 96q0 54 40 94t99 40t97 -40t38 -94zM395 733q0 -55 -39 -96t-97 -41t-98 41t-40 96t40 94t99 39t97 -39t38 -94z" />
    <glyph glyph-name="semicolon.lnum" horiz-adv-x="512" 
d="M434 47q0 -117 -81 -213t-212 -194l-53 32q70 51 123 123t53 144t-49 109t-80 50q-32 14 -33 17q0 53 39 89t107 36t127 -56t59 -137zM395 733q0 -55 -39 -96t-97 -41t-98 41t-40 96t40 94t99 39t97 -39t38 -94z" />
    <glyph glyph-name="periodcentered.lnum" horiz-adv-x="512" 
d="M395 467q0 -55 -39 -96t-97 -41t-98 41t-40 96t40 94t99 39t97 -39t38 -94z" />
    <glyph glyph-name="hyphen.lnum" horiz-adv-x="671" 
d="M608 586h-540l6 108h528z" />
    <glyph glyph-name="endash.lnum" 
d="M942 586h-856l6 108h844z" />
    <glyph glyph-name="tribol_north.orn" horiz-adv-x="1536" 
d="M1028 281l-260 534l-260 -534h520zM180 92l590 1104l586 -1104h-1176z" />
    <glyph glyph-name="tribol_east.orn" horiz-adv-x="1536" 
d="M485 381l535 260l-535 260v-520zM297 1229l1104 -590l-1104 -586v1176z" />
    <glyph glyph-name="tribol_south.orn" horiz-adv-x="1536" 
d="M1028 1008h-520l260 -535zM180 1196h1176l-586 -1104z" />
    <glyph glyph-name="tribol_west.orn" horiz-adv-x="1536" 
d="M1049 381v520l-535 -260zM1237 1229v-1176l-1104 586z" />
    <glyph glyph-name="trisol_north.orn" horiz-adv-x="1536" 
d="M180 92l590 1104l586 -1104h-1176z" />
    <glyph glyph-name="trisol_east.orn" horiz-adv-x="1536" 
d="M297 1229l1104 -590l-1104 -586v1176z" />
    <glyph glyph-name="trisol_south.orn" horiz-adv-x="1536" 
d="M180 1196h1176l-586 -1104z" />
    <glyph glyph-name="trisol_west.orn" horiz-adv-x="1536" 
d="M1237 1229v-1176l-1104 586z" />
    </font>
</defs>
</svg>
